<?xml version="1.0" encoding="utf-8"?>
<!-- Generator: Adobe Illustrator 19.0.0, SVG Export Plug-In . SVG Version: 6.00 Build 0)  -->
<svg version="1.1" id="Layer_1" xmlns="http://www.w3.org/2000/svg" xmlns:xlink="http://www.w3.org/1999/xlink" x="0px" y="0px"
	 viewBox="0 0 1958 3508" style="enable-background:new 0 0 1958 3508;" xml:space="preserve">
<style type="text/css">
	.st0{opacity:5.000000e-002;fill:#754698;}
	.st1{fill:#774395;}
	.st2{opacity:0.6;fill:#2A2D30;}
	.st3{fill:#7F3F98;}
	.st4{opacity:0.5;}
	.st5{fill:#2A2D30;}
	.st6{fill:#468ECC;}
	.st7{fill:#7B4997;}
	.st8{fill:#FF6C36;}
	.st9{fill:#008987;}
	.st10{fill:#DE4352;}
	.st11{fill:#EDAA00;}
</style>
<rect id="XMLID_22_" x="-2.4" class="st0" width="1959.2" height="3511.2"/>
<g id="XMLID_56_">
	<g id="XMLID_21_">
		<path id="XMLID_102_" class="st1" d="M606.8,2098.1l16.3,53.2h-12.5l-2.9-10.4h-17.8l-2.9,10.4h-12.5l16.2-53.2H606.8z
			 M598.8,2108.7l-6.2,22.3h12.2L598.8,2108.7z"/>
		<path id="XMLID_122_" class="st1" d="M627.9,2137.8V2126c0-9.6,4.4-14.4,13.1-14.4c3.5,0,6.8,0.4,9.9,1.1v-16.2l11.5-1.6v56.4h-9
			l-1.2-3.1c-4.1,2.6-8,3.9-12,3.9c-4,0-7-1.2-9.2-3.6C628.9,2146.1,627.9,2142.5,627.9,2137.8z M650.9,2139.1v-16.5
			c-2.7-0.6-5.1-1-7.4-1c-2.8,0-4.2,1.5-4.2,4.4v11.8c0,2.9,1.4,4.4,4.2,4.4C646.1,2142.2,648.6,2141.2,650.9,2139.1z"/>
		<path id="XMLID_125_" class="st1" d="M708,2112.5l-12.2,38.9H681l-12.2-38.9h11.7l7.9,27.6l7.9-27.6H708z"/>
		<path id="XMLID_127_" class="st1" d="M725.9,2107.6h-11.5v-12.2h11.5V2107.6z M725.9,2151.4h-11.5v-38.9h11.5V2151.4z"/>
		<path id="XMLID_130_" class="st1" d="M763.7,2139.8c0,4.2-1.1,7.3-3.2,9.4c-2.2,2-5.9,3-11.2,3c-4.8,0-9.5-0.8-14.1-2.3l1.8-8.6
			c3.9,1.2,7.8,1.8,11.7,1.8c1.7,0,2.7-0.2,3.2-0.7c0.5-0.5,0.8-1.3,0.8-2.6c0-1.3-0.3-2.1-0.9-2.6c-0.6-0.4-2.4-1-5.4-1.8
			c-4.5-1.1-7.3-2.5-8.5-4c-1.2-1.5-1.8-4.3-1.8-8.2c0-4.3,1.1-7.3,3.2-9c2.1-1.8,6-2.6,11.7-2.6c4.5,0,8.5,0.4,11.8,1.3l-1,9
			c-4-0.7-7.6-1.1-10.7-1.1c-1.6,0-2.7,0.2-3.3,0.6c-0.6,0.4-0.9,1.1-0.9,2c0,1.2,0.3,2,0.8,2.4c0.5,0.4,1.9,0.8,4.2,1.4
			c2.8,0.6,5,1.3,6.6,1.9c1.5,0.6,2.7,1.5,3.6,2.5c0.8,1.1,1.3,2.2,1.5,3.3C763.6,2135.9,763.7,2137.6,763.7,2139.8z"/>
		<path id="XMLID_132_" class="st1" d="M801.6,2147.7c-2.7,3-7.2,4.4-13.5,4.4c-6.3,0-10.9-1.5-13.5-4.4c-2.7-3-4-6.7-4-11.3v-9
			c0-4.6,1.3-8.4,4-11.3c2.7-3,7.2-4.4,13.5-4.4c6.3,0,10.9,1.5,13.5,4.4c2.7,3,4,6.7,4,11.3v9
			C805.6,2141,804.3,2144.8,801.6,2147.7z M788.1,2142.5c4,0,6.1-1.9,6.1-5.8v-9.7c0-3.8-2-5.8-6.1-5.8c-4.1,0-6.1,1.9-6.1,5.8v9.7
			C782,2140.6,784,2142.5,788.1,2142.5z"/>
		<path id="XMLID_135_" class="st1" d="M836.7,2122.5c-4.7,1.9-8.1,3.6-10.3,5.1v23.7h-11.5v-38.9h9.6l0.8,3.8
			c1.3-0.9,3-1.7,5.1-2.7c2.1-0.9,3.9-1.6,5.4-1.9L836.7,2122.5z"/>
		<path id="XMLID_137_" class="st1" d="M869.8,2139.8c0,4.2-1.1,7.3-3.2,9.4c-2.2,2-5.9,3-11.2,3c-4.8,0-9.5-0.8-14.1-2.3l1.8-8.6
			c3.9,1.2,7.8,1.8,11.7,1.8c1.7,0,2.7-0.2,3.2-0.7c0.5-0.5,0.8-1.3,0.8-2.6c0-1.3-0.3-2.1-0.9-2.6c-0.6-0.4-2.4-1-5.4-1.8
			c-4.5-1.1-7.3-2.5-8.5-4c-1.2-1.5-1.8-4.3-1.8-8.2c0-4.3,1.1-7.3,3.2-9c2.1-1.8,6-2.6,11.7-2.6c4.5,0,8.5,0.4,11.8,1.3l-1,9
			c-4-0.7-7.6-1.1-10.7-1.1c-1.6,0-2.7,0.2-3.3,0.6c-0.6,0.4-0.9,1.1-0.9,2c0,1.2,0.3,2,0.8,2.4c0.5,0.4,1.9,0.8,4.2,1.4
			c2.8,0.6,5,1.3,6.6,1.9c1.5,0.6,2.7,1.5,3.6,2.5c0.8,1.1,1.3,2.2,1.5,3.3C869.7,2135.9,869.8,2137.6,869.8,2139.8z"/>
		<path id="XMLID_139_" class="st1" d="M926.5,2151.4h-9.4l-0.8-2.5c-3.9,2.2-7.6,3.3-11.1,3.3c-3.4,0-6-1.1-7.6-3.3
			c-1.7-2.2-2.5-5-2.5-8.6c0-3.9,0.9-6.7,2.8-8.4c1.8-1.7,4.8-2.6,8.8-2.6h8.4v-3c0-2.1-0.4-3.6-1.2-4.3c-0.8-0.7-2.7-1.1-5.6-1.1
			c-3.2,0-6.7,0.4-10.6,1.1l-1.5-8.6c4.2-1.3,8.9-1.9,14-1.9c6.6,0,10.9,1.1,13.1,3.2c2.2,2.2,3.3,6,3.3,11.6V2151.4z M915,2141.9
			v-4.5h-5.5c-1.3,0-2.2,0.2-2.7,0.6c-0.5,0.4-0.8,1.1-0.8,2.2c0,1.1,0.2,1.8,0.7,2.3c0.5,0.5,1.3,0.7,2.4,0.7
			C911.1,2143.2,913,2142.8,915,2141.9z"/>
		<path id="XMLID_142_" class="st1" d="M958.7,2122.5c-4.7,1.9-8.1,3.6-10.3,5.1v23.7h-11.5v-38.9h9.6l0.8,3.8
			c1.3-0.9,3-1.7,5.1-2.7c2.1-0.9,3.9-1.6,5.4-1.9L958.7,2122.5z"/>
		<path id="XMLID_144_" class="st1" d="M995.7,2135.9h-20.9v1.1c0,2.2,0.5,3.7,1.5,4.5c1,0.8,2.8,1.2,5.5,1.2
			c4.2,0,8.2-0.6,11.8-1.7l1.7,8.6c-4.5,1.7-9.4,2.5-14.6,2.5c-11.6,0-17.4-5.3-17.4-15.8v-9.1c0-10.4,5.6-15.6,16.7-15.6
			c3.1,0,5.7,0.4,7.9,1.3c2.2,0.9,3.8,2.1,4.9,3.7c1.1,1.6,1.9,3.3,2.3,5.1c0.5,1.8,0.7,3.8,0.7,6.1V2135.9z M984.8,2127.3v-1.7
			c0-1.5-0.3-2.8-1-3.6c-0.7-0.9-1.9-1.3-3.8-1.3c-3.5,0-5.3,1.7-5.3,5v1.7H984.8z"/>
		<path id="XMLID_147_" class="st1" d="M1020.5,2137.8V2126c0-9.6,4.4-14.4,13.1-14.4c3.5,0,6.8,0.4,9.9,1.1v-16.2l11.5-1.6v56.4h-9
			l-1.2-3.1c-4,2.6-8,3.9-12,3.9c-4,0-7-1.2-9.2-3.6C1021.5,2146.1,1020.5,2142.5,1020.5,2137.8z M1043.5,2139.1v-16.5
			c-2.7-0.6-5.1-1-7.4-1c-2.8,0-4.2,1.5-4.2,4.4v11.8c0,2.9,1.4,4.4,4.2,4.4C1038.7,2142.2,1041.2,2141.2,1043.5,2139.1z"/>
		<path id="XMLID_150_" class="st1" d="M1096.7,2135.9h-20.9v1.1c0,2.2,0.5,3.7,1.5,4.5c1,0.8,2.8,1.2,5.5,1.2
			c4.2,0,8.2-0.6,11.8-1.7l1.7,8.6c-4.5,1.7-9.4,2.5-14.6,2.5c-11.6,0-17.4-5.3-17.4-15.8v-9.1c0-10.4,5.6-15.6,16.7-15.6
			c3.1,0,5.7,0.4,7.9,1.3c2.2,0.9,3.8,2.1,4.9,3.7c1.1,1.6,1.9,3.3,2.3,5.1c0.5,1.8,0.7,3.8,0.7,6.1V2135.9z M1085.8,2127.3v-1.7
			c0-1.5-0.3-2.8-1-3.6c-0.7-0.9-1.9-1.3-3.8-1.3c-3.5,0-5.3,1.7-5.3,5v1.7H1085.8z"/>
		<path id="XMLID_153_" class="st1" d="M1103.9,2137.8V2126c0-9.6,4.4-14.4,13.1-14.4c3.5,0,6.8,0.4,9.9,1.1v-16.2l11.5-1.6v56.4h-9
			l-1.2-3.1c-4.1,2.6-8,3.9-12,3.9c-4,0-7-1.2-9.2-3.6C1104.9,2146.1,1103.9,2142.5,1103.9,2137.8z M1126.9,2139.1v-16.5
			c-2.7-0.6-5.1-1-7.4-1c-2.8,0-4.2,1.5-4.2,4.4v11.8c0,2.9,1.4,4.4,4.2,4.4C1122.1,2142.2,1124.5,2141.2,1126.9,2139.1z"/>
		<path id="XMLID_156_" class="st1" d="M1161.1,2107.6h-11.5v-12.2h11.5V2107.6z M1161.1,2151.4h-11.5v-38.9h11.5V2151.4z"/>
		<path id="XMLID_159_" class="st1" d="M1181.4,2127.3v9.2c0,2,0.5,3.5,1.4,4.4c1,0.9,2.6,1.4,4.9,1.4c2.6,0,5.2-0.3,8-1l1.4,9.6
			c-3.6,0.8-6.7,1.2-9.4,1.2c-6.3,0-10.8-1.3-13.6-3.8c-2.8-2.5-4.2-6.5-4.2-12.1v-8.9c0-5.5,1.4-9.6,4.2-12.1
			c2.8-2.5,7.3-3.8,13.6-3.8c2.7,0,5.9,0.4,9.4,1.2l-1.4,9.6c-2.7-0.6-5.4-1-8-1c-2.3,0-3.9,0.5-4.9,1.4
			C1181.9,2123.8,1181.4,2125.3,1181.4,2127.3z"/>
		<path id="XMLID_161_" class="st1" d="M1235.8,2151.4h-9.4l-0.8-2.5c-3.9,2.2-7.6,3.3-11.1,3.3c-3.4,0-6-1.1-7.6-3.3
			c-1.7-2.2-2.5-5-2.5-8.6c0-3.9,0.9-6.7,2.8-8.4c1.8-1.7,4.8-2.6,8.8-2.6h8.4v-3c0-2.1-0.4-3.6-1.2-4.3c-0.8-0.7-2.7-1.1-5.6-1.1
			c-3.2,0-6.7,0.4-10.6,1.1l-1.5-8.6c4.2-1.3,8.9-1.9,14-1.9c6.6,0,10.9,1.1,13.1,3.2c2.2,2.2,3.3,6,3.3,11.6V2151.4z
			 M1224.3,2141.9v-4.5h-5.5c-1.3,0-2.2,0.2-2.7,0.6c-0.5,0.4-0.8,1.1-0.8,2.2c0,1.1,0.2,1.8,0.7,2.3s1.3,0.7,2.4,0.7
			C1220.4,2143.2,1222.3,2142.8,1224.3,2141.9z"/>
		<path id="XMLID_164_" class="st1" d="M1267.5,2150.7c-2.8,1-5.5,1.4-8.3,1.4c-7.8,0-11.8-3.3-11.8-10v-20.5h-5.3v-9.3h5.3v-9.4
			l11.5-1.6v11h8.9l-0.6,9.3h-8.2v18.9c0,1.4,0.8,2.2,2.4,2.2c1.8,0,3.4-0.2,4.8-0.7L1267.5,2150.7z"/>
		<path id="XMLID_166_" class="st1" d="M1306.2,2135.9h-20.9v1.1c0,2.2,0.5,3.7,1.5,4.5c1,0.8,2.9,1.2,5.5,1.2
			c4.2,0,8.2-0.6,11.8-1.7l1.7,8.6c-4.5,1.7-9.4,2.5-14.6,2.5c-11.6,0-17.4-5.3-17.4-15.8v-9.1c0-10.4,5.6-15.6,16.7-15.6
			c3.1,0,5.7,0.4,7.9,1.3c2.2,0.9,3.8,2.1,4.9,3.7c1.1,1.6,1.9,3.3,2.3,5.1c0.5,1.8,0.7,3.8,0.7,6.1V2135.9z M1295.4,2127.3v-1.7
			c0-1.5-0.3-2.8-1-3.6c-0.7-0.9-1.9-1.3-3.8-1.3c-3.5,0-5.3,1.7-5.3,5v1.7H1295.4z"/>
		<path id="XMLID_169_" class="st1" d="M1313.4,2137.8V2126c0-9.6,4.4-14.4,13.1-14.4c3.5,0,6.8,0.4,9.9,1.1v-16.2l11.5-1.6v56.4h-9
			l-1.2-3.1c-4,2.6-8,3.9-12,3.9c-4,0-7-1.2-9.2-3.6C1314.5,2146.1,1313.4,2142.5,1313.4,2137.8z M1336.4,2139.1v-16.5
			c-2.7-0.6-5.1-1-7.4-1c-2.8,0-4.2,1.5-4.2,4.4v11.8c0,2.9,1.4,4.4,4.2,4.4C1331.6,2142.2,1334.1,2141.2,1336.4,2139.1z"/>
		<path id="XMLID_172_" class="st1" d="M1370.6,2152.2l-7,11.1l-5.2-3l4.6-9h-3.8v-13.3h11.5V2152.2z"/>
		<path id="XMLID_174_" class="st1" d="M495.5,2243.7c-2.7,3-7.2,4.4-13.5,4.4c-6.3,0-10.9-1.5-13.5-4.4c-2.7-3-4-6.7-4-11.3v-9
			c0-4.6,1.3-8.4,4-11.3c2.7-3,7.2-4.4,13.5-4.4c6.3,0,10.9,1.5,13.5,4.4c2.7,3,4,6.7,4,11.3v9
			C499.5,2236.9,498.2,2240.7,495.5,2243.7z M481.9,2238.4c4,0,6.1-1.9,6.1-5.8v-9.7c0-3.8-2-5.8-6.1-5.8c-4.1,0-6.1,1.9-6.1,5.8
			v9.7C475.9,2236.5,477.9,2238.4,481.9,2238.4z"/>
		<path id="XMLID_177_" class="st1" d="M543.2,2231.7c0,2.6-0.2,4.7-0.7,6.5c-0.5,1.8-1.3,3.5-2.6,5.1s-3.2,2.8-5.8,3.6
			c-2.6,0.8-5.8,1.2-9.7,1.2c-5.4,0-10.7-0.4-15.8-1.3v-54.4l11.5-1.6v18.9c3.7-1.4,7.4-2.2,11-2.2c8,0,12,4.7,12,14.1V2231.7z
			 M520.2,2219.7v18.2c1.1,0.1,2.7,0.2,4.7,0.2c2.7,0,4.5-0.5,5.4-1.6c0.9-1.1,1.4-2.6,1.4-4.7v-10.1c0-2.8-1.4-4.2-4.2-4.2
			C525.4,2217.6,523,2218.3,520.2,2219.7z"/>
		<path id="XMLID_180_" class="st1" d="M579,2235.7c0,4.2-1.1,7.3-3.2,9.4c-2.2,2-5.9,3-11.2,3c-4.8,0-9.5-0.8-14.1-2.3l1.8-8.6
			c3.9,1.2,7.8,1.8,11.7,1.8c1.7,0,2.7-0.2,3.2-0.7c0.5-0.5,0.8-1.3,0.8-2.6c0-1.3-0.3-2.1-0.9-2.6c-0.6-0.4-2.4-1-5.4-1.8
			c-4.5-1.1-7.3-2.5-8.5-4c-1.2-1.5-1.8-4.3-1.8-8.2c0-4.3,1.1-7.3,3.2-9c2.1-1.8,6-2.6,11.7-2.6c4.5,0,8.5,0.4,11.8,1.3l-1,9
			c-4-0.7-7.6-1.1-10.7-1.1c-1.6,0-2.7,0.2-3.3,0.6c-0.6,0.4-0.9,1.1-0.9,2c0,1.2,0.3,2,0.8,2.4c0.5,0.4,1.9,0.8,4.2,1.4
			c2.8,0.6,5,1.3,6.6,1.9c1.5,0.6,2.7,1.5,3.6,2.5c0.8,1.1,1.3,2.2,1.5,3.3C578.9,2231.9,579,2233.5,579,2235.7z"/>
		<path id="XMLID_182_" class="st1" d="M618.3,2231.9h-20.9v1.1c0,2.2,0.5,3.7,1.5,4.5c1,0.8,2.8,1.2,5.5,1.2
			c4.2,0,8.2-0.6,11.8-1.7l1.7,8.6c-4.5,1.7-9.4,2.5-14.6,2.5c-11.6,0-17.4-5.3-17.4-15.8v-9.1c0-10.4,5.6-15.6,16.7-15.6
			c3.1,0,5.7,0.4,7.9,1.3c2.2,0.9,3.8,2.1,4.9,3.7c1.1,1.6,1.9,3.3,2.3,5.1c0.5,1.8,0.7,3.8,0.7,6.1V2231.9z M607.4,2223.2v-1.7
			c0-1.5-0.3-2.8-1-3.6c-0.7-0.9-1.9-1.3-3.8-1.3c-3.5,0-5.3,1.7-5.3,5v1.7H607.4z"/>
		<path id="XMLID_185_" class="st1" d="M649.3,2218.4c-4.7,1.9-8.1,3.6-10.3,5.1v23.7h-11.5v-38.9h9.6l0.8,3.8
			c1.3-0.9,3-1.7,5.1-2.7c2.1-0.9,3.9-1.6,5.4-1.9L649.3,2218.4z"/>
		<path id="XMLID_187_" class="st1" d="M691.4,2208.4l-12.2,38.9h-14.7l-12.2-38.9h11.7l7.9,27.6l7.9-27.6H691.4z"/>
		<path id="XMLID_189_" class="st1" d="M728.1,2247.3h-9.4l-0.8-2.5c-3.9,2.2-7.6,3.3-11.1,3.3c-3.4,0-6-1.1-7.6-3.3
			c-1.7-2.2-2.5-5-2.5-8.6c0-3.9,0.9-6.7,2.8-8.4c1.8-1.7,4.8-2.6,8.8-2.6h8.4v-3c0-2.1-0.4-3.6-1.2-4.3c-0.8-0.7-2.7-1.1-5.6-1.1
			c-3.2,0-6.7,0.4-10.6,1.1l-1.5-8.6c4.2-1.3,8.9-1.9,14-1.9c6.6,0,10.9,1.1,13.1,3.2c2.2,2.2,3.3,6,3.3,11.6V2247.3z M716.6,2237.8
			v-4.5h-5.5c-1.3,0-2.2,0.2-2.7,0.6c-0.5,0.4-0.8,1.1-0.8,2.2c0,1.1,0.2,1.8,0.7,2.3c0.5,0.5,1.3,0.7,2.4,0.7
			C712.7,2239.1,714.6,2238.7,716.6,2237.8z"/>
		<path id="XMLID_192_" class="st1" d="M772.7,2247.3h-11.5v-25.7c0-1.9-0.9-2.8-2.8-2.8c-2.2,0-5,0.9-8.4,2.8v25.7h-11.5v-38.9h8.6
			l1.2,3c5.2-2.5,10.3-3.8,15.5-3.8c6,0,9,4.2,9,12.5V2247.3z"/>
		<path id="XMLID_194_" class="st1" d="M804.8,2246.7c-2.8,1-5.5,1.4-8.3,1.4c-7.8,0-11.8-3.3-11.8-10v-20.5h-5.3v-9.3h5.3v-9.4
			l11.5-1.6v11h8.9l-0.6,9.3h-8.2v18.9c0,1.4,0.8,2.2,2.4,2.2c1.8,0,3.4-0.2,4.8-0.7L804.8,2246.7z"/>
		<path id="XMLID_196_" class="st1" d="M824.5,2248.1l-7,11.1l-5.2-3l4.6-9H813V2234h11.5V2248.1z"/>
		<path id="XMLID_198_" class="st1" d="M883.6,2247.3h-9.4l-0.8-2.5c-3.9,2.2-7.6,3.3-11.1,3.3c-3.4,0-6-1.1-7.6-3.3
			c-1.7-2.2-2.5-5-2.5-8.6c0-3.9,0.9-6.7,2.8-8.4c1.8-1.7,4.8-2.6,8.8-2.6h8.4v-3c0-2.1-0.4-3.6-1.2-4.3c-0.8-0.7-2.7-1.1-5.6-1.1
			c-3.2,0-6.7,0.4-10.6,1.1l-1.5-8.6c4.2-1.3,8.9-1.9,14-1.9c6.6,0,10.9,1.1,13.1,3.2c2.2,2.2,3.3,6,3.3,11.6V2247.3z M872.1,2237.8
			v-4.5h-5.5c-1.3,0-2.2,0.2-2.7,0.6c-0.5,0.4-0.8,1.1-0.8,2.2c0,1.1,0.2,1.8,0.7,2.3c0.5,0.5,1.3,0.7,2.4,0.7
			C868.1,2239.1,870.1,2238.7,872.1,2237.8z"/>
		<path id="XMLID_201_" class="st1" d="M928.2,2247.3h-11.5v-25.7c0-1.9-0.9-2.8-2.8-2.8c-2.2,0-5,0.9-8.4,2.8v25.7H894v-38.9h8.6
			l1.2,3c5.2-2.5,10.3-3.8,15.5-3.8c6,0,9,4.2,9,12.5V2247.3z"/>
		<path id="XMLID_203_" class="st1" d="M937,2233.7V2222c0-9.6,4.4-14.4,13.1-14.4c3.5,0,6.8,0.4,9.9,1.1v-16.2l11.5-1.6v56.4h-9
			l-1.2-3.1c-4.1,2.6-8,3.9-12,3.9c-4,0-7-1.2-9.2-3.6C938,2242,937,2238.4,937,2233.7z M960,2235.1v-16.5c-2.7-0.6-5.1-1-7.4-1
			c-2.8,0-4.2,1.5-4.2,4.4v11.8c0,2.9,1.4,4.4,4.2,4.4C955.2,2238.1,957.6,2237.1,960,2235.1z"/>
		<path id="XMLID_206_" class="st1" d="M1009.4,2223.2v9.2c0,2,0.5,3.5,1.4,4.4c1,0.9,2.6,1.4,4.9,1.4c2.6,0,5.2-0.3,8-1l1.4,9.6
			c-3.6,0.8-6.7,1.2-9.4,1.2c-6.3,0-10.8-1.3-13.6-3.8s-4.2-6.5-4.2-12.1v-8.9c0-5.5,1.4-9.6,4.2-12.1c2.8-2.5,7.3-3.8,13.6-3.8
			c2.7,0,5.9,0.4,9.4,1.2l-1.4,9.6c-2.7-0.6-5.4-1-8-1c-2.3,0-3.9,0.5-4.9,1.4C1009.9,2219.7,1009.4,2221.2,1009.4,2223.2z"/>
		<path id="XMLID_208_" class="st1" d="M1062.4,2243.7c-2.7,3-7.2,4.4-13.5,4.4c-6.3,0-10.9-1.5-13.5-4.4c-2.7-3-4-6.7-4-11.3v-9
			c0-4.6,1.3-8.4,4-11.3c2.7-3,7.2-4.4,13.5-4.4c6.3,0,10.9,1.5,13.5,4.4c2.7,3,4,6.7,4,11.3v9
			C1066.4,2236.9,1065.1,2240.7,1062.4,2243.7z M1048.9,2238.4c4,0,6.1-1.9,6.1-5.8v-9.7c0-3.8-2-5.8-6.1-5.8
			c-4.1,0-6.1,1.9-6.1,5.8v9.7C1042.8,2236.5,1044.8,2238.4,1048.9,2238.4z"/>
		<path id="XMLID_211_" class="st1" d="M1109.9,2247.3h-11.5v-25.7c0-1.9-0.9-2.8-2.8-2.8c-2.2,0-5,0.9-8.4,2.8v25.7h-11.5v-38.9
			h8.6l1.2,3c5.2-2.5,10.3-3.8,15.5-3.8c6,0,9,4.2,9,12.5V2247.3z"/>
		<path id="XMLID_213_" class="st1" d="M1147.3,2235.7c0,4.2-1.1,7.3-3.2,9.4c-2.2,2-5.9,3-11.2,3c-4.8,0-9.5-0.8-14.1-2.3l1.8-8.6
			c3.9,1.2,7.8,1.8,11.8,1.8c1.7,0,2.7-0.2,3.2-0.7c0.5-0.5,0.8-1.3,0.8-2.6c0-1.3-0.3-2.1-0.9-2.6c-0.6-0.4-2.4-1-5.4-1.8
			c-4.5-1.1-7.3-2.5-8.5-4c-1.2-1.5-1.8-4.3-1.8-8.2c0-4.3,1.1-7.3,3.2-9c2.1-1.8,6-2.6,11.7-2.6c4.5,0,8.5,0.4,11.8,1.3l-1,9
			c-4-0.7-7.6-1.1-10.7-1.1c-1.6,0-2.7,0.2-3.3,0.6c-0.6,0.4-0.9,1.1-0.9,2c0,1.2,0.3,2,0.8,2.4c0.5,0.4,1.9,0.8,4.2,1.4
			c2.8,0.6,5,1.3,6.6,1.9c1.5,0.6,2.7,1.5,3.6,2.5c0.8,1.1,1.3,2.2,1.5,3.3S1147.3,2233.5,1147.3,2235.7z"/>
		<path id="XMLID_215_" class="st1" d="M1165.2,2223.2v9.2c0,2,0.5,3.5,1.4,4.4c1,0.9,2.6,1.4,4.9,1.4c2.6,0,5.2-0.3,8-1l1.4,9.6
			c-3.6,0.8-6.7,1.2-9.4,1.2c-6.3,0-10.8-1.3-13.6-3.8c-2.8-2.5-4.2-6.5-4.2-12.1v-8.9c0-5.5,1.4-9.6,4.2-12.1
			c2.8-2.5,7.3-3.8,13.6-3.8c2.7,0,5.9,0.4,9.4,1.2l-1.4,9.6c-2.7-0.6-5.4-1-8-1c-2.3,0-3.9,0.5-4.9,1.4
			C1165.6,2219.7,1165.2,2221.2,1165.2,2223.2z"/>
		<path id="XMLID_217_" class="st1" d="M1200.8,2203.5h-11.5v-12.2h11.5V2203.5z M1200.8,2247.3h-11.5v-38.9h11.5V2247.3z"/>
		<path id="XMLID_220_" class="st1" d="M1242.5,2231.9h-20.9v1.1c0,2.2,0.5,3.7,1.5,4.5c1,0.8,2.9,1.2,5.5,1.2
			c4.2,0,8.2-0.6,11.8-1.7l1.7,8.6c-4.5,1.7-9.4,2.5-14.6,2.5c-11.6,0-17.4-5.3-17.4-15.8v-9.1c0-10.4,5.6-15.6,16.7-15.6
			c3.1,0,5.7,0.4,7.9,1.3c2.2,0.9,3.8,2.1,4.9,3.7c1.1,1.6,1.9,3.3,2.3,5.1c0.5,1.8,0.7,3.8,0.7,6.1V2231.9z M1231.6,2223.2v-1.7
			c0-1.5-0.3-2.8-1-3.6c-0.7-0.9-1.9-1.3-3.8-1.3c-3.5,0-5.3,1.7-5.3,5v1.7H1231.6z"/>
		<path id="XMLID_223_" class="st1" d="M1285.9,2247.3h-11.5v-25.7c0-1.9-0.9-2.8-2.8-2.8c-2.2,0-5,0.9-8.4,2.8v25.7h-11.5v-38.9
			h8.6l1.2,3c5.2-2.5,10.3-3.8,15.5-3.8c6,0,9,4.2,9,12.5V2247.3z"/>
		<path id="XMLID_225_" class="st1" d="M1318,2246.7c-2.8,1-5.5,1.4-8.3,1.4c-7.8,0-11.8-3.3-11.8-10v-20.5h-5.3v-9.3h5.3v-9.4
			l11.5-1.6v11h8.9l-0.6,9.3h-8.2v18.9c0,1.4,0.8,2.2,2.4,2.2c1.8,0,3.4-0.2,4.8-0.7L1318,2246.7z"/>
		<path id="XMLID_227_" class="st1" d="M1337.7,2203.5h-11.5v-12.2h11.5V2203.5z M1337.7,2247.3h-11.5v-38.9h11.5V2247.3z"/>
		<path id="XMLID_230_" class="st1" d="M1378,2243.7c-2.7,3-7.2,4.4-13.5,4.4c-6.3,0-10.9-1.5-13.5-4.4c-2.7-3-4-6.7-4-11.3v-9
			c0-4.6,1.3-8.4,4-11.3c2.7-3,7.2-4.4,13.5-4.4c6.3,0,10.9,1.5,13.5,4.4c2.7,3,4,6.7,4,11.3v9
			C1382.1,2236.9,1380.7,2240.7,1378,2243.7z M1364.5,2238.4c4,0,6.1-1.9,6.1-5.8v-9.7c0-3.8-2-5.8-6.1-5.8c-4.1,0-6.1,1.9-6.1,5.8
			v9.7C1358.4,2236.5,1360.5,2238.4,1364.5,2238.4z"/>
		<path id="XMLID_233_" class="st1" d="M1390.9,2208.4h11.5v25.7c0,1.9,0.9,2.8,2.8,2.8c2.2,0,5-0.9,8.4-2.8v-25.7h11.5v38.9h-8.6
			l-1.2-3c-5.2,2.5-10.3,3.8-15.5,3.8c-6,0-9-4.2-9-12.5V2208.4z"/>
		<path id="XMLID_235_" class="st1" d="M1462.9,2235.7c0,4.2-1.1,7.3-3.2,9.4c-2.2,2-5.9,3-11.2,3c-4.8,0-9.5-0.8-14.1-2.3l1.8-8.6
			c3.9,1.2,7.8,1.8,11.8,1.8c1.7,0,2.7-0.2,3.2-0.7c0.5-0.5,0.8-1.3,0.8-2.6c0-1.3-0.3-2.1-0.9-2.6c-0.6-0.4-2.4-1-5.4-1.8
			c-4.5-1.1-7.3-2.5-8.5-4c-1.2-1.5-1.8-4.3-1.8-8.2c0-4.3,1.1-7.3,3.2-9c2.1-1.8,6-2.6,11.7-2.6c4.5,0,8.5,0.4,11.8,1.3l-1,9
			c-4-0.7-7.6-1.1-10.7-1.1c-1.6,0-2.7,0.2-3.3,0.6c-0.6,0.4-0.9,1.1-0.9,2c0,1.2,0.3,2,0.8,2.4c0.5,0.4,1.9,0.8,4.2,1.4
			c2.8,0.6,5,1.3,6.6,1.9c1.5,0.6,2.7,1.5,3.6,2.5c0.8,1.1,1.3,2.2,1.5,3.3S1462.9,2233.5,1462.9,2235.7z"/>
		<path id="XMLID_237_" class="st1" d="M1483.2,2247.3h-11.5V2234h11.5V2247.3z"/>
		<path id="XMLID_239_" class="st2" d="M328.1,2380.2l-9.5-39.9l-9.5,39.9h-5.9l-11.5-42.6h3.6l10.7,39.7l9.5-39.7h6l9.5,39.7
			l10.7-39.7h3.6l-11.5,42.6H328.1z"/>
		<path id="XMLID_241_" class="st2" d="M375.9,2380.2h-3.7V2355c0-2.1-1.1-3.1-3.4-3.1c-1.3,0-3.2,0.4-5.6,1.1
			c-2.4,0.7-4.5,1.5-6.4,2.5v24.7h-3.7v-43.9l3.7-0.5v16c4.7-2.3,8.8-3.4,12.5-3.4c4.4,0,6.6,2.3,6.6,7V2380.2z"/>
		<path id="XMLID_243_" class="st2" d="M389.2,2369.6c0,2.9,0.6,4.9,1.8,6.1c1.2,1.2,3.3,1.8,6.3,1.8c2.9,0,6.2-0.5,9.8-1.5l0.6,3
			c-3.2,1.2-6.8,1.7-10.7,1.7c-4.2,0-7.2-1-8.9-2.9c-1.8-2-2.7-4.8-2.7-8.4v-9.8c0-7.5,3.9-11.3,11.6-11.3c7.5,0,11.3,3.8,11.3,11.3
			v6h-19.2V2369.6z M389.2,2359.6v2.8h15.6v-2.8c0-2.7-0.6-4.7-1.7-6c-1.2-1.3-3.1-2-5.9-2s-4.8,0.7-6.1,2
			C389.8,2354.9,389.2,2356.9,389.2,2359.6z"/>
		<path id="XMLID_246_" class="st2" d="M441.1,2380.2h-3.7V2355c0-2.1-1.1-3.1-3.4-3.1c-1.3,0-3.2,0.4-5.6,1.1
			c-2.4,0.7-4.5,1.5-6.4,2.5v24.7h-3.7V2349h3.3l0.3,2.8c1.9-0.9,4-1.7,6.4-2.4c2.4-0.7,4.5-1.1,6.2-1.1c4.4,0,6.6,2.3,6.6,7V2380.2
			z"/>
		<path id="XMLID_248_" class="st2" d="M468.8,2359v11.2c0,2.7,0.6,4.6,1.8,5.7c1.2,1.1,3.3,1.6,6.2,1.6c1.9,0,4.1-0.2,6.7-0.6
			l0.4,3.1c-2.3,0.6-4.6,0.9-7.1,0.9c-4.2,0-7.2-0.9-9-2.7c-1.8-1.8-2.7-4.5-2.7-8v-10.9c0-3.5,0.9-6.2,2.7-8c1.8-1.8,4.8-2.7,9-2.7
			c2.5,0,4.8,0.3,7.1,0.9l-0.4,3.1c-2.5-0.4-4.7-0.6-6.7-0.6c-2.9,0-5,0.5-6.2,1.6C469.4,2354.4,468.8,2356.3,468.8,2359z"/>
		<path id="XMLID_250_" class="st2" d="M515.6,2369.5c0,3.5-1,6.2-2.9,8.2c-2,2-5,3.1-9.1,3.1c-4.1,0-7.2-1-9.1-3.1
			c-2-2-2.9-4.8-2.9-8.2v-9.8c0-3.5,1-6.2,2.9-8.2c2-2,5-3.1,9.1-3.1c4.1,0,7.2,1,9.1,3.1c2,2,2.9,4.8,2.9,8.2V2369.5z
			 M511.9,2369.6v-10c0-2.6-0.7-4.6-2-5.9c-1.3-1.3-3.5-2-6.4-2c-2.9,0-5,0.7-6.4,2c-1.3,1.3-2,3.3-2,5.9v10c0,2.6,0.7,4.6,2,5.9
			c1.3,1.3,3.5,2,6.4,2c2.9,0,5-0.6,6.4-2C511.2,2374.2,511.9,2372.2,511.9,2369.6z"/>
		<path id="XMLID_253_" class="st2" d="M567.4,2380.2h-3.7V2355c0-2.1-1.1-3.1-3.4-3.1c-1.4,0-3.3,0.3-5.6,1
			c-2.3,0.7-4.4,1.5-6.4,2.6v24.7h-3.7V2355c0-2.1-1.1-3.1-3.4-3.1c-1.3,0-3.2,0.4-5.6,1.1c-2.4,0.7-4.5,1.5-6.4,2.5v24.7h-3.7V2349
			h3.3l0.3,2.8c1.9-0.9,4-1.7,6.4-2.4c2.4-0.7,4.5-1.1,6.2-1.1c3.1,0,5.1,1.2,6,3.5c2-0.9,4.2-1.7,6.7-2.4c2.5-0.7,4.6-1.1,6.4-1.1
			c4.4,0,6.6,2.3,6.6,7V2380.2z"/>
		<path id="XMLID_255_" class="st2" d="M620.4,2380.2h-3.7V2355c0-2.1-1.1-3.1-3.4-3.1c-1.4,0-3.3,0.3-5.6,1
			c-2.3,0.7-4.4,1.5-6.4,2.6v24.7h-3.7V2355c0-2.1-1.1-3.1-3.4-3.1c-1.3,0-3.2,0.4-5.6,1.1c-2.4,0.7-4.5,1.5-6.4,2.5v24.7h-3.7V2349
			h3.3l0.3,2.8c1.9-0.9,4-1.7,6.4-2.4c2.4-0.7,4.5-1.1,6.2-1.1c3.1,0,5.1,1.2,6,3.5c2-0.9,4.2-1.7,6.7-2.4c2.5-0.7,4.6-1.1,6.4-1.1
			c4.4,0,6.6,2.3,6.6,7V2380.2z"/>
		<path id="XMLID_257_" class="st2" d="M631.2,2349h3.7v25.2c0,2.1,1.1,3.1,3.4,3.1c1.3,0,3.2-0.4,5.6-1.1c2.4-0.7,4.5-1.5,6.4-2.5
			V2349h3.7v31.1h-3.3l-0.3-2.8c-1.9,0.9-4,1.7-6.4,2.4c-2.4,0.7-4.5,1.1-6.2,1.1c-4.4,0-6.6-2.3-6.6-7V2349z"/>
		<path id="XMLID_259_" class="st2" d="M688.3,2380.2h-3.7V2355c0-2.1-1.1-3.1-3.4-3.1c-1.3,0-3.2,0.4-5.6,1.1
			c-2.4,0.7-4.5,1.5-6.4,2.5v24.7h-3.7V2349h3.3l0.3,2.8c1.9-0.9,4-1.7,6.4-2.4c2.4-0.7,4.5-1.1,6.2-1.1c4.4,0,6.6,2.3,6.6,7V2380.2
			z"/>
		<path id="XMLID_261_" class="st2" d="M703.2,2343.1h-3.7v-6.8h3.7V2343.1z M703.2,2380.2h-3.7V2349h3.7V2380.2z"/>
		<path id="XMLID_264_" class="st2" d="M716.5,2359v11.2c0,2.7,0.6,4.6,1.8,5.7c1.2,1.1,3.3,1.6,6.2,1.6c1.9,0,4.1-0.2,6.7-0.6
			l0.4,3.1c-2.3,0.6-4.6,0.9-7.1,0.9c-4.2,0-7.2-0.9-9-2.7c-1.8-1.8-2.7-4.5-2.7-8v-10.9c0-3.5,0.9-6.2,2.7-8c1.8-1.8,4.8-2.7,9-2.7
			c2.5,0,4.8,0.3,7.1,0.9l-0.4,3.1c-2.5-0.4-4.7-0.6-6.7-0.6c-2.9,0-5,0.5-6.2,1.6C717.1,2354.4,716.5,2356.3,716.5,2359z"/>
		<path id="XMLID_266_" class="st2" d="M761.7,2357.4v22.8h-3.2l-0.3-2.4c-3.3,2-6.8,3.1-10.6,3.1c-5.4,0-8.1-2.9-8.1-8.7
			c0-3.2,0.7-5.4,2.2-6.7c1.4-1.3,3.8-1.9,7-1.9h9.2v-6.1c0-2.1-0.6-3.6-1.7-4.4c-1.2-0.9-3-1.3-5.6-1.3c-2.7,0-5.8,0.3-9.2,1
			l-0.6-3.1c2.9-0.8,6.1-1.2,9.6-1.2c3.9,0,6.8,0.8,8.6,2.3C760.8,2352.2,761.7,2354.4,761.7,2357.4z M758,2374.3v-7.5h-9.1
			c-2.1,0-3.6,0.4-4.4,1.2c-0.8,0.8-1.2,2.2-1.2,4.2c0,2,0.3,3.3,1,4.1c0.7,0.8,2,1.2,4.1,1.2C751.8,2377.5,754.9,2376.4,758,2374.3
			z"/>
		<path id="XMLID_269_" class="st2" d="M787.9,2376.7l0.7,2.9c-2,0.8-4.2,1.2-6.5,1.2c-2.5,0-4.3-0.5-5.4-1.5
			c-1.1-1-1.7-2.7-1.7-5.2v-21.9h-6v-3.2h6v-7.4l3.7-0.5v7.9h9.5l-0.4,3.2h-9.1v21.5c0,1.5,0.2,2.5,0.7,3.1c0.4,0.6,1.4,0.8,2.9,0.8
			C784.1,2377.6,786,2377.3,787.9,2376.7z"/>
		<path id="XMLID_271_" class="st2" d="M800.6,2343.1h-3.7v-6.8h3.7V2343.1z M800.6,2380.2h-3.7V2349h3.7V2380.2z"/>
		<path id="XMLID_274_" class="st2" d="M834.9,2380.2h-3.7V2355c0-2.1-1.1-3.1-3.4-3.1c-1.3,0-3.2,0.4-5.6,1.1
			c-2.4,0.7-4.5,1.5-6.4,2.5v24.7h-3.7V2349h3.3l0.3,2.8c1.9-0.9,4-1.7,6.4-2.4c2.4-0.7,4.5-1.1,6.2-1.1c4.4,0,6.6,2.3,6.6,7V2380.2
			z"/>
		<path id="XMLID_276_" class="st2" d="M868.7,2359.7c0,7.3-4,10.9-12,10.9c-1.5,0-2.9-0.1-4.2-0.4c-1.6,1.3-2.4,2.7-2.4,4.1
			c0,1.3,0.9,2.1,2.8,2.2l9,0.7c2.8,0.2,4.8,0.9,5.9,2.2c1.2,1.2,1.8,3,1.8,5.2c0,3.2-1,5.5-2.9,6.8c-1.9,1.3-5.4,1.9-10.4,1.9
			c-3.8,0-7.4-0.5-10.9-1.5l0.6-2.9c3.7,0.9,7.2,1.3,10.5,1.3c4,0,6.5-0.4,7.7-1.2c1.2-0.8,1.8-2.2,1.8-4.1c0-1.5-0.4-2.6-1.1-3.3
			c-0.7-0.7-2-1.1-3.9-1.2c-4-0.3-6.8-0.4-8.4-0.6c-4.1-0.3-6.1-2.2-6.1-5.5c0-2,1-3.8,2.9-5.2c-3.1-1.7-4.6-4.9-4.6-9.3v-0.4
			c0-3.7,0.9-6.4,2.8-8.2c1.9-1.8,4.9-2.7,9.2-2.7c2.1,0,3.8,0.2,5.2,0.6h8.6v2.7l-3.9,0.3c1.4,1.7,2,4.2,2,7.3V2359.7z
			 M865.1,2359.2c0-2.8-0.6-4.8-1.9-5.9c-1.2-1.1-3.4-1.7-6.5-1.7c-3.1,0-5.3,0.6-6.5,1.7c-1.2,1.1-1.9,3.1-1.9,5.9v0.6
			c0,2.9,0.7,4.8,2,5.9c1.3,1.1,3.5,1.7,6.4,1.7c2.9,0,5-0.6,6.4-1.7c1.3-1.2,2-3.1,2-5.9V2359.2z"/>
		<path id="XMLID_279_" class="st2" d="M915,2357.4v22.8h-3.2l-0.3-2.4c-3.3,2-6.8,3.1-10.6,3.1c-5.4,0-8.1-2.9-8.1-8.7
			c0-3.2,0.7-5.4,2.2-6.7c1.4-1.3,3.8-1.9,7-1.9h9.2v-6.1c0-2.1-0.6-3.6-1.7-4.4c-1.2-0.9-3-1.3-5.6-1.3c-2.7,0-5.8,0.3-9.2,1
			l-0.6-3.1c2.9-0.8,6.1-1.2,9.6-1.2c3.9,0,6.8,0.8,8.6,2.3C914.1,2352.2,915,2354.4,915,2357.4z M911.3,2374.3v-7.5h-9.1
			c-2.1,0-3.6,0.4-4.4,1.2c-0.8,0.8-1.2,2.2-1.2,4.2c0,2,0.3,3.3,1,4.1c0.7,0.8,2,1.2,4.1,1.2
			C905.1,2377.5,908.3,2376.4,911.3,2374.3z"/>
		<path id="XMLID_282_" class="st2" d="M948.6,2380.2h-3.7V2355c0-2.1-1.1-3.1-3.4-3.1c-1.3,0-3.2,0.4-5.6,1.1
			c-2.4,0.7-4.5,1.5-6.4,2.5v24.7h-3.7V2349h3.3l0.3,2.8c1.9-0.9,4-1.7,6.4-2.4c2.4-0.7,4.5-1.1,6.2-1.1c4.4,0,6.6,2.3,6.6,7V2380.2
			z"/>
		<path id="XMLID_284_" class="st2" d="M958.9,2372.2V2358c0-6.4,3.2-9.6,9.6-9.6c2.9,0,6.1,0.3,9.6,1v-13.1l3.7-0.5v44.4h-3.4
			l-0.2-2.9c-3.2,2.4-6.6,3.6-10.5,3.6C961.8,2380.8,958.9,2377.9,958.9,2372.2z M978.1,2373.5v-20.7c-3.5-0.7-6.7-1.1-9.7-1.1
			c-2,0-3.5,0.5-4.4,1.5c-0.9,1-1.4,2.6-1.4,4.7v14.2c0,1.9,0.4,3.2,1.2,4.1c0.8,0.8,2.2,1.2,4.2,1.2
			C971.4,2377.5,974.8,2376.1,978.1,2373.5z"/>
		<path id="XMLID_287_" class="st2" d="M1010.1,2369.6c0,2.9,0.6,4.9,1.8,6.1c1.2,1.2,3.3,1.8,6.3,1.8c2.9,0,6.2-0.5,9.8-1.5l0.6,3
			c-3.2,1.2-6.8,1.7-10.7,1.7c-4.2,0-7.2-1-8.9-2.9c-1.8-2-2.7-4.8-2.7-8.4v-9.8c0-7.5,3.9-11.3,11.6-11.3c7.5,0,11.3,3.8,11.3,11.3
			v6h-19.2V2369.6z M1010.1,2359.6v2.8h15.6v-2.8c0-2.7-0.6-4.7-1.7-6c-1.2-1.3-3.1-2-5.9-2s-4.8,0.7-6.1,2
			S1010.1,2356.9,1010.1,2359.6z"/>
		<path id="XMLID_290_" class="st2" d="M1081.1,2380.2h-3.7V2355c0-2.1-1.1-3.1-3.4-3.1c-1.4,0-3.3,0.3-5.6,1
			c-2.3,0.7-4.4,1.5-6.4,2.6v24.7h-3.7V2355c0-2.1-1.1-3.1-3.4-3.1c-1.3,0-3.2,0.4-5.6,1.1c-2.4,0.7-4.5,1.5-6.4,2.5v24.7h-3.7V2349
			h3.3l0.3,2.8c1.9-0.9,4-1.7,6.4-2.4c2.4-0.7,4.5-1.1,6.2-1.1c3.1,0,5.1,1.2,6,3.5c2-0.9,4.2-1.7,6.7-2.4c2.5-0.7,4.6-1.1,6.4-1.1
			c4.4,0,6.6,2.3,6.6,7V2380.2z"/>
		<path id="XMLID_292_" class="st2" d="M1113,2357.4v22.8h-3.2l-0.3-2.4c-3.3,2-6.8,3.1-10.6,3.1c-5.4,0-8.1-2.9-8.1-8.7
			c0-3.2,0.7-5.4,2.2-6.7c1.4-1.3,3.8-1.9,7-1.9h9.2v-6.1c0-2.1-0.6-3.6-1.7-4.4c-1.2-0.9-3-1.3-5.6-1.3c-2.7,0-5.8,0.3-9.2,1
			l-0.6-3.1c2.9-0.8,6.1-1.2,9.6-1.2c3.9,0,6.8,0.8,8.6,2.3C1112.2,2352.2,1113,2354.4,1113,2357.4z M1109.3,2374.3v-7.5h-9.1
			c-2.1,0-3.6,0.4-4.4,1.2c-0.8,0.8-1.2,2.2-1.2,4.2c0,2,0.3,3.3,1,4.1c0.7,0.8,2,1.2,4.1,1.2
			C1103.1,2377.5,1106.3,2376.4,1109.3,2374.3z"/>
		<path id="XMLID_295_" class="st2" d="M1127.6,2343.1h-3.7v-6.8h3.7V2343.1z M1127.6,2380.2h-3.7V2349h3.7V2380.2z"/>
		<path id="XMLID_298_" class="st2" d="M1142.8,2380.2h-3.7v-43.9l3.7-0.5V2380.2z"/>
		<path id="XMLID_300_" class="st2" d="M1158.1,2343.1h-3.7v-6.8h3.7V2343.1z M1158.1,2380.2h-3.7V2349h3.7V2380.2z"/>
		<path id="XMLID_303_" class="st2" d="M1192.3,2380.2h-3.7V2355c0-2.1-1.1-3.1-3.4-3.1c-1.3,0-3.2,0.4-5.6,1.1s-4.5,1.5-6.4,2.5
			v24.7h-3.7V2349h3.3l0.3,2.8c1.9-0.9,4-1.7,6.4-2.4c2.4-0.7,4.5-1.1,6.2-1.1c4.4,0,6.6,2.3,6.6,7V2380.2z"/>
		<path id="XMLID_305_" class="st2" d="M1226.2,2359.7c0,7.3-4,10.9-12,10.9c-1.5,0-2.9-0.1-4.2-0.4c-1.6,1.3-2.4,2.7-2.4,4.1
			c0,1.3,0.9,2.1,2.8,2.2l9,0.7c2.8,0.2,4.8,0.9,5.9,2.2c1.2,1.2,1.8,3,1.8,5.2c0,3.2-1,5.5-2.9,6.8c-1.9,1.3-5.4,1.9-10.4,1.9
			c-3.8,0-7.4-0.5-10.9-1.5l0.6-2.9c3.7,0.9,7.2,1.3,10.5,1.3c4,0,6.5-0.4,7.7-1.2c1.2-0.8,1.8-2.2,1.8-4.1c0-1.5-0.4-2.6-1.1-3.3
			c-0.7-0.7-2-1.1-3.9-1.2c-4-0.3-6.8-0.4-8.4-0.6c-4.1-0.3-6.1-2.2-6.1-5.5c0-2,1-3.8,2.9-5.2c-3.1-1.7-4.6-4.9-4.6-9.3v-0.4
			c0-3.7,0.9-6.4,2.8-8.2c1.9-1.8,4.9-2.7,9.2-2.7c2.1,0,3.8,0.2,5.2,0.6h8.6v2.7l-3.9,0.3c1.4,1.7,2,4.2,2,7.3V2359.7z
			 M1222.6,2359.2c0-2.8-0.6-4.8-1.9-5.9c-1.2-1.1-3.4-1.7-6.5-1.7c-3.1,0-5.3,0.6-6.5,1.7c-1.2,1.1-1.9,3.1-1.9,5.9v0.6
			c0,2.9,0.7,4.8,2,5.9c1.3,1.1,3.5,1.7,6.4,1.7c2.9,0,5-0.6,6.4-1.7c1.3-1.2,2-3.1,2-5.9V2359.2z"/>
		<path id="XMLID_308_" class="st2" d="M1260.5,2380.2h-5.6l-7.1-31.1h3.5l6.4,28.6l8.4-28.6h5l8.4,28.6l6.5-28.6h3.5l-7.1,31.1
			h-5.6l-8.2-28.5L1260.5,2380.2z"/>
		<path id="XMLID_310_" class="st2" d="M1300.9,2343.1h-3.7v-6.8h3.7V2343.1z M1300.9,2380.2h-3.7V2349h3.7V2380.2z"/>
		<path id="XMLID_313_" class="st2" d="M1327.8,2376.7l0.7,2.9c-2,0.8-4.2,1.2-6.5,1.2c-2.5,0-4.3-0.5-5.4-1.5
			c-1.1-1-1.7-2.7-1.7-5.2v-21.9h-6v-3.2h6v-7.4l3.7-0.5v7.9h9.5l-0.4,3.2h-9.1v21.5c0,1.5,0.2,2.5,0.7,3.1c0.4,0.6,1.4,0.8,2.9,0.8
			C1324,2377.6,1325.8,2377.3,1327.8,2376.7z"/>
		<path id="XMLID_315_" class="st2" d="M1359.5,2380.2h-3.7V2355c0-2.1-1.1-3.1-3.4-3.1c-1.3,0-3.2,0.4-5.6,1.1s-4.5,1.5-6.4,2.5
			v24.7h-3.7v-43.9l3.7-0.5v16c4.7-2.3,8.8-3.4,12.5-3.4c4.4,0,6.6,2.3,6.6,7V2380.2z"/>
		<path id="XMLID_317_" class="st2" d="M1406.2,2357.4v22.8h-3.2l-0.3-2.4c-3.3,2-6.8,3.1-10.6,3.1c-5.4,0-8.1-2.9-8.1-8.7
			c0-3.2,0.7-5.4,2.2-6.7c1.4-1.3,3.8-1.9,7-1.9h9.2v-6.1c0-2.1-0.6-3.6-1.7-4.4c-1.2-0.9-3-1.3-5.6-1.3c-2.7,0-5.8,0.3-9.2,1
			l-0.6-3.1c2.9-0.8,6.1-1.2,9.6-1.2c3.9,0,6.8,0.8,8.6,2.3C1405.3,2352.2,1406.2,2354.4,1406.2,2357.4z M1402.5,2374.3v-7.5h-9.1
			c-2.1,0-3.6,0.4-4.4,1.2c-0.8,0.8-1.2,2.2-1.2,4.2c0,2,0.3,3.3,1,4.1c0.7,0.8,2,1.2,4.1,1.2
			C1396.3,2377.5,1399.5,2376.4,1402.5,2374.3z"/>
		<path id="XMLID_320_" class="st2" d="M1439.9,2380.2h-3.7V2355c0-2.1-1.1-3.1-3.4-3.1c-1.3,0-3.2,0.4-5.6,1.1s-4.5,1.5-6.4,2.5
			v24.7h-3.7V2349h3.3l0.3,2.8c1.9-0.9,4-1.7,6.4-2.4c2.4-0.7,4.5-1.1,6.2-1.1c4.4,0,6.6,2.3,6.6,7V2380.2z"/>
		<path id="XMLID_322_" class="st2" d="M1494.1,2380.2l-4-11.2h-19.8l-4,11.2h-3.7l14.8-42.6h5.6l14.8,42.6H1494.1z M1480.1,2339.7
			l-8.8,26h17.5L1480.1,2339.7z"/>
		<path id="XMLID_325_" class="st2" d="M1505,2372.2V2358c0-6.4,3.2-9.6,9.6-9.6c2.9,0,6.1,0.3,9.6,1v-13.1l3.7-0.5v44.4h-3.4
			l-0.2-2.9c-3.2,2.4-6.7,3.6-10.5,3.6C1507.9,2380.8,1505,2377.9,1505,2372.2z M1524.1,2373.5v-20.7c-3.5-0.7-6.7-1.1-9.7-1.1
			c-2,0-3.5,0.5-4.4,1.5c-0.9,1-1.4,2.6-1.4,4.7v14.2c0,1.9,0.4,3.2,1.2,4.1s2.2,1.2,4.2,1.2
			C1517.5,2377.5,1520.9,2376.1,1524.1,2373.5z"/>
		<path id="XMLID_328_" class="st2" d="M1561.7,2349l-10.6,31.1h-5.7l-10.6-31.1h3.8l9.6,28.5l9.7-28.5H1561.7z"/>
		<path id="XMLID_330_" class="st2" d="M1572.4,2343.1h-3.7v-6.8h3.7V2343.1z M1572.4,2380.2h-3.7V2349h3.7V2380.2z"/>
		<path id="XMLID_333_" class="st2" d="M1602.5,2372.3c0,3-0.7,5.1-2.2,6.5s-4.2,2-8.2,2c-3.5,0-6.6-0.5-9.1-1.6l0.6-3
			c2.8,0.9,5.5,1.3,8.2,1.3c2.8,0,4.7-0.3,5.6-1c0.9-0.7,1.3-2,1.3-4c0-1.3,0-2.2-0.1-2.7c-0.1-0.5-0.4-1.1-0.9-1.6
			c-0.5-0.5-1.2-0.9-2.1-1.2c-0.9-0.3-2.2-0.6-4.2-1.1c-2.6-0.6-4.5-1.3-5.7-2.1c-1.2-0.8-2-1.7-2.3-2.7c-0.3-1-0.5-2.6-0.5-4.7
			c0-2.7,0.8-4.7,2.3-6c1.5-1.3,4.2-2,7.9-2c3.4,0,6.3,0.4,8.8,1.1l-0.4,3.1c-2.9-0.6-5.8-0.9-8.7-0.9c-2.6,0-4.3,0.3-5.1,1
			s-1.2,1.9-1.2,3.8c0,2.2,0.3,3.6,0.9,4.2c0.6,0.6,2.3,1.3,5.1,2c2.3,0.6,4.1,1.1,5.4,1.6c1.2,0.5,2.2,1.1,2.8,1.9s1.1,1.6,1.2,2.4
			C1602.4,2369.4,1602.5,2370.6,1602.5,2372.3z"/>
		<path id="XMLID_335_" class="st2" d="M1634.9,2369.5c0,3.5-1,6.2-2.9,8.2c-2,2-5,3.1-9.1,3.1s-7.2-1-9.1-3.1c-2-2-2.9-4.8-2.9-8.2
			v-9.8c0-3.5,1-6.2,2.9-8.2c2-2,5-3.1,9.1-3.1s7.2,1,9.1,3.1c2,2,2.9,4.8,2.9,8.2V2369.5z M1631.2,2369.6v-10c0-2.6-0.7-4.6-2-5.9
			c-1.3-1.3-3.5-2-6.4-2c-2.9,0-5,0.7-6.4,2c-1.3,1.3-2,3.3-2,5.9v10c0,2.6,0.7,4.6,2,5.9c1.3,1.3,3.5,2,6.4,2c2.9,0,5-0.6,6.4-2
			C1630.6,2374.2,1631.2,2372.2,1631.2,2369.6z"/>
		<path id="XMLID_338_" class="st2" d="M1658,2348.4l0.4,3.6c-2.2,0.9-5.5,2.9-9.8,5.8v22.4h-3.7V2349h3.3l0.2,4.7
			C1652.6,2350.9,1655.8,2349.1,1658,2348.4z"/>
		<path id="XMLID_340_" class="st2" d="M211.2,2476.1h-5.6l-7.1-31.1h3.5l6.4,28.6l8.4-28.6h5l8.4,28.6l6.5-28.6h3.5l-7.1,31.1h-5.6
			l-8.2-28.5L211.2,2476.1z"/>
		<path id="XMLID_342_" class="st2" d="M270.5,2465.4c0,3.5-1,6.2-2.9,8.2c-2,2-5,3.1-9.1,3.1c-4.1,0-7.2-1-9.1-3.1
			c-2-2-2.9-4.8-2.9-8.2v-9.8c0-3.5,1-6.2,2.9-8.2c2-2,5-3.1,9.1-3.1c4.1,0,7.2,1,9.1,3.1c2,2,2.9,4.8,2.9,8.2V2465.4z
			 M266.8,2465.5v-10c0-2.6-0.7-4.6-2-5.9c-1.3-1.3-3.5-2-6.4-2c-2.9,0-5,0.7-6.4,2c-1.3,1.3-2,3.3-2,5.9v10c0,2.6,0.7,4.6,2,5.9
			c1.3,1.3,3.5,2,6.4,2c2.9,0,5-0.6,6.4-2C266.1,2470.1,266.8,2468.2,266.8,2465.5z"/>
		<path id="XMLID_345_" class="st2" d="M293.5,2444.3l0.4,3.6c-2.2,0.9-5.5,2.9-9.8,5.8v22.4h-3.7v-31.1h3.3l0.2,4.7
			C288.2,2446.9,291.4,2445.1,293.5,2444.3z"/>
		<path id="XMLID_347_" class="st2" d="M304.7,2476.1H301v-43.9l3.7-0.5V2476.1z M318.6,2444.9h4.6l-12.4,15.3l12.9,15.8H319
			l-12.7-15.8L318.6,2444.9z"/>
		<path id="XMLID_350_" class="st2" d="M350.1,2468.2c0,3-0.7,5.1-2.2,6.5s-4.2,2-8.2,2c-3.5,0-6.6-0.5-9.1-1.6l0.6-3
			c2.8,0.9,5.5,1.3,8.2,1.3c2.8,0,4.7-0.3,5.6-1c0.9-0.7,1.3-2,1.3-4c0-1.3,0-2.2-0.1-2.7c-0.1-0.5-0.4-1.1-0.9-1.6
			c-0.5-0.5-1.2-0.9-2.1-1.2c-0.9-0.3-2.2-0.6-4.2-1.1c-2.6-0.6-4.5-1.3-5.7-2.1c-1.2-0.8-2-1.7-2.3-2.7c-0.3-1-0.5-2.6-0.5-4.7
			c0-2.7,0.8-4.7,2.3-6s4.2-2,7.9-2c3.4,0,6.3,0.4,8.8,1.1l-0.4,3.1c-2.9-0.6-5.8-0.9-8.7-0.9c-2.6,0-4.3,0.3-5.1,1
			c-0.8,0.7-1.2,1.9-1.2,3.8c0,2.2,0.3,3.6,0.9,4.2c0.6,0.6,2.3,1.3,5.1,2c2.3,0.6,4.1,1.1,5.4,1.6c1.2,0.5,2.2,1.1,2.8,1.9
			c0.7,0.8,1.1,1.6,1.2,2.4C350.1,2465.3,350.1,2466.5,350.1,2468.2z"/>
		<path id="XMLID_352_" class="st2" d="M375.4,2472.6l0.7,2.9c-2,0.8-4.2,1.2-6.5,1.2c-2.5,0-4.3-0.5-5.4-1.5
			c-1.1-1-1.7-2.7-1.7-5.2v-21.9h-6v-3.2h6v-7.4l3.7-0.5v7.9h9.5l-0.4,3.2h-9.1v21.5c0,1.5,0.2,2.5,0.7,3.1c0.4,0.6,1.4,0.8,2.9,0.8
			C371.6,2473.5,373.5,2473.2,375.4,2472.6z"/>
		<path id="XMLID_354_" class="st2" d="M407.1,2444.9l-10.6,31.1l-4.6,12.6h-3.6l4.7-12.6h-2.1l-10.6-31.1h3.8l9.6,28.5l9.7-28.5
			H407.1z"/>
		<path id="XMLID_356_" class="st2" d="M417.5,2476.1h-3.7v-43.9l3.7-0.5V2476.1z"/>
		<path id="XMLID_358_" class="st2" d="M431.1,2465.5c0,2.9,0.6,4.9,1.8,6.1c1.2,1.2,3.3,1.8,6.3,1.8c2.9,0,6.2-0.5,9.8-1.5l0.6,3
			c-3.2,1.2-6.8,1.7-10.7,1.7c-4.2,0-7.2-1-8.9-2.9c-1.8-2-2.7-4.8-2.7-8.4v-9.8c0-7.5,3.9-11.3,11.6-11.3c7.5,0,11.3,3.8,11.3,11.3
			v6h-19.2V2465.5z M431.1,2455.5v2.8h15.6v-2.8c0-2.7-0.6-4.7-1.7-6c-1.2-1.3-3.1-2-5.9-2s-4.8,0.7-6.1,2
			C431.7,2450.8,431.1,2452.8,431.1,2455.5z"/>
		<path id="XMLID_361_" class="st2" d="M461,2476.1v-5.5h4v5.5l-3.1,6.9l-1.8-0.8l2.3-6.1H461z"/>
		<path id="XMLID_363_" class="st2" d="M510.1,2468.2c0,3-0.7,5.1-2.2,6.5s-4.2,2-8.2,2c-3.5,0-6.6-0.5-9.1-1.6l0.6-3
			c2.8,0.9,5.5,1.3,8.2,1.3c2.8,0,4.7-0.3,5.6-1c0.9-0.7,1.3-2,1.3-4c0-1.3,0-2.2-0.1-2.7c-0.1-0.5-0.4-1.1-0.9-1.6
			c-0.5-0.5-1.2-0.9-2.1-1.2c-0.9-0.3-2.2-0.6-4.2-1.1c-2.6-0.6-4.5-1.3-5.7-2.1c-1.2-0.8-2-1.7-2.3-2.7c-0.3-1-0.5-2.6-0.5-4.7
			c0-2.7,0.8-4.7,2.3-6s4.2-2,7.9-2c3.4,0,6.3,0.4,8.8,1.1l-0.4,3.1c-2.9-0.6-5.8-0.9-8.7-0.9c-2.6,0-4.3,0.3-5.1,1
			c-0.8,0.7-1.2,1.9-1.2,3.8c0,2.2,0.3,3.6,0.9,4.2c0.6,0.6,2.3,1.3,5.1,2c2.3,0.6,4.1,1.1,5.4,1.6c1.2,0.5,2.2,1.1,2.8,1.9
			c0.7,0.8,1.1,1.6,1.2,2.4C510,2465.3,510.1,2466.5,510.1,2468.2z"/>
		<path id="XMLID_365_" class="st2" d="M535.3,2472.6l0.7,2.9c-2,0.8-4.2,1.2-6.5,1.2c-2.5,0-4.3-0.5-5.4-1.5
			c-1.1-1-1.7-2.7-1.7-5.2v-21.9h-6v-3.2h6v-7.4l3.7-0.5v7.9h9.5l-0.4,3.2h-9.1v21.5c0,1.5,0.2,2.5,0.7,3.1c0.4,0.6,1.4,0.8,2.9,0.8
			C531.5,2473.5,533.4,2473.2,535.3,2472.6z"/>
		<path id="XMLID_367_" class="st2" d="M565,2453.3v22.8h-3.2l-0.3-2.4c-3.3,2-6.8,3.1-10.6,3.1c-5.4,0-8.1-2.9-8.1-8.7
			c0-3.2,0.7-5.4,2.2-6.7c1.4-1.3,3.8-1.9,7-1.9h9.2v-6.1c0-2.1-0.6-3.6-1.7-4.4c-1.2-0.9-3-1.3-5.6-1.3c-2.7,0-5.8,0.3-9.2,1
			l-0.6-3.1c2.9-0.8,6.1-1.2,9.6-1.2c3.9,0,6.8,0.8,8.6,2.3C564.1,2448.1,565,2450.3,565,2453.3z M561.3,2470.2v-7.5h-9.1
			c-2.1,0-3.6,0.4-4.4,1.2c-0.8,0.8-1.2,2.2-1.2,4.2c0,2,0.3,3.3,1,4.1c0.7,0.8,2,1.2,4.1,1.2
			C555.1,2473.4,558.3,2472.3,561.3,2470.2z"/>
		<path id="XMLID_370_" class="st2" d="M589,2444.3l0.4,3.6c-2.2,0.9-5.5,2.9-9.8,5.8v22.4h-3.7v-31.1h3.3l0.2,4.7
			C583.6,2446.9,586.8,2445.1,589,2444.3z"/>
		<path id="XMLID_372_" class="st2" d="M611.9,2472.6l0.7,2.9c-2,0.8-4.2,1.2-6.5,1.2c-2.5,0-4.3-0.5-5.4-1.5
			c-1.1-1-1.7-2.7-1.7-5.2v-21.9h-6v-3.2h6v-7.4l3.7-0.5v7.9h9.5l-0.4,3.2h-9.1v21.5c0,1.5,0.2,2.5,0.7,3.1c0.4,0.6,1.4,0.8,2.9,0.8
			C608.2,2473.5,610,2473.2,611.9,2472.6z"/>
		<path id="XMLID_374_" class="st2" d="M658.5,2453.4v12.3c0,3.7-0.9,6.4-2.8,8.2c-1.9,1.8-5.1,2.8-9.6,2.8c-3.8,0-7.3-0.4-10.4-1.2
			v-43.4l3.7-0.5v15c3-1.6,6.4-2.4,10.2-2.4c3,0,5.3,0.8,6.7,2.4S658.5,2450.5,658.5,2453.4z M639.4,2450.6v22.1
			c2.3,0.4,4.7,0.6,7.2,0.6c3.2,0,5.3-0.6,6.5-1.9c1.2-1.2,1.8-3.1,1.8-5.6v-12.5c0-1.9-0.4-3.3-1.3-4.1c-0.9-0.9-2.4-1.3-4.4-1.3
			C645.8,2447.9,642.5,2448.8,639.4,2450.6z"/>
		<path id="XMLID_377_" class="st2" d="M691.1,2444.9l-10.6,31.1l-4.6,12.6h-3.6l4.7-12.6h-2.1l-10.6-31.1h3.8l9.6,28.5l9.7-28.5
			H691.1z"/>
		<path id="XMLID_379_" class="st2" d="M731.1,2468.2c0,3-0.7,5.1-2.2,6.5s-4.2,2-8.2,2c-3.5,0-6.6-0.5-9.1-1.6l0.6-3
			c2.8,0.9,5.5,1.3,8.2,1.3c2.8,0,4.7-0.3,5.6-1c0.9-0.7,1.3-2,1.3-4c0-1.3,0-2.2-0.1-2.7c-0.1-0.5-0.4-1.1-0.9-1.6
			c-0.5-0.5-1.2-0.9-2.1-1.2c-0.9-0.3-2.2-0.6-4.2-1.1c-2.6-0.6-4.5-1.3-5.7-2.1c-1.2-0.8-2-1.7-2.3-2.7c-0.3-1-0.5-2.6-0.5-4.7
			c0-2.7,0.8-4.7,2.3-6s4.2-2,7.9-2c3.4,0,6.3,0.4,8.8,1.1l-0.4,3.1c-2.9-0.6-5.8-0.9-8.7-0.9c-2.6,0-4.3,0.3-5.1,1
			c-0.8,0.7-1.2,1.9-1.2,3.8c0,2.2,0.3,3.6,0.9,4.2c0.6,0.6,2.3,1.3,5.1,2c2.3,0.6,4.1,1.1,5.4,1.6c1.2,0.5,2.2,1.1,2.8,1.9
			c0.7,0.8,1.1,1.6,1.2,2.4C731,2465.3,731.1,2466.5,731.1,2468.2z"/>
		<path id="XMLID_381_" class="st2" d="M756.3,2472.6l0.7,2.9c-2,0.8-4.2,1.2-6.5,1.2c-2.5,0-4.3-0.5-5.4-1.5
			c-1.1-1-1.7-2.7-1.7-5.2v-21.9h-6v-3.2h6v-7.4l3.7-0.5v7.9h9.5l-0.4,3.2h-9.1v21.5c0,1.5,0.2,2.5,0.7,3.1c0.4,0.6,1.4,0.8,2.9,0.8
			C752.5,2473.5,754.4,2473.2,756.3,2472.6z"/>
		<path id="XMLID_383_" class="st2" d="M786,2453.3v22.8h-3.2l-0.3-2.4c-3.3,2-6.8,3.1-10.6,3.1c-5.4,0-8.1-2.9-8.1-8.7
			c0-3.2,0.7-5.4,2.2-6.7c1.4-1.3,3.8-1.9,7-1.9h9.2v-6.1c0-2.1-0.6-3.6-1.7-4.4c-1.2-0.9-3-1.3-5.6-1.3c-2.7,0-5.8,0.3-9.2,1
			l-0.6-3.1c2.9-0.8,6.1-1.2,9.6-1.2c3.9,0,6.8,0.8,8.6,2.3C785.1,2448.1,786,2450.3,786,2453.3z M782.3,2470.2v-7.5h-9.1
			c-2.1,0-3.6,0.4-4.4,1.2c-0.8,0.8-1.2,2.2-1.2,4.2c0,2,0.3,3.3,1,4.1c0.7,0.8,2,1.2,4.1,1.2
			C776.1,2473.4,779.2,2472.3,782.3,2470.2z"/>
		<path id="XMLID_386_" class="st2" d="M812.2,2472.6l0.7,2.9c-2,0.8-4.2,1.2-6.5,1.2c-2.5,0-4.3-0.5-5.4-1.5
			c-1.1-1-1.7-2.7-1.7-5.2v-21.9h-6v-3.2h6v-7.4l3.7-0.5v7.9h9.5l-0.4,3.2H803v21.5c0,1.5,0.2,2.5,0.7,3.1c0.4,0.6,1.4,0.8,2.9,0.8
			C808.4,2473.5,810.3,2473.2,812.2,2472.6z"/>
		<path id="XMLID_388_" class="st2" d="M824.9,2439h-3.7v-6.8h3.7V2439z M824.9,2476.1h-3.7v-31.1h3.7V2476.1z"/>
		<path id="XMLID_391_" class="st2" d="M859.2,2476.1h-3.7v-25.2c0-2.1-1.1-3.1-3.4-3.1c-1.3,0-3.2,0.4-5.6,1.1
			c-2.4,0.7-4.5,1.5-6.4,2.5v24.7h-3.7v-31.1h3.3l0.3,2.8c1.9-0.9,4-1.7,6.4-2.4c2.4-0.7,4.5-1.1,6.2-1.1c4.4,0,6.6,2.3,6.6,7
			V2476.1z"/>
		<path id="XMLID_393_" class="st2" d="M893,2455.6c0,7.3-4,10.9-12,10.9c-1.5,0-2.9-0.1-4.2-0.4c-1.6,1.3-2.4,2.7-2.4,4.1
			c0,1.3,0.9,2.1,2.8,2.2l9,0.7c2.8,0.2,4.8,0.9,5.9,2.2c1.2,1.2,1.8,3,1.8,5.2c0,3.2-1,5.5-2.9,6.8c-1.9,1.3-5.4,1.9-10.4,1.9
			c-3.8,0-7.4-0.5-10.9-1.5l0.6-2.9c3.7,0.9,7.2,1.3,10.5,1.3c4,0,6.5-0.4,7.7-1.2c1.2-0.8,1.8-2.2,1.8-4.1c0-1.5-0.4-2.6-1.1-3.3
			c-0.7-0.7-2-1.1-3.9-1.2c-4-0.3-6.8-0.4-8.4-0.6c-4.1-0.3-6.1-2.2-6.1-5.5c0-2,1-3.8,2.9-5.2c-3.1-1.7-4.6-4.9-4.6-9.3v-0.4
			c0-3.7,0.9-6.4,2.8-8.2c1.9-1.8,4.9-2.7,9.2-2.7c2.1,0,3.8,0.2,5.2,0.6h8.6v2.7l-3.9,0.3c1.4,1.7,2,4.2,2,7.3V2455.6z
			 M889.4,2455.1c0-2.8-0.6-4.8-1.9-5.9c-1.2-1.1-3.4-1.7-6.5-1.7c-3.1,0-5.3,0.6-6.5,1.7c-1.2,1.1-1.9,3.1-1.9,5.9v0.6
			c0,2.9,0.7,4.8,2,5.9c1.3,1.1,3.5,1.7,6.4,1.7c2.9,0,5-0.6,6.4-1.7c1.3-1.2,2-3.1,2-5.9V2455.1z"/>
		<path id="XMLID_396_" class="st2" d="M927.4,2476.1h-5.6l-7.1-31.1h3.5l6.4,28.6l8.4-28.6h5l8.4,28.6l6.5-28.6h3.5l-7.1,31.1h-5.6
			l-8.2-28.5L927.4,2476.1z"/>
		<path id="XMLID_398_" class="st2" d="M986.8,2476.1h-3.7v-25.2c0-2.1-1.1-3.1-3.4-3.1c-1.3,0-3.2,0.4-5.6,1.1
			c-2.4,0.7-4.5,1.5-6.4,2.5v24.7h-3.7v-43.9l3.7-0.5v16c4.7-2.3,8.8-3.4,12.5-3.4c4.4,0,6.6,2.3,6.6,7V2476.1z"/>
		<path id="XMLID_400_" class="st2" d="M1020.3,2444.9l-10.6,31.1l-4.6,12.6h-3.6l4.7-12.6h-2.1l-10.6-31.1h3.8l9.6,28.5l9.7-28.5
			H1020.3z"/>
		<path id="XMLID_402_" class="st2" d="M1064.1,2444.9l-10.6,31.1l-4.6,12.6h-3.6l4.7-12.6h-2.1l-10.6-31.1h3.8l9.6,28.5l9.7-28.5
			H1064.1z"/>
		<path id="XMLID_404_" class="st2" d="M1093.4,2465.4c0,3.5-1,6.2-2.9,8.2c-2,2-5,3.1-9.1,3.1c-4.1,0-7.2-1-9.1-3.1
			c-2-2-2.9-4.8-2.9-8.2v-9.8c0-3.5,1-6.2,2.9-8.2c2-2,5-3.1,9.1-3.1c4.1,0,7.2,1,9.1,3.1c2,2,2.9,4.8,2.9,8.2V2465.4z
			 M1089.6,2465.5v-10c0-2.6-0.7-4.6-2-5.9c-1.3-1.3-3.5-2-6.4-2c-2.9,0-5,0.7-6.4,2c-1.3,1.3-2,3.3-2,5.9v10c0,2.6,0.7,4.6,2,5.9
			c1.3,1.3,3.5,2,6.4,2c2.9,0,5-0.6,6.4-2C1089,2470.1,1089.6,2468.2,1089.6,2465.5z"/>
		<path id="XMLID_407_" class="st2" d="M1102.9,2444.9h3.7v25.2c0,2.1,1.1,3.1,3.4,3.1c1.3,0,3.2-0.4,5.6-1.1
			c2.4-0.7,4.5-1.5,6.4-2.5v-24.7h3.7v31.1h-3.3l-0.3-2.8c-1.9,0.9-4,1.7-6.4,2.4c-2.4,0.7-4.5,1.1-6.2,1.1c-4.4,0-6.6-2.3-6.6-7
			V2444.9z"/>
		<path id="XMLID_409_" class="st2" d="M1150.3,2444.3l0.4,3.6c-2.2,0.9-5.5,2.9-9.8,5.8v22.4h-3.7v-31.1h3.3l0.2,4.7
			C1145,2446.9,1148.2,2445.1,1150.3,2444.3z"/>
		<path id="XMLID_411_" class="st2" d="M1195.4,2452.9v14.2c0,6.4-3.2,9.6-9.6,9.6c-2.9,0-6.1-0.3-9.6-1v13l-3.7,0.5v-44.2h3.4
			l0.2,2.9c3.2-2.4,6.6-3.6,10.5-3.6C1192.5,2444.3,1195.4,2447.2,1195.4,2452.9z M1176.2,2451.6v20.7c3.5,0.7,6.7,1.1,9.7,1.1
			c2,0,3.5-0.5,4.4-1.5c0.9-1,1.4-2.6,1.4-4.7v-14.2c0-1.9-0.4-3.2-1.2-4.1c-0.8-0.8-2.2-1.2-4.2-1.2
			C1182.9,2447.6,1179.5,2448.9,1176.2,2451.6z"/>
		<path id="XMLID_414_" class="st2" d="M1218.9,2444.3l0.4,3.6c-2.2,0.9-5.5,2.9-9.8,5.8v22.4h-3.7v-31.1h3.3l0.2,4.7
			C1213.6,2446.9,1216.8,2445.1,1218.9,2444.3z"/>
		<path id="XMLID_416_" class="st2" d="M1248.6,2465.4c0,3.5-1,6.2-2.9,8.2c-2,2-5,3.1-9.1,3.1s-7.2-1-9.1-3.1c-2-2-2.9-4.8-2.9-8.2
			v-9.8c0-3.5,1-6.2,2.9-8.2c2-2,5-3.1,9.1-3.1s7.2,1,9.1,3.1c2,2,2.9,4.8,2.9,8.2V2465.4z M1244.9,2465.5v-10c0-2.6-0.7-4.6-2-5.9
			c-1.3-1.3-3.5-2-6.4-2c-2.9,0-5,0.7-6.4,2c-1.3,1.3-2,3.3-2,5.9v10c0,2.6,0.7,4.6,2,5.9c1.3,1.3,3.5,2,6.4,2c2.9,0,5-0.6,6.4-2
			C1244.2,2470.1,1244.9,2468.2,1244.9,2465.5z"/>
		<path id="XMLID_419_" class="st2" d="M1281.4,2452.9v14.2c0,6.4-3.2,9.6-9.6,9.6c-2.9,0-6.1-0.3-9.6-1v13l-3.7,0.5v-44.2h3.4
			l0.2,2.9c3.2-2.4,6.6-3.6,10.5-3.6C1278.5,2444.3,1281.4,2447.2,1281.4,2452.9z M1262.2,2451.6v20.7c3.5,0.7,6.7,1.1,9.7,1.1
			c2,0,3.5-0.5,4.4-1.5c0.9-1,1.4-2.6,1.4-4.7v-14.2c0-1.9-0.4-3.2-1.2-4.1c-0.8-0.8-2.2-1.2-4.2-1.2
			C1268.9,2447.6,1265.5,2448.9,1262.2,2451.6z"/>
		<path id="XMLID_422_" class="st2" d="M1314.4,2465.4c0,3.5-1,6.2-2.9,8.2c-2,2-5,3.1-9.1,3.1s-7.2-1-9.1-3.1c-2-2-2.9-4.8-2.9-8.2
			v-9.8c0-3.5,1-6.2,2.9-8.2c2-2,5-3.1,9.1-3.1s7.2,1,9.1,3.1c2,2,2.9,4.8,2.9,8.2V2465.4z M1310.7,2465.5v-10c0-2.6-0.7-4.6-2-5.9
			c-1.3-1.3-3.5-2-6.4-2c-2.9,0-5,0.7-6.4,2c-1.3,1.3-2,3.3-2,5.9v10c0,2.6,0.7,4.6,2,5.9c1.3,1.3,3.5,2,6.4,2c2.9,0,5-0.6,6.4-2
			C1310,2470.1,1310.7,2468.2,1310.7,2465.5z"/>
		<path id="XMLID_425_" class="st2" d="M1342.9,2468.2c0,3-0.7,5.1-2.2,6.5s-4.2,2-8.2,2c-3.5,0-6.6-0.5-9.1-1.6l0.6-3
			c2.8,0.9,5.5,1.3,8.2,1.3c2.8,0,4.7-0.3,5.6-1c0.9-0.7,1.3-2,1.3-4c0-1.3,0-2.2-0.1-2.7c-0.1-0.5-0.4-1.1-0.9-1.6
			c-0.5-0.5-1.2-0.9-2.1-1.2c-0.9-0.3-2.2-0.6-4.2-1.1c-2.6-0.6-4.5-1.3-5.7-2.1c-1.2-0.8-2-1.7-2.3-2.7c-0.3-1-0.5-2.6-0.5-4.7
			c0-2.7,0.8-4.7,2.3-6c1.5-1.3,4.2-2,7.9-2c3.4,0,6.3,0.4,8.8,1.1l-0.4,3.1c-2.9-0.6-5.8-0.9-8.7-0.9c-2.6,0-4.3,0.3-5.1,1
			s-1.2,1.9-1.2,3.8c0,2.2,0.3,3.6,0.9,4.2c0.6,0.6,2.3,1.3,5.1,2c2.3,0.6,4.1,1.1,5.4,1.6c1.2,0.5,2.2,1.1,2.8,1.9s1.1,1.6,1.2,2.4
			C1342.8,2465.3,1342.9,2466.5,1342.9,2468.2z"/>
		<path id="XMLID_427_" class="st2" d="M1373.5,2453.3v22.8h-3.2l-0.3-2.4c-3.3,2-6.8,3.1-10.6,3.1c-5.4,0-8.1-2.9-8.1-8.7
			c0-3.2,0.7-5.4,2.2-6.7c1.4-1.3,3.8-1.9,7-1.9h9.2v-6.1c0-2.1-0.6-3.6-1.7-4.4c-1.2-0.9-3-1.3-5.6-1.3c-2.7,0-5.8,0.3-9.2,1
			l-0.6-3.1c2.9-0.8,6.1-1.2,9.6-1.2c3.9,0,6.8,0.8,8.6,2.3C1372.7,2448.1,1373.5,2450.3,1373.5,2453.3z M1369.8,2470.2v-7.5h-9.1
			c-2.1,0-3.6,0.4-4.4,1.2c-0.8,0.8-1.2,2.2-1.2,4.2c0,2,0.3,3.3,1,4.1c0.7,0.8,2,1.2,4.1,1.2
			C1363.6,2473.4,1366.8,2472.3,1369.8,2470.2z"/>
		<path id="XMLID_430_" class="st2" d="M1388.1,2476.1h-3.7v-43.9l3.7-0.5V2476.1z"/>
		<path id="XMLID_432_" class="st2" d="M1418.1,2439h-3.7v-6.8h3.7V2439z M1418.1,2476.1h-3.7v-31.1h3.7V2476.1z"/>
		<path id="XMLID_435_" class="st2" d="M1448.1,2468.2c0,3-0.7,5.1-2.2,6.5s-4.2,2-8.2,2c-3.5,0-6.6-0.5-9.1-1.6l0.6-3
			c2.8,0.9,5.5,1.3,8.2,1.3c2.8,0,4.7-0.3,5.6-1c0.9-0.7,1.3-2,1.3-4c0-1.3,0-2.2-0.1-2.7c-0.1-0.5-0.4-1.1-0.9-1.6
			c-0.5-0.5-1.2-0.9-2.1-1.2c-0.9-0.3-2.2-0.6-4.2-1.1c-2.6-0.6-4.5-1.3-5.7-2.1c-1.2-0.8-2-1.7-2.3-2.7c-0.3-1-0.5-2.6-0.5-4.7
			c0-2.7,0.8-4.7,2.3-6c1.5-1.3,4.2-2,7.9-2c3.4,0,6.3,0.4,8.8,1.1l-0.4,3.1c-2.9-0.6-5.8-0.9-8.7-0.9c-2.6,0-4.3,0.3-5.1,1
			s-1.2,1.9-1.2,3.8c0,2.2,0.3,3.6,0.9,4.2c0.6,0.6,2.3,1.3,5.1,2c2.3,0.6,4.1,1.1,5.4,1.6c1.2,0.5,2.2,1.1,2.8,1.9s1.1,1.6,1.2,2.4
			C1448,2465.3,1448.1,2466.5,1448.1,2468.2z"/>
		<path id="XMLID_437_" class="st2" d="M1476.4,2439h-3.7v-6.8h3.7V2439z M1476.4,2476.1h-3.7v-31.1h3.7V2476.1z"/>
		<path id="XMLID_440_" class="st2" d="M1529.8,2476.1h-3.7v-25.2c0-2.1-1.1-3.1-3.4-3.1c-1.5,0-3.3,0.3-5.6,1
			c-2.3,0.7-4.4,1.5-6.4,2.6v24.7h-3.7v-25.2c0-2.1-1.1-3.1-3.4-3.1c-1.3,0-3.2,0.4-5.6,1.1s-4.5,1.5-6.4,2.5v24.7h-3.7v-31.1h3.3
			l0.3,2.8c1.9-0.9,4-1.7,6.4-2.4c2.4-0.7,4.5-1.1,6.2-1.1c3.1,0,5.1,1.2,6,3.5c2-0.9,4.2-1.7,6.7-2.4c2.5-0.7,4.6-1.1,6.4-1.1
			c4.4,0,6.6,2.3,6.6,7V2476.1z"/>
		<path id="XMLID_442_" class="st2" d="M1563.8,2452.9v14.2c0,6.4-3.2,9.6-9.6,9.6c-2.9,0-6.1-0.3-9.6-1v13l-3.7,0.5v-44.2h3.4
			l0.2,2.9c3.2-2.4,6.6-3.6,10.5-3.6C1560.9,2444.3,1563.8,2447.2,1563.8,2452.9z M1544.7,2451.6v20.7c3.5,0.7,6.7,1.1,9.7,1.1
			c2,0,3.5-0.5,4.4-1.5c0.9-1,1.4-2.6,1.4-4.7v-14.2c0-1.9-0.4-3.2-1.2-4.1c-0.8-0.8-2.2-1.2-4.2-1.2
			C1551.3,2447.6,1547.9,2448.9,1544.7,2451.6z"/>
		<path id="XMLID_445_" class="st2" d="M1596.8,2465.4c0,3.5-1,6.2-2.9,8.2c-2,2-5,3.1-9.1,3.1s-7.2-1-9.1-3.1c-2-2-2.9-4.8-2.9-8.2
			v-9.8c0-3.5,1-6.2,2.9-8.2c2-2,5-3.1,9.1-3.1s7.2,1,9.1,3.1c2,2,2.9,4.8,2.9,8.2V2465.4z M1593.1,2465.5v-10c0-2.6-0.7-4.6-2-5.9
			c-1.3-1.3-3.5-2-6.4-2c-2.9,0-5,0.7-6.4,2c-1.3,1.3-2,3.3-2,5.9v10c0,2.6,0.7,4.6,2,5.9c1.3,1.3,3.5,2,6.4,2c2.9,0,5-0.6,6.4-2
			C1592.5,2470.1,1593.1,2468.2,1593.1,2465.5z"/>
		<path id="XMLID_448_" class="st2" d="M1619.9,2444.3l0.4,3.6c-2.2,0.9-5.5,2.9-9.8,5.8v22.4h-3.7v-31.1h3.3l0.2,4.7
			C1614.5,2446.9,1617.7,2445.1,1619.9,2444.3z"/>
		<path id="XMLID_450_" class="st2" d="M1642.8,2472.6l0.7,2.9c-2,0.8-4.2,1.2-6.5,1.2c-2.5,0-4.3-0.5-5.4-1.5
			c-1.1-1-1.7-2.7-1.7-5.2v-21.9h-6v-3.2h6v-7.4l3.7-0.5v7.9h9.5l-0.4,3.2h-9.1v21.5c0,1.5,0.2,2.5,0.7,3.1c0.4,0.6,1.4,0.8,2.9,0.8
			C1639,2473.5,1640.9,2473.2,1642.8,2472.6z"/>
		<path id="XMLID_452_" class="st2" d="M1672.5,2453.3v22.8h-3.2l-0.3-2.4c-3.3,2-6.8,3.1-10.6,3.1c-5.4,0-8.1-2.9-8.1-8.7
			c0-3.2,0.7-5.4,2.2-6.7c1.4-1.3,3.8-1.9,7-1.9h9.2v-6.1c0-2.1-0.6-3.6-1.7-4.4c-1.2-0.9-3-1.3-5.6-1.3c-2.7,0-5.8,0.3-9.2,1
			l-0.6-3.1c2.9-0.8,6.1-1.2,9.6-1.2c3.9,0,6.8,0.8,8.6,2.3C1671.6,2448.1,1672.5,2450.3,1672.5,2453.3z M1668.8,2470.2v-7.5h-9.1
			c-2.1,0-3.6,0.4-4.4,1.2c-0.8,0.8-1.2,2.2-1.2,4.2c0,2,0.3,3.3,1,4.1c0.7,0.8,2,1.2,4.1,1.2
			C1662.6,2473.4,1665.7,2472.3,1668.8,2470.2z"/>
		<path id="XMLID_455_" class="st2" d="M1706.1,2476.1h-3.7v-25.2c0-2.1-1.1-3.1-3.4-3.1c-1.3,0-3.2,0.4-5.6,1.1s-4.5,1.5-6.4,2.5
			v24.7h-3.7v-31.1h3.3l0.3,2.8c1.9-0.9,4-1.7,6.4-2.4c2.4-0.7,4.5-1.1,6.2-1.1c4.4,0,6.6,2.3,6.6,7V2476.1z"/>
		<path id="XMLID_457_" class="st2" d="M1732.7,2472.6l0.7,2.9c-2,0.8-4.2,1.2-6.5,1.2c-2.5,0-4.3-0.5-5.4-1.5
			c-1.1-1-1.7-2.7-1.7-5.2v-21.9h-6v-3.2h6v-7.4l3.7-0.5v7.9h9.5l-0.4,3.2h-9.1v21.5c0,1.5,0.2,2.5,0.7,3.1c0.4,0.6,1.4,0.8,2.9,0.8
			C1728.9,2473.5,1730.7,2473.2,1732.7,2472.6z"/>
		<path id="XMLID_459_" class="st2" d="M1742.9,2476.1v-5.5h4v5.5l-3.1,6.9l-1.8-0.8l2.3-6.1H1742.9z"/>
		<path id="XMLID_461_" class="st2" d="M217.6,2572h-3.7v-43.9l3.7-0.5V2572z"/>
		<path id="XMLID_463_" class="st2" d="M231.2,2561.4c0,2.9,0.6,4.9,1.8,6.1c1.2,1.2,3.3,1.8,6.3,1.8c2.9,0,6.2-0.5,9.8-1.5l0.6,3
			c-3.2,1.2-6.8,1.7-10.7,1.7c-4.2,0-7.2-1-8.9-2.9c-1.8-2-2.7-4.8-2.7-8.4v-9.8c0-7.5,3.9-11.3,11.6-11.3c7.5,0,11.3,3.8,11.3,11.3
			v6h-19.2V2561.4z M231.2,2551.4v2.8h15.6v-2.8c0-2.7-0.6-4.7-1.7-6c-1.2-1.3-3.1-2-5.9-2s-4.8,0.7-6.1,2
			C231.8,2546.7,231.2,2548.7,231.2,2551.4z"/>
		<path id="XMLID_466_" class="st2" d="M282.5,2540.8L272,2572h-5.7l-10.6-31.1h3.8l9.6,28.5l9.7-28.5H282.5z"/>
		<path id="XMLID_468_" class="st2" d="M291.7,2561.4c0,2.9,0.6,4.9,1.8,6.1c1.2,1.2,3.3,1.8,6.3,1.8c2.9,0,6.2-0.5,9.8-1.5l0.6,3
			c-3.2,1.2-6.8,1.7-10.7,1.7c-4.2,0-7.2-1-8.9-2.9c-1.8-2-2.7-4.8-2.7-8.4v-9.8c0-7.5,3.9-11.3,11.6-11.3c7.5,0,11.3,3.8,11.3,11.3
			v6h-19.2V2561.4z M291.7,2551.4v2.8h15.6v-2.8c0-2.7-0.6-4.7-1.7-6c-1.2-1.3-3.1-2-5.9-2s-4.8,0.7-6.1,2
			C292.3,2546.7,291.7,2548.7,291.7,2551.4z"/>
		<path id="XMLID_471_" class="st2" d="M333.9,2540.2l0.4,3.6c-2.2,0.9-5.5,2.9-9.8,5.8v22.4h-3.7v-31.1h3.3l0.2,4.7
			C328.6,2542.8,331.8,2541,333.9,2540.2z"/>
		<path id="XMLID_473_" class="st2" d="M361.7,2549.2v22.8h-3.2l-0.3-2.4c-3.3,2-6.8,3.1-10.6,3.1c-5.4,0-8.1-2.9-8.1-8.7
			c0-3.2,0.7-5.4,2.2-6.7c1.4-1.3,3.8-1.9,7-1.9h9.2v-6.1c0-2.1-0.6-3.6-1.7-4.4c-1.2-0.9-3-1.3-5.6-1.3c-2.7,0-5.8,0.3-9.2,1
			l-0.6-3.1c2.9-0.8,6.1-1.2,9.6-1.2c3.9,0,6.8,0.8,8.6,2.3C360.9,2544,361.7,2546.2,361.7,2549.2z M358,2566.1v-7.5H349
			c-2.1,0-3.6,0.4-4.4,1.2c-0.8,0.8-1.2,2.2-1.2,4.2c0,2,0.3,3.3,1,4.1c0.7,0.8,2,1.2,4.1,1.2C351.8,2569.3,355,2568.2,358,2566.1z"
			/>
		<path id="XMLID_476_" class="st2" d="M395.3,2551.5c0,7.3-4,10.9-12,10.9c-1.5,0-2.9-0.1-4.2-0.4c-1.6,1.3-2.4,2.7-2.4,4.1
			c0,1.3,0.9,2.1,2.8,2.2l9,0.7c2.8,0.2,4.8,0.9,5.9,2.2c1.2,1.2,1.8,3,1.8,5.2c0,3.2-1,5.5-2.9,6.8c-1.9,1.3-5.4,1.9-10.4,1.9
			c-3.8,0-7.4-0.5-10.9-1.5l0.6-2.9c3.7,0.9,7.2,1.3,10.5,1.3c4,0,6.5-0.4,7.7-1.2c1.2-0.8,1.8-2.2,1.8-4.1c0-1.5-0.4-2.6-1.1-3.3
			c-0.7-0.7-2-1.1-3.9-1.2c-4-0.3-6.8-0.4-8.4-0.6c-4.1-0.3-6.1-2.2-6.1-5.5c0-2,1-3.8,2.9-5.2c-3.1-1.7-4.6-4.9-4.6-9.3v-0.4
			c0-3.7,0.9-6.4,2.8-8.2c1.9-1.8,4.9-2.7,9.2-2.7c2.1,0,3.8,0.2,5.2,0.6h8.6v2.7l-3.9,0.3c1.4,1.7,2,4.2,2,7.3V2551.5z M391.7,2551
			c0-2.8-0.6-4.8-1.9-5.9c-1.2-1.1-3.4-1.7-6.5-1.7c-3.1,0-5.3,0.6-6.5,1.7c-1.2,1.1-1.9,3.1-1.9,5.9v0.6c0,2.9,0.7,4.8,2,5.9
			c1.3,1.1,3.5,1.7,6.4,1.7c2.9,0,5-0.6,6.4-1.7c1.3-1.2,2-3.1,2-5.9V2551z"/>
		<path id="XMLID_479_" class="st2" d="M407.8,2561.4c0,2.9,0.6,4.9,1.8,6.1c1.2,1.2,3.3,1.8,6.3,1.8c2.9,0,6.2-0.5,9.8-1.5l0.6,3
			c-3.2,1.2-6.8,1.7-10.7,1.7c-4.2,0-7.2-1-8.9-2.9c-1.8-2-2.7-4.8-2.7-8.4v-9.8c0-7.5,3.9-11.3,11.6-11.3c7.5,0,11.3,3.8,11.3,11.3
			v6h-19.2V2561.4z M407.8,2551.4v2.8h15.6v-2.8c0-2.7-0.6-4.7-1.7-6c-1.2-1.3-3.1-2-5.9-2s-4.8,0.7-6.1,2
			C408.5,2546.7,407.8,2548.7,407.8,2551.4z"/>
		<path id="XMLID_482_" class="st2" d="M460.5,2572H455l-7.1-31.1h3.5l6.4,28.6l8.4-28.6h5l8.4,28.6l6.5-28.6h3.5l-7.1,31.1h-5.6
			l-8.2-28.5L460.5,2572z"/>
		<path id="XMLID_484_" class="st2" d="M499.4,2561.4c0,2.9,0.6,4.9,1.8,6.1c1.2,1.2,3.3,1.8,6.3,1.8c2.9,0,6.2-0.5,9.8-1.5l0.6,3
			c-3.2,1.2-6.8,1.7-10.7,1.7c-4.2,0-7.2-1-8.9-2.9c-1.8-2-2.7-4.8-2.7-8.4v-9.8c0-7.5,3.9-11.3,11.6-11.3c7.5,0,11.3,3.8,11.3,11.3
			v6h-19.2V2561.4z M499.4,2551.4v2.8H515v-2.8c0-2.7-0.6-4.7-1.7-6c-1.2-1.3-3.1-2-5.9-2s-4.8,0.7-6.1,2
			C500,2546.7,499.4,2548.7,499.4,2551.4z"/>
		<path id="XMLID_487_" class="st2" d="M532.2,2572h-3.7v-43.9l3.7-0.5V2572z"/>
		<path id="XMLID_489_" class="st2" d="M547.4,2572h-3.7v-43.9l3.7-0.5V2572z"/>
		<path id="XMLID_491_" class="st2" d="M557.7,2555.6v-3.1h14.8v3.1H557.7z"/>
		<path id="XMLID_493_" class="st2" d="M586.4,2572h-3.7v-43.9l3.7-0.5V2572z M600.4,2540.8h4.6l-12.4,15.3l12.9,15.8h-4.7
			l-12.7-15.8L600.4,2540.8z"/>
		<path id="XMLID_496_" class="st2" d="M636.3,2572h-3.7v-25.2c0-2.1-1.1-3.1-3.4-3.1c-1.3,0-3.2,0.4-5.6,1.1
			c-2.4,0.7-4.5,1.5-6.4,2.5v24.7h-3.7v-31.1h3.3l0.3,2.8c1.9-0.9,4-1.7,6.4-2.4c2.4-0.7,4.5-1.1,6.2-1.1c4.4,0,6.6,2.3,6.6,7V2572z
			"/>
		<path id="XMLID_498_" class="st2" d="M670,2561.3c0,3.5-1,6.2-2.9,8.2c-2,2-5,3.1-9.1,3.1c-4.1,0-7.2-1-9.1-3.1
			c-2-2-2.9-4.8-2.9-8.2v-9.8c0-3.5,1-6.2,2.9-8.2c2-2,5-3.1,9.1-3.1c4.1,0,7.2,1,9.1,3.1c2,2,2.9,4.8,2.9,8.2V2561.3z
			 M666.3,2561.4v-10c0-2.6-0.7-4.6-2-5.9c-1.3-1.3-3.5-2-6.4-2c-2.9,0-5,0.7-6.4,2c-1.3,1.3-2,3.3-2,5.9v10c0,2.6,0.7,4.6,2,5.9
			c1.3,1.3,3.5,2,6.4,2c2.9,0,5-0.6,6.4-2C665.6,2566.1,666.3,2564.1,666.3,2561.4z"/>
		<path id="XMLID_501_" class="st2" d="M688.8,2572h-5.6l-7.1-31.1h3.5l6.4,28.6l8.4-28.6h5l8.4,28.6l6.5-28.6h3.5l-7.1,31.1h-5.6
			l-8.2-28.5L688.8,2572z"/>
		<path id="XMLID_503_" class="st2" d="M748.2,2572h-3.7v-25.2c0-2.1-1.1-3.1-3.4-3.1c-1.3,0-3.2,0.4-5.6,1.1
			c-2.4,0.7-4.5,1.5-6.4,2.5v24.7h-3.7v-31.1h3.3l0.3,2.8c1.9-0.9,4-1.7,6.4-2.4c2.4-0.7,4.5-1.1,6.2-1.1c4.4,0,6.6,2.3,6.6,7V2572z
			"/>
		<path id="XMLID_505_" class="st2" d="M792.7,2564.1c0,3-0.7,5.1-2.2,6.5s-4.2,2-8.2,2c-3.5,0-6.6-0.5-9.1-1.6l0.6-3
			c2.8,0.9,5.5,1.3,8.2,1.3c2.8,0,4.7-0.3,5.6-1c0.9-0.7,1.3-2,1.3-4c0-1.3,0-2.2-0.1-2.7c-0.1-0.5-0.4-1.1-0.9-1.6
			c-0.5-0.5-1.2-0.9-2.1-1.2c-0.9-0.3-2.2-0.6-4.2-1.1c-2.6-0.6-4.5-1.3-5.7-2.1c-1.2-0.8-2-1.7-2.3-2.7c-0.3-1-0.5-2.6-0.5-4.7
			c0-2.7,0.8-4.7,2.3-6s4.2-2,7.9-2c3.4,0,6.3,0.4,8.8,1.1l-0.4,3.1c-2.9-0.6-5.8-0.9-8.7-0.9c-2.6,0-4.3,0.3-5.1,1
			c-0.8,0.7-1.2,1.9-1.2,3.8c0,2.2,0.3,3.6,0.9,4.2c0.6,0.6,2.3,1.3,5.1,2c2.3,0.6,4.1,1.1,5.4,1.6c1.2,0.5,2.2,1.1,2.8,1.9
			c0.7,0.8,1.1,1.6,1.2,2.4C792.6,2561.2,792.7,2562.5,792.7,2564.1z"/>
		<path id="XMLID_507_" class="st2" d="M825.1,2561.3c0,3.5-1,6.2-2.9,8.2c-2,2-5,3.1-9.1,3.1c-4.1,0-7.2-1-9.1-3.1
			c-2-2-2.9-4.8-2.9-8.2v-9.8c0-3.5,1-6.2,2.9-8.2c2-2,5-3.1,9.1-3.1c4.1,0,7.2,1,9.1,3.1c2,2,2.9,4.8,2.9,8.2V2561.3z
			 M821.4,2561.4v-10c0-2.6-0.7-4.6-2-5.9c-1.3-1.3-3.5-2-6.4-2c-2.9,0-5,0.7-6.4,2c-1.3,1.3-2,3.3-2,5.9v10c0,2.6,0.7,4.6,2,5.9
			c1.3,1.3,3.5,2,6.4,2c2.9,0,5-0.6,6.4-2C820.8,2566.1,821.4,2564.1,821.4,2561.4z"/>
		<path id="XMLID_510_" class="st2" d="M834.7,2540.8h3.7v25.2c0,2.1,1.1,3.1,3.4,3.1c1.3,0,3.2-0.4,5.6-1.1
			c2.4-0.7,4.5-1.5,6.4-2.5v-24.7h3.7v31.1h-3.3l-0.3-2.8c-1.9,0.9-4,1.7-6.4,2.4c-2.4,0.7-4.5,1.1-6.2,1.1c-4.4,0-6.6-2.3-6.6-7
			V2540.8z"/>
		<path id="XMLID_512_" class="st2" d="M882.1,2540.2l0.4,3.6c-2.2,0.9-5.5,2.9-9.8,5.8v22.4H869v-31.1h3.3l0.2,4.7
			C876.8,2542.8,880,2541,882.1,2540.2z"/>
		<path id="XMLID_514_" class="st2" d="M891.6,2550.8v11.2c0,2.7,0.6,4.6,1.8,5.7c1.2,1.1,3.3,1.6,6.2,1.6c1.9,0,4.1-0.2,6.7-0.6
			l0.4,3.1c-2.3,0.6-4.6,0.9-7.1,0.9c-4.2,0-7.2-0.9-9-2.7c-1.8-1.8-2.7-4.5-2.7-8V2551c0-3.5,0.9-6.2,2.7-8c1.8-1.8,4.8-2.7,9-2.7
			c2.5,0,4.8,0.3,7.1,0.9l-0.4,3.1c-2.5-0.4-4.7-0.6-6.7-0.6c-2.9,0-5,0.5-6.2,1.6C892.2,2546.2,891.6,2548.1,891.6,2550.8z"/>
		<path id="XMLID_516_" class="st2" d="M917.9,2561.4c0,2.9,0.6,4.9,1.8,6.1c1.2,1.2,3.3,1.8,6.3,1.8c2.9,0,6.2-0.5,9.8-1.5l0.6,3
			c-3.2,1.2-6.8,1.7-10.7,1.7c-4.2,0-7.2-1-8.9-2.9c-1.8-2-2.7-4.8-2.7-8.4v-9.8c0-7.5,3.9-11.3,11.6-11.3c7.5,0,11.3,3.8,11.3,11.3
			v6h-19.2V2561.4z M917.9,2551.4v2.8h15.6v-2.8c0-2.7-0.6-4.7-1.7-6c-1.2-1.3-3.1-2-5.9-2s-4.8,0.7-6.1,2
			C918.5,2546.7,917.9,2548.7,917.9,2551.4z"/>
		<path id="XMLID_519_" class="st2" d="M965.6,2564.1c0,3-0.7,5.1-2.2,6.5s-4.2,2-8.2,2c-3.5,0-6.6-0.5-9.1-1.6l0.6-3
			c2.8,0.9,5.5,1.3,8.2,1.3c2.8,0,4.7-0.3,5.6-1c0.9-0.7,1.3-2,1.3-4c0-1.3,0-2.2-0.1-2.7c-0.1-0.5-0.4-1.1-0.9-1.6
			c-0.5-0.5-1.2-0.9-2.1-1.2c-0.9-0.3-2.2-0.6-4.2-1.1c-2.6-0.6-4.5-1.3-5.7-2.1c-1.2-0.8-2-1.7-2.3-2.7c-0.3-1-0.5-2.6-0.5-4.7
			c0-2.7,0.8-4.7,2.3-6s4.2-2,7.9-2c3.4,0,6.3,0.4,8.8,1.1l-0.4,3.1c-2.9-0.6-5.8-0.9-8.7-0.9c-2.6,0-4.3,0.3-5.1,1
			c-0.8,0.7-1.2,1.9-1.2,3.8c0,2.2,0.3,3.6,0.9,4.2c0.6,0.6,2.3,1.3,5.1,2c2.3,0.6,4.1,1.1,5.4,1.6c1.2,0.5,2.2,1.1,2.8,1.9
			c0.7,0.8,1.1,1.6,1.2,2.4C965.6,2561.2,965.6,2562.5,965.6,2564.1z"/>
		<path id="XMLID_521_" class="st2" d="M1005.6,2568.5l0.7,2.9c-2,0.8-4.2,1.2-6.5,1.2c-2.5,0-4.3-0.5-5.4-1.5
			c-1.1-1-1.7-2.7-1.7-5.2V2544h-6v-3.2h6v-7.4l3.7-0.5v7.9h9.5l-0.4,3.2h-9.1v21.5c0,1.5,0.2,2.5,0.7,3.1s1.4,0.8,2.9,0.8
			C1001.8,2569.4,1003.7,2569.1,1005.6,2568.5z"/>
		<path id="XMLID_523_" class="st2" d="M1037,2561.3c0,3.5-1,6.2-2.9,8.2c-2,2-5,3.1-9.1,3.1c-4.1,0-7.2-1-9.1-3.1
			c-2-2-2.9-4.8-2.9-8.2v-9.8c0-3.5,1-6.2,2.9-8.2c2-2,5-3.1,9.1-3.1c4.1,0,7.2,1,9.1,3.1c2,2,2.9,4.8,2.9,8.2V2561.3z
			 M1033.3,2561.4v-10c0-2.6-0.7-4.6-2-5.9c-1.3-1.3-3.5-2-6.4-2c-2.9,0-5,0.7-6.4,2c-1.3,1.3-2,3.3-2,5.9v10c0,2.6,0.7,4.6,2,5.9
			c1.3,1.3,3.5,2,6.4,2c2.9,0,5-0.6,6.4-2C1032.7,2566.1,1033.3,2564.1,1033.3,2561.4z"/>
		<path id="XMLID_526_" class="st2" d="M1084.6,2549.3v12.3c0,3.7-0.9,6.4-2.8,8.2c-1.9,1.8-5.1,2.8-9.6,2.8
			c-3.8,0-7.3-0.4-10.4-1.2v-43.4l3.7-0.5v15c3-1.6,6.4-2.4,10.2-2.4c3,0,5.3,0.8,6.7,2.4S1084.6,2546.4,1084.6,2549.3z
			 M1065.4,2546.5v22.1c2.3,0.4,4.7,0.6,7.2,0.6c3.2,0,5.3-0.6,6.5-1.9c1.2-1.2,1.8-3.1,1.8-5.6v-12.5c0-1.9-0.4-3.3-1.3-4.1
			c-0.9-0.9-2.4-1.3-4.4-1.3C1071.8,2543.8,1068.5,2544.7,1065.4,2546.5z"/>
		<path id="XMLID_529_" class="st2" d="M1094.5,2540.8h3.7v25.2c0,2.1,1.1,3.1,3.4,3.1c1.3,0,3.2-0.4,5.6-1.1
			c2.4-0.7,4.5-1.5,6.4-2.5v-24.7h3.7v31.1h-3.3l-0.3-2.8c-1.9,0.9-4,1.7-6.4,2.4c-2.4,0.7-4.5,1.1-6.2,1.1c-4.4,0-6.6-2.3-6.6-7
			V2540.8z"/>
		<path id="XMLID_531_" class="st2" d="M1132.5,2535h-3.7v-6.8h3.7V2535z M1132.5,2572h-3.7v-31.1h3.7V2572z"/>
		<path id="XMLID_534_" class="st2" d="M1147.7,2572h-3.7v-43.9l3.7-0.5V2572z"/>
		<path id="XMLID_536_" class="st2" d="M1158.2,2564v-14.2c0-6.4,3.2-9.6,9.6-9.6c2.9,0,6.1,0.3,9.6,1v-13.1l3.7-0.5v44.4h-3.4
			l-0.2-2.9c-3.2,2.4-6.7,3.6-10.5,3.6C1161.2,2572.6,1158.2,2569.8,1158.2,2564z M1177.4,2565.3v-20.7c-3.5-0.7-6.7-1.1-9.7-1.1
			c-2,0-3.5,0.5-4.4,1.5c-0.9,1-1.4,2.6-1.4,4.7v14.2c0,1.9,0.4,3.2,1.2,4.1s2.2,1.2,4.2,1.2
			C1170.8,2569.3,1174.1,2568,1177.4,2565.3z"/>
		<path id="XMLID_539_" class="st2" d="M1209.1,2550.8v11.2c0,2.7,0.6,4.6,1.8,5.7c1.2,1.1,3.3,1.6,6.2,1.6c1.9,0,4.1-0.2,6.7-0.6
			l0.4,3.1c-2.3,0.6-4.6,0.9-7.1,0.9c-4.2,0-7.2-0.9-9-2.7c-1.8-1.8-2.7-4.5-2.7-8V2551c0-3.5,0.9-6.2,2.7-8c1.8-1.8,4.8-2.7,9-2.7
			c2.5,0,4.8,0.3,7.1,0.9l-0.4,3.1c-2.5-0.4-4.7-0.6-6.7-0.6c-2.9,0-5,0.5-6.2,1.6S1209.1,2548.1,1209.1,2550.8z"/>
		<path id="XMLID_541_" class="st2" d="M1246.7,2540.2l0.4,3.6c-2.2,0.9-5.5,2.9-9.8,5.8v22.4h-3.7v-31.1h3.3l0.2,4.7
			C1241.3,2542.8,1244.5,2541,1246.7,2540.2z"/>
		<path id="XMLID_543_" class="st2" d="M1256.4,2561.4c0,2.9,0.6,4.9,1.8,6.1c1.2,1.2,3.3,1.8,6.3,1.8c2.9,0,6.2-0.5,9.8-1.5l0.6,3
			c-3.2,1.2-6.8,1.7-10.7,1.7c-4.2,0-7.2-1-8.9-2.9c-1.8-2-2.7-4.8-2.7-8.4v-9.8c0-7.5,3.9-11.3,11.6-11.3c7.5,0,11.3,3.8,11.3,11.3
			v6h-19.2V2561.4z M1256.4,2551.4v2.8h15.6v-2.8c0-2.7-0.6-4.7-1.7-6c-1.2-1.3-3.1-2-5.9-2s-4.8,0.7-6.1,2
			S1256.4,2548.7,1256.4,2551.4z"/>
		<path id="XMLID_546_" class="st2" d="M1284.6,2564v-14.2c0-6.4,3.2-9.6,9.6-9.6c2.9,0,6.1,0.3,9.6,1v-13.1l3.7-0.5v44.4h-3.4
			l-0.2-2.9c-3.2,2.4-6.7,3.6-10.5,3.6C1287.6,2572.6,1284.6,2569.8,1284.6,2564z M1303.8,2565.3v-20.7c-3.5-0.7-6.7-1.1-9.7-1.1
			c-2,0-3.5,0.5-4.4,1.5c-0.9,1-1.4,2.6-1.4,4.7v14.2c0,1.9,0.4,3.2,1.2,4.1s2.2,1.2,4.2,1.2
			C1297.2,2569.3,1300.5,2568,1303.8,2565.3z"/>
		<path id="XMLID_549_" class="st2" d="M1322.7,2535h-3.7v-6.8h3.7V2535z M1322.7,2572h-3.7v-31.1h3.7V2572z"/>
		<path id="XMLID_552_" class="st2" d="M1357.1,2549.3v12.3c0,3.7-0.9,6.4-2.8,8.2c-1.9,1.8-5.1,2.8-9.6,2.8
			c-3.8,0-7.3-0.4-10.4-1.2v-43.4l3.7-0.5v15c3-1.6,6.4-2.4,10.2-2.4c3,0,5.3,0.8,6.7,2.4S1357.1,2546.4,1357.1,2549.3z
			 M1338,2546.5v22.1c2.3,0.4,4.7,0.6,7.2,0.6c3.2,0,5.3-0.6,6.5-1.9c1.2-1.2,1.8-3.1,1.8-5.6v-12.5c0-1.9-0.4-3.3-1.3-4.1
			c-0.9-0.9-2.4-1.3-4.4-1.3C1344.4,2543.8,1341.1,2544.7,1338,2546.5z"/>
		<path id="XMLID_555_" class="st2" d="M1371.1,2535h-3.7v-6.8h3.7V2535z M1371.1,2572h-3.7v-31.1h3.7V2572z"/>
		<path id="XMLID_558_" class="st2" d="M1386.3,2572h-3.7v-43.9l3.7-0.5V2572z"/>
		<path id="XMLID_560_" class="st2" d="M1401.5,2535h-3.7v-6.8h3.7V2535z M1401.5,2572h-3.7v-31.1h3.7V2572z"/>
		<path id="XMLID_563_" class="st2" d="M1428.4,2568.5l0.7,2.9c-2,0.8-4.2,1.2-6.5,1.2c-2.5,0-4.3-0.5-5.4-1.5
			c-1.1-1-1.7-2.7-1.7-5.2V2544h-6v-3.2h6v-7.4l3.7-0.5v7.9h9.5l-0.4,3.2h-9.1v21.5c0,1.5,0.2,2.5,0.7,3.1c0.4,0.6,1.4,0.8,2.9,0.8
			C1424.6,2569.4,1426.5,2569.1,1428.4,2568.5z"/>
		<path id="XMLID_565_" class="st2" d="M1460,2540.8l-10.6,31.1l-4.6,12.6h-3.6l4.7-12.6h-2.1l-10.6-31.1h3.8l9.6,28.5l9.7-28.5
			H1460z"/>
		<path id="XMLID_567_" class="st2" d="M1462.5,2572v-5.5h4v5.5l-3.1,6.9l-1.8-0.8l2.3-6.1H1462.5z"/>
		<path id="XMLID_569_" class="st2" d="M1513.8,2549.2v22.8h-3.2l-0.3-2.4c-3.3,2-6.8,3.1-10.6,3.1c-5.4,0-8.1-2.9-8.1-8.7
			c0-3.2,0.7-5.4,2.2-6.7c1.4-1.3,3.8-1.9,7-1.9h9.2v-6.1c0-2.1-0.6-3.6-1.7-4.4c-1.2-0.9-3-1.3-5.6-1.3c-2.7,0-5.8,0.3-9.2,1
			l-0.6-3.1c2.9-0.8,6.1-1.2,9.6-1.2c3.9,0,6.8,0.8,8.6,2.3C1512.9,2544,1513.8,2546.2,1513.8,2549.2z M1510.1,2566.1v-7.5h-9.1
			c-2.1,0-3.6,0.4-4.4,1.2c-0.8,0.8-1.2,2.2-1.2,4.2c0,2,0.3,3.3,1,4.1c0.7,0.8,2,1.2,4.1,1.2
			C1503.9,2569.3,1507.1,2568.2,1510.1,2566.1z"/>
		<path id="XMLID_572_" class="st2" d="M1547.4,2572h-3.7v-25.2c0-2.1-1.1-3.1-3.4-3.1c-1.3,0-3.2,0.4-5.6,1.1s-4.5,1.5-6.4,2.5
			v24.7h-3.7v-31.1h3.3l0.3,2.8c1.9-0.9,4-1.7,6.4-2.4c2.4-0.7,4.5-1.1,6.2-1.1c4.4,0,6.6,2.3,6.6,7V2572z"/>
		<path id="XMLID_574_" class="st2" d="M1557.7,2564v-14.2c0-6.4,3.2-9.6,9.6-9.6c2.9,0,6.1,0.3,9.6,1v-13.1l3.7-0.5v44.4h-3.4
			l-0.2-2.9c-3.2,2.4-6.7,3.6-10.5,3.6C1560.6,2572.6,1557.7,2569.8,1557.7,2564z M1576.9,2565.3v-20.7c-3.5-0.7-6.7-1.1-9.7-1.1
			c-2,0-3.5,0.5-4.4,1.5c-0.9,1-1.4,2.6-1.4,4.7v14.2c0,1.9,0.4,3.2,1.2,4.1s2.2,1.2,4.2,1.2
			C1570.2,2569.3,1573.6,2568,1576.9,2565.3z"/>
		<path id="XMLID_577_" class="st2" d="M1625.3,2564.1c0,3-0.7,5.1-2.2,6.5s-4.2,2-8.2,2c-3.5,0-6.6-0.5-9.1-1.6l0.6-3
			c2.8,0.9,5.5,1.3,8.2,1.3c2.8,0,4.7-0.3,5.6-1c0.9-0.7,1.3-2,1.3-4c0-1.3,0-2.2-0.1-2.7c-0.1-0.5-0.4-1.1-0.9-1.6
			c-0.5-0.5-1.2-0.9-2.1-1.2c-0.9-0.3-2.2-0.6-4.2-1.1c-2.6-0.6-4.5-1.3-5.7-2.1c-1.2-0.8-2-1.7-2.3-2.7c-0.3-1-0.5-2.6-0.5-4.7
			c0-2.7,0.8-4.7,2.3-6c1.5-1.3,4.2-2,7.9-2c3.4,0,6.3,0.4,8.8,1.1l-0.4,3.1c-2.9-0.6-5.8-0.9-8.7-0.9c-2.6,0-4.3,0.3-5.1,1
			s-1.2,1.9-1.2,3.8c0,2.2,0.3,3.6,0.9,4.2c0.6,0.6,2.3,1.3,5.1,2c2.3,0.6,4.1,1.1,5.4,1.6c1.2,0.5,2.2,1.1,2.8,1.9s1.1,1.6,1.2,2.4
			C1625.2,2561.2,1625.3,2562.5,1625.3,2564.1z"/>
		<path id="XMLID_579_" class="st2" d="M1658,2572h-3.7v-25.2c0-2.1-1.1-3.1-3.4-3.1c-1.3,0-3.2,0.4-5.6,1.1s-4.5,1.5-6.4,2.5v24.7
			h-3.7v-43.9l3.7-0.5v16c4.7-2.3,8.8-3.4,12.5-3.4c4.4,0,6.6,2.3,6.6,7V2572z"/>
		<path id="XMLID_581_" class="st2" d="M1691.8,2561.3c0,3.5-1,6.2-2.9,8.2c-2,2-5,3.1-9.1,3.1s-7.2-1-9.1-3.1c-2-2-2.9-4.8-2.9-8.2
			v-9.8c0-3.5,1-6.2,2.9-8.2c2-2,5-3.1,9.1-3.1s7.2,1,9.1,3.1c2,2,2.9,4.8,2.9,8.2V2561.3z M1688,2561.4v-10c0-2.6-0.7-4.6-2-5.9
			c-1.3-1.3-3.5-2-6.4-2c-2.9,0-5,0.7-6.4,2c-1.3,1.3-2,3.3-2,5.9v10c0,2.6,0.7,4.6,2,5.9c1.3,1.3,3.5,2,6.4,2c2.9,0,5-0.6,6.4-2
			C1687.4,2566.1,1688,2564.1,1688,2561.4z"/>
		<path id="XMLID_584_" class="st2" d="M1710.5,2572h-5.6l-7.1-31.1h3.5l6.4,28.6l8.4-28.6h5l8.4,28.6l6.5-28.6h3.5l-7.1,31.1h-5.6
			l-8.2-28.5L1710.5,2572z"/>
		<path id="XMLID_586_" class="st2" d="M224.6,2657.2c0,3.5-1,6.2-2.9,8.2c-2,2-5,3.1-9.1,3.1c-4.1,0-7.2-1-9.1-3.1
			c-2-2-2.9-4.8-2.9-8.2v-9.8c0-3.5,1-6.2,2.9-8.2c2-2,5-3.1,9.1-3.1c4.1,0,7.2,1,9.1,3.1c2,2,2.9,4.8,2.9,8.2V2657.2z
			 M220.9,2657.4v-10c0-2.6-0.7-4.6-2-5.9c-1.3-1.3-3.5-2-6.4-2c-2.9,0-5,0.7-6.4,2c-1.3,1.3-2,3.3-2,5.9v10c0,2.6,0.7,4.6,2,5.9
			c1.3,1.3,3.5,2,6.4,2c2.9,0,5-0.6,6.4-2C220.2,2662,220.9,2660,220.9,2657.4z"/>
		<path id="XMLID_589_" class="st2" d="M234.2,2636.8h3.7v25.2c0,2.1,1.1,3.1,3.4,3.1c1.3,0,3.2-0.4,5.6-1.1
			c2.4-0.7,4.5-1.5,6.4-2.5v-24.7h3.7v31.1h-3.3l-0.3-2.8c-1.9,0.9-4,1.7-6.4,2.4c-2.4,0.7-4.5,1.1-6.2,1.1c-4.4,0-6.6-2.3-6.6-7
			V2636.8z"/>
		<path id="XMLID_591_" class="st2" d="M283.8,2664.5l0.7,2.9c-2,0.8-4.2,1.2-6.5,1.2c-2.5,0-4.3-0.5-5.4-1.5
			c-1.1-1-1.7-2.7-1.7-5.2V2640h-6v-3.2h6v-7.4l3.7-0.5v7.9h9.5l-0.4,3.2h-9.1v21.5c0,1.5,0.2,2.5,0.7,3.1c0.4,0.6,1.4,0.8,2.9,0.8
			C280,2665.3,281.9,2665.1,283.8,2664.5z"/>
		<path id="XMLID_593_" class="st2" d="M302.1,2667.9h-5.6l-7.1-31.1h3.5l6.4,28.6l8.4-28.6h5l8.4,28.6l6.5-28.6h3.5l-7.1,31.1h-5.6
			l-8.2-28.5L302.1,2667.9z"/>
		<path id="XMLID_595_" class="st2" d="M359.3,2645.1v22.8h-3.2l-0.3-2.4c-3.3,2-6.8,3.1-10.6,3.1c-5.4,0-8.1-2.9-8.1-8.7
			c0-3.2,0.7-5.4,2.2-6.7c1.4-1.3,3.8-1.9,7-1.9h9.2v-6.1c0-2.1-0.6-3.6-1.7-4.4c-1.2-0.9-3-1.3-5.6-1.3c-2.7,0-5.8,0.3-9.2,1
			l-0.6-3.1c2.9-0.8,6.1-1.2,9.6-1.2c3.9,0,6.8,0.8,8.6,2.3C358.4,2639.9,359.3,2642.2,359.3,2645.1z M355.5,2662v-7.5h-9.1
			c-2.1,0-3.6,0.4-4.4,1.2c-0.8,0.8-1.2,2.2-1.2,4.2c0,2,0.3,3.3,1,4.1c0.7,0.8,2,1.2,4.1,1.2C349.3,2665.2,352.5,2664.2,355.5,2662
			z"/>
		<path id="XMLID_598_" class="st2" d="M383.2,2636.1l0.4,3.6c-2.2,0.9-5.5,2.9-9.8,5.8v22.4h-3.7v-31.1h3.3l0.2,4.7
			C377.9,2638.7,381.1,2636.9,383.2,2636.1z"/>
		<path id="XMLID_600_" class="st2" d="M389.5,2659.9v-14.2c0-6.4,3.2-9.6,9.6-9.6c2.9,0,6.1,0.3,9.6,1V2624l3.7-0.5v44.4H409
			l-0.2-2.9c-3.2,2.4-6.6,3.6-10.5,3.6C392.4,2668.5,389.5,2665.7,389.5,2659.9z M408.7,2661.3v-20.7c-3.5-0.7-6.7-1.1-9.7-1.1
			c-2,0-3.5,0.5-4.4,1.5c-0.9,1-1.4,2.6-1.4,4.7v14.2c0,1.9,0.4,3.2,1.2,4.1c0.8,0.8,2.2,1.2,4.2,1.2
			C402,2665.2,405.4,2663.9,408.7,2661.3z"/>
		<path id="XMLID_603_" class="st2" d="M457.2,2660c0,3-0.7,5.1-2.2,6.5s-4.2,2-8.2,2c-3.5,0-6.6-0.5-9.1-1.6l0.6-3
			c2.8,0.9,5.5,1.3,8.2,1.3c2.8,0,4.7-0.3,5.6-1c0.9-0.7,1.3-2,1.3-4c0-1.3,0-2.2-0.1-2.7c-0.1-0.5-0.4-1.1-0.9-1.6
			c-0.5-0.5-1.2-0.9-2.1-1.2c-0.9-0.3-2.2-0.6-4.2-1.1c-2.6-0.6-4.5-1.3-5.7-2.1c-1.2-0.8-2-1.7-2.3-2.7c-0.3-1-0.5-2.6-0.5-4.7
			c0-2.7,0.8-4.7,2.3-6s4.2-2,7.9-2c3.4,0,6.3,0.4,8.8,1.1l-0.4,3.1c-2.9-0.6-5.8-0.9-8.7-0.9c-2.6,0-4.3,0.3-5.1,1
			c-0.8,0.7-1.2,1.9-1.2,3.8c0,2.2,0.3,3.6,0.9,4.2c0.6,0.6,2.3,1.3,5.1,2c2.3,0.6,4.1,1.1,5.4,1.6c1.2,0.5,2.2,1.1,2.8,1.9
			c0.7,0.8,1.1,1.6,1.2,2.4C457.1,2657.2,457.2,2658.4,457.2,2660z"/>
		<path id="XMLID_605_" class="st2" d="M470.8,2630.9h-3.7v-6.8h3.7V2630.9z M470.8,2667.9h-3.7v-31.1h3.7V2667.9z"/>
		<path id="XMLID_608_" class="st2" d="M504.9,2647.4c0,7.3-4,10.9-12,10.9c-1.5,0-2.9-0.1-4.2-0.4c-1.6,1.3-2.4,2.7-2.4,4.1
			c0,1.3,0.9,2.1,2.8,2.2l9,0.7c2.8,0.2,4.8,0.9,5.9,2.2c1.2,1.2,1.8,3,1.8,5.2c0,3.2-1,5.5-2.9,6.8c-1.9,1.3-5.4,1.9-10.4,1.9
			c-3.8,0-7.4-0.5-10.9-1.5l0.6-2.9c3.7,0.9,7.2,1.3,10.5,1.3c4,0,6.5-0.4,7.7-1.2c1.2-0.8,1.8-2.2,1.8-4.1c0-1.5-0.4-2.6-1.1-3.3
			c-0.7-0.7-2-1.1-3.9-1.2c-4-0.3-6.8-0.4-8.4-0.6c-4.1-0.3-6.1-2.2-6.1-5.5c0-2,1-3.8,2.9-5.2c-3.1-1.7-4.6-4.9-4.6-9.3v-0.4
			c0-3.7,0.9-6.4,2.8-8.2c1.9-1.8,4.9-2.7,9.2-2.7c2.1,0,3.8,0.2,5.2,0.6h8.6v2.7l-3.9,0.3c1.4,1.7,2,4.2,2,7.3V2647.4z
			 M501.3,2646.9c0-2.8-0.6-4.8-1.9-5.9c-1.2-1.1-3.4-1.7-6.5-1.7c-3.1,0-5.3,0.6-6.5,1.7c-1.2,1.1-1.9,3.1-1.9,5.9v0.6
			c0,2.9,0.7,4.8,2,5.9c1.3,1.1,3.5,1.7,6.4,1.7c2.9,0,5-0.6,6.4-1.7c1.3-1.2,2-3.1,2-5.9V2646.9z"/>
		<path id="XMLID_611_" class="st2" d="M538.5,2667.9h-3.7v-25.2c0-2.1-1.1-3.1-3.4-3.1c-1.3,0-3.2,0.4-5.6,1.1
			c-2.4,0.7-4.5,1.5-6.4,2.5v24.7h-3.7v-31.1h3.3l0.3,2.8c1.9-0.9,4-1.7,6.4-2.4c2.4-0.7,4.5-1.1,6.2-1.1c4.4,0,6.6,2.3,6.6,7
			V2667.9z"/>
		<path id="XMLID_613_" class="st2" d="M568.2,2660c0,3-0.7,5.1-2.2,6.5s-4.2,2-8.2,2c-3.5,0-6.6-0.5-9.1-1.6l0.6-3
			c2.8,0.9,5.5,1.3,8.2,1.3c2.8,0,4.7-0.3,5.6-1c0.9-0.7,1.3-2,1.3-4c0-1.3,0-2.2-0.1-2.7c-0.1-0.5-0.4-1.1-0.9-1.6
			c-0.5-0.5-1.2-0.9-2.1-1.2c-0.9-0.3-2.2-0.6-4.2-1.1c-2.6-0.6-4.5-1.3-5.7-2.1c-1.2-0.8-2-1.7-2.3-2.7c-0.3-1-0.5-2.6-0.5-4.7
			c0-2.7,0.8-4.7,2.3-6s4.2-2,7.9-2c3.4,0,6.3,0.4,8.8,1.1l-0.4,3.1c-2.9-0.6-5.8-0.9-8.7-0.9c-2.6,0-4.3,0.3-5.1,1
			c-0.8,0.7-1.2,1.9-1.2,3.8c0,2.2,0.3,3.6,0.9,4.2c0.6,0.6,2.3,1.3,5.1,2c2.3,0.6,4.1,1.1,5.4,1.6c1.2,0.5,2.2,1.1,2.8,1.9
			c0.7,0.8,1.1,1.6,1.2,2.4C568.1,2657.2,568.2,2658.4,568.2,2660z"/>
		<path id="XMLID_615_" class="st2" d="M615.4,2657.2c0,3.5-1,6.2-2.9,8.2c-2,2-5,3.1-9.1,3.1c-4.1,0-7.2-1-9.1-3.1
			c-2-2-2.9-4.8-2.9-8.2v-9.8c0-3.5,1-6.2,2.9-8.2c2-2,5-3.1,9.1-3.1c4.1,0,7.2,1,9.1,3.1c2,2,2.9,4.8,2.9,8.2V2657.2z
			 M611.7,2657.4v-10c0-2.6-0.7-4.6-2-5.9c-1.3-1.3-3.5-2-6.4-2c-2.9,0-5,0.7-6.4,2c-1.3,1.3-2,3.3-2,5.9v10c0,2.6,0.7,4.6,2,5.9
			c1.3,1.3,3.5,2,6.4,2c2.9,0,5-0.6,6.4-2C611,2662,611.7,2660,611.7,2657.4z"/>
		<path id="XMLID_618_" class="st2" d="M642.4,2623.7l-0.5,2.9c-2-0.4-3.9-0.6-5.6-0.6c-1.7,0-3,0.4-3.6,1.1c-0.7,0.7-1,1.9-1,3.6
			v6.1h9.6l-0.4,3.2h-9.2v27.9h-3.7V2640h-5.8v-3.2h5.8v-6.5c0-2.5,0.7-4.3,2.1-5.6c1.4-1.3,3.4-1.9,5.9-1.9
			C638.3,2622.8,640.5,2623.1,642.4,2623.7z"/>
		<path id="XMLID_620_" class="st2" d="M676.6,2636.1l0.4,3.6c-2.2,0.9-5.5,2.9-9.8,5.8v22.4h-3.7v-31.1h3.3l0.2,4.7
			C671.3,2638.7,674.5,2636.9,676.6,2636.1z"/>
		<path id="XMLID_622_" class="st2" d="M686.4,2657.4c0,2.9,0.6,4.9,1.8,6.1c1.2,1.2,3.3,1.8,6.3,1.8c2.9,0,6.2-0.5,9.8-1.5l0.6,3
			c-3.2,1.2-6.8,1.7-10.7,1.7c-4.2,0-7.2-1-8.9-2.9c-1.8-2-2.7-4.8-2.7-8.4v-9.8c0-7.5,3.9-11.3,11.6-11.3c7.5,0,11.3,3.8,11.3,11.3
			v6h-19.2V2657.4z M686.4,2647.3v2.8H702v-2.8c0-2.7-0.6-4.7-1.7-6c-1.2-1.3-3.1-2-5.9-2s-4.8,0.7-6.1,2
			C687,2642.6,686.4,2644.6,686.4,2647.3z"/>
		<path id="XMLID_625_" class="st2" d="M734.1,2660c0,3-0.7,5.1-2.2,6.5s-4.2,2-8.2,2c-3.5,0-6.6-0.5-9.1-1.6l0.6-3
			c2.8,0.9,5.5,1.3,8.2,1.3c2.8,0,4.7-0.3,5.6-1c0.9-0.7,1.3-2,1.3-4c0-1.3,0-2.2-0.1-2.7c-0.1-0.5-0.4-1.1-0.9-1.6
			c-0.5-0.5-1.2-0.9-2.1-1.2c-0.9-0.3-2.2-0.6-4.2-1.1c-2.6-0.6-4.5-1.3-5.7-2.1c-1.2-0.8-2-1.7-2.3-2.7c-0.3-1-0.5-2.6-0.5-4.7
			c0-2.7,0.8-4.7,2.3-6s4.2-2,7.9-2c3.4,0,6.3,0.4,8.8,1.1l-0.4,3.1c-2.9-0.6-5.8-0.9-8.7-0.9c-2.6,0-4.3,0.3-5.1,1
			c-0.8,0.7-1.2,1.9-1.2,3.8c0,2.2,0.3,3.6,0.9,4.2c0.6,0.6,2.3,1.3,5.1,2c2.3,0.6,4.1,1.1,5.4,1.6c1.2,0.5,2.2,1.1,2.8,1.9
			c0.7,0.8,1.1,1.6,1.2,2.4C734,2657.2,734.1,2658.4,734.1,2660z"/>
		<path id="XMLID_627_" class="st2" d="M766.9,2644.8v14.2c0,6.4-3.2,9.6-9.6,9.6c-2.9,0-6.1-0.3-9.6-1v13l-3.7,0.5v-44.2h3.4
			l0.2,2.9c3.2-2.4,6.7-3.6,10.5-3.6C763.9,2636.1,766.9,2639,766.9,2644.8z M747.7,2643.4v20.7c3.5,0.7,6.7,1.1,9.7,1.1
			c2,0,3.5-0.5,4.4-1.5c0.9-1,1.4-2.6,1.4-4.7v-14.2c0-1.9-0.4-3.2-1.2-4.1c-0.8-0.8-2.2-1.2-4.2-1.2
			C754.4,2639.5,751,2640.8,747.7,2643.4z"/>
		<path id="XMLID_630_" class="st2" d="M779.4,2657.4c0,2.9,0.6,4.9,1.8,6.1c1.2,1.2,3.3,1.8,6.3,1.8c2.9,0,6.2-0.5,9.8-1.5l0.6,3
			c-3.2,1.2-6.8,1.7-10.7,1.7c-4.2,0-7.2-1-8.9-2.9c-1.8-2-2.7-4.8-2.7-8.4v-9.8c0-7.5,3.9-11.3,11.6-11.3c7.5,0,11.3,3.8,11.3,11.3
			v6h-19.2V2657.4z M779.4,2647.3v2.8H795v-2.8c0-2.7-0.6-4.7-1.7-6c-1.2-1.3-3.1-2-5.9-2s-4.8,0.7-6.1,2
			C780,2642.6,779.4,2644.6,779.4,2647.3z"/>
		<path id="XMLID_633_" class="st2" d="M810.4,2646.7v11.2c0,2.7,0.6,4.6,1.8,5.7c1.2,1.1,3.3,1.6,6.2,1.6c1.9,0,4.1-0.2,6.7-0.6
			l0.4,3.1c-2.3,0.6-4.6,0.9-7.1,0.9c-4.2,0-7.2-0.9-9-2.7c-1.8-1.8-2.7-4.5-2.7-8v-10.9c0-3.5,0.9-6.2,2.7-8c1.8-1.8,4.8-2.7,9-2.7
			c2.5,0,4.8,0.3,7.1,0.9l-0.4,3.1c-2.5-0.4-4.7-0.6-6.7-0.6c-2.9,0-5,0.5-6.2,1.6C811,2642.1,810.4,2644,810.4,2646.7z"/>
		<path id="XMLID_635_" class="st2" d="M850.1,2664.5l0.7,2.9c-2,0.8-4.2,1.2-6.5,1.2c-2.5,0-4.3-0.5-5.4-1.5
			c-1.1-1-1.7-2.7-1.7-5.2V2640h-6v-3.2h6v-7.4l3.7-0.5v7.9h9.5l-0.4,3.2H841v21.5c0,1.5,0.2,2.5,0.7,3.1c0.4,0.6,1.4,0.8,2.9,0.8
			C846.4,2665.3,848.2,2665.1,850.1,2664.5z"/>
		<path id="XMLID_637_" class="st2" d="M889.2,2664.5l0.7,2.9c-2,0.8-4.2,1.2-6.5,1.2c-2.5,0-4.3-0.5-5.4-1.5
			c-1.1-1-1.7-2.7-1.7-5.2V2640h-6v-3.2h6v-7.4l3.7-0.5v7.9h9.5l-0.4,3.2h-9.1v21.5c0,1.5,0.2,2.5,0.7,3.1c0.4,0.6,1.4,0.8,2.9,0.8
			C885.4,2665.3,887.3,2665.1,889.2,2664.5z"/>
		<path id="XMLID_639_" class="st2" d="M920.7,2657.2c0,3.5-1,6.2-2.9,8.2c-2,2-5,3.1-9.1,3.1c-4.1,0-7.2-1-9.1-3.1
			c-2-2-2.9-4.8-2.9-8.2v-9.8c0-3.5,1-6.2,2.9-8.2c2-2,5-3.1,9.1-3.1c4.1,0,7.2,1,9.1,3.1c2,2,2.9,4.8,2.9,8.2V2657.2z M917,2657.4
			v-10c0-2.6-0.7-4.6-2-5.9c-1.3-1.3-3.5-2-6.4-2c-2.9,0-5,0.7-6.4,2c-1.3,1.3-2,3.3-2,5.9v10c0,2.6,0.7,4.6,2,5.9
			c1.3,1.3,3.5,2,6.4,2c2.9,0,5-0.6,6.4-2C916.3,2662,917,2660,917,2657.4z"/>
		<path id="XMLID_642_" class="st2" d="M960.6,2664.5l0.7,2.9c-2,0.8-4.2,1.2-6.5,1.2c-2.5,0-4.3-0.5-5.4-1.5
			c-1.1-1-1.7-2.7-1.7-5.2V2640h-6v-3.2h6v-7.4l3.7-0.5v7.9h9.5l-0.4,3.2h-9.1v21.5c0,1.5,0.2,2.5,0.7,3.1c0.4,0.6,1.4,0.8,2.9,0.8
			C956.9,2665.3,958.7,2665.1,960.6,2664.5z"/>
		<path id="XMLID_644_" class="st2" d="M992.4,2667.9h-3.7v-25.2c0-2.1-1.1-3.1-3.4-3.1c-1.3,0-3.2,0.4-5.6,1.1
			c-2.4,0.7-4.5,1.5-6.4,2.5v24.7h-3.7V2624l3.7-0.5v16c4.7-2.3,8.8-3.4,12.5-3.4c4.4,0,6.6,2.3,6.6,7V2667.9z"/>
		<path id="XMLID_646_" class="st2" d="M1005.7,2657.4c0,2.9,0.6,4.9,1.8,6.1s3.3,1.8,6.3,1.8c2.9,0,6.2-0.5,9.8-1.5l0.6,3
			c-3.2,1.2-6.8,1.7-10.7,1.7c-4.2,0-7.2-1-8.9-2.9c-1.8-2-2.7-4.8-2.7-8.4v-9.8c0-7.5,3.9-11.3,11.6-11.3c7.5,0,11.3,3.8,11.3,11.3
			v6h-19.2V2657.4z M1005.7,2647.3v2.8h15.6v-2.8c0-2.7-0.6-4.7-1.7-6c-1.2-1.3-3.1-2-5.9-2s-4.8,0.7-6.1,2
			C1006.3,2642.6,1005.7,2644.6,1005.7,2647.3z"/>
		<path id="XMLID_649_" class="st2" d="M1077.9,2667.9l-4-11.2h-19.8l-4,11.2h-3.7l14.8-42.6h5.6l14.8,42.6H1077.9z M1064,2627.5
			l-8.8,26h17.5L1064,2627.5z"/>
		<path id="XMLID_652_" class="st2" d="M1088.8,2659.9v-14.2c0-6.4,3.2-9.6,9.6-9.6c2.9,0,6.1,0.3,9.6,1V2624l3.7-0.5v44.4h-3.4
			l-0.2-2.9c-3.2,2.4-6.7,3.6-10.5,3.6C1091.7,2668.5,1088.8,2665.7,1088.8,2659.9z M1108,2661.3v-20.7c-3.5-0.7-6.7-1.1-9.7-1.1
			c-2,0-3.5,0.5-4.4,1.5c-0.9,1-1.4,2.6-1.4,4.7v14.2c0,1.9,0.4,3.2,1.2,4.1c0.8,0.8,2.2,1.2,4.2,1.2
			C1101.3,2665.2,1104.7,2663.9,1108,2661.3z"/>
		<path id="XMLID_655_" class="st2" d="M1145.5,2636.8l-10.6,31.1h-5.7l-10.6-31.1h3.8l9.6,28.5l9.7-28.5H1145.5z"/>
		<path id="XMLID_657_" class="st2" d="M1156.2,2630.9h-3.7v-6.8h3.7V2630.9z M1156.2,2667.9h-3.7v-31.1h3.7V2667.9z"/>
		<path id="XMLID_660_" class="st2" d="M1186.3,2660c0,3-0.7,5.1-2.2,6.5s-4.2,2-8.2,2c-3.5,0-6.6-0.5-9.1-1.6l0.6-3
			c2.8,0.9,5.5,1.3,8.2,1.3c2.8,0,4.7-0.3,5.6-1c0.9-0.7,1.3-2,1.3-4c0-1.3,0-2.2-0.1-2.7c-0.1-0.5-0.4-1.1-0.9-1.6
			c-0.5-0.5-1.2-0.9-2.1-1.2c-0.9-0.3-2.2-0.6-4.2-1.1c-2.6-0.6-4.5-1.3-5.7-2.1c-1.2-0.8-2-1.7-2.3-2.7c-0.3-1-0.5-2.6-0.5-4.7
			c0-2.7,0.8-4.7,2.3-6c1.5-1.3,4.2-2,7.9-2c3.4,0,6.3,0.4,8.8,1.1l-0.4,3.1c-2.9-0.6-5.8-0.9-8.7-0.9c-2.6,0-4.3,0.3-5.1,1
			s-1.2,1.9-1.2,3.8c0,2.2,0.3,3.6,0.9,4.2c0.6,0.6,2.3,1.3,5.1,2c2.3,0.6,4.1,1.1,5.4,1.6c1.2,0.5,2.2,1.1,2.8,1.9s1.1,1.6,1.2,2.4
			C1186.2,2657.2,1186.3,2658.4,1186.3,2660z"/>
		<path id="XMLID_662_" class="st2" d="M1218.8,2657.2c0,3.5-1,6.2-2.9,8.2c-2,2-5,3.1-9.1,3.1s-7.2-1-9.1-3.1c-2-2-2.9-4.8-2.9-8.2
			v-9.8c0-3.5,1-6.2,2.9-8.2c2-2,5-3.1,9.1-3.1s7.2,1,9.1,3.1c2,2,2.9,4.8,2.9,8.2V2657.2z M1215.1,2657.4v-10c0-2.6-0.7-4.6-2-5.9
			c-1.3-1.3-3.5-2-6.4-2c-2.9,0-5,0.7-6.4,2c-1.3,1.3-2,3.3-2,5.9v10c0,2.6,0.7,4.6,2,5.9c1.3,1.3,3.5,2,6.4,2c2.9,0,5-0.6,6.4-2
			C1214.4,2662,1215.1,2660,1215.1,2657.4z"/>
		<path id="XMLID_665_" class="st2" d="M1241.8,2636.1l0.4,3.6c-2.2,0.9-5.5,2.9-9.8,5.8v22.4h-3.7v-31.1h3.3l0.2,4.7
			C1236.5,2638.7,1239.7,2636.9,1241.8,2636.1z"/>
		<path id="XMLID_667_" class="st2" d="M1284.8,2645.1v22.8h-3.2l-0.3-2.4c-3.3,2-6.8,3.1-10.6,3.1c-5.4,0-8.1-2.9-8.1-8.7
			c0-3.2,0.7-5.4,2.2-6.7c1.4-1.3,3.8-1.9,7-1.9h9.2v-6.1c0-2.1-0.6-3.6-1.7-4.4c-1.2-0.9-3-1.3-5.6-1.3c-2.7,0-5.8,0.3-9.2,1
			l-0.6-3.1c2.9-0.8,6.1-1.2,9.6-1.2c3.9,0,6.8,0.8,8.6,2.3C1283.9,2639.9,1284.8,2642.2,1284.8,2645.1z M1281.1,2662v-7.5h-9.1
			c-2.1,0-3.6,0.4-4.4,1.2c-0.8,0.8-1.2,2.2-1.2,4.2c0,2,0.3,3.3,1,4.1c0.7,0.8,2,1.2,4.1,1.2
			C1274.9,2665.2,1278,2664.2,1281.1,2662z"/>
		<path id="XMLID_670_" class="st2" d="M1318.4,2667.9h-3.7v-25.2c0-2.1-1.1-3.1-3.4-3.1c-1.3,0-3.2,0.4-5.6,1.1s-4.5,1.5-6.4,2.5
			v24.7h-3.7v-31.1h3.3l0.3,2.8c1.9-0.9,4-1.7,6.4-2.4c2.4-0.7,4.5-1.1,6.2-1.1c4.4,0,6.6,2.3,6.6,7V2667.9z"/>
		<path id="XMLID_672_" class="st2" d="M1328.6,2659.9v-14.2c0-6.4,3.2-9.6,9.6-9.6c2.9,0,6.1,0.3,9.6,1V2624l3.7-0.5v44.4h-3.4
			l-0.2-2.9c-3.2,2.4-6.7,3.6-10.5,3.6C1331.6,2668.5,1328.6,2665.7,1328.6,2659.9z M1347.8,2661.3v-20.7c-3.5-0.7-6.7-1.1-9.7-1.1
			c-2,0-3.5,0.5-4.4,1.5c-0.9,1-1.4,2.6-1.4,4.7v14.2c0,1.9,0.4,3.2,1.2,4.1s2.2,1.2,4.2,1.2
			C1341.2,2665.2,1344.5,2663.9,1347.8,2661.3z"/>
		<path id="XMLID_675_" class="st2" d="M1393.1,2664.5l0.7,2.9c-2,0.8-4.2,1.2-6.5,1.2c-2.5,0-4.3-0.5-5.4-1.5
			c-1.1-1-1.7-2.7-1.7-5.2V2640h-6v-3.2h6v-7.4l3.7-0.5v7.9h9.5l-0.4,3.2h-9.1v21.5c0,1.5,0.2,2.5,0.7,3.1c0.4,0.6,1.4,0.8,2.9,0.8
			C1389.3,2665.3,1391.2,2665.1,1393.1,2664.5z"/>
		<path id="XMLID_677_" class="st2" d="M1424.9,2667.9h-3.7v-25.2c0-2.1-1.1-3.1-3.4-3.1c-1.3,0-3.2,0.4-5.6,1.1s-4.5,1.5-6.4,2.5
			v24.7h-3.7V2624l3.7-0.5v16c4.7-2.3,8.8-3.4,12.5-3.4c4.4,0,6.6,2.3,6.6,7V2667.9z"/>
		<path id="XMLID_679_" class="st2" d="M1438.2,2657.4c0,2.9,0.6,4.9,1.8,6.1c1.2,1.2,3.3,1.8,6.3,1.8c2.9,0,6.2-0.5,9.8-1.5l0.6,3
			c-3.2,1.2-6.8,1.7-10.7,1.7c-4.2,0-7.2-1-8.9-2.9c-1.8-2-2.7-4.8-2.7-8.4v-9.8c0-7.5,3.9-11.3,11.6-11.3c7.5,0,11.3,3.8,11.3,11.3
			v6h-19.2V2657.4z M1438.2,2647.3v2.8h15.6v-2.8c0-2.7-0.6-4.7-1.7-6c-1.2-1.3-3.1-2-5.9-2s-4.8,0.7-6.1,2
			S1438.2,2644.6,1438.2,2647.3z"/>
		<path id="XMLID_682_" class="st2" d="M1471,2630.9h-3.7v-6.8h3.7V2630.9z M1471,2667.9h-3.7v-31.1h3.7V2667.9z"/>
		<path id="XMLID_685_" class="st2" d="M1495.6,2636.1l0.4,3.6c-2.2,0.9-5.5,2.9-9.8,5.8v22.4h-3.7v-31.1h3.3l0.2,4.7
			C1490.3,2638.7,1493.5,2636.9,1495.6,2636.1z"/>
		<path id="XMLID_687_" class="st2" d="M1540.4,2657.2c0,3.5-1,6.2-2.9,8.2c-2,2-5,3.1-9.1,3.1s-7.2-1-9.1-3.1c-2-2-2.9-4.8-2.9-8.2
			v-9.8c0-3.5,1-6.2,2.9-8.2c2-2,5-3.1,9.1-3.1s7.2,1,9.1,3.1c2,2,2.9,4.8,2.9,8.2V2657.2z M1536.7,2657.4v-10c0-2.6-0.7-4.6-2-5.9
			c-1.3-1.3-3.5-2-6.4-2c-2.9,0-5,0.7-6.4,2c-1.3,1.3-2,3.3-2,5.9v10c0,2.6,0.7,4.6,2,5.9c1.3,1.3,3.5,2,6.4,2c2.9,0,5-0.6,6.4-2
			C1536,2662,1536.7,2660,1536.7,2657.4z"/>
		<path id="XMLID_690_" class="st2" d="M1573.2,2644.8v14.2c0,6.4-3.2,9.6-9.6,9.6c-2.9,0-6.1-0.3-9.6-1v13l-3.7,0.5v-44.2h3.4
			l0.2,2.9c3.2-2.4,6.6-3.6,10.5-3.6C1570.3,2636.1,1573.2,2639,1573.2,2644.8z M1554,2643.4v20.7c3.5,0.7,6.7,1.1,9.7,1.1
			c2,0,3.5-0.5,4.4-1.5c0.9-1,1.4-2.6,1.4-4.7v-14.2c0-1.9-0.4-3.2-1.2-4.1c-0.8-0.8-2.2-1.2-4.2-1.2
			C1560.7,2639.5,1557.3,2640.8,1554,2643.4z"/>
		<path id="XMLID_693_" class="st2" d="M1587.3,2630.9h-3.7v-6.8h3.7V2630.9z M1587.3,2667.9h-3.7v-31.1h3.7V2667.9z"/>
		<path id="XMLID_696_" class="st2" d="M1621.6,2667.9h-3.7v-25.2c0-2.1-1.1-3.1-3.4-3.1c-1.3,0-3.2,0.4-5.6,1.1s-4.5,1.5-6.4,2.5
			v24.7h-3.7v-31.1h3.3l0.3,2.8c1.9-0.9,4-1.7,6.4-2.4c2.4-0.7,4.5-1.1,6.2-1.1c4.4,0,6.6,2.3,6.6,7V2667.9z"/>
		<path id="XMLID_698_" class="st2" d="M1636.5,2630.9h-3.7v-6.8h3.7V2630.9z M1636.5,2667.9h-3.7v-31.1h3.7V2667.9z"/>
		<path id="XMLID_701_" class="st2" d="M1670.6,2657.2c0,3.5-1,6.2-2.9,8.2c-2,2-5,3.1-9.1,3.1s-7.2-1-9.1-3.1c-2-2-2.9-4.8-2.9-8.2
			v-9.8c0-3.5,1-6.2,2.9-8.2c2-2,5-3.1,9.1-3.1s7.2,1,9.1,3.1c2,2,2.9,4.8,2.9,8.2V2657.2z M1666.9,2657.4v-10c0-2.6-0.7-4.6-2-5.9
			c-1.3-1.3-3.5-2-6.4-2c-2.9,0-5,0.7-6.4,2c-1.3,1.3-2,3.3-2,5.9v10c0,2.6,0.7,4.6,2,5.9c1.3,1.3,3.5,2,6.4,2c2.9,0,5-0.6,6.4-2
			C1666.2,2662,1666.9,2660,1666.9,2657.4z"/>
		<path id="XMLID_704_" class="st2" d="M1703.3,2667.9h-3.7v-25.2c0-2.1-1.1-3.1-3.4-3.1c-1.3,0-3.2,0.4-5.6,1.1s-4.5,1.5-6.4,2.5
			v24.7h-3.7v-31.1h3.3l0.3,2.8c1.9-0.9,4-1.7,6.4-2.4c2.4-0.7,4.5-1.1,6.2-1.1c4.4,0,6.6,2.3,6.6,7V2667.9z"/>
		<path id="XMLID_706_" class="st2" d="M1733,2660c0,3-0.7,5.1-2.2,6.5s-4.2,2-8.2,2c-3.5,0-6.6-0.5-9.1-1.6l0.6-3
			c2.8,0.9,5.5,1.3,8.2,1.3c2.8,0,4.7-0.3,5.6-1c0.9-0.7,1.3-2,1.3-4c0-1.3,0-2.2-0.1-2.7c-0.1-0.5-0.4-1.1-0.9-1.6
			c-0.5-0.5-1.2-0.9-2.1-1.2c-0.9-0.3-2.2-0.6-4.2-1.1c-2.6-0.6-4.5-1.3-5.7-2.1c-1.2-0.8-2-1.7-2.3-2.7c-0.3-1-0.5-2.6-0.5-4.7
			c0-2.7,0.8-4.7,2.3-6c1.5-1.3,4.2-2,7.9-2c3.4,0,6.3,0.4,8.8,1.1l-0.4,3.1c-2.9-0.6-5.8-0.9-8.7-0.9c-2.6,0-4.3,0.3-5.1,1
			s-1.2,1.9-1.2,3.8c0,2.2,0.3,3.6,0.9,4.2c0.6,0.6,2.3,1.3,5.1,2c2.3,0.6,4.1,1.1,5.4,1.6c1.2,0.5,2.2,1.1,2.8,1.9s1.1,1.6,1.2,2.4
			C1732.9,2657.2,1733,2658.4,1733,2660z"/>
		<path id="XMLID_708_" class="st2" d="M1743.2,2667.9v-5.5h4v5.5H1743.2z"/>
	</g>
	<g id="XMLID_16_">
		<g id="XMLID_81_">
			<g id="XMLID_82_">
				<g id="XMLID_101_">
					<path id="XMLID_117_" class="st3" d="M971.5,1081.2c-155.1,0-281.3-126.1-281.3-281.1s126.2-281.1,281.3-281.1
						s281.3,126.1,281.3,281.1S1126.6,1081.2,971.5,1081.2z M971.5,533.4c-147.1,0-266.9,119.6-266.9,266.7s119.7,266.7,266.9,266.7
						s266.9-119.6,266.9-266.7S1118.7,533.4,971.5,533.4z"/>
				</g>
				<g id="XMLID_100_">
					<path id="XMLID_114_" class="st3" d="M971.5,1229.8c-237.1,0-429.9-192.8-429.9-429.7s192.9-429.7,429.9-429.7
						s429.9,192.8,429.9,429.7S1208.6,1229.8,971.5,1229.8z M971.5,384.8C742.4,384.8,556,571.1,556,800.1s186.4,415.2,415.5,415.2
						S1387,1029,1387,800.1S1200.6,384.8,971.5,384.8z"/>
				</g>
				<g id="XMLID_98_">
					<path id="XMLID_97_" class="st1" d="M813.1,521.8l-8.8-8.5l-18.4,10.1l2.5,12l-9.8,5.4l-11.6-58.1l13.1-7.2l42.9,41
						L813.1,521.8z M777.8,486.8l6,27.2l13.7-7.5L777.8,486.8z"/>
					<path id="XMLID_760_" class="st1" d="M826.7,454.1l20-6.5c6.2-2,11.2-2.1,14.9-0.4c3.7,1.8,6.3,4.8,7.7,9l8.1,24.9
						c1.4,4.3,1.1,8.2-0.9,11.8c-2,3.6-6.1,6.4-12.3,8.4l-20,6.5L826.7,454.1z M839.8,459.7l11.6,35.9l8.8-2.8
						c3.3-1.1,5.4-2.4,6.2-4.1c0.9-1.7,0.8-3.9-0.1-6.6l-6.5-20c-0.9-2.7-2.2-4.5-3.8-5.4c-1.7-0.9-4.2-0.8-7.4,0.3L839.8,459.7z"/>
					<path id="XMLID_763_" class="st1" d="M924.2,478.4l7.4-48.5l11-1.4l-9.4,58.3l-15.7,2l-24.1-53.9l11-1.4L924.2,478.4z"/>
					<path id="XMLID_765_" class="st1" d="M984.2,428.4l-1,56.5l-10.7-0.2l1-56.5L984.2,428.4z"/>
					<path id="XMLID_767_" class="st1" d="M1048.5,477.1c-0.5,2.9-1.1,5.1-1.9,6.9c-0.8,1.7-2,3.2-3.6,4.4c-1.6,1.2-3.8,2-6.5,2.2
						c-2.7,0.2-6.1,0-10.2-0.6c-3.1-0.5-6.2-1.3-9.4-2.5c-3.2-1.2-5.7-2.4-7.5-3.6l3.2-8c5.4,2.6,10.5,4.3,15.3,5.1
						c3.7,0.6,6.2,0.5,7.4-0.2c1.3-0.7,2.1-2.5,2.6-5.3c0.3-1.8,0.4-3,0.5-3.7c0-0.7-0.3-1.5-0.9-2.4c-0.6-0.9-1.5-1.6-2.7-2.1
						c-1.2-0.5-3-1.3-5.7-2.3c-3.4-1.3-6-2.6-7.8-3.6c-1.8-1.1-3.1-2.4-4.1-3.9c-0.9-1.6-1.4-3.2-1.4-5c0-1.8,0.2-4.2,0.7-7.4
						c0.8-5.3,2.9-8.9,6.1-10.8c3.2-2,8.3-2.4,15.1-1.3c5.4,0.9,10.7,2.4,16,4.5l-2.6,8.7c-5-1.9-9.8-3.3-14.7-4.1
						c-3.5-0.6-5.8-0.5-7,0.2c-1.2,0.7-2,2.3-2.4,4.8c-0.3,1.8-0.5,3.1-0.5,3.8c-0.1,0.7,0.3,1.5,1,2.3c0.7,0.9,1.5,1.5,2.5,2
						c1,0.4,2.8,1.2,5.4,2.3c2.5,1,4.5,1.9,6.1,2.7c1.6,0.8,2.9,1.7,4,2.6c1.1,1,1.9,1.8,2.4,2.5c0.5,0.7,0.8,1.8,1,3.1
						c0.2,1.3,0.2,2.6,0.1,3.8C1049.1,473.3,1048.9,475,1048.5,477.1z"/>
					<path id="XMLID_769_" class="st1" d="M1122.9,474.4l-7.8,22.1c-1.7,4.9-4.7,8.3-9,10.2c-4.3,1.9-9.9,1.6-17-0.9
						c-7-2.5-11.6-5.8-13.8-9.9c-2.1-4.1-2.4-8.7-0.6-13.6l7.8-22.1c1.7-4.9,4.7-8.3,9-10.2c4.3-1.9,9.9-1.6,17,0.9
						c7,2.5,11.6,5.8,13.8,9.9C1124.4,465,1124.6,469.5,1122.9,474.4z M1092.4,464.3l-7.4,21c-0.9,2.7-0.9,5,0.2,6.9
						c1.1,1.9,3.4,3.5,7.1,4.8c3.6,1.3,6.5,1.5,8.5,0.7c2-0.8,3.5-2.6,4.5-5.2l7.4-21c0.9-2.7,0.9-5-0.2-6.9
						c-1.1-1.9-3.4-3.5-7.1-4.8c-3.6-1.3-6.5-1.5-8.5-0.7C1094.8,459.9,1093.4,461.6,1092.4,464.3z"/>
					<path id="XMLID_772_" class="st1" d="M1173.3,546.6l-11.1-6.5l-1.8-22.7l-8.8-5.2l-9.5,16.1l-9.2-5.4l28.6-48.8l20,11.7
						c5.5,3.2,8.8,6.7,10,10.2c1.1,3.6,0.4,7.6-2.2,12l-3.7,6.4c-3.6,6.1-8.3,8.6-14.2,7.5L1173.3,546.6z M1179.8,503.6
						c1.2-2,1.6-3.8,1.1-5.3c-0.5-1.5-1.9-3-4.4-4.4l-10.4-6.1l-9.7,16.5l10.4,6.1c2.5,1.5,4.5,2,6,1.7c1.5-0.4,2.9-1.6,4.1-3.7
						L1179.8,503.6z"/>
				</g>
				<g id="XMLID_96_">
					<path id="XMLID_19_" class="st1" d="M619.5,837.7c-2.2,0.1-4,0-5.4-0.3c-1.4-0.3-2.7-1-3.9-2c-1.2-1-2.1-2.5-2.7-4.4
						c-0.6-2-1-4.5-1.2-7.6c-0.1-2.3,0-4.8,0.3-7.4c0.4-2.6,0.8-4.6,1.4-6.1l6.4,1c-1.1,4.4-1.5,8.4-1.3,12.1
						c0.2,2.8,0.6,4.6,1.4,5.4c0.8,0.8,2.2,1.2,4.3,1c1.4-0.1,2.3-0.2,2.8-0.3c0.5-0.1,1.1-0.4,1.6-1.1c0.5-0.6,0.9-1.4,1.1-2.3
						c0.2-0.9,0.4-2.5,0.8-4.6c0.4-2.7,0.9-4.8,1.4-6.3c0.5-1.5,1.2-2.7,2.2-3.6c1-0.9,2.1-1.6,3.4-1.9c1.3-0.3,3.1-0.5,5.6-0.7
						c4-0.2,7,0.7,9,2.7c2,2,3.1,5.7,3.4,10.9c0.2,4.1,0,8.3-0.7,12.5l-6.8-0.5c0.6-4,0.8-7.8,0.6-11.4c-0.2-2.6-0.6-4.3-1.3-5.1
						c-0.7-0.8-2-1.1-3.9-1c-1.4,0.1-2.4,0.2-2.9,0.2c-0.5,0.1-1.1,0.4-1.6,1.1c-0.5,0.6-0.9,1.4-1,2.2c-0.2,0.8-0.4,2.3-0.8,4.4
						c-0.4,2-0.7,3.6-1,4.9c-0.3,1.3-0.8,2.4-1.3,3.4c-0.5,1-1,1.7-1.5,2.2c-0.5,0.5-1.2,0.9-2.1,1.2c-0.9,0.3-1.9,0.6-2.7,0.7
						C622.4,837.5,621.2,837.6,619.5,837.7z"/>
					<path id="XMLID_711_" class="st1" d="M657,873.9l1.6,7.9l-29.7,6c-3.7,0.7-7,0.1-9.9-1.8c-2.9-1.9-4.9-5.6-6-11.1
						c-1.1-5.4-0.7-9.6,1.2-12.5c1.9-2.9,4.7-4.7,8.4-5.5l29.7-6l1.6,7.9l-29.1,5.8c-2.1,0.4-3.6,1.3-4.4,2.7
						c-0.8,1.4-1,3.4-0.4,6.1c0.5,2.7,1.5,4.5,2.8,5.4c1.3,1,3,1.2,5.2,0.8L657,873.9z"/>
					<path id="XMLID_713_" class="st1" d="M623,912.1l40.2-14.3l5.6,15.7c1.6,4.5,1.9,8.1,0.8,10.7c-1.1,2.6-3.5,4.6-7.1,5.9l-5.5,2
						c-3.6,1.3-6.6,1.2-9.2-0.2c-2.5-1.4-4.6-4.4-6.3-9l-2.7-7.7l-13,4.6L623,912.1z M659.1,922.7c1.7-0.6,2.8-1.4,3.2-2.5
						c0.5-1.1,0.3-2.7-0.4-4.7l-2.7-7.7l-13.8,4.9l2.7,7.7c0.7,2.1,1.6,3.4,2.7,3.9c1,0.5,2.4,0.5,4.2-0.1L659.1,922.7z"/>
					<path id="XMLID_716_" class="st1" d="M641.3,958.8l37.9-19.5l11.9,23.2l-6.3,3.2l-8.3-16l-9.2,4.7l7.6,14.8l-6.3,3.2l-7.6-14.8
						l-9.8,5l8.3,16l-6.3,3.2L641.3,958.8z"/>
					<path id="XMLID_718_" class="st1" d="M684.6,1029.4l-5.6-7.9l5.9-16.1l-4.4-6.3l-11.5,8.1l-4.6-6.6l34.9-24.5l10,14.3
						c2.8,3.9,4,7.3,3.6,10.1c-0.3,2.8-2.1,5.3-5.3,7.6l-4.6,3.2c-4.4,3.1-8.4,3.3-12.1,0.7L684.6,1029.4z M702.5,1001.9
						c1.5-1,2.3-2.1,2.4-3.3c0.1-1.2-0.4-2.6-1.6-4.4l-5.2-7.4l-11.8,8.3l5.2,7.4c1.3,1.8,2.5,2.8,3.6,3c1.2,0.2,2.5-0.2,4-1.2
						L702.5,1001.9z"/>
					<path id="XMLID_721_" class="st1" d="M697.5,1044.6l31-29.2l11.4,12.1c3.3,3.5,5,6.6,5,9.5c0.1,2.8-1.3,5.6-4.1,8.3l-4.2,4
						c-2.8,2.6-5.6,3.8-8.5,3.5c-2.9-0.3-6-2.2-9.4-5.7l-5.6-6l-10.1,9.5L697.5,1044.6z M734.8,1039.8c1.3-1.2,1.9-2.4,1.9-3.6
						c0-1.2-0.8-2.6-2.3-4.1l-5.6-5.9l-10.6,10l5.6,5.9c1.5,1.6,2.9,2.5,4,2.5c1.2,0.1,2.4-0.5,3.8-1.8L734.8,1039.8z"/>
					<path id="XMLID_724_" class="st1" d="M776.4,1076.1l-11,13.8c-2.4,3.1-5.4,4.7-8.9,5c-3.5,0.3-7.5-1.3-11.9-4.8
						c-4.4-3.5-6.9-7-7.4-10.5c-0.5-3.5,0.5-6.8,2.9-9.8l11-13.8c2.4-3.1,5.4-4.7,8.9-5c3.5-0.3,7.5,1.3,11.9,4.8
						c4.4,3.5,6.9,7,7.4,10.5C779.8,1069.7,778.8,1073,776.4,1076.1z M757.2,1061.4l-10.4,13.1c-1.3,1.7-1.8,3.3-1.6,4.9
						s1.6,3.3,3.8,5.1c2.3,1.8,4.2,2.7,5.9,2.6c1.6-0.1,3.1-1,4.5-2.6l10.4-13.1c1.3-1.7,1.8-3.3,1.6-4.9c-0.3-1.6-1.6-3.3-3.8-5.1
						c-2.3-1.8-4.2-2.7-5.9-2.6C760,1058.8,758.5,1059.7,757.2,1061.4z"/>
					<path id="XMLID_727_" class="st1" d="M823.5,1090.1l-8.9,32.7l22.9-25.1l7,3.8l-29.6,32.4l-9.6-5.2l9.5-33.9l-23.2,26.4
						l-9.6-5.2l11-42.5l7,3.8l-8.6,32.9l22.6-25.3L823.5,1090.1z"/>
					<path id="XMLID_729_" class="st1" d="M843.1,1145.7l13.8-40.3l24.7,8.5l-2.3,6.7l-17.1-5.8l-3.3,9.7l15.7,5.4l-2.3,6.7
						l-15.7-5.4l-3.6,10.4l17.1,5.8l-2.3,6.7L843.1,1145.7z"/>
					<path id="XMLID_731_" class="st1" d="M923.3,1166.6l-9.5-1.8l-6.9-15.7l-7.5-1.5l-2.7,13.8l-7.9-1.5l8.1-41.8l17.2,3.3
						c4.7,0.9,8,2.5,9.7,4.8c1.7,2.3,2.2,5.3,1.5,9.1l-1.1,5.5c-1,5.2-3.8,8.2-8.2,8.9L923.3,1166.6z M917.1,1134.3
						c0.3-1.8,0.2-3.1-0.6-4c-0.7-0.9-2.1-1.6-4.2-2l-8.9-1.7l-2.7,14.2l8.9,1.7c2.1,0.4,3.7,0.3,4.7-0.3c1-0.6,1.7-1.9,2-3.7
						L917.1,1134.3z"/>
					<path id="XMLID_734_" class="st1" d="M967.3,1169.6l0.1-9l7.9,0.1l-0.1,9L967.3,1169.6z M967.4,1150.1l0.1-9l7.9,0.1l-0.1,9
						L967.4,1150.1z"/>
					<path id="XMLID_737_" class="st1" d="M1019.2,1155.3l-3.1-18.9c-1.3-8.1,3-13,13-14.6c4-0.7,7.9-0.8,11.7-0.5l0.2,7
						c-4-0.1-7.5,0.1-10.5,0.6c-2.7,0.4-4.5,1.2-5.4,2.4c-0.9,1.2-1.2,2.9-0.8,5.2l2.7,16.2c0.4,2.3,1.2,3.8,2.4,4.6
						c1.2,0.8,3.2,1,5.9,0.6c3-0.5,6.4-1.4,10.1-2.8l2,6.7c-3.5,1.5-7.2,2.6-11.2,3.3C1026.2,1166.7,1020.6,1163.5,1019.2,1155.3z"
						/>
					<path id="XMLID_739_" class="st1" d="M1088.1,1120.1l5.2,16.9c1.2,3.8,0.9,7.2-0.9,10.2c-1.7,3.1-5.3,5.4-10.7,7.1
						s-9.7,1.7-12.8,0.1c-3.2-1.6-5.3-4.2-6.5-8l-5.2-16.9c-1.2-3.8-0.9-7.2,0.9-10.2c1.7-3.1,5.3-5.4,10.7-7.1
						c5.4-1.6,9.7-1.7,12.8-0.1C1084.8,1113.7,1087,1116.3,1088.1,1120.1z M1065.1,1127.6l4.9,16c0.6,2,1.7,3.4,3.2,4.1
						c1.5,0.7,3.6,0.6,6.4-0.3c2.8-0.8,4.6-2,5.5-3.4c0.9-1.4,1-3.1,0.4-5.2l-4.9-16c-0.6-2-1.7-3.4-3.2-4.1
						c-1.5-0.7-3.6-0.6-6.4,0.3c-2.8,0.8-4.6,2-5.5,3.4C1064.6,1123.9,1064.5,1125.6,1065.1,1127.6z"/>
					<path id="XMLID_742_" class="st1" d="M1136.7,1100.9l2.8,23.3l-9.2,4.6l-16.9-16.3l11.6,25l-7.4,3.7l-17.3-39l8.1-4l23.3,22.2
						l-3.6-32l8.1-4l20.7,37.3l-7.4,3.7L1136.7,1100.9z"/>
					<path id="XMLID_744_" class="st1" d="M1188,1066.7l6.9,22.4l-8.2,6.1l-19.5-13l15.9,22.5l-6.6,4.9l-23.9-35.3l7.2-5.4
						l26.9,17.7l-9.3-30.8l7.2-5.4l27,33l-6.6,4.9L1188,1066.7z"/>
					<path id="XMLID_746_" class="st1" d="M1204.1,1031.8l29.8,30.5l-5.8,5.6l-29.8-30.5L1204.1,1031.8z"/>
					<path id="XMLID_748_" class="st1" d="M1255,1039.5l-27.4-22.6l-7.6,9.2l-5.5-4.5l20.3-24.5l5.5,4.5l-7.6,9.2l27.4,22.6
						L1255,1039.5z"/>
					<path id="XMLID_750_" class="st1" d="M1273.3,964.4l15,18l-5.2,8.8l-23-4.5l23.4,14.7l-4.2,7.1l-35.7-23.4l4.6-7.8l31.7,6
						l-20.5-24.9l4.6-7.8l37.7,20.1l-4.2,7.1L1273.3,964.4z"/>
					<path id="XMLID_752_" class="st1" d="M1311,949.9l-39.6-15.8l9.7-24.2l6.6,2.6l-6.7,16.8l9.6,3.8l6.2-15.4l6.6,2.6l-6.2,15.4
						l10.2,4.1l6.7-16.8l6.6,2.6L1311,949.9z"/>
					<path id="XMLID_754_" class="st1" d="M1333.1,881.6l-35.2,8.2l31.4,7.6l-1.8,7.6l-41.5-10l2.5-10.4l35.3-8.2l-31.5-7.6l1.8-7.6
						l41.5,10L1333.1,881.6z"/>
					<path id="XMLID_756_" class="st1" d="M1339.9,839.6l-35.4-3.3l-1.1,11.8l-7.1-0.7l2.9-31.7l7.1,0.7l-1.1,11.8l35.4,3.3
						L1339.9,839.6z"/>
				</g>
				<g id="XMLID_92_">
					<path id="XMLID_93_" class="st1" d="M625.3,738.5c-0.4,0-0.9,0-1.3-0.1c-3.9-0.7-6.5-4.5-5.8-8.4c3.8-21,9.6-41.7,17.3-61.5
						c1.4-3.7,5.6-5.6,9.4-4.1c3.7,1.4,5.6,5.6,4.1,9.3c-7.4,19-12.9,38.8-16.6,58.8C631.8,736,628.7,738.5,625.3,738.5z
						 M670.4,622.6c-1.3,0-2.7-0.4-3.9-1.1c-3.4-2.1-4.4-6.6-2.2-10c8.6-13.6,18.3-26.7,28.8-38.9c2.6-3,7.2-3.4,10.2-0.8
						c3,2.6,3.4,7.2,0.8,10.2c-10,11.7-19.3,24.2-27.5,37.2C675.1,621.4,672.8,622.6,670.4,622.6z"/>
				</g>
				<g id="XMLID_83_">
					<path id="XMLID_85_" class="st1" d="M1311.4,744.2c-3.4-0.1-6.4-2.6-6.9-6.1c-3.1-20.2-8.1-40.1-15-59.2
						c-1.3-3.8,0.6-7.9,4.4-9.2c3.8-1.3,7.9,0.6,9.2,4.4c7.2,20,12.4,40.9,15.7,61.9c0.6,3.9-2.1,7.6-6,8.2
						C1312.3,744.2,1311.9,744.3,1311.4,744.2z M1269.5,627.2c-2.4-0.1-4.7-1.3-6-3.5c-7.9-13.2-16.8-25.9-26.5-37.9
						c-2.5-3.1-2.1-7.6,1-10.2c3.1-2.5,7.6-2.1,10.2,1c10.2,12.5,19.5,25.8,27.7,39.6c2,3.4,0.9,7.9-2.5,9.9
						C1272.1,626.9,1270.8,627.2,1269.5,627.2z"/>
				</g>
			</g>
		</g>
		<g id="Outline_Icons_1_">
			<g id="XMLID_73_">
				<g id="XMLID_80_">
					<path id="XMLID_111_" class="st3" d="M971.5,983.7l-2.5-0.9c-140.3-51.9-151.4-152.1-151.4-277.7v-5.5l5.3-1.4
						c1.1-0.3,108.6-29.6,143.3-64.4l2.1-2.1h6l2.4,2.1c34.8,34.8,142.3,64.1,143.3,64.4l5.3,1.4l0,5.5
						c0,125.6-11.1,225.8-151.4,277.7L971.5,983.7z M832.1,710.6c0.3,120.3,12,209.4,139.5,257.7C1099,920,1110.6,830.9,1111,710.6
						c-21.9-6.2-103.1-30.9-139.5-62C935.2,679.7,853.9,704.4,832.1,710.6z"/>
				</g>
				<g id="XMLID_79_">
					<path id="XMLID_108_" class="st3" d="M971.5,939.8l-2.5-0.9c-104.8-38.8-113.1-113.5-113.1-207v-5.5l5.3-1.4
						c0.8-0.2,79.8-21.7,105.1-47.1l2.1-2.1h6l2.3,2.1c25.3,25.4,104.3,46.9,105.1,47.1l5.3,1.4l0,5.5c0,93.6-8.3,168.2-113.2,207
						L971.5,939.8z M870.3,737.3c0.3,87.2,9.2,151.9,101.2,187.1c92-35.2,100.9-99.8,101.2-187.1c-17.8-5.1-74.2-22.7-101.2-44.8
						C944.5,714.6,888.1,732.1,870.3,737.3z"/>
				</g>
				<g id="XMLID_78_">
					<path id="XMLID_107_" class="st3" d="M865.2,797.8c-1.8,0-3.7-0.7-5.1-2.1c-2.8-2.8-2.8-7.4,0-10.2l107.1-107
						c2.8-2.8,7.4-2.8,10.2,0c2.8,2.8,2.8,7.4,0,10.2l-107.1,107C868.9,797.1,867,797.8,865.2,797.8z"/>
				</g>
				<g id="XMLID_77_">
					<path id="XMLID_105_" class="st3" d="M878.8,857.5c-1.8,0-3.7-0.7-5.1-2.1c-2.8-2.8-2.8-7.4,0-10.2l139.8-139.7
						c2.8-2.8,7.4-2.8,10.2,0c2.8,2.8,2.8,7.4,0,10.2L883.9,855.4C882.5,856.8,880.7,857.5,878.8,857.5z"/>
				</g>
				<g id="XMLID_76_">
					<path id="XMLID_104_" class="st3" d="M908.3,901.3c-1.8,0-3.7-0.7-5.1-2.1c-2.8-2.8-2.8-7.4,0-10.2l164.3-164.2
						c2.8-2.8,7.4-2.8,10.2,0c2.8,2.8,2.8,7.4,0,10.2L913.4,899.2C912,900.6,910.1,901.3,908.3,901.3z"/>
				</g>
				<g id="XMLID_75_">
					<path id="XMLID_103_" class="st3" d="M953.6,929.3c-1.8,0-3.7-0.7-5.1-2.1c-2.8-2.8-2.8-7.4,0-10.2l123.5-123.4
						c2.8-2.8,7.4-2.8,10.2,0c2.8,2.8,2.8,7.4,0,10.2L958.7,927.2C957.3,928.6,955.4,929.3,953.6,929.3z"/>
				</g>
			</g>
		</g>
	</g>
	<g id="XMLID_59_">
		<g id="XMLID_60_">
		</g>
	</g>
	<g id="XMLID_18_" class="st4">
		<rect id="XMLID_74_" x="203.9" y="1887.6" class="st3" width="1541.6" height="1"/>
	</g>
	<g id="XMLID_17_">
		<path id="XMLID_20_" class="st1" d="M728.6,2958.6h-6.7v-29.7c0-2.4-1.2-3.6-3.7-3.6c-1.6,0-3.6,0.4-6.1,1.1s-4.8,1.7-6.9,2.8
			v29.3h-6.7v-29.7c0-2.4-1.2-3.6-3.7-3.6c-1.4,0-3.4,0.4-6,1.2c-2.6,0.8-4.9,1.7-7,2.8v29.3H675v-38.8h5.4l0.6,3.3
			c5.7-2.8,10.9-4.1,15.6-4.1c3.8,0,6.2,1.4,7.4,4.1c5.7-2.8,11.1-4.1,16-4.1c5.6,0,8.5,3.3,8.5,9.9V2958.6z"/>
		<path id="XMLID_26_" class="st1" d="M745.9,2974.3l5.4-15.7h-2.8l-12.6-38.8h6.6l10.6,33.5l10.8-33.5h6.6l-12.8,38.8l-5.5,15.7
			H745.9z"/>
		<path id="XMLID_28_" class="st1" d="M774.2,2958.6v-9.2h6.9v9.2H774.2z"/>
		<path id="XMLID_30_" class="st1" d="M832,2958.6h-8.6l-9.4-32.9l-9.4,32.9H796l-8.3-38.8h6.4l6.5,32.2l9.4-32.2h8.1l9.4,32.2
			l6.5-32.2h6.4L832,2958.6z"/>
		<path id="XMLID_32_" class="st1" d="M878.5,2944.8c0,4.4-1.3,7.9-3.9,10.6c-2.6,2.7-6.6,4-11.9,4c-5.4,0-9.3-1.3-11.9-4
			c-2.6-2.7-3.9-6.2-3.9-10.6v-11.2c0-4.4,1.3-7.9,3.9-10.6c2.6-2.7,6.5-4,11.9-4c5.4,0,9.3,1.3,11.9,4c2.6,2.7,3.9,6.2,3.9,10.6
			V2944.8z M871.8,2933.3c0-5.7-3-8.5-9.1-8.5s-9.1,2.8-9.1,8.5v11.7c0,5.7,3,8.5,9.1,8.5s9.1-2.8,9.1-8.5V2933.3z"/>
		<path id="XMLID_37_" class="st1" d="M907,2919l0.9,6.1c-3.2,1.5-6.9,3.8-11.1,6.7v26.8h-6.7v-38.8h5.8l0.4,5.4
			C899.5,2922.6,903.1,2920.6,907,2919z"/>
		<path id="XMLID_41_" class="st1" d="M922.1,2958.6h-6.7v-54.7l6.7-1V2958.6z M937.5,2919.8h7.7l-13.9,19.2l14.5,19.6H938
			l-14.2-19.6L937.5,2919.8z"/>
		<path id="XMLID_47_" class="st1" d="M978.9,2948.1c0,4-0.9,6.9-2.8,8.6c-1.8,1.7-5.4,2.6-10.6,2.6c-4.6,0-8.7-0.7-12.4-2.1
			l0.9-5.3c3.7,1.1,7.4,1.6,11.1,1.6c3,0,4.9-0.3,5.8-1c0.9-0.7,1.4-2.1,1.4-4.2c0-2.1-0.4-3.5-1.2-4.1s-3.1-1.4-6.9-2.4
			c-4.7-1.2-7.6-2.5-8.8-3.9c-1.2-1.5-1.8-4.3-1.8-8.5c0-3.7,1-6.3,2.9-8c2-1.6,5.4-2.5,10.4-2.5c4,0,7.7,0.5,11,1.4l-0.5,5.5
			c-3.8-0.7-7.4-1.1-10.8-1.1c-2.7,0-4.5,0.3-5.3,1c-0.8,0.7-1.2,2-1.2,3.8c0,2.3,0.3,3.8,1,4.5c0.6,0.7,2.5,1.4,5.7,2.2
			c2.9,0.7,5.1,1.4,6.6,1.9c1.5,0.5,2.7,1.3,3.5,2.2s1.4,2,1.6,3C978.9,2944.4,978.9,2946,978.9,2948.1z"/>
		<path id="XMLID_50_" class="st1" d="M1010,2952.8l0.9,5.2c-2.6,1-5.3,1.4-8.1,1.4c-3.3,0-5.8-0.7-7.3-2c-1.5-1.4-2.3-3.6-2.3-6.8
			v-25.2h-6.9v-5.6h6.9v-9.6l6.7-1v10.5h11l-0.6,5.6h-10.4v24.1c0,1.6,0.2,2.7,0.7,3.3s1.6,1,3.3,1
			C1005.4,2953.7,1007.5,2953.4,1010,2952.8z"/>
		<path id="XMLID_53_" class="st1" d="M1025.4,2974.3l5.4-15.7h-2.8l-12.6-38.8h6.6l10.6,33.5l10.8-33.5h6.6l-12.8,38.8l-5.5,15.7
			H1025.4z"/>
		<path id="XMLID_57_" class="st1" d="M1064.4,2958.6h-6.7v-54.7l6.7-1V2958.6z"/>
		<path id="XMLID_61_" class="st1" d="M1082.7,2945c0,3.2,0.6,5.4,1.9,6.7c1.2,1.3,3.7,1.9,7.4,1.9c3.6,0,7.7-0.6,12.3-1.8l0.9,5.3
			c-4,1.5-8.6,2.2-13.7,2.2c-5.5,0-9.4-1.2-11.8-3.7c-2.4-2.4-3.6-6-3.6-10.6v-11.6c0-9.7,5.1-14.5,15.2-14.5
			c9.7,0,14.6,4.9,14.6,14.7v8.1h-23.1V2945z M1082.7,2933v3.2h16.7v-3.2c0-2.9-0.6-5-1.8-6.4c-1.2-1.4-3.3-2.1-6.3-2.1
			s-5.2,0.7-6.5,2.1C1083.3,2928.1,1082.7,2930.2,1082.7,2933z"/>
		<path id="XMLID_64_" class="st1" d="M1117.5,2958.6v-9.2h6.9v9.2H1117.5z"/>
		<path id="XMLID_66_" class="st1" d="M1151.4,2959.4c-5.9,0-10-1.2-12.2-3.5c-2.2-2.3-3.3-5.9-3.3-10.6v-12.2
			c0-4.7,1.1-8.3,3.4-10.6c2.3-2.3,6.3-3.5,12.1-3.5c3.7,0,6.8,0.4,9.2,1.2l-0.6,5.6c-2.8-0.6-5.6-0.9-8.5-0.9c-3.3,0-5.7,0.6-7,1.7
			c-1.3,1.1-2,3.2-2,6.3v12.7c0,3,0.6,5.1,2,6.3c1.3,1.1,3.6,1.7,7,1.7c2.9,0,5.8-0.3,8.5-0.9l0.6,5.6
			C1158.2,2959,1155.1,2959.4,1151.4,2959.4z"/>
		<path id="XMLID_68_" class="st1" d="M1201,2944.8c0,4.4-1.3,7.9-3.9,10.6c-2.6,2.7-6.6,4-11.9,4c-5.4,0-9.3-1.3-11.9-4
			c-2.6-2.7-3.9-6.2-3.9-10.6v-11.2c0-4.4,1.3-7.9,3.9-10.6c2.6-2.7,6.5-4,11.9-4c5.4,0,9.3,1.3,11.9,4c2.6,2.7,3.9,6.2,3.9,10.6
			V2944.8z M1194.3,2933.3c0-5.7-3-8.5-9.1-8.5s-9.1,2.8-9.1,8.5v11.7c0,5.7,3,8.5,9.1,8.5s9.1-2.8,9.1-8.5V2933.3z"/>
		<path id="XMLID_71_" class="st1" d="M1266.2,2958.6h-6.7v-29.7c0-2.4-1.2-3.6-3.7-3.6c-1.6,0-3.6,0.4-6.1,1.1
			c-2.5,0.7-4.8,1.7-6.9,2.8v29.3h-6.7v-29.7c0-2.4-1.2-3.6-3.7-3.6c-1.4,0-3.4,0.4-6,1.2c-2.6,0.8-4.9,1.7-7,2.8v29.3h-6.7v-38.8
			h5.4l0.6,3.3c5.7-2.8,10.9-4.1,15.6-4.1c3.8,0,6.2,1.4,7.4,4.1c5.7-2.8,11.1-4.1,16-4.1c5.6,0,8.5,3.3,8.5,9.9V2958.6z"/>
	</g>
</g>
<g id="XMLID_24_">
	<g id="XMLID_34_">
		<path id="XMLID_54_" class="st5" d="M350.3,3357.4l-12.7-44.5l-12.7,44.5h-11.6l-11.2-52.4h8.6l8.7,43.5l12.7-43.5h11l12.7,43.5
			l8.7-43.5h8.6l-11.2,52.4H350.3z"/>
		<path id="XMLID_51_" class="st5" d="M399.6,3358.4c-15.3,0-21.3-8.7-21.3-19.7v-15.2c0-11,6-19.7,21.3-19.7s21.3,8.7,21.3,19.7
			v15.2C420.9,3349.7,414.9,3358.4,399.6,3358.4z M399.6,3311.7c-8.2,0-12.3,3.9-12.3,11.5v15.8c0,7.6,4.1,11.5,12.3,11.5
			c8.2,0,12.3-3.9,12.3-11.5v-15.8C411.9,3315.6,407.8,3311.7,399.6,3311.7z"/>
		<path id="XMLID_49_" class="st5" d="M454.5,3312.1c-5,2.4-10.7,6-15,9v36.2h-9v-52.4h7.9l0.5,7.3c3.9-3,9.3-6.2,14.4-8.4
			L454.5,3312.1z"/>
		<path id="XMLID_46_" class="st5" d="M465.5,3357.4v-73.9l9-1.3v75.2H465.5z M505.8,3304.9l-18.7,26l19.6,26.5H496l-19.2-26.5
			l18.5-26H505.8z"/>
		<path id="XMLID_44_" class="st2" d="M531.6,3358.4c-5.3,0-11.5-1.1-15.4-2.7l1.1-5.1c4.5,1.4,10,2.2,13.9,2.2
			c9.7,0,11.6-1.8,11.6-8.5c0-7.5-0.2-8.3-12.2-11.1c-13.1-3.1-14.2-6.4-14.2-15.9c0-8.7,4.2-13.5,17.1-13.5
			c4.8,0,10.8,0.6,14.9,1.8l-0.6,5.3c-4.2-0.9-10.3-1.5-14.6-1.5c-9.2,0-10.4,2.4-10.4,8.1c0,7.2,0.4,8,10.1,10.4
			c15.4,3.9,16.3,6.4,16.3,16.2C549,3353.6,545.6,3358.4,531.6,3358.4z"/>
		<path id="XMLID_42_" class="st2" d="M591.2,3356.4c-3,1.2-7.2,2-11,2c-8.3,0-11.8-3-11.8-11.3v-36.8h-10.1v-5.4h10.1v-12.4
			l6.2-0.9v13.2h16l-0.6,5.4h-15.4v36.2c0,4.6,0.6,6.6,6,6.6c2.9,0,6.2-0.5,9.4-1.5L591.2,3356.4z"/>
		<path id="XMLID_40_" class="st2" d="M626.4,3357.4l-7.8,21.2h-6.1l7.9-21.2h-3.6l-17.8-52.4h6.4l16.2,48l16.3-48h6.4L626.4,3357.4
			z"/>
		<path id="XMLID_38_" class="st2" d="M653.9,3357.4v-73.9l6.2-0.9v74.7H653.9z"/>
		<path id="XMLID_35_" class="st2" d="M691.3,3352.9c5.4,0,11.4-1.1,16.6-2.5l1.1,5.1c-4.8,1.7-11.7,2.9-18.1,2.9
			c-14.7,0-19.5-7.6-19.5-19.1v-16.5c0-10.8,4.8-19.1,19.6-19.1c14.7,0,19.1,8.3,19.1,19.1v10.1h-32.4v6.6
			C677.6,3349,680.8,3352.9,691.3,3352.9z M677.6,3327.4h26.3v-4.7c0-8.8-3.1-13.5-12.9-13.5c-9.8,0-13.3,4.6-13.3,13.5V3327.4z"/>
	</g>
	<circle id="XMLID_106_" class="st6" cx="188.2" cy="3251.6" r="15.6"/>
	<circle id="XMLID_89_" class="st7" cx="186.1" cy="3289" r="9.1"/>
	<circle id="XMLID_88_" class="st8" cx="213.8" cy="3274" r="11.8"/>
	<circle id="XMLID_87_" class="st9" cx="230.3" cy="3248.2" r="8.4"/>
	<circle id="XMLID_86_" class="st10" cx="212.1" cy="3236" r="4.9"/>
	<circle id="XMLID_84_" class="st11" cx="165.1" cy="3274.7" r="6.6"/>
	<path id="XMLID_25_" class="st5" d="M273,3304.9l-18.5-46.8c-1-2.3-4.5-1.7-4.6,0.9c0,0-4.8,18.3-23.9,36.2
		c-21.9,20.6-57.7,11.1-57.7,11.1c-1.3,0.2-2.2,1.4-2,2.7l9.3,52c0.1,0.9,0.8,1.7,1.7,2l47.5,16.9c1.6,0.5,3.1-0.7,3.1-2.3
		l-7.1-28.6c0-1.2,0.9-2.3,2.1-2.4l35-3c1.2-0.1,2.2-1.2,2.1-2.5l-0.9-30.3c0-1.4,1.1-2.5,2.4-2.5c0,0,2.1,0,4.7,0h4.5
		C272.5,3308.3,273.7,3306.5,273,3304.9z M251.6,3301.4c-3.9,2.3-8.8,1-11.1-2.9c-2.3-3.9-1-8.8,2.9-11.1s8.8-1,11.1,2.9
		C256.8,3294.2,255.5,3299.1,251.6,3301.4z"/>
</g>
</svg>
