<?xml version="1.0" encoding="utf-8"?>
<!-- Generator: Adobe Illustrator 19.0.0, SVG Export Plug-In . SVG Version: 6.00 Build 0)  -->
<svg version="1.1" id="Layer_1" xmlns="http://www.w3.org/2000/svg" xmlns:xlink="http://www.w3.org/1999/xlink" x="0px" y="0px"
	 viewBox="0 0 612 792" style="enable-background:new 0 0 612 792;" xml:space="preserve">
<style type="text/css">
	.st0{opacity:0.6;}
	.st1{opacity:0.6;fill:#2A2D30;}
	.st2{fill:#2A2D30;}
	.st3{fill:#468ECC;}
	.st4{fill:#7B4997;}
	.st5{fill:#FF6C36;}
	.st6{fill:#008987;}
	.st7{fill:#DE4352;}
	.st8{fill:#EDAA00;}
	.st9{fill:#774395;}
	.st10{fill:#D44255;}
	.st11{fill:#128985;}
	.st12{fill:#518CCA;}
</style>
<g id="XMLID_46_" class="st0">
	<g id="XMLID_15_">
		<path id="XMLID_2_" class="st1" d="M147.3,409.3h-1.7v-6h-5.9v6h-1.7V396h1.7v5.7h5.9V396h1.7V409.3z"/>
		<path id="XMLID_18_" class="st1" d="M158.2,402.5v6.8h-1.4l-0.1-0.7c-0.9,0.6-1.9,0.9-3.2,0.9c-1.7,0-2.6-0.9-2.6-2.8
			c0-1,0.2-1.7,0.7-2.1c0.5-0.4,1.2-0.6,2.3-0.6h2.6v-1.5c0-0.6-0.2-1-0.5-1.3s-0.9-0.4-1.6-0.4c-0.9,0-1.9,0.1-2.9,0.3l-0.2-1.3
			c1.1-0.3,2.1-0.4,3.2-0.4c1.3,0,2.3,0.3,2.9,0.8C157.9,400.6,158.2,401.4,158.2,402.5z M156.5,407.3v-1.9H154
			c-0.5,0-0.9,0.1-1.1,0.3c-0.2,0.2-0.3,0.5-0.3,1c0,0.5,0.1,0.9,0.3,1.1c0.2,0.2,0.5,0.3,1.1,0.3
			C154.8,408.1,155.7,407.8,156.5,407.3z"/>
		<path id="XMLID_21_" class="st1" d="M169.4,409.3h-1.7v-7.4c0-0.6-0.3-0.9-0.9-0.9c-0.4,0-0.9,0.1-1.5,0.3
			c-0.6,0.2-1.2,0.4-1.8,0.7v7.4h-1.7v-9.7h1.4l0.2,0.8c1.4-0.7,2.7-1,3.9-1c1.4,0,2.1,0.8,2.1,2.5V409.3z"/>
		<path id="XMLID_24_" class="st1" d="M180.9,399.6v1l-1.2,0.2c0.3,0.5,0.5,1.1,0.5,1.9v0.4c0,1.1-0.3,1.9-1,2.5
			c-0.6,0.6-1.6,0.9-2.8,0.9c-0.4,0-0.7,0-1-0.1c-0.5,0.4-0.7,0.7-0.7,1c0,0.3,0.2,0.5,0.6,0.6l2.8,0.3c0.9,0.1,1.5,0.3,1.9,0.7
			c0.4,0.4,0.6,0.9,0.6,1.7c0,1.1-0.3,1.8-0.8,2.2c-0.6,0.4-1.7,0.6-3.4,0.6c-1.2,0-2.4-0.2-3.5-0.5l0.2-1.3
			c1.1,0.3,2.2,0.4,3.3,0.4c1.2,0,1.9-0.1,2.3-0.3s0.5-0.5,0.5-1.1c0-0.4-0.1-0.7-0.3-0.8c-0.2-0.1-0.6-0.2-1.2-0.3
			c-0.2,0-0.5,0-1.1-0.1c-0.6-0.1-1.1-0.1-1.5-0.1c-1.3-0.1-1.9-0.7-1.9-1.8c0-0.7,0.3-1.3,0.9-1.7c-0.9-0.5-1.4-1.4-1.4-2.8v-0.4
			c0-1.1,0.3-1.9,0.9-2.5c0.6-0.6,1.6-0.8,2.9-0.8c0.7,0,1.2,0.1,1.6,0.2H180.9z M178.7,402.7c0-0.7-0.2-1.2-0.5-1.5
			s-0.9-0.5-1.7-0.5c-0.8,0-1.4,0.1-1.7,0.5c-0.3,0.3-0.5,0.8-0.5,1.5v0.4c0,0.7,0.2,1.2,0.5,1.5c0.3,0.3,0.9,0.4,1.7,0.4
			c0.8,0,1.4-0.2,1.7-0.5c0.3-0.3,0.5-0.8,0.5-1.5V402.7z"/>
		<path id="XMLID_49_" class="st1" d="M190.5,413.2l1.4-3.9h-0.7l-3.2-9.7h1.7l2.7,8.4l2.7-8.4h1.7l-3.2,9.7l-1.4,3.9H190.5z"/>
		<path id="XMLID_51_" class="st1" d="M206.9,405.8c0,1.1-0.3,2-1,2.7s-1.6,1-3,1s-2.3-0.3-3-1c-0.6-0.7-1-1.6-1-2.7V403
			c0-1.1,0.3-2,1-2.7c0.6-0.7,1.6-1,3-1s2.3,0.3,3,1c0.6,0.7,1,1.6,1,2.7V405.8z M205.2,403c0-1.4-0.8-2.1-2.3-2.1
			c-1.5,0-2.3,0.7-2.3,2.1v2.9c0,1.4,0.8,2.1,2.3,2.1c1.5,0,2.3-0.7,2.3-2.1V403z"/>
		<path id="XMLID_54_" class="st1" d="M210.3,399.6h1.7v7.4c0,0.6,0.3,0.9,0.9,0.9c0.4,0,0.9-0.1,1.5-0.3s1.2-0.4,1.8-0.7v-7.4h1.7
			v9.7h-1.4l-0.2-0.8c-1.4,0.7-2.7,1-3.9,1c-1.4,0-2.1-0.8-2.1-2.5V399.6z"/>
		<path id="XMLID_56_" class="st1" d="M225.9,399.4l0.2,1.5c-0.8,0.4-1.7,0.9-2.8,1.7v6.7h-1.7v-9.7h1.5l0.1,1.4
			C224,400.3,224.9,399.8,225.9,399.4z"/>
		<path id="XMLID_58_" class="st1" d="M244,409.3h-2.2l-2.4-8.3l-2.4,8.3H235l-2.1-9.7h1.6l1.6,8.1l2.4-8.1h2l2.4,8.1l1.6-8.1h1.6
			L244,409.3z"/>
		<path id="XMLID_60_" class="st1" d="M256.5,405.8c0,1.1-0.3,2-1,2.7s-1.6,1-3,1s-2.3-0.3-3-1c-0.6-0.7-1-1.6-1-2.7V403
			c0-1.1,0.3-2,1-2.7c0.6-0.7,1.6-1,3-1s2.3,0.3,3,1c0.6,0.7,1,1.6,1,2.7V405.8z M254.8,403c0-1.4-0.8-2.1-2.3-2.1
			c-1.5,0-2.3,0.7-2.3,2.1v2.9c0,1.4,0.8,2.1,2.3,2.1c1.5,0,2.3-0.7,2.3-2.1V403z"/>
		<path id="XMLID_63_" class="st1" d="M264.2,399.4l0.2,1.5c-0.8,0.4-1.7,0.9-2.8,1.7v6.7H260v-9.7h1.5l0.1,1.4
			C262.3,400.3,263.2,399.8,264.2,399.4z"/>
		<path id="XMLID_65_" class="st1" d="M269,409.3h-1.7v-13.7l1.7-0.2V409.3z M272.8,399.6h1.9l-3.5,4.8l3.6,4.9h-2l-3.6-4.9
			L272.8,399.6z"/>
		<path id="XMLID_68_" class="st1" d="M284.3,406.7c0,1-0.2,1.7-0.7,2.2c-0.5,0.4-1.3,0.7-2.7,0.7c-1.2,0-2.2-0.2-3.1-0.5l0.2-1.3
			c0.9,0.3,1.9,0.4,2.8,0.4c0.7,0,1.2-0.1,1.5-0.3c0.2-0.2,0.3-0.5,0.3-1.1s-0.1-0.9-0.3-1s-0.8-0.4-1.7-0.6c-1.2-0.3-1.9-0.6-2.2-1
			c-0.3-0.4-0.4-1.1-0.4-2.1c0-0.9,0.2-1.6,0.7-2s1.4-0.6,2.6-0.6c1,0,1.9,0.1,2.8,0.3l-0.1,1.4c-1-0.2-1.9-0.3-2.7-0.3
			c-0.7,0-1.1,0.1-1.3,0.3c-0.2,0.2-0.3,0.5-0.3,1c0,0.6,0.1,0.9,0.2,1.1c0.2,0.2,0.6,0.4,1.4,0.5c0.7,0.2,1.3,0.3,1.7,0.5
			c0.4,0.1,0.7,0.3,0.9,0.6c0.2,0.2,0.4,0.5,0.4,0.8S284.3,406.1,284.3,406.7z"/>
		<path id="XMLID_70_" class="st1" d="M293,407.8l0.2,1.3c-0.7,0.2-1.3,0.4-2,0.4c-0.8,0-1.5-0.2-1.8-0.5s-0.6-0.9-0.6-1.7V401H287
			v-1.4h1.7v-2.4l1.7-0.2v2.6h2.8L293,401h-2.6v6c0,0.4,0.1,0.7,0.2,0.8s0.4,0.2,0.8,0.2C291.8,408.1,292.3,408,293,407.8z"/>
		<path id="XMLID_72_" class="st1" d="M298.1,413.2l1.4-3.9h-0.7l-3.2-9.7h1.7l2.7,8.4l2.7-8.4h1.7l-3.2,9.7l-1.4,3.9H298.1z"/>
		<path id="XMLID_74_" class="st1" d="M308.9,409.3h-1.7v-13.7l1.7-0.2V409.3z"/>
		<path id="XMLID_76_" class="st1" d="M314.1,405.9c0,0.8,0.2,1.4,0.5,1.7s0.9,0.5,1.8,0.5c0.9,0,1.9-0.2,3.1-0.5l0.2,1.3
			c-1,0.4-2.2,0.6-3.4,0.6c-1.4,0-2.4-0.3-3-0.9s-0.9-1.5-0.9-2.7V403c0-2.4,1.3-3.6,3.8-3.6c2.4,0,3.7,1.2,3.7,3.7v2h-5.8V405.9z
			 M314.1,402.9v0.8h4.2v-0.8c0-0.7-0.2-1.3-0.5-1.6s-0.8-0.5-1.6-0.5s-1.3,0.2-1.6,0.5C314.2,401.6,314.1,402.2,314.1,402.9z"/>
		<path id="XMLID_79_" class="st1" d="M336.4,409.3h-1.7v-7.4c0-0.6-0.3-0.9-0.9-0.9c-0.4,0-0.9,0.1-1.5,0.3
			c-0.6,0.2-1.2,0.4-1.8,0.7v7.3h-1.7v-13.7l1.7-0.2v5c1.4-0.7,2.7-1,3.8-1c1.4,0,2.1,0.8,2.1,2.5V409.3z"/>
		<path id="XMLID_81_" class="st1" d="M341.8,398h-1.7v-2.4h1.7V398z M341.8,409.3h-1.7v-9.7h1.7V409.3z"/>
		<path id="XMLID_84_" class="st1" d="M347,405.9c0,0.8,0.2,1.4,0.5,1.7s0.9,0.5,1.8,0.5c0.9,0,1.9-0.2,3.1-0.5l0.2,1.3
			c-1,0.4-2.2,0.6-3.4,0.6c-1.4,0-2.4-0.3-3-0.9s-0.9-1.5-0.9-2.7V403c0-2.4,1.3-3.6,3.8-3.6c2.4,0,3.7,1.2,3.7,3.7v2H347V405.9z
			 M347,402.9v0.8h4.2v-0.8c0-0.7-0.2-1.3-0.5-1.6s-0.8-0.5-1.6-0.5s-1.3,0.2-1.6,0.5C347.1,401.6,347,402.2,347,402.9z"/>
		<path id="XMLID_87_" class="st1" d="M360.4,399.4l0.2,1.5c-0.8,0.4-1.7,0.9-2.8,1.7v6.7h-1.7v-9.7h1.5l0.1,1.4
			C358.5,400.3,359.4,399.8,360.4,399.4z"/>
		<path id="XMLID_89_" class="st1" d="M370.4,402.5v6.8h-1.4l-0.1-0.7c-0.9,0.6-1.9,0.9-3.2,0.9c-1.7,0-2.6-0.9-2.6-2.8
			c0-1,0.2-1.7,0.7-2.1c0.5-0.4,1.2-0.6,2.3-0.6h2.6v-1.5c0-0.6-0.2-1-0.5-1.3s-0.9-0.4-1.6-0.4c-0.9,0-1.9,0.1-2.9,0.3l-0.2-1.3
			c1.1-0.3,2.1-0.4,3.2-0.4c1.3,0,2.3,0.3,2.9,0.8C370.1,400.6,370.4,401.4,370.4,402.5z M368.7,407.3v-1.9h-2.5
			c-0.5,0-0.9,0.1-1.1,0.3c-0.2,0.2-0.3,0.5-0.3,1c0,0.5,0.1,0.9,0.3,1.1c0.2,0.2,0.5,0.3,1.1,0.3
			C367,408.1,367.9,407.8,368.7,407.3z"/>
		<path id="XMLID_92_" class="st1" d="M378.3,399.4l0.2,1.5c-0.8,0.4-1.7,0.9-2.8,1.7v6.7H374v-9.7h1.5l0.1,1.4
			C376.4,400.3,377.3,399.8,378.3,399.4z"/>
		<path id="XMLID_94_" class="st1" d="M384.9,409.5c-1.5,0-2.5-0.3-3-0.9c-0.6-0.6-0.8-1.5-0.8-2.7v-3.1c0-1.2,0.3-2.1,0.8-2.7
			c0.6-0.6,1.6-0.9,3-0.9c0.9,0,1.7,0.1,2.3,0.3l-0.1,1.4c-0.7-0.1-1.4-0.2-2.1-0.2c-0.8,0-1.4,0.1-1.8,0.4
			c-0.3,0.3-0.5,0.8-0.5,1.6v3.2c0,0.8,0.2,1.3,0.5,1.6c0.3,0.3,0.9,0.4,1.8,0.4c0.7,0,1.4-0.1,2.1-0.2l0.2,1.4
			C386.6,409.4,385.8,409.5,384.9,409.5z"/>
		<path id="XMLID_96_" class="st1" d="M398.1,409.3h-1.7v-7.4c0-0.6-0.3-0.9-0.9-0.9c-0.4,0-0.9,0.1-1.5,0.3
			c-0.6,0.2-1.2,0.4-1.8,0.7v7.3h-1.7v-13.7l1.7-0.2v5c1.4-0.7,2.7-1,3.8-1c1.4,0,2.1,0.8,2.1,2.5V409.3z"/>
		<path id="XMLID_98_" class="st1" d="M403.3,413.2l1.4-3.9h-0.7l-3.2-9.7h1.7l2.7,8.4l2.7-8.4h1.7l-3.2,9.7l-1.4,3.9H403.3z"/>
		<path id="XMLID_100_" class="st1" d="M425.1,402.3v4c0,2.1-1.1,3.2-3.2,3.2c-0.9,0-1.8-0.1-2.8-0.3v4l-1.7,0.2v-13.9h1.4l0.1,0.9
			c0.9-0.7,2-1.1,3.2-1.1C424.1,399.4,425.1,400.3,425.1,402.3z M419.1,402v5.7c1,0.2,1.9,0.3,2.7,0.3c0.6,0,1-0.1,1.2-0.4
			s0.4-0.7,0.4-1.3v-4c0-0.5-0.1-0.9-0.3-1.1c-0.2-0.2-0.6-0.4-1.2-0.4C420.9,400.8,420,401.2,419.1,402z"/>
		<path id="XMLID_103_" class="st1" d="M435.6,402.5v6.8h-1.4l-0.1-0.7c-0.9,0.6-1.9,0.9-3.2,0.9c-1.7,0-2.6-0.9-2.6-2.8
			c0-1,0.2-1.7,0.7-2.1c0.5-0.4,1.2-0.6,2.3-0.6h2.6v-1.5c0-0.6-0.2-1-0.5-1.3s-0.9-0.4-1.6-0.4c-0.9,0-1.9,0.1-2.9,0.3l-0.2-1.3
			c1.1-0.3,2.1-0.4,3.2-0.4c1.3,0,2.3,0.3,2.9,0.8C435.3,400.6,435.6,401.4,435.6,402.5z M433.9,407.3v-1.9h-2.5
			c-0.5,0-0.9,0.1-1.1,0.3c-0.2,0.2-0.3,0.5-0.3,1c0,0.5,0.1,0.9,0.3,1.1c0.2,0.2,0.5,0.3,1.1,0.3
			C432.3,408.1,433.1,407.8,433.9,407.3z"/>
		<path id="XMLID_106_" class="st1" d="M447,399.6v1l-1.2,0.2c0.3,0.5,0.5,1.1,0.5,1.9v0.4c0,1.1-0.3,1.9-1,2.5
			c-0.6,0.6-1.6,0.9-2.8,0.9c-0.4,0-0.7,0-1-0.1c-0.5,0.4-0.7,0.7-0.7,1c0,0.3,0.2,0.5,0.6,0.6l2.8,0.3c0.9,0.1,1.5,0.3,1.9,0.7
			c0.4,0.4,0.6,0.9,0.6,1.7c0,1.1-0.3,1.8-0.8,2.2c-0.6,0.4-1.7,0.6-3.4,0.6c-1.2,0-2.4-0.2-3.5-0.5l0.2-1.3
			c1.1,0.3,2.2,0.4,3.3,0.4c1.2,0,1.9-0.1,2.3-0.3s0.5-0.5,0.5-1.1c0-0.4-0.1-0.7-0.3-0.8c-0.2-0.1-0.6-0.2-1.2-0.3
			c-0.2,0-0.5,0-1.1-0.1c-0.6-0.1-1.1-0.1-1.5-0.1c-1.3-0.1-1.9-0.7-1.9-1.8c0-0.7,0.3-1.3,0.9-1.7c-0.9-0.5-1.4-1.4-1.4-2.8v-0.4
			c0-1.1,0.3-1.9,0.9-2.5c0.6-0.6,1.6-0.8,2.9-0.8c0.7,0,1.2,0.1,1.6,0.2H447z M444.8,402.7c0-0.7-0.2-1.2-0.5-1.5s-0.9-0.5-1.7-0.5
			c-0.8,0-1.4,0.1-1.7,0.5c-0.3,0.3-0.5,0.8-0.5,1.5v0.4c0,0.7,0.2,1.2,0.5,1.5c0.3,0.3,0.9,0.4,1.7,0.4c0.8,0,1.4-0.2,1.7-0.5
			c0.3-0.3,0.5-0.8,0.5-1.5V402.7z"/>
		<path id="XMLID_109_" class="st1" d="M451.4,405.9c0,0.8,0.2,1.4,0.5,1.7s0.9,0.5,1.8,0.5c0.9,0,1.9-0.2,3.1-0.5l0.2,1.3
			c-1,0.4-2.2,0.6-3.4,0.6c-1.4,0-2.4-0.3-3-0.9s-0.9-1.5-0.9-2.7V403c0-2.4,1.3-3.6,3.8-3.6c2.4,0,3.7,1.2,3.7,3.7v2h-5.8V405.9z
			 M451.4,402.9v0.8h4.2v-0.8c0-0.7-0.2-1.3-0.5-1.6s-0.8-0.5-1.6-0.5s-1.3,0.2-1.6,0.5C451.6,401.6,451.4,402.2,451.4,402.9z"/>
		<path id="XMLID_112_" class="st1" d="M473,402.5v6.8h-1.4l-0.1-0.7c-0.9,0.6-1.9,0.9-3.2,0.9c-1.7,0-2.6-0.9-2.6-2.8
			c0-1,0.2-1.7,0.7-2.1c0.5-0.4,1.2-0.6,2.3-0.6h2.6v-1.5c0-0.6-0.2-1-0.5-1.3s-0.9-0.4-1.6-0.4c-0.9,0-1.9,0.1-2.9,0.3l-0.2-1.3
			c1.1-0.3,2.1-0.4,3.2-0.4c1.3,0,2.3,0.3,2.9,0.8C472.8,400.6,473,401.4,473,402.5z M471.4,407.3v-1.9h-2.5c-0.5,0-0.9,0.1-1.1,0.3
			c-0.2,0.2-0.3,0.5-0.3,1c0,0.5,0.1,0.9,0.3,1.1c0.2,0.2,0.5,0.3,1.1,0.3C469.7,408.1,470.5,407.8,471.4,407.3z"/>
		<path id="XMLID_115_" class="st1" d="M481.9,407.8l0.2,1.3c-0.7,0.2-1.3,0.4-2,0.4c-0.8,0-1.5-0.2-1.8-0.5s-0.6-0.9-0.6-1.7V401
			h-1.7v-1.4h1.7v-2.4l1.7-0.2v2.6h2.8l-0.1,1.4h-2.6v6c0,0.4,0.1,0.7,0.2,0.8s0.4,0.2,0.8,0.2C480.7,408.1,481.3,408,481.9,407.8z"
			/>
		<path id="XMLID_117_" class="st1" d="M123.2,443.2l1.4-3.9h-0.7l-3.2-9.7h1.7l2.7,8.4l2.7-8.4h1.7l-3.2,9.7l-1.4,3.9H123.2z"/>
		<path id="XMLID_119_" class="st1" d="M139.6,435.8c0,1.1-0.3,2-1,2.7s-1.6,1-3,1s-2.3-0.3-3-1c-0.6-0.7-1-1.6-1-2.7V433
			c0-1.1,0.3-2,1-2.7c0.6-0.7,1.6-1,3-1s2.3,0.3,3,1c0.6,0.7,1,1.6,1,2.7V435.8z M137.9,433c0-1.4-0.8-2.1-2.3-2.1
			c-1.5,0-2.3,0.7-2.3,2.1v2.9c0,1.4,0.8,2.1,2.3,2.1c1.5,0,2.3-0.7,2.3-2.1V433z"/>
		<path id="XMLID_122_" class="st1" d="M143,429.6h1.7v7.4c0,0.6,0.3,0.9,0.9,0.9c0.4,0,0.9-0.1,1.5-0.3s1.2-0.4,1.8-0.7v-7.4h1.7
			v9.7h-1.4l-0.2-0.8c-1.4,0.7-2.7,1-3.9,1c-1.4,0-2.1-0.8-2.1-2.5V429.6z"/>
		<path id="XMLID_130_" class="st1" d="M158.6,429.4l0.2,1.5c-0.8,0.4-1.7,0.9-2.8,1.7v6.7h-1.7v-9.7h1.5l0.1,1.4
			C156.7,430.3,157.6,429.8,158.6,429.4z"/>
		<path id="XMLID_132_" class="st1" d="M176.7,439.3h-2.2l-2.4-8.3l-2.4,8.3h-2.2l-2.1-9.7h1.6l1.6,8.1l2.4-8.1h2l2.4,8.1l1.6-8.1
			h1.6L176.7,439.3z"/>
		<path id="XMLID_134_" class="st1" d="M189.2,435.8c0,1.1-0.3,2-1,2.7s-1.6,1-3,1s-2.3-0.3-3-1c-0.6-0.7-1-1.6-1-2.7V433
			c0-1.1,0.3-2,1-2.7c0.6-0.7,1.6-1,3-1s2.3,0.3,3,1c0.6,0.7,1,1.6,1,2.7V435.8z M187.5,433c0-1.4-0.8-2.1-2.3-2.1
			c-1.5,0-2.3,0.7-2.3,2.1v2.9c0,1.4,0.8,2.1,2.3,2.1c1.5,0,2.3-0.7,2.3-2.1V433z"/>
		<path id="XMLID_137_" class="st1" d="M196.9,429.4l0.2,1.5c-0.8,0.4-1.7,0.9-2.8,1.7v6.7h-1.7v-9.7h1.5l0.1,1.4
			C195,430.3,195.9,429.8,196.9,429.4z"/>
		<path id="XMLID_139_" class="st1" d="M201.7,439.3H200v-13.7l1.7-0.2V439.3z M205.5,429.6h1.9l-3.5,4.8l3.6,4.9h-2l-3.6-4.9
			L205.5,429.6z"/>
		<path id="XMLID_142_" class="st1" d="M216.9,436.7c0,1-0.2,1.7-0.7,2.2c-0.5,0.4-1.3,0.7-2.7,0.7c-1.2,0-2.2-0.2-3.1-0.5l0.2-1.3
			c0.9,0.3,1.9,0.4,2.8,0.4c0.7,0,1.2-0.1,1.5-0.3c0.2-0.2,0.3-0.5,0.3-1.1s-0.1-0.9-0.3-1s-0.8-0.4-1.7-0.6c-1.2-0.3-1.9-0.6-2.2-1
			c-0.3-0.4-0.4-1.1-0.4-2.1c0-0.9,0.2-1.6,0.7-2s1.4-0.6,2.6-0.6c1,0,1.9,0.1,2.8,0.3l-0.1,1.4c-1-0.2-1.9-0.3-2.7-0.3
			c-0.7,0-1.1,0.1-1.3,0.3c-0.2,0.2-0.3,0.5-0.3,1c0,0.6,0.1,0.9,0.2,1.1c0.2,0.2,0.6,0.4,1.4,0.5c0.7,0.2,1.3,0.3,1.7,0.5
			c0.4,0.1,0.7,0.3,0.9,0.6c0.2,0.2,0.4,0.5,0.4,0.8S216.9,436.1,216.9,436.7z"/>
		<path id="XMLID_144_" class="st1" d="M228,432.3v4c0,2.1-1.1,3.2-3.2,3.2c-0.9,0-1.8-0.1-2.8-0.3v4l-1.7,0.2v-13.9h1.4l0.1,0.9
			c0.9-0.7,2-1.1,3.2-1.1C227,429.4,228,430.3,228,432.3z M222,432v5.7c1,0.2,1.9,0.3,2.7,0.3c0.6,0,1-0.1,1.2-0.4s0.4-0.7,0.4-1.3
			v-4c0-0.5-0.1-0.9-0.3-1.1c-0.2-0.2-0.6-0.4-1.2-0.4C223.8,430.8,222.9,431.2,222,432z"/>
		<path id="XMLID_147_" class="st1" d="M238.5,432.5v6.8h-1.4l-0.1-0.7c-0.9,0.6-1.9,0.9-3.2,0.9c-1.7,0-2.6-0.9-2.6-2.8
			c0-1,0.2-1.7,0.7-2.1c0.5-0.4,1.2-0.6,2.3-0.6h2.6v-1.5c0-0.6-0.2-1-0.5-1.3s-0.9-0.4-1.6-0.4c-0.9,0-1.9,0.1-2.9,0.3l-0.2-1.3
			c1.1-0.3,2.1-0.4,3.2-0.4c1.3,0,2.3,0.3,2.9,0.8C238.2,430.6,238.5,431.4,238.5,432.5z M236.8,437.3v-1.9h-2.5
			c-0.5,0-0.9,0.1-1.1,0.3c-0.2,0.2-0.3,0.5-0.3,1c0,0.5,0.1,0.9,0.3,1.1c0.2,0.2,0.5,0.3,1.1,0.3
			C235.2,438.1,236,437.8,236.8,437.3z"/>
		<path id="XMLID_150_" class="st1" d="M245.7,439.5c-1.5,0-2.5-0.3-3-0.9c-0.6-0.6-0.8-1.5-0.8-2.7v-3.1c0-1.2,0.3-2.1,0.8-2.7
			c0.6-0.6,1.6-0.9,3-0.9c0.9,0,1.7,0.1,2.3,0.3l-0.1,1.4c-0.7-0.1-1.4-0.2-2.1-0.2c-0.8,0-1.4,0.1-1.8,0.4
			c-0.3,0.3-0.5,0.8-0.5,1.6v3.2c0,0.8,0.2,1.3,0.5,1.6c0.3,0.3,0.9,0.4,1.8,0.4c0.7,0,1.4-0.1,2.1-0.2l0.2,1.4
			C247.4,439.4,246.6,439.5,245.7,439.5z"/>
		<path id="XMLID_152_" class="st1" d="M252.6,435.9c0,0.8,0.2,1.4,0.5,1.7s0.9,0.5,1.8,0.5c0.9,0,1.9-0.2,3.1-0.5l0.2,1.3
			c-1,0.4-2.2,0.6-3.4,0.6c-1.4,0-2.4-0.3-3-0.9s-0.9-1.5-0.9-2.7V433c0-2.4,1.3-3.6,3.8-3.6c2.4,0,3.7,1.2,3.7,3.7v2h-5.8V435.9z
			 M252.6,432.9v0.8h4.2v-0.8c0-0.7-0.2-1.3-0.5-1.6s-0.8-0.5-1.6-0.5s-1.3,0.2-1.6,0.5C252.7,431.6,252.6,432.2,252.6,432.9z"/>
		<path id="XMLID_155_" class="st1" d="M273.4,436.7c0,1-0.2,1.7-0.7,2.2c-0.5,0.4-1.3,0.7-2.7,0.7c-1.2,0-2.2-0.2-3.1-0.5l0.2-1.3
			c0.9,0.3,1.9,0.4,2.8,0.4c0.7,0,1.2-0.1,1.5-0.3c0.2-0.2,0.3-0.5,0.3-1.1s-0.1-0.9-0.3-1s-0.8-0.4-1.7-0.6c-1.2-0.3-1.9-0.6-2.2-1
			c-0.3-0.4-0.4-1.1-0.4-2.1c0-0.9,0.2-1.6,0.7-2s1.4-0.6,2.6-0.6c1,0,1.9,0.1,2.8,0.3l-0.1,1.4c-1-0.2-1.9-0.3-2.7-0.3
			c-0.7,0-1.1,0.1-1.3,0.3c-0.2,0.2-0.3,0.5-0.3,1c0,0.6,0.1,0.9,0.2,1.1c0.2,0.2,0.6,0.4,1.4,0.5c0.7,0.2,1.3,0.3,1.7,0.5
			c0.4,0.1,0.7,0.3,0.9,0.6c0.2,0.2,0.4,0.5,0.4,0.8S273.4,436.1,273.4,436.7z"/>
		<path id="XMLID_157_" class="st1" d="M284.4,435.8c0,1.1-0.3,2-1,2.7s-1.6,1-3,1s-2.3-0.3-3-1c-0.6-0.7-1-1.6-1-2.7V433
			c0-1.1,0.3-2,1-2.7c0.6-0.7,1.6-1,3-1s2.3,0.3,3,1c0.6,0.7,1,1.6,1,2.7V435.8z M282.8,433c0-1.4-0.8-2.1-2.3-2.1
			c-1.5,0-2.3,0.7-2.3,2.1v2.9c0,1.4,0.8,2.1,2.3,2.1c1.5,0,2.3-0.7,2.3-2.1V433z"/>
		<path id="XMLID_160_" class="st1" d="M300.9,435.8c0,1.1-0.3,2-1,2.7s-1.6,1-3,1s-2.3-0.3-3-1c-0.6-0.7-1-1.6-1-2.7V433
			c0-1.1,0.3-2,1-2.7c0.6-0.7,1.6-1,3-1s2.3,0.3,3,1c0.6,0.7,1,1.6,1,2.7V435.8z M299.2,433c0-1.4-0.8-2.1-2.3-2.1
			c-1.5,0-2.3,0.7-2.3,2.1v2.9c0,1.4,0.8,2.1,2.3,2.1c1.5,0,2.3-0.7,2.3-2.1V433z"/>
		<path id="XMLID_163_" class="st1" d="M309.5,437.8l0.2,1.3c-0.7,0.2-1.3,0.4-2,0.4c-0.8,0-1.5-0.2-1.8-0.5s-0.6-0.9-0.6-1.7V431
			h-1.7v-1.4h1.7v-2.4l1.7-0.2v2.6h2.8l-0.1,1.4h-2.6v6c0,0.4,0.1,0.7,0.2,0.8s0.4,0.2,0.8,0.2C308.3,438.1,308.9,438,309.5,437.8z"
			/>
		<path id="XMLID_165_" class="st1" d="M320.5,439.3h-1.7v-7.4c0-0.6-0.3-0.9-0.9-0.9c-0.4,0-0.9,0.1-1.5,0.3
			c-0.6,0.2-1.2,0.4-1.8,0.7v7.3h-1.7v-13.7l1.7-0.2v5c1.4-0.7,2.7-1,3.8-1c1.4,0,2.1,0.8,2.1,2.5V439.3z"/>
		<path id="XMLID_167_" class="st1" d="M325.6,435.9c0,0.8,0.2,1.4,0.5,1.7s0.9,0.5,1.8,0.5c0.9,0,1.9-0.2,3.1-0.5l0.2,1.3
			c-1,0.4-2.2,0.6-3.4,0.6c-1.4,0-2.4-0.3-3-0.9s-0.9-1.5-0.9-2.7V433c0-2.4,1.3-3.6,3.8-3.6c2.4,0,3.7,1.2,3.7,3.7v2h-5.8V435.9z
			 M325.6,432.9v0.8h4.2v-0.8c0-0.7-0.2-1.3-0.5-1.6s-0.8-0.5-1.6-0.5s-1.3,0.2-1.6,0.5C325.7,431.6,325.6,432.2,325.6,432.9z"/>
		<path id="XMLID_170_" class="st1" d="M339,429.4l0.2,1.5c-0.8,0.4-1.7,0.9-2.8,1.7v6.7h-1.7v-9.7h1.5l0.1,1.4
			C337.1,430.3,338,429.8,339,429.4z"/>
		<path id="XMLID_172_" class="st1" d="M348.3,436.7c0,1-0.2,1.7-0.7,2.2c-0.5,0.4-1.3,0.7-2.7,0.7c-1.2,0-2.2-0.2-3.1-0.5l0.2-1.3
			c0.9,0.3,1.9,0.4,2.8,0.4c0.7,0,1.2-0.1,1.5-0.3c0.2-0.2,0.3-0.5,0.3-1.1s-0.1-0.9-0.3-1s-0.8-0.4-1.7-0.6c-1.2-0.3-1.9-0.6-2.2-1
			c-0.3-0.4-0.4-1.1-0.4-2.1c0-0.9,0.2-1.6,0.7-2s1.4-0.6,2.6-0.6c1,0,1.9,0.1,2.8,0.3l-0.1,1.4c-1-0.2-1.9-0.3-2.7-0.3
			c-0.7,0-1.1,0.1-1.3,0.3c-0.2,0.2-0.3,0.5-0.3,1c0,0.6,0.1,0.9,0.2,1.1c0.2,0.2,0.6,0.4,1.4,0.5c0.7,0.2,1.3,0.3,1.7,0.5
			c0.4,0.1,0.7,0.3,0.9,0.6c0.2,0.2,0.4,0.5,0.4,0.8S348.3,436.1,348.3,436.7z"/>
		<path id="XMLID_174_" class="st1" d="M359,439.3h-1.7v-13.7l1.7-0.2V439.3z M362.8,429.6h1.9l-3.5,4.8l3.6,4.9h-2l-3.6-4.9
			L362.8,429.6z"/>
		<path id="XMLID_177_" class="st1" d="M375.6,439.3h-1.7v-7.4c0-0.6-0.3-0.9-0.9-0.9c-0.4,0-0.9,0.1-1.5,0.3
			c-0.6,0.2-1.2,0.4-1.8,0.7v7.4H368v-9.7h1.4l0.2,0.8c1.4-0.7,2.7-1,3.9-1c1.4,0,2.1,0.8,2.1,2.5V439.3z"/>
		<path id="XMLID_179_" class="st1" d="M386.9,435.8c0,1.1-0.3,2-1,2.7s-1.6,1-3,1s-2.3-0.3-3-1c-0.6-0.7-1-1.6-1-2.7V433
			c0-1.1,0.3-2,1-2.7c0.6-0.7,1.6-1,3-1s2.3,0.3,3,1c0.6,0.7,1,1.6,1,2.7V435.8z M385.2,433c0-1.4-0.8-2.1-2.3-2.1
			c-1.5,0-2.3,0.7-2.3,2.1v2.9c0,1.4,0.8,2.1,2.3,2.1c1.5,0,2.3-0.7,2.3-2.1V433z"/>
		<path id="XMLID_182_" class="st1" d="M400.5,439.3h-2.2L396,431l-2.4,8.3h-2.2l-2.1-9.7h1.6l1.6,8.1l2.4-8.1h2l2.4,8.1l1.6-8.1
			h1.6L400.5,439.3z"/>
		<path id="XMLID_184_" class="st1" d="M420.7,439.3h-2.2l-2.4-8.3l-2.4,8.3h-2.2l-2.1-9.7h1.6l1.6,8.1l2.4-8.1h2l2.4,8.1l1.6-8.1
			h1.6L420.7,439.3z"/>
		<path id="XMLID_186_" class="st1" d="M433.4,439.3h-1.7v-7.4c0-0.6-0.3-0.9-0.9-0.9c-0.4,0-0.9,0.1-1.5,0.3
			c-0.6,0.2-1.2,0.4-1.8,0.7v7.3h-1.7v-13.7l1.7-0.2v5c1.4-0.7,2.7-1,3.8-1c1.4,0,2.1,0.8,2.1,2.5V439.3z"/>
		<path id="XMLID_188_" class="st1" d="M444.1,432.5v6.8h-1.4l-0.1-0.7c-0.9,0.6-1.9,0.9-3.2,0.9c-1.7,0-2.6-0.9-2.6-2.8
			c0-1,0.2-1.7,0.7-2.1c0.5-0.4,1.2-0.6,2.3-0.6h2.6v-1.5c0-0.6-0.2-1-0.5-1.3s-0.9-0.4-1.6-0.4c-0.9,0-1.9,0.1-2.9,0.3l-0.2-1.3
			c1.1-0.3,2.1-0.4,3.2-0.4c1.3,0,2.3,0.3,2.9,0.8C443.8,430.6,444.1,431.4,444.1,432.5z M442.4,437.3v-1.9h-2.5
			c-0.5,0-0.9,0.1-1.1,0.3c-0.2,0.2-0.3,0.5-0.3,1c0,0.5,0.1,0.9,0.3,1.1c0.2,0.2,0.5,0.3,1.1,0.3
			C440.7,438.1,441.6,437.8,442.4,437.3z"/>
		<path id="XMLID_191_" class="st1" d="M452.9,437.8l0.2,1.3c-0.7,0.2-1.3,0.4-2,0.4c-0.8,0-1.5-0.2-1.8-0.5s-0.6-0.9-0.6-1.7V431
			H447v-1.4h1.7v-2.4l1.7-0.2v2.6h2.8L453,431h-2.6v6c0,0.4,0.1,0.7,0.2,0.8s0.4,0.2,0.8,0.2C451.8,438.1,452.3,438,452.9,437.8z"/>
		<path id="XMLID_193_" class="st1" d="M462.8,443.2l1.4-3.9h-0.7l-3.2-9.7h1.7l2.7,8.4l2.7-8.4h1.7l-3.2,9.7l-1.4,3.9H462.8z"/>
		<path id="XMLID_195_" class="st1" d="M479.2,435.8c0,1.1-0.3,2-1,2.7s-1.6,1-3,1s-2.3-0.3-3-1c-0.6-0.7-1-1.6-1-2.7V433
			c0-1.1,0.3-2,1-2.7c0.6-0.7,1.6-1,3-1s2.3,0.3,3,1c0.6,0.7,1,1.6,1,2.7V435.8z M477.5,433c0-1.4-0.8-2.1-2.3-2.1
			c-1.5,0-2.3,0.7-2.3,2.1v2.9c0,1.4,0.8,2.1,2.3,2.1c1.5,0,2.3-0.7,2.3-2.1V433z"/>
		<path id="XMLID_198_" class="st1" d="M482.6,429.6h1.7v7.4c0,0.6,0.3,0.9,0.9,0.9c0.4,0,0.9-0.1,1.5-0.3s1.2-0.4,1.8-0.7v-7.4h1.7
			v9.7h-1.4l-0.2-0.8c-1.4,0.7-2.7,1-3.9,1c-1.4,0-2.1-0.8-2.1-2.5V429.6z"/>
		<path id="XMLID_200_" class="st1" d="M498.2,429.4l0.2,1.5c-0.8,0.4-1.7,0.9-2.8,1.7v6.7h-1.7v-9.7h1.5l0.1,1.4
			C496.3,430.3,497.2,429.8,498.2,429.4z"/>
		<path id="XMLID_202_" class="st1" d="M266.5,469.3h-2.2L262,461l-2.4,8.3h-2.2l-2.1-9.7h1.6l1.6,8.1l2.4-8.1h2l2.4,8.1l1.6-8.1
			h1.6L266.5,469.3z"/>
		<path id="XMLID_204_" class="st1" d="M279,465.8c0,1.1-0.3,2-1,2.7s-1.6,1-3,1s-2.3-0.3-3-1c-0.6-0.7-1-1.6-1-2.7V463
			c0-1.1,0.3-2,1-2.7c0.6-0.7,1.6-1,3-1s2.3,0.3,3,1c0.6,0.7,1,1.6,1,2.7V465.8z M277.3,463c0-1.4-0.8-2.1-2.3-2.1
			c-1.5,0-2.3,0.7-2.3,2.1v2.9c0,1.4,0.8,2.1,2.3,2.1c1.5,0,2.3-0.7,2.3-2.1V463z"/>
		<path id="XMLID_207_" class="st1" d="M286.7,459.4l0.2,1.5c-0.8,0.4-1.7,0.9-2.8,1.7v6.7h-1.7v-9.7h1.5l0.1,1.4
			C284.8,460.3,285.7,459.8,286.7,459.4z"/>
		<path id="XMLID_209_" class="st1" d="M291.5,469.3h-1.7v-13.7l1.7-0.2V469.3z M295.4,459.6h1.9l-3.5,4.8l3.6,4.9h-2l-3.6-4.9
			L295.4,459.6z"/>
		<path id="XMLID_212_" class="st1" d="M306.8,466.7c0,1-0.2,1.7-0.7,2.2c-0.5,0.4-1.3,0.7-2.7,0.7c-1.2,0-2.2-0.2-3.1-0.5l0.2-1.3
			c0.9,0.3,1.9,0.4,2.8,0.4c0.7,0,1.2-0.1,1.5-0.3c0.2-0.2,0.3-0.5,0.3-1.1s-0.1-0.9-0.3-1s-0.8-0.4-1.7-0.6c-1.2-0.3-1.9-0.6-2.2-1
			c-0.3-0.4-0.4-1.1-0.4-2.1c0-0.9,0.2-1.6,0.7-2s1.4-0.6,2.6-0.6c1,0,1.9,0.1,2.8,0.3l-0.1,1.4c-1-0.2-1.9-0.3-2.7-0.3
			c-0.7,0-1.1,0.1-1.3,0.3c-0.2,0.2-0.3,0.5-0.3,1c0,0.6,0.1,0.9,0.2,1.1c0.2,0.2,0.6,0.4,1.4,0.5c0.7,0.2,1.3,0.3,1.7,0.5
			c0.4,0.1,0.7,0.3,0.9,0.6c0.2,0.2,0.4,0.5,0.4,0.8S306.8,466.1,306.8,466.7z"/>
		<path id="XMLID_214_" class="st1" d="M315.5,467.8l0.2,1.3c-0.7,0.2-1.3,0.4-2,0.4c-0.8,0-1.5-0.2-1.8-0.5s-0.6-0.9-0.6-1.7V461
			h-1.7v-1.4h1.7v-2.4l1.7-0.2v2.6h2.8l-0.1,1.4h-2.6v6c0,0.4,0.1,0.7,0.2,0.8s0.4,0.2,0.8,0.2C314.3,468.1,314.8,468,315.5,467.8z"
			/>
		<path id="XMLID_216_" class="st1" d="M320.6,473.2l1.4-3.9h-0.7l-3.2-9.7h1.7l2.7,8.4l2.7-8.4h1.7l-3.2,9.7l-1.4,3.9H320.6z"/>
		<path id="XMLID_218_" class="st1" d="M331.4,469.3h-1.7v-13.7l1.7-0.2V469.3z"/>
		<path id="XMLID_220_" class="st1" d="M336.6,465.9c0,0.8,0.2,1.4,0.5,1.7s0.9,0.5,1.8,0.5c0.9,0,1.9-0.2,3.1-0.5l0.2,1.3
			c-1,0.4-2.2,0.6-3.4,0.6c-1.4,0-2.4-0.3-3-0.9s-0.9-1.5-0.9-2.7V463c0-2.4,1.3-3.6,3.8-3.6c2.4,0,3.7,1.2,3.7,3.7v2h-5.8V465.9z
			 M336.6,462.9v0.8h4.2v-0.8c0-0.7-0.2-1.3-0.5-1.6s-0.8-0.5-1.6-0.5s-1.3,0.2-1.6,0.5C336.7,461.6,336.6,462.2,336.6,462.9z"/>
		<path id="XMLID_223_" class="st1" d="M353,458h-1.7v-2.4h1.7V458z M353,469.3h-1.7v-9.7h1.7V469.3z"/>
		<path id="XMLID_226_" class="st1" d="M362.9,466.7c0,1-0.2,1.7-0.7,2.2c-0.5,0.4-1.3,0.7-2.7,0.7c-1.2,0-2.2-0.2-3.1-0.5l0.2-1.3
			c0.9,0.3,1.9,0.4,2.8,0.4c0.7,0,1.2-0.1,1.5-0.3c0.2-0.2,0.3-0.5,0.3-1.1s-0.1-0.9-0.3-1s-0.8-0.4-1.7-0.6c-1.2-0.3-1.9-0.6-2.2-1
			c-0.3-0.4-0.4-1.1-0.4-2.1c0-0.9,0.2-1.6,0.7-2s1.4-0.6,2.6-0.6c1,0,1.9,0.1,2.8,0.3l-0.1,1.4c-1-0.2-1.9-0.3-2.7-0.3
			c-0.7,0-1.1,0.1-1.3,0.3c-0.2,0.2-0.3,0.5-0.3,1c0,0.6,0.1,0.9,0.2,1.1c0.2,0.2,0.6,0.4,1.4,0.5c0.7,0.2,1.3,0.3,1.7,0.5
			c0.4,0.1,0.7,0.3,0.9,0.6c0.2,0.2,0.4,0.5,0.4,0.8S362.9,466.1,362.9,466.7z"/>
	</g>
</g>
<g id="XMLID_11_">
	<g id="XMLID_22_">
		<path id="XMLID_44_" class="st2" d="M267.3,336.2l-6.2-21.8l-6.2,21.8h-5.7l-5.5-25.7h4.2l4.3,21.3l6.2-21.3h5.4l6.2,21.3
			l4.3-21.3h4.2l-5.5,25.7H267.3z"/>
		<path id="XMLID_41_" class="st2" d="M291.4,336.7c-7.5,0-10.4-4.3-10.4-9.6v-7.4c0-5.4,3-9.6,10.4-9.6s10.4,4.3,10.4,9.6v7.4
			C301.9,332.4,298.9,336.7,291.4,336.7z M291.4,313.8c-4,0-6,1.9-6,5.6v7.7c0,3.7,2,5.6,6,5.6c4,0,6-1.9,6-5.6v-7.7
			C297.4,315.7,295.4,313.8,291.4,313.8z"/>
		<path id="XMLID_39_" class="st2" d="M318.3,314c-2.4,1.2-5.2,3-7.3,4.4v17.7h-4.4v-25.7h3.8l0.3,3.6c1.9-1.5,4.5-3.1,7.1-4.1
			L318.3,314z"/>
		<path id="XMLID_36_" class="st2" d="M323.7,336.2V300l4.4-0.6v36.8H323.7z M343.4,310.5l-9.2,12.7l9.6,13h-5.2l-9.4-13l9.1-12.7
			H343.4z"/>
		<path id="XMLID_34_" class="st1" d="M356,336.7c-2.6,0-5.6-0.5-7.5-1.3l0.5-2.5c2.2,0.7,4.9,1.1,6.8,1.1c4.7,0,5.7-0.9,5.7-4.2
			c0-3.7-0.1-4.1-6-5.4c-6.4-1.5-7-3.1-7-7.8c0-4.3,2.1-6.6,8.4-6.6c2.4,0,5.3,0.3,7.3,0.9l-0.3,2.6c-2.1-0.4-5.1-0.7-7.2-0.7
			c-4.5,0-5.1,1.2-5.1,4c0,3.5,0.2,3.9,5,5.1c7.5,1.9,8,3.1,8,7.9C364.6,334.3,362.9,336.7,356,336.7z"/>
		<path id="XMLID_32_" class="st1" d="M385.2,335.7c-1.5,0.6-3.5,1-5.4,1c-4.1,0-5.8-1.5-5.8-5.5v-18h-5v-2.6h5v-6.1l3.1-0.4v6.5
			h7.9l-0.3,2.6h-7.5v17.7c0,2.3,0.3,3.2,3,3.2c1.4,0,3.1-0.3,4.6-0.7L385.2,335.7z"/>
		<path id="XMLID_30_" class="st1" d="M402.4,336.2l-3.8,10.4h-3l3.8-10.4h-1.7l-8.7-25.7h3.1l7.9,23.5l8-23.5h3.1L402.4,336.2z"/>
		<path id="XMLID_28_" class="st1" d="M415.9,336.2V300l3.1-0.4v36.6H415.9z"/>
		<path id="XMLID_25_" class="st1" d="M434.2,334c2.6,0,5.6-0.5,8.1-1.2l0.5,2.5c-2.4,0.8-5.7,1.4-8.9,1.4c-7.2,0-9.5-3.7-9.5-9.3
			v-8.1c0-5.3,2.4-9.3,9.6-9.3c7.2,0,9.3,4.1,9.3,9.3v5h-15.9v3.2C427.5,332.1,429.1,334,434.2,334z M427.5,321.5h12.9v-2.3
			c0-4.3-1.5-6.6-6.3-6.6c-4.8,0-6.5,2.3-6.5,6.6V321.5z"/>
	</g>
	<circle id="XMLID_129_" class="st3" cx="187.9" cy="284.4" r="7.6"/>
	<circle id="XMLID_128_" class="st4" cx="186.9" cy="302.7" r="4.4"/>
	<circle id="XMLID_127_" class="st5" cx="200.5" cy="295.4" r="5.8"/>
	<circle id="XMLID_126_" class="st6" cx="208.5" cy="282.8" r="4.1"/>
	<circle id="XMLID_125_" class="st7" cx="199.6" cy="276.8" r="2.4"/>
	<circle id="XMLID_124_" class="st8" cx="176.6" cy="295.7" r="3.2"/>
	<path id="XMLID_12_" class="st2" d="M229.4,310.5l-9.1-22.9c-0.5-1.1-2.2-0.8-2.3,0.4c0,0-2.4,9-11.7,17.7
		c-10.7,10.1-28.3,5.5-28.3,5.5c-0.6,0.1-1.1,0.7-1,1.3l4.6,25.4c0.1,0.5,0.4,0.8,0.8,1l23.2,8.2c0.8,0.2,1.5-0.3,1.5-1.1l-3.5-14
		c0-0.6,0.5-1.1,1-1.2l17.1-1.5c0.6-0.1,1.1-0.6,1-1.2l-0.4-14.8c0-0.7,0.5-1.2,1.2-1.2c0,0,1,0,2.3,0h2.2
		C229.2,312.2,229.8,311.3,229.4,310.5z M219,308.8c-1.9,1.1-4.3,0.5-5.4-1.4c-1.1-1.9-0.5-4.3,1.4-5.4s4.3-0.5,5.4,1.4
		S220.9,307.7,219,308.8z"/>
</g>
<g id="XMLID_4_">
	<circle id="XMLID_10_" class="st9" cx="247.4" cy="528.7" r="3.9"/>
	<circle id="XMLID_9_" class="st5" cx="272.3" cy="528.7" r="3.9"/>
	<circle id="XMLID_8_" class="st10" cx="297.1" cy="528.7" r="3.9"/>
	<circle id="XMLID_7_" class="st11" cx="321.9" cy="528.7" r="3.9"/>
	<circle id="XMLID_6_" class="st12" cx="346.8" cy="528.7" r="3.9"/>
	<circle id="XMLID_5_" class="st8" cx="371.6" cy="528.7" r="3.9"/>
</g>
</svg>
