<?xml version="1.0" encoding="utf-8"?>
<!-- Generator: Adobe Illustrator 19.0.0, SVG Export Plug-In . SVG Version: 6.00 Build 0)  -->
<svg version="1.1" id="Layer_1" xmlns="http://www.w3.org/2000/svg" xmlns:xlink="http://www.w3.org/1999/xlink" x="0px" y="0px"
	 viewBox="0 0 2480 750" style="enable-background:new 0 0 2480 750;" xml:space="preserve">
<style type="text/css">
	.st0{fill:#2A2D30;}
	.st1{fill:#518CCA;}
</style>
<g id="XMLID_37_">
</g>
<g id="XMLID_36_">
</g>
<g id="XMLID_35_">
</g>
<g id="XMLID_34_">
</g>
<g id="XMLID_33_">
</g>
<g id="XMLID_12_">
	<path id="XMLID_334_" class="st0" d="M1009.7,102.8h-5.3V61.5h24.6v4.8h-19.2v13.8h17.9v4.8h-17.9V102.8z"/>
	<path id="XMLID_336_" class="st0" d="M1057.9,81.8v21h-4.4l-0.3-2.2c-2.7,1.9-6,2.9-9.8,2.9c-5.3,0-8-2.9-8-8.7
		c0-3.1,0.8-5.2,2.3-6.5c1.5-1.3,3.8-2,7-2h8.1v-4.7c0-1.9-0.5-3.2-1.5-4c-1-0.7-2.7-1.1-5.1-1.1c-2.9,0-5.9,0.3-9.1,1l-0.6-4.2
		c3.3-0.9,6.7-1.3,9.9-1.3c4.2,0,7.1,0.8,8.9,2.4C1057.1,76,1057.9,78.5,1057.9,81.8z M1052.7,96.5v-5.9h-7.7
		c-1.6,0-2.7,0.3-3.4,0.9c-0.7,0.6-1,1.6-1,3.1c0,1.7,0.3,2.8,0.8,3.4c0.5,0.6,1.7,0.9,3.5,0.9C1047.5,99,1050.2,98.2,1052.7,96.5z"
		/>
	<path id="XMLID_339_" class="st0" d="M1109.4,102.8h-5.2V79.8c0-1.9-1-2.8-2.9-2.8c-1.2,0-2.8,0.3-4.7,0.9
		c-1.9,0.6-3.7,1.3-5.4,2.2v22.8h-5.2V79.8c0-1.9-1-2.8-2.9-2.8c-1.1,0-2.7,0.3-4.7,0.9c-2,0.6-3.8,1.3-5.4,2.1v22.8h-5.2V72.6h4.2
		l0.5,2.6c4.5-2.1,8.5-3.2,12.2-3.2c2.9,0,4.9,1.1,5.8,3.2c4.5-2.1,8.6-3.2,12.5-3.2c4.4,0,6.6,2.6,6.6,7.7V102.8z"/>
	<path id="XMLID_341_" class="st0" d="M1142.6,92.1c0,3.4-1,6.1-3,8.2c-2,2.1-5.1,3.1-9.3,3.1c-4.2,0-7.3-1-9.3-3.1
		c-2-2.1-3-4.8-3-8.2v-8.7c0-3.4,1-6.1,3-8.2c2-2.1,5.1-3.1,9.3-3.1c4.2,0,7.3,1,9.3,3.1c2,2.1,3,4.8,3,8.2V92.1z M1137.4,83.2
		c0-4.4-2.4-6.6-7.1-6.6s-7.1,2.2-7.1,6.6v9.1c0,4.4,2.4,6.6,7.1,6.6s7.1-2.2,7.1-6.6V83.2z"/>
	<path id="XMLID_344_" class="st0" d="M1151.3,72.6h5.2v23.1c0,1.9,1,2.8,2.9,2.8c1.1,0,2.7-0.3,4.7-0.9c2-0.6,3.8-1.3,5.4-2.1V72.6
		h5.2v30.2h-4.2l-0.5-2.6c-4.5,2.2-8.5,3.2-12.2,3.2c-4.4,0-6.6-2.6-6.6-7.7V72.6z"/>
	<path id="XMLID_346_" class="st0" d="M1204.1,94.7c0,3.1-0.7,5.4-2.1,6.7c-1.4,1.3-4.2,2-8.3,2c-3.6,0-6.8-0.5-9.6-1.6l0.7-4.1
		c2.9,0.8,5.8,1.2,8.6,1.2c2.3,0,3.8-0.3,4.5-0.8c0.7-0.5,1.1-1.6,1.1-3.3c0-1.7-0.3-2.7-0.9-3.2s-2.4-1.1-5.4-1.9
		c-3.6-0.9-5.9-1.9-6.8-3.1c-0.9-1.1-1.4-3.3-1.4-6.6c0-2.9,0.8-4.9,2.3-6.2c1.5-1.3,4.2-1.9,8.1-1.9c3.1,0,6,0.4,8.6,1.1l-0.4,4.3
		c-3-0.6-5.8-0.9-8.4-0.9c-2.1,0-3.5,0.3-4.1,0.8c-0.6,0.5-1,1.5-1,3c0,1.8,0.2,2.9,0.7,3.5c0.5,0.6,2,1.1,4.4,1.7
		c2.3,0.6,4,1.1,5.1,1.5c1.2,0.4,2.1,1,2.8,1.7c0.7,0.7,1.1,1.5,1.2,2.3C1204,91.8,1204.1,93.1,1204.1,94.7z"/>
	<path id="XMLID_348_" class="st0" d="M1256.3,73.4v17.5c0,3.7-1.2,6.7-3.7,9.1c-2.5,2.3-6.2,3.5-11.3,3.5c-5,0-8.8-1.2-11.3-3.5
		c-2.5-2.3-3.7-5.3-3.7-9.1V73.4c0-3.7,1.2-6.7,3.7-9.1c2.5-2.3,6.2-3.5,11.3-3.5c5,0,8.8,1.2,11.3,3.5
		C1255.1,66.7,1256.3,69.7,1256.3,73.4z M1231.8,73.6v17.2c0,5.3,3.2,7.9,9.6,7.9c6.4,0,9.6-2.6,9.6-7.9V73.6c0-5.3-3.2-7.9-9.6-7.9
		C1235,65.6,1231.8,68.3,1231.8,73.6z"/>
	<path id="XMLID_351_" class="st0" d="M1279.4,72l0.7,4.8c-2.5,1.2-5.4,2.9-8.6,5.2v20.8h-5.2V72.6h4.5l0.3,4.2
		C1273.6,74.9,1276.4,73.3,1279.4,72z"/>
	<path id="XMLID_353_" class="st0" d="M1309.3,72.6v3l-3.6,0.7c1,1.4,1.6,3.5,1.7,6v1.4c0,3.3-1,5.8-3,7.6c-2,1.8-5,2.7-8.8,2.7
		c-1.1,0-2.2-0.1-3.1-0.2c-1.4,1.2-2.2,2.3-2.2,3.2c0,1,0.7,1.6,2,1.7l8.6,0.9c2.7,0.3,4.7,1,5.8,2.1c1.2,1.1,1.7,2.8,1.7,5.1
		c0,3.4-0.9,5.7-2.6,6.9c-1.7,1.2-5.3,1.8-10.6,1.8c-3.8,0-7.5-0.5-11-1.4l0.7-4.1c3.5,0.8,6.9,1.2,10.1,1.2c3.7,0,6-0.3,7-0.8
		c1-0.6,1.5-1.7,1.5-3.4c0-1.2-0.3-2.1-0.9-2.4c-0.6-0.4-1.8-0.7-3.6-0.8c-0.5,0-1.7-0.1-3.4-0.3c-1.7-0.2-3.3-0.3-4.6-0.4
		c-3.9-0.3-5.9-2.2-5.9-5.5c0-2.1,1-3.9,2.9-5.3c-2.8-1.6-4.2-4.4-4.2-8.6v-1.4c0-3.4,0.9-6,2.8-7.8c1.8-1.7,4.8-2.6,9-2.6
		c2,0,3.7,0.2,5.1,0.6H1309.3z M1302.4,82.4c0-2.2-0.5-3.8-1.6-4.7c-1.1-1-2.8-1.4-5.3-1.4c-2.5,0-4.3,0.5-5.3,1.4
		c-1,0.9-1.5,2.5-1.5,4.7v1.3c0,2.3,0.5,3.8,1.5,4.7c1,0.9,2.8,1.3,5.3,1.3c2.4,0,4.2-0.5,5.3-1.5c1.1-1,1.6-2.5,1.6-4.5V82.4z"/>
	<path id="XMLID_356_" class="st0" d="M1338.3,81.8v21h-4.4l-0.3-2.2c-2.7,1.9-6,2.9-9.8,2.9c-5.3,0-8-2.9-8-8.7
		c0-3.1,0.8-5.2,2.3-6.5c1.5-1.3,3.8-2,7-2h8.1v-4.7c0-1.9-0.5-3.2-1.5-4c-1-0.7-2.7-1.1-5.1-1.1c-2.9,0-5.9,0.3-9.1,1l-0.6-4.2
		c3.3-0.9,6.7-1.3,9.9-1.3c4.2,0,7.1,0.8,8.9,2.4S1338.3,78.5,1338.3,81.8z M1333.1,96.5v-5.9h-7.7c-1.6,0-2.7,0.3-3.4,0.9
		c-0.7,0.6-1,1.6-1,3.1c0,1.7,0.3,2.8,0.8,3.4c0.5,0.6,1.7,0.9,3.5,0.9C1328,99,1330.6,98.2,1333.1,96.5z"/>
	<path id="XMLID_359_" class="st0" d="M1371.6,102.8h-5.2V79.8c0-1.9-1-2.8-2.9-2.8c-1.1,0-2.7,0.3-4.7,0.9c-2,0.6-3.8,1.3-5.4,2.1
		v22.8h-5.2V72.6h4.2l0.5,2.6c4.5-2.1,8.5-3.2,12.2-3.2c4.4,0,6.6,2.6,6.6,7.7V102.8z"/>
	<path id="XMLID_361_" class="st0" d="M1387,67.8h-5.2v-7.5h5.2V67.8z M1387,102.8h-5.2V72.6h5.2V102.8z"/>
	<path id="XMLID_364_" class="st0" d="M1396.6,76.9v-4.2h20.8l-0.1,4.2L1402,98.6h15.6v4.2h-21.3v-4.2l15.4-21.8H1396.6z"/>
	<path id="XMLID_366_" class="st0" d="M1430.3,92.3c0,2.5,0.5,4.2,1.5,5.2c1,1,2.9,1.5,5.7,1.5c2.8,0,6-0.5,9.5-1.4l0.7,4.2
		c-3.1,1.2-6.7,1.7-10.7,1.7c-4.3,0-7.3-1-9.2-2.9c-1.9-1.9-2.8-4.6-2.8-8.2v-9.1c0-7.5,3.9-11.3,11.8-11.3
		c7.6,0,11.3,3.8,11.3,11.4v6.3h-18V92.3z M1430.3,82.9v2.5h13v-2.5c0-2.2-0.5-3.9-1.4-5c-0.9-1.1-2.6-1.6-4.9-1.6
		c-2.4,0-4.1,0.5-5.1,1.6C1430.8,79.1,1430.3,80.7,1430.3,82.9z"/>
	<path id="XMLID_369_" class="st0" d="M1470.2,72l0.7,4.8c-2.5,1.2-5.4,2.9-8.6,5.2v20.8h-5.2V72.6h4.5l0.3,4.2
		C1464.4,74.9,1467.2,73.3,1470.2,72z"/>
	<path id="XMLID_371_" class="st0" d="M1495.6,94.7c0,3.1-0.7,5.4-2.1,6.7c-1.4,1.3-4.2,2-8.3,2c-3.6,0-6.8-0.5-9.6-1.6l0.7-4.1
		c2.9,0.8,5.8,1.2,8.6,1.2c2.3,0,3.8-0.3,4.5-0.8c0.7-0.5,1.1-1.6,1.1-3.3c0-1.7-0.3-2.7-0.9-3.2s-2.4-1.1-5.4-1.9
		c-3.6-0.9-5.9-1.9-6.8-3.1c-0.9-1.1-1.4-3.3-1.4-6.6c0-2.9,0.8-4.9,2.3-6.2c1.5-1.3,4.2-1.9,8.1-1.9c3.1,0,6,0.4,8.6,1.1l-0.4,4.3
		c-3-0.6-5.8-0.9-8.4-0.9c-2.1,0-3.5,0.3-4.1,0.8c-0.6,0.5-1,1.5-1,3c0,1.8,0.2,2.9,0.7,3.5c0.5,0.6,2,1.1,4.4,1.7
		c2.3,0.6,4,1.1,5.1,1.5c1.2,0.4,2.1,1,2.8,1.7c0.7,0.7,1.1,1.5,1.2,2.3C1495.5,91.8,1495.6,93.1,1495.6,94.7z"/>
</g>
<g id="XMLID_10_">
	<path id="XMLID_254_" class="st1" d="M174.7,575.7l9.5,28h-3.7l-2.3-6.7h-11.9l-2.3,6.7h-3.7l9.5-28H174.7z M177.3,593.8l-5-15.5
		l-5,15.5H177.3z"/>
	<path id="XMLID_257_" class="st1" d="M205,603.7h-3.5v-15.6c0-1.3-0.7-1.9-2-1.9c-0.8,0-1.8,0.2-3.2,0.6c-1.4,0.4-2.6,0.9-3.7,1.4
		v15.5h-3.5v-20.5h2.9l0.3,1.8c3-1.5,5.8-2.2,8.2-2.2c3,0,4.5,1.7,4.5,5.2V603.7z"/>
	<path id="XMLID_259_" class="st1" d="M211.2,597.9v-8.4c0-4.5,2.2-6.7,6.6-6.7c1.8,0,3.8,0.2,5.8,0.6v-8.6l3.5-0.5v29.3h-3
		l-0.3-1.8c-1.9,1.5-4.1,2.3-6.8,2.3C213.2,604.1,211.2,602,211.2,597.9z M223.7,598.6v-12c-2.1-0.4-4-0.6-5.6-0.6
		c-1.2,0-2,0.3-2.5,0.9c-0.5,0.6-0.8,1.5-0.8,2.7v8.4c0,1.1,0.2,1.9,0.7,2.4c0.4,0.5,1.3,0.8,2.5,0.8
		C219.9,601,221.8,600.2,223.7,598.6z"/>
	<path id="XMLID_262_" class="st1" d="M236.8,596.6c0,1.7,0.3,2.9,1,3.5c0.7,0.7,2,1,3.9,1c1.9,0,4-0.3,6.5-1l0.5,2.8
		c-2.1,0.8-4.5,1.2-7.2,1.2c-2.9,0-5-0.6-6.2-1.9c-1.3-1.3-1.9-3.1-1.9-5.6v-6.1c0-5.1,2.7-7.6,8-7.6c5.1,0,7.7,2.6,7.7,7.7v4.3
		h-12.2V596.6z M236.8,590.2v1.7h8.8v-1.7c0-1.5-0.3-2.6-0.9-3.4c-0.6-0.7-1.7-1.1-3.3-1.1s-2.7,0.4-3.4,1.1
		C237.2,587.6,236.8,588.7,236.8,590.2z"/>
	<path id="XMLID_265_" class="st1" d="M263.9,582.8l0.5,3.2c-1.7,0.8-3.6,2-5.8,3.5v14.1H255v-20.5h3.1l0.2,2.9
		C259.9,584.7,261.8,583.7,263.9,582.8z"/>
	<path id="XMLID_267_" class="st1" d="M281,598.2c0,2.1-0.5,3.6-1.4,4.6c-1,0.9-2.8,1.4-5.6,1.4c-2.4,0-4.6-0.4-6.5-1.1l0.5-2.8
		c2,0.6,3.9,0.8,5.8,0.8c1.6,0,2.6-0.2,3.1-0.5c0.5-0.4,0.7-1.1,0.7-2.2s-0.2-1.8-0.6-2.2c-0.4-0.3-1.6-0.8-3.7-1.3
		c-2.5-0.6-4-1.3-4.6-2.1c-0.6-0.8-0.9-2.3-0.9-4.5c0-1.9,0.5-3.3,1.6-4.2c1-0.9,2.9-1.3,5.5-1.3c2.1,0,4.1,0.2,5.8,0.7l-0.3,2.9
		c-2-0.4-3.9-0.6-5.7-0.6c-1.4,0-2.4,0.2-2.8,0.5c-0.4,0.4-0.7,1-0.7,2c0,1.2,0.2,2,0.5,2.4c0.3,0.4,1.3,0.8,3,1.2
		c1.5,0.4,2.7,0.7,3.5,1c0.8,0.3,1.4,0.7,1.9,1.2s0.7,1,0.8,1.6C281,596.2,281,597.1,281,598.2z"/>
	<path id="XMLID_269_" class="st1" d="M302.8,596.4c0,2.3-0.7,4.2-2,5.6c-1.4,1.4-3.5,2.1-6.3,2.1c-2.8,0-4.9-0.7-6.3-2.1
		c-1.4-1.4-2-3.3-2-5.6v-5.9c0-2.3,0.7-4.2,2-5.6c1.4-1.4,3.5-2.1,6.3-2.1c2.8,0,4.9,0.7,6.3,2.1c1.4,1.4,2,3.3,2,5.6V596.4z
		 M299.2,590.4c0-3-1.6-4.5-4.8-4.5s-4.8,1.5-4.8,4.5v6.2c0,3,1.6,4.5,4.8,4.5s4.8-1.5,4.8-4.5V590.4z"/>
	<path id="XMLID_272_" class="st1" d="M324.7,603.7h-3.5v-15.6c0-1.3-0.7-1.9-2-1.9c-0.8,0-1.8,0.2-3.2,0.6
		c-1.4,0.4-2.6,0.9-3.7,1.4v15.5h-3.5v-20.5h2.9l0.3,1.8c3-1.5,5.8-2.2,8.2-2.2c3,0,4.5,1.7,4.5,5.2V603.7z"/>
	<path id="XMLID_274_" class="st1" d="M344.3,583.7v11.9c0,2,0.4,3.3,1.3,4.1c0.9,0.7,2.5,1.1,4.8,1.1c2.2,0,4.3-0.2,6.6-0.6
		l0.4,3.1c-2.2,0.5-4.6,0.8-7.1,0.8c-3.3,0-5.8-0.7-7.3-2.1c-1.5-1.4-2.3-3.4-2.3-6.2v-12.3c0-2.7,0.8-4.8,2.3-6.2
		c1.5-1.4,4-2.1,7.3-2.1c2.5,0,4.8,0.3,7.1,0.8l-0.4,3.1c-2.2-0.4-4.4-0.6-6.6-0.6c-2.3,0-3.9,0.4-4.8,1.1S344.3,581.8,344.3,583.7z
		"/>
	<path id="XMLID_276_" class="st1" d="M378,596.4c0,2.3-0.7,4.2-2,5.6c-1.4,1.4-3.5,2.1-6.3,2.1c-2.8,0-4.9-0.7-6.3-2.1
		c-1.4-1.4-2-3.3-2-5.6v-5.9c0-2.3,0.7-4.2,2-5.6c1.4-1.4,3.5-2.1,6.3-2.1c2.8,0,4.9,0.7,6.3,2.1c1.4,1.4,2,3.3,2,5.6V596.4z
		 M374.5,590.4c0-3-1.6-4.5-4.8-4.5s-4.8,1.5-4.8,4.5v6.2c0,3,1.6,4.5,4.8,4.5s4.8-1.5,4.8-4.5V590.4z"/>
	<path id="XMLID_279_" class="st1" d="M399.7,596.4c0,2.3-0.7,4.2-2,5.6c-1.4,1.4-3.5,2.1-6.3,2.1c-2.8,0-4.9-0.7-6.3-2.1
		c-1.4-1.4-2-3.3-2-5.6v-5.9c0-2.3,0.7-4.2,2-5.6c1.4-1.4,3.5-2.1,6.3-2.1c2.8,0,4.9,0.7,6.3,2.1c1.4,1.4,2,3.3,2,5.6V596.4z
		 M396.2,590.4c0-3-1.6-4.5-4.8-4.5s-4.8,1.5-4.8,4.5v6.2c0,3,1.6,4.5,4.8,4.5s4.8-1.5,4.8-4.5V590.4z"/>
	<path id="XMLID_282_" class="st1" d="M421.8,589.1v8.4c0,4.5-2.2,6.7-6.6,6.7c-1.8,0-3.8-0.2-5.8-0.6v8.5l-3.5,0.5v-29.2h3l0.3,1.8
		c1.9-1.5,4.1-2.3,6.8-2.3C419.8,582.8,421.8,584.9,421.8,589.1z M409.3,588.4v12c2.1,0.4,4,0.6,5.6,0.6c1.2,0,2-0.3,2.5-0.9
		c0.5-0.6,0.8-1.5,0.8-2.7v-8.4c0-1.1-0.2-1.9-0.7-2.4c-0.4-0.5-1.3-0.8-2.5-0.8C413.1,585.9,411.1,586.7,409.3,588.4z"/>
	<path id="XMLID_285_" class="st1" d="M430.6,596.6c0,1.7,0.3,2.9,1,3.5c0.7,0.7,2,1,3.9,1c1.9,0,4-0.3,6.5-1l0.5,2.8
		c-2.1,0.8-4.5,1.2-7.2,1.2c-2.9,0-5-0.6-6.2-1.9c-1.3-1.3-1.9-3.1-1.9-5.6v-6.1c0-5.1,2.7-7.6,8-7.6c5.1,0,7.7,2.6,7.7,7.7v4.3
		h-12.2V596.6z M430.6,590.2v1.7h8.8v-1.7c0-1.5-0.3-2.6-0.9-3.4c-0.6-0.7-1.7-1.1-3.3-1.1s-2.7,0.4-3.4,1.1
		C431,587.6,430.6,588.7,430.6,590.2z"/>
	<path id="XMLID_288_" class="st1" d="M457.7,582.8l0.5,3.2c-1.7,0.8-3.6,2-5.8,3.5v14.1h-3.5v-20.5h3.1l0.2,2.9
		C453.8,584.7,455.6,583.7,457.7,582.8z"/>
	<path id="XMLID_290_" class="st1" d="M122.1,639.9l-2.9,8.9h-3.8l9.6-28.3h4.4l9.7,28.3h-3.9l-3-8.9H122.1z M131.3,637l-2.8-8.2
		c-0.6-1.8-1.1-3.5-1.5-5.2H127c-0.4,1.7-0.9,3.4-1.4,5.1l-2.8,8.2H131.3z"/>
	<path id="XMLID_293_" class="st1" d="M143.3,634c0-2.1,0-3.8-0.2-5.5h3.3l0.2,3.4h0.1c1-1.9,3.4-3.8,6.7-3.8c2.8,0,7.2,1.7,7.2,8.7
		v12.1H157v-11.7c0-3.3-1.2-6-4.7-6c-2.4,0-4.3,1.7-5,3.8c-0.2,0.5-0.3,1.1-0.3,1.7v12.2h-3.7V634z"/>
	<path id="XMLID_295_" class="st1" d="M184.6,619v24.6c0,1.8,0,3.9,0.2,5.3h-3.3l-0.2-3.5h-0.1c-1.1,2.3-3.6,4-6.9,4
		c-4.9,0-8.7-4.2-8.7-10.3c0-6.8,4.2-10.9,9.1-10.9c3.1,0,5.2,1.5,6.1,3.1h0.1V619H184.6z M180.9,636.7c0-0.5,0-1.1-0.2-1.6
		c-0.5-2.4-2.6-4.3-5.3-4.3c-3.8,0-6.1,3.4-6.1,7.9c0,4.1,2,7.5,6,7.5c2.5,0,4.7-1.6,5.4-4.4c0.1-0.5,0.2-1,0.2-1.6V636.7z"/>
	<path id="XMLID_298_" class="st1" d="M193.2,639.3c0.1,5,3.3,7.1,7,7.1c2.6,0,4.2-0.5,5.6-1l0.6,2.6c-1.3,0.6-3.5,1.3-6.8,1.3
		c-6.3,0-10-4.1-10-10.3c0-6.1,3.6-11,9.5-11c6.6,0,8.4,5.8,8.4,9.6c0,0.8-0.1,1.3-0.1,1.7H193.2z M204.1,636.6c0-2.4-1-6-5.1-6
		c-3.7,0-5.4,3.4-5.7,6H204.1z"/>
	<path id="XMLID_301_" class="st1" d="M212.6,634.8c0-2.4,0-4.5-0.2-6.3h3.2l0.1,4h0.2c0.9-2.7,3.2-4.5,5.6-4.5c0.4,0,0.7,0,1.1,0.1
		v3.5c-0.4-0.1-0.8-0.1-1.3-0.1c-2.6,0-4.5,2-5,4.7c-0.1,0.5-0.2,1.1-0.2,1.7v10.8h-3.7V634.8z"/>
	<path id="XMLID_303_" class="st1" d="M226.3,645c1.1,0.7,3,1.5,4.9,1.5c2.7,0,3.9-1.3,3.9-3c0-1.8-1-2.7-3.8-3.7
		c-3.7-1.3-5.4-3.3-5.4-5.8c0-3.3,2.6-6,7-6c2.1,0,3.9,0.6,5,1.3l-0.9,2.7c-0.8-0.5-2.3-1.2-4.2-1.2c-2.2,0-3.4,1.3-3.4,2.8
		c0,1.7,1.2,2.4,3.9,3.4c3.5,1.3,5.3,3.1,5.3,6.1c0,3.6-2.8,6.1-7.6,6.1c-2.2,0-4.3-0.5-5.7-1.4L226.3,645z"/>
	<path id="XMLID_305_" class="st1" d="M262.3,638.5c0,7.5-5.2,10.8-10.1,10.8c-5.5,0-9.7-4-9.7-10.5c0-6.8,4.5-10.8,10.1-10.8
		C258.3,628,262.3,632.2,262.3,638.5z M246.1,638.7c0,4.5,2.6,7.8,6.2,7.8c3.5,0,6.2-3.3,6.2-7.9c0-3.4-1.7-7.8-6.1-7.8
		C248,630.8,246.1,634.8,246.1,638.7z"/>
	<path id="XMLID_308_" class="st1" d="M267.3,634c0-2.1,0-3.8-0.2-5.5h3.3l0.2,3.4h0.1c1-1.9,3.4-3.8,6.7-3.8c2.8,0,7.2,1.7,7.2,8.7
		v12.1h-3.7v-11.7c0-3.3-1.2-6-4.7-6c-2.4,0-4.3,1.7-5,3.8c-0.2,0.5-0.3,1.1-0.3,1.7v12.2h-3.7V634z"/>
	<path id="XMLID_310_" class="st1" d="M320.3,647.9c-1.3,0.7-4,1.3-7.5,1.3c-8,0-14-5-14-14.3c0-8.9,6-14.9,14.8-14.9
		c3.5,0,5.8,0.8,6.7,1.3l-0.9,3c-1.4-0.7-3.4-1.2-5.7-1.2c-6.6,0-11,4.2-11,11.7c0,6.9,4,11.4,10.9,11.4c2.2,0,4.5-0.5,6-1.2
		L320.3,647.9z"/>
	<path id="XMLID_312_" class="st1" d="M343.1,638.5c0,7.5-5.2,10.8-10.1,10.8c-5.5,0-9.7-4-9.7-10.5c0-6.8,4.5-10.8,10.1-10.8
		C339.2,628,343.1,632.2,343.1,638.5z M327,638.7c0,4.5,2.6,7.8,6.2,7.8c3.5,0,6.2-3.3,6.2-7.9c0-3.4-1.7-7.8-6.1-7.8
		C328.9,630.8,327,634.8,327,638.7z"/>
	<path id="XMLID_315_" class="st1" d="M366.6,638.5c0,7.5-5.2,10.8-10.1,10.8c-5.5,0-9.7-4-9.7-10.5c0-6.8,4.5-10.8,10.1-10.8
		C362.6,628,366.6,632.2,366.6,638.5z M350.4,638.7c0,4.5,2.6,7.8,6.2,7.8c3.5,0,6.2-3.3,6.2-7.9c0-3.4-1.7-7.8-6.1-7.8
		C352.3,630.8,350.4,634.8,350.4,638.7z"/>
	<path id="XMLID_318_" class="st1" d="M371.7,635.1c0-2.6-0.1-4.7-0.2-6.6h3.3l0.2,3.5h0.1c1.5-2.5,3.9-3.9,7.2-3.9
		c4.9,0,8.6,4.2,8.6,10.3c0,7.3-4.5,10.9-9.2,10.9c-2.7,0-5-1.2-6.3-3.2h-0.1v11h-3.7V635.1z M375.3,640.5c0,0.5,0.1,1,0.2,1.5
		c0.7,2.6,2.9,4.3,5.5,4.3c3.9,0,6.2-3.2,6.2-7.9c0-4.1-2.1-7.6-6-7.6c-2.5,0-4.9,1.8-5.6,4.6c-0.1,0.5-0.3,1-0.3,1.5V640.5z"/>
	<path id="XMLID_321_" class="st1" d="M398,639.3c0.1,5,3.3,7.1,7,7.1c2.6,0,4.2-0.5,5.6-1l0.6,2.6c-1.3,0.6-3.5,1.3-6.8,1.3
		c-6.3,0-10-4.1-10-10.3c0-6.1,3.6-11,9.5-11c6.6,0,8.4,5.8,8.4,9.6c0,0.8-0.1,1.3-0.1,1.7H398z M408.9,636.6c0-2.4-1-6-5.1-6
		c-3.7,0-5.4,3.4-5.7,6H408.9z"/>
	<path id="XMLID_324_" class="st1" d="M417.4,634.8c0-2.4,0-4.5-0.2-6.3h3.2l0.1,4h0.2c0.9-2.7,3.2-4.5,5.6-4.5c0.4,0,0.7,0,1.1,0.1
		v3.5c-0.4-0.1-0.8-0.1-1.3-0.1c-2.6,0-4.5,2-5,4.7c-0.1,0.5-0.2,1.1-0.2,1.7v10.8h-3.7V634.8z"/>
	<path id="XMLID_326_" class="st1" d="M440.6,644.5c1.1,0.7,3.5,1.7,6,1.7c4.7,0,6.2-3,6.2-5.3c0-3.8-3.5-5.5-7.1-5.5h-2.1v-2.8h2.1
		c2.7,0,6.1-1.4,6.1-4.6c0-2.2-1.4-4.1-4.8-4.1c-2.2,0-4.3,1-5.5,1.8l-1-2.7c1.4-1,4.2-2.1,7.1-2.1c5.4,0,7.8,3.2,7.8,6.5
		c0,2.8-1.7,5.2-5,6.4v0.1c3.4,0.7,6.1,3.2,6.1,7c0,4.4-3.4,8.2-10,8.2c-3.1,0-5.8-1-7.1-1.8L440.6,644.5z"/>
	<path id="XMLID_328_" class="st1" d="M477.3,624.1c-0.8,0-1.7,0-2.8,0.2c-5.8,1-8.9,5.2-9.5,9.7h0.1c1.3-1.7,3.6-3.2,6.6-3.2
		c4.8,0,8.2,3.5,8.2,8.8c0,5-3.4,9.6-9.1,9.6c-5.8,0-9.7-4.5-9.7-11.6c0-5.4,1.9-9.6,4.6-12.3c2.3-2.2,5.3-3.6,8.7-4
		c1.1-0.2,2-0.2,2.7-0.2V624.1z M476.2,639.8c0-3.9-2.2-6.3-5.6-6.3c-2.2,0-4.3,1.4-5.3,3.4c-0.3,0.4-0.4,1-0.4,1.6
		c0.1,4.5,2.1,7.8,6,7.8C474.1,646.4,476.2,643.7,476.2,639.8z"/>
	<path id="XMLID_331_" class="st1" d="M501.8,634.8c0,9.3-3.4,14.4-9.5,14.4c-5.3,0-8.9-5-9-14c0-9.2,3.9-14.2,9.5-14.2
		C498.5,621,501.8,626.1,501.8,634.8z M487,635.3c0,7.1,2.2,11.1,5.5,11.1c3.8,0,5.6-4.4,5.6-11.4c0-6.7-1.7-11.1-5.5-11.1
		C489.3,623.9,487,627.8,487,635.3z"/>
</g>
<g id="XMLID_8_">
	<path id="XMLID_192_" class="st1" d="M652,600.1l-7.1-19.1l-0.5,22.7h-3.5l1-28h4.6l8.1,21.6l8.1-21.6h4.6l1,28h-3.5L664,581
		l-7.1,19.1H652z"/>
	<path id="XMLID_194_" class="st1" d="M689.3,589.5v14.2h-3l-0.2-1.5c-1.8,1.3-4.1,1.9-6.6,1.9c-3.6,0-5.4-2-5.4-5.9
		c0-2.1,0.5-3.5,1.5-4.4c1-0.9,2.6-1.3,4.7-1.3h5.5v-3.2c0-1.3-0.3-2.2-1-2.7c-0.7-0.5-1.8-0.8-3.5-0.8c-2,0-4,0.2-6.1,0.7l-0.4-2.8
		c2.3-0.6,4.5-0.9,6.7-0.9c2.8,0,4.8,0.5,6,1.6C688.7,585.5,689.3,587.2,689.3,589.5z M685.7,599.4v-4h-5.2c-1.1,0-1.9,0.2-2.3,0.6
		c-0.4,0.4-0.7,1.1-0.7,2.1c0,1.1,0.2,1.9,0.5,2.3c0.4,0.4,1.1,0.6,2.4,0.6C682.2,601.1,684,600.5,685.7,599.4z"/>
	<path id="XMLID_197_" class="st1" d="M704.8,582.8l0.5,3.2c-1.7,0.8-3.6,2-5.8,3.5v14.1h-3.5v-20.5h3.1l0.2,2.9
		C700.9,584.7,702.8,583.7,704.8,582.8z"/>
	<path id="XMLID_199_" class="st1" d="M719.8,600.6l0.5,2.7c-1.4,0.5-2.8,0.8-4.3,0.8c-1.8,0-3.1-0.4-3.9-1.1
		c-0.8-0.7-1.2-1.9-1.2-3.6v-13.3h-3.6v-2.9h3.6v-5l3.5-0.5v5.5h5.8l-0.3,2.9h-5.5v12.7c0,0.8,0.1,1.4,0.4,1.8s0.8,0.5,1.7,0.5
		C717.4,601.1,718.5,601,719.8,600.6z"/>
	<path id="XMLID_201_" class="st1" d="M741.4,603.7h-3.5v-15.6c0-1.3-0.7-1.9-2-1.9c-0.8,0-1.8,0.2-3.2,0.6
		c-1.4,0.4-2.6,0.9-3.7,1.5v15.4h-3.5v-28.8l3.5-0.5V585c3-1.4,5.6-2.1,7.9-2.1c3,0,4.5,1.7,4.5,5.2V603.7z"/>
	<path id="XMLID_203_" class="st1" d="M762.8,589.5v14.2h-3l-0.2-1.5c-1.8,1.3-4.1,1.9-6.6,1.9c-3.6,0-5.4-2-5.4-5.9
		c0-2.1,0.5-3.5,1.5-4.4c1-0.9,2.6-1.3,4.7-1.3h5.5v-3.2c0-1.3-0.3-2.2-1-2.7c-0.7-0.5-1.8-0.8-3.5-0.8c-2,0-4,0.2-6.1,0.7l-0.4-2.8
		c2.3-0.6,4.5-0.9,6.7-0.9c2.8,0,4.8,0.5,6,1.6C762.2,585.5,762.8,587.2,762.8,589.5z M759.3,599.4v-4h-5.2c-1.1,0-1.9,0.2-2.3,0.6
		c-0.4,0.4-0.7,1.1-0.7,2.1c0,1.1,0.2,1.9,0.5,2.3c0.4,0.4,1.1,0.6,2.4,0.6C755.8,601.1,757.5,600.5,759.3,599.4z"/>
	<path id="XMLID_206_" class="st1" d="M795.5,596.5c0,1.3-0.1,2.4-0.4,3.3c-0.2,0.9-0.7,1.7-1.3,2.4c-0.6,0.7-1.6,1.2-2.8,1.5
		c-1.2,0.3-2.8,0.5-4.6,0.5c-3.1,0-5.9-0.5-8.3-1.5l0.6-2.9c2.6,0.8,5.2,1.2,7.8,1.2c2.2,0,3.6-0.3,4.3-0.9c0.7-0.6,1.1-1.8,1.1-3.4
		c0-1.1,0-1.9-0.1-2.3c0-0.4-0.3-0.9-0.7-1.3s-1-0.8-1.7-1c-0.7-0.2-1.8-0.5-3.4-0.8c-1.8-0.4-3.1-0.8-4.1-1.1
		c-0.9-0.4-1.7-0.9-2.2-1.6c-0.6-0.7-0.9-1.4-1.1-2.3c-0.1-0.8-0.2-2-0.2-3.6c0-2.5,0.7-4.4,2-5.5c1.3-1.1,3.6-1.7,7-1.7
		c2.7,0,5.2,0.3,7.6,0.9l-0.3,3.1c-2.4-0.5-4.7-0.8-7.2-0.8c-2.2,0-3.7,0.3-4.4,0.8c-0.7,0.6-1,1.7-1,3.3c0,0.8,0,1.3,0,1.7
		s0.1,0.7,0.2,1.1c0.1,0.4,0.3,0.7,0.5,0.9c0.2,0.1,0.5,0.3,1,0.6c0.5,0.3,1,0.4,1.5,0.6c0.5,0.1,1.3,0.3,2.4,0.6
		c1.9,0.5,3.4,0.9,4.4,1.3c1,0.4,1.7,0.9,2.3,1.6c0.6,0.7,0.9,1.4,1,2.1C795.4,593.8,795.5,594.9,795.5,596.5z"/>
	<path id="XMLID_208_" class="st1" d="M812.1,600.6l0.5,2.7c-1.4,0.5-2.8,0.8-4.3,0.8c-1.8,0-3.1-0.4-3.9-1.1
		c-0.8-0.7-1.2-1.9-1.2-3.6v-13.3h-3.6v-2.9h3.6v-5l3.5-0.5v5.5h5.8l-0.3,2.9h-5.5v12.7c0,0.8,0.1,1.4,0.4,1.8s0.8,0.5,1.7,0.5
		C809.7,601.1,810.8,601,812.1,600.6z"/>
	<path id="XMLID_210_" class="st1" d="M820.3,596.6c0,1.7,0.3,2.9,1,3.5c0.7,0.7,2,1,3.9,1c1.9,0,4-0.3,6.5-1l0.5,2.8
		c-2.1,0.8-4.5,1.2-7.2,1.2c-2.9,0-5-0.6-6.2-1.9c-1.3-1.3-1.9-3.1-1.9-5.6v-6.1c0-5.1,2.7-7.6,8-7.6c5.1,0,7.7,2.6,7.7,7.7v4.3
		h-12.2V596.6z M820.3,590.2v1.7h8.8v-1.7c0-1.5-0.3-2.6-0.9-3.4c-0.6-0.7-1.7-1.1-3.3-1.1s-2.7,0.4-3.4,1.1
		C820.7,587.6,820.3,588.7,820.3,590.2z"/>
	<path id="XMLID_213_" class="st1" d="M859.2,603.7h-4.5l-5-17.3l-5,17.3h-4.5l-4.4-20.5h3.4l3.4,17l5-17h4.3l5,17l3.4-17h3.4
		L859.2,603.7z"/>
	<path id="XMLID_215_" class="st1" d="M882.4,589.5v14.2h-3l-0.2-1.5c-1.8,1.3-4.1,1.9-6.6,1.9c-3.6,0-5.4-2-5.4-5.9
		c0-2.1,0.5-3.5,1.5-4.4c1-0.9,2.6-1.3,4.7-1.3h5.5v-3.2c0-1.3-0.3-2.2-1-2.7c-0.7-0.5-1.8-0.8-3.5-0.8c-2,0-4,0.2-6.1,0.7l-0.4-2.8
		c2.3-0.6,4.5-0.9,6.7-0.9c2.8,0,4.8,0.5,6,1.6C881.8,585.5,882.4,587.2,882.4,589.5z M878.9,599.4v-4h-5.2c-1.1,0-1.9,0.2-2.3,0.6
		c-0.4,0.4-0.7,1.1-0.7,2.1c0,1.1,0.2,1.9,0.5,2.3c0.4,0.4,1.1,0.6,2.4,0.6C875.4,601.1,877.1,600.5,878.9,599.4z"/>
	<path id="XMLID_218_" class="st1" d="M897.9,582.8l0.5,3.2c-1.7,0.8-3.6,2-5.8,3.5v14.1H889v-20.5h3.1l0.2,2.9
		C894,584.7,895.9,583.7,897.9,582.8z"/>
	<path id="XMLID_220_" class="st1" d="M912.9,600.6l0.5,2.7c-1.4,0.5-2.8,0.8-4.3,0.8c-1.8,0-3.1-0.4-3.9-1.1
		c-0.8-0.7-1.2-1.9-1.2-3.6v-13.3h-3.6v-2.9h3.6v-5l3.5-0.5v5.5h5.8l-0.3,2.9h-5.5v12.7c0,0.8,0.1,1.4,0.4,1.8s0.8,0.5,1.7,0.5
		C910.5,601.1,911.6,601,912.9,600.6z"/>
	<path id="XMLID_222_" class="st1" d="M635.9,620.9c1.6-0.3,4.1-0.6,6.7-0.6c3.7,0,6,0.6,7.8,2.1c1.5,1.1,2.4,2.8,2.4,5
		c0,2.7-1.8,5.1-4.8,6.2v0.1c2.7,0.7,5.8,2.9,5.8,7.1c0,2.4-1,4.3-2.4,5.7c-2,1.8-5.2,2.6-9.8,2.6c-2.5,0-4.5-0.2-5.7-0.3V620.9z
		 M639.5,632.4h3.3c3.9,0,6.1-2,6.1-4.7c0-3.3-2.5-4.6-6.2-4.6c-1.7,0-2.6,0.1-3.2,0.3V632.4z M639.5,646c0.7,0.1,1.8,0.2,3.1,0.2
		c3.8,0,7.3-1.4,7.3-5.5c0-3.9-3.3-5.5-7.3-5.5h-3V646z"/>
	<path id="XMLID_226_" class="st1" d="M676,643.2c0,2.1,0,3.9,0.2,5.5h-3.3l-0.2-3.3h-0.1c-1,1.6-3.1,3.8-6.7,3.8
		c-3.2,0-7-1.8-7-8.9v-11.9h3.7v11.3c0,3.9,1.2,6.5,4.5,6.5c2.5,0,4.2-1.7,4.9-3.4c0.2-0.5,0.3-1.2,0.3-1.9v-12.5h3.7V643.2z"/>
	<path id="XMLID_228_" class="st1" d="M682,645c1.1,0.7,3,1.5,4.9,1.5c2.7,0,3.9-1.3,3.9-3c0-1.8-1-2.7-3.8-3.7
		c-3.7-1.3-5.4-3.3-5.4-5.8c0-3.3,2.6-6,7-6c2.1,0,3.9,0.6,5,1.3l-0.9,2.7c-0.8-0.5-2.3-1.2-4.2-1.2c-2.2,0-3.4,1.3-3.4,2.8
		c0,1.7,1.2,2.4,3.9,3.4c3.5,1.3,5.3,3.1,5.3,6.1c0,3.6-2.8,6.1-7.6,6.1c-2.2,0-4.3-0.5-5.7-1.4L682,645z"/>
	<path id="XMLID_230_" class="st1" d="M703.7,622.7c0,1.3-0.9,2.3-2.4,2.3c-1.3,0-2.2-1-2.2-2.3c0-1.3,1-2.3,2.3-2.3
		C702.8,620.4,703.7,621.4,703.7,622.7z M699.6,648.8v-20.3h3.7v20.3H699.6z"/>
	<path id="XMLID_233_" class="st1" d="M709.8,634c0-2.1,0-3.8-0.2-5.5h3.3l0.2,3.4h0.1c1-1.9,3.4-3.8,6.7-3.8c2.8,0,7.2,1.7,7.2,8.7
		v12.1h-3.7v-11.7c0-3.3-1.2-6-4.7-6c-2.4,0-4.3,1.7-5,3.8c-0.2,0.5-0.3,1.1-0.3,1.7v12.2h-3.7V634z"/>
	<path id="XMLID_235_" class="st1" d="M735.6,639.3c0.1,5,3.3,7.1,7,7.1c2.6,0,4.2-0.5,5.6-1l0.6,2.6c-1.3,0.6-3.5,1.3-6.8,1.3
		c-6.3,0-10-4.1-10-10.3c0-6.1,3.6-11,9.5-11c6.6,0,8.4,5.8,8.4,9.6c0,0.8-0.1,1.3-0.1,1.7H735.6z M746.4,636.6c0-2.4-1-6-5.1-6
		c-3.7,0-5.4,3.4-5.7,6H746.4z"/>
	<path id="XMLID_238_" class="st1" d="M754.5,645c1.1,0.7,3,1.5,4.9,1.5c2.7,0,3.9-1.3,3.9-3c0-1.8-1-2.7-3.8-3.7
		c-3.7-1.3-5.4-3.3-5.4-5.8c0-3.3,2.6-6,7-6c2.1,0,3.9,0.6,5,1.3l-0.9,2.7c-0.8-0.5-2.3-1.2-4.2-1.2c-2.2,0-3.4,1.3-3.4,2.8
		c0,1.7,1.2,2.4,3.9,3.4c3.5,1.3,5.3,3.1,5.3,6.1c0,3.6-2.8,6.1-7.6,6.1c-2.2,0-4.3-0.5-5.7-1.4L754.5,645z"/>
	<path id="XMLID_240_" class="st1" d="M771.5,645c1.1,0.7,3,1.5,4.9,1.5c2.7,0,3.9-1.3,3.9-3c0-1.8-1-2.7-3.8-3.7
		c-3.7-1.3-5.4-3.3-5.4-5.8c0-3.3,2.6-6,7-6c2.1,0,3.9,0.6,5,1.3l-0.9,2.7c-0.8-0.5-2.3-1.2-4.2-1.2c-2.2,0-3.4,1.3-3.4,2.8
		c0,1.7,1.2,2.4,3.9,3.4c3.5,1.3,5.3,3.1,5.3,6.1c0,3.6-2.8,6.1-7.6,6.1c-2.2,0-4.3-0.5-5.7-1.4L771.5,645z"/>
	<path id="XMLID_242_" class="st1" d="M790.6,628.5l2.7,10.3c0.6,2.3,1.1,4.4,1.5,6.5h0.1c0.5-2.1,1.1-4.2,1.8-6.4l3.3-10.4h3.1
		l3.2,10.2c0.8,2.4,1.3,4.6,1.8,6.6h0.1c0.3-2.1,0.9-4.2,1.6-6.6l2.9-10.2h3.7l-6.6,20.3h-3.4l-3.1-9.7c-0.7-2.3-1.3-4.3-1.8-6.7
		h-0.1c-0.5,2.4-1.1,4.5-1.8,6.7l-3.3,9.7h-3.4l-6.1-20.3H790.6z"/>
	<path id="XMLID_244_" class="st1" d="M838.4,638.5c0,7.5-5.2,10.8-10.1,10.8c-5.5,0-9.7-4-9.7-10.5c0-6.8,4.5-10.8,10.1-10.8
		C834.5,628,838.4,632.2,838.4,638.5z M822.3,638.7c0,4.5,2.6,7.8,6.2,7.8c3.5,0,6.2-3.3,6.2-7.9c0-3.4-1.7-7.8-6.1-7.8
		C824.2,630.8,822.3,634.8,822.3,638.7z"/>
	<path id="XMLID_247_" class="st1" d="M843.5,634c0-2.1,0-3.8-0.2-5.5h3.2l0.2,3.3h0.1c1.1-1.9,3-3.7,6.4-3.7c2.8,0,4.9,1.7,5.8,4.1
		h0.1c0.6-1.1,1.4-2,2.3-2.6c1.2-0.9,2.6-1.4,4.5-1.4c2.7,0,6.7,1.8,6.7,8.8v12h-3.6v-11.5c0-3.9-1.4-6.3-4.4-6.3
		c-2.1,0-3.7,1.6-4.4,3.4c-0.2,0.5-0.3,1.2-0.3,1.8v12.6h-3.6v-12.2c0-3.2-1.4-5.6-4.2-5.6c-2.3,0-4,1.8-4.6,3.7
		c-0.2,0.5-0.3,1.2-0.3,1.8v12.3h-3.6V634z"/>
	<path id="XMLID_249_" class="st1" d="M890.2,648.8l-0.3-2.6h-0.1c-1.1,1.6-3.3,3-6.2,3c-4.1,0-6.2-2.9-6.2-5.8
		c0-4.9,4.4-7.6,12.2-7.6v-0.4c0-1.7-0.5-4.7-4.6-4.7c-1.9,0-3.9,0.6-5.3,1.5l-0.8-2.4c1.7-1.1,4.1-1.8,6.7-1.8
		c6.2,0,7.7,4.2,7.7,8.3v7.6c0,1.8,0.1,3.5,0.3,4.9H890.2z M889.7,638.4c-4-0.1-8.6,0.6-8.6,4.6c0,2.4,1.6,3.5,3.5,3.5
		c2.6,0,4.3-1.7,4.9-3.4c0.1-0.4,0.2-0.8,0.2-1.2V638.4z"/>
	<path id="XMLID_252_" class="st1" d="M899.6,634c0-2.1,0-3.8-0.2-5.5h3.3l0.2,3.4h0.1c1-1.9,3.4-3.8,6.7-3.8c2.8,0,7.2,1.7,7.2,8.7
		v12.1h-3.7v-11.7c0-3.3-1.2-6-4.7-6c-2.4,0-4.3,1.7-5,3.8c-0.2,0.5-0.3,1.1-0.3,1.7v12.2h-3.7V634z"/>
</g>
<g id="XMLID_6_">
	<path id="XMLID_134_" class="st1" d="M1127.5,603.7h-11.4v-28h10.8c4.4,0,6.6,1.9,6.6,5.7v3.2c0,2.3-1.1,3.9-3.2,4.7
		c1.3,0.2,2.3,0.8,3,1.6c0.7,0.9,1.1,2,1.1,3.4v3.4c0,1.9-0.6,3.4-1.9,4.5C1131.3,603.2,1129.6,603.7,1127.5,603.7z M1129.9,584.6
		v-3.1c0-1.8-1.1-2.6-3.2-2.6h-7v9.1h6.4C1128.6,587.9,1129.9,586.8,1129.9,584.6z M1130.8,597.4v-2.9c0-2.3-1.3-3.4-4-3.4h-7.1v9.6
		h7.3C1129.5,600.6,1130.8,599.5,1130.8,597.4z"/>
	<path id="XMLID_138_" class="st1" d="M1154.8,589.5v14.2h-3l-0.2-1.5c-1.8,1.3-4.1,1.9-6.6,1.9c-3.6,0-5.4-2-5.4-5.9
		c0-2.1,0.5-3.5,1.5-4.4c1-0.9,2.6-1.3,4.7-1.3h5.5v-3.2c0-1.3-0.3-2.2-1-2.7c-0.7-0.5-1.8-0.8-3.5-0.8c-2,0-4,0.2-6.1,0.7l-0.4-2.8
		c2.3-0.6,4.5-0.9,6.7-0.9c2.8,0,4.8,0.5,6,1.6C1154.2,585.5,1154.8,587.2,1154.8,589.5z M1151.3,599.4v-4h-5.2
		c-1.1,0-1.9,0.2-2.3,0.6c-0.4,0.4-0.7,1.1-0.7,2.1c0,1.1,0.2,1.9,0.5,2.3c0.4,0.4,1.1,0.6,2.4,0.6
		C1147.8,601.1,1149.5,600.5,1151.3,599.4z"/>
	<path id="XMLID_141_" class="st1" d="M1170.3,582.8l0.5,3.2c-1.7,0.8-3.6,2-5.8,3.5v14.1h-3.5v-20.5h3.1l0.2,2.9
		C1166.4,584.7,1168.3,583.7,1170.3,582.8z"/>
	<path id="XMLID_143_" class="st1" d="M1189.1,589.5v14.2h-3l-0.2-1.5c-1.8,1.3-4.1,1.9-6.6,1.9c-3.6,0-5.4-2-5.4-5.9
		c0-2.1,0.5-3.5,1.5-4.4c1-0.9,2.6-1.3,4.7-1.3h5.5v-3.2c0-1.3-0.3-2.2-1-2.7c-0.7-0.5-1.8-0.8-3.5-0.8c-2,0-4,0.2-6.1,0.7l-0.4-2.8
		c2.3-0.6,4.5-0.9,6.7-0.9c2.8,0,4.8,0.5,6,1.6C1188.6,585.5,1189.1,587.2,1189.1,589.5z M1185.6,599.4v-4h-5.2
		c-1.1,0-1.9,0.2-2.3,0.6c-0.4,0.4-0.7,1.1-0.7,2.1c0,1.1,0.2,1.9,0.5,2.3c0.4,0.4,1.1,0.6,2.4,0.6
		C1182.1,601.1,1183.9,600.5,1185.6,599.4z"/>
	<path id="XMLID_146_" class="st1" d="M1202.7,604.1c-3.1,0-5.2-0.6-6.4-1.8c-1.2-1.2-1.7-3.1-1.7-5.6v-6.4c0-2.5,0.6-4.4,1.8-5.6
		c1.2-1.2,3.3-1.8,6.4-1.8c1.9,0,3.6,0.2,4.9,0.6l-0.3,2.9c-1.5-0.3-3-0.5-4.5-0.5c-1.8,0-3,0.3-3.7,0.9c-0.7,0.6-1,1.7-1,3.3v6.7
		c0,1.6,0.3,2.7,1,3.3c0.7,0.6,1.9,0.9,3.7,0.9c1.5,0,3-0.2,4.5-0.5l0.3,2.9C1206.3,603.9,1204.6,604.1,1202.7,604.1z"/>
	<path id="XMLID_148_" class="st1" d="M1216.9,603.7h-3.5v-28.8l3.5-0.5V603.7z M1225,583.2h4.1l-7.3,10.1l7.6,10.3h-4.2l-7.5-10.3
		L1225,583.2z"/>
	<path id="XMLID_151_" class="st1" d="M1263.4,583.8v11.8c0,2.5-0.8,4.6-2.5,6.1c-1.7,1.6-4.2,2.4-7.6,2.4s-6-0.8-7.6-2.4
		c-1.7-1.6-2.5-3.6-2.5-6.1v-11.8c0-2.5,0.8-4.6,2.5-6.1c1.7-1.6,4.2-2.4,7.6-2.4s6,0.8,7.6,2.4S1263.4,581.3,1263.4,583.8z
		 M1246.8,583.9v11.7c0,3.6,2.2,5.4,6.5,5.4s6.5-1.8,6.5-5.4v-11.7c0-3.6-2.2-5.4-6.5-5.4S1246.8,580.3,1246.8,583.9z"/>
	<path id="XMLID_154_" class="st1" d="M1286.1,589.2v7.3c0,2.5-0.6,4.5-1.9,5.7c-1.2,1.3-3.5,1.9-6.8,1.9c-2.6,0-5-0.3-7.3-0.8
		v-28.4l3.5-0.5v9.9c1.8-1,3.9-1.4,6.5-1.4C1284.1,582.8,1286.1,584.9,1286.1,589.2z M1273.6,587.5v13.2c1.3,0.2,2.6,0.3,4,0.3
		c1.9,0,3.2-0.4,3.9-1.1c0.7-0.7,1-1.8,1-3.3v-7.5c0-1.1-0.3-1.9-0.8-2.4c-0.5-0.5-1.4-0.8-2.5-0.8
		C1277.6,585.9,1275.8,586.4,1273.6,587.5z"/>
	<path id="XMLID_157_" class="st1" d="M1306.8,589.5v14.2h-3l-0.2-1.5c-1.8,1.3-4.1,1.9-6.6,1.9c-3.6,0-5.4-2-5.4-5.9
		c0-2.1,0.5-3.5,1.5-4.4c1-0.9,2.6-1.3,4.7-1.3h5.5v-3.2c0-1.3-0.3-2.2-1-2.7c-0.7-0.5-1.8-0.8-3.5-0.8c-2,0-4,0.2-6.1,0.7l-0.4-2.8
		c2.3-0.6,4.5-0.9,6.7-0.9c2.8,0,4.8,0.5,6,1.6S1306.8,587.2,1306.8,589.5z M1303.3,599.4v-4h-5.2c-1.1,0-1.9,0.2-2.3,0.6
		s-0.7,1.1-0.7,2.1c0,1.1,0.2,1.9,0.5,2.3s1.1,0.6,2.4,0.6C1299.8,601.1,1301.6,600.5,1303.3,599.4z"/>
	<path id="XMLID_160_" class="st1" d="M1341.7,603.7h-3.5v-15.6c0-1.3-0.7-1.9-2-1.9c-0.8,0-1.9,0.2-3.2,0.6
		c-1.3,0.4-2.5,0.9-3.6,1.5v15.5h-3.5v-15.6c0-1.3-0.7-1.9-2-1.9c-0.8,0-1.8,0.2-3.2,0.6c-1.4,0.4-2.6,0.9-3.7,1.4v15.5h-3.5v-20.5
		h2.9l0.3,1.8c3-1.5,5.8-2.2,8.2-2.2c2,0,3.3,0.7,3.9,2.2c3-1.5,5.8-2.2,8.4-2.2c3,0,4.5,1.7,4.5,5.2V603.7z"/>
	<path id="XMLID_162_" class="st1" d="M1363.1,589.5v14.2h-3l-0.2-1.5c-1.8,1.3-4.1,1.9-6.6,1.9c-3.6,0-5.4-2-5.4-5.9
		c0-2.1,0.5-3.5,1.5-4.4c1-0.9,2.6-1.3,4.7-1.3h5.5v-3.2c0-1.3-0.3-2.2-1-2.7c-0.7-0.5-1.8-0.8-3.5-0.8c-2,0-4,0.2-6.1,0.7l-0.4-2.8
		c2.3-0.6,4.5-0.9,6.7-0.9c2.8,0,4.8,0.5,6,1.6S1363.1,587.2,1363.1,589.5z M1359.6,599.4v-4h-5.2c-1.1,0-1.9,0.2-2.3,0.6
		s-0.7,1.1-0.7,2.1c0,1.1,0.2,1.9,0.5,2.3s1.1,0.6,2.4,0.6C1356.1,601.1,1357.8,600.5,1359.6,599.4z"/>
	<path id="XMLID_165_" class="st1" d="M1133.3,620.5v16.8c0,6.3,2.8,9,6.6,9c4.2,0,6.9-2.8,6.9-9v-16.8h3.7V637
		c0,8.7-4.6,12.3-10.7,12.3c-5.8,0-10.2-3.3-10.2-12.1v-16.7H1133.3z"/>
	<path id="XMLID_167_" class="st1" d="M1156.7,644.3c1.6,1,4,1.8,6.6,1.8c3.7,0,5.9-2,5.9-4.8c0-2.6-1.5-4.2-5.3-5.6
		c-4.6-1.6-7.5-4-7.5-8c0-4.4,3.7-7.7,9.2-7.7c2.9,0,5,0.7,6.3,1.4l-1,3c-0.9-0.5-2.8-1.3-5.4-1.3c-3.9,0-5.3,2.3-5.3,4.2
		c0,2.6,1.7,3.9,5.6,5.5c4.8,1.8,7.2,4.2,7.2,8.3c0,4.4-3.2,8.1-9.9,8.1c-2.7,0-5.7-0.8-7.2-1.8L1156.7,644.3z"/>
	<path id="XMLID_169_" class="st1" d="M1187.6,620.8c1.8-0.3,4.1-0.5,7-0.5c3.6,0,6.3,0.8,7.9,2.4c1.6,1.3,2.5,3.4,2.5,5.9
		c0,2.6-0.8,4.6-2.2,6c-1.9,2.1-5.1,3.1-8.7,3.1c-1.1,0-2.1,0-2.9-0.3v11.3h-3.7V620.8z M1191.3,634.5c0.8,0.2,1.8,0.3,3,0.3
		c4.4,0,7.1-2.1,7.1-6c0-3.7-2.6-5.5-6.7-5.5c-1.6,0-2.8,0.1-3.4,0.3V634.5z"/>
	<path id="XMLID_172_" class="st1" d="M1209.6,634.8c0-2.4,0-4.5-0.2-6.3h3.2l0.1,4h0.2c0.9-2.7,3.2-4.5,5.6-4.5
		c0.4,0,0.7,0,1.1,0.1v3.5c-0.4-0.1-0.8-0.1-1.3-0.1c-2.6,0-4.5,2-5,4.7c-0.1,0.5-0.2,1.1-0.2,1.7v10.8h-3.7V634.8z"/>
	<path id="XMLID_174_" class="st1" d="M1225.4,639.3c0.1,5,3.3,7.1,7,7.1c2.6,0,4.2-0.5,5.6-1l0.6,2.6c-1.3,0.6-3.5,1.3-6.8,1.3
		c-6.3,0-10-4.1-10-10.3c0-6.1,3.6-11,9.5-11c6.6,0,8.4,5.8,8.4,9.6c0,0.8-0.1,1.3-0.1,1.7H1225.4z M1236.2,636.6c0-2.4-1-6-5.1-6
		c-3.7,0-5.4,3.4-5.7,6H1236.2z"/>
	<path id="XMLID_177_" class="st1" d="M1244.3,645c1.1,0.7,3,1.5,4.9,1.5c2.7,0,3.9-1.3,3.9-3c0-1.8-1-2.7-3.8-3.7
		c-3.7-1.3-5.4-3.3-5.4-5.8c0-3.3,2.6-6,7-6c2.1,0,3.9,0.6,5,1.3l-0.9,2.7c-0.8-0.5-2.3-1.2-4.2-1.2c-2.2,0-3.4,1.3-3.4,2.8
		c0,1.7,1.2,2.4,3.9,3.4c3.5,1.3,5.3,3.1,5.3,6.1c0,3.6-2.8,6.1-7.6,6.1c-2.2,0-4.3-0.5-5.7-1.4L1244.3,645z"/>
	<path id="XMLID_179_" class="st1" d="M1266,622.7c0,1.3-0.9,2.3-2.4,2.3c-1.3,0-2.2-1-2.2-2.3c0-1.3,1-2.3,2.3-2.3
		C1265.1,620.4,1266,621.4,1266,622.7z M1261.9,648.8v-20.3h3.7v20.3H1261.9z"/>
	<path id="XMLID_182_" class="st1" d="M1289.7,619v24.6c0,1.8,0,3.9,0.2,5.3h-3.3l-0.2-3.5h-0.1c-1.1,2.3-3.6,4-6.9,4
		c-4.9,0-8.7-4.2-8.7-10.3c0-6.8,4.2-10.9,9.1-10.9c3.1,0,5.2,1.5,6.1,3.1h0.1V619H1289.7z M1286,636.7c0-0.5,0-1.1-0.2-1.6
		c-0.5-2.4-2.6-4.3-5.3-4.3c-3.8,0-6.1,3.4-6.1,7.9c0,4.1,2,7.5,6,7.5c2.5,0,4.7-1.6,5.4-4.4c0.1-0.5,0.2-1,0.2-1.6V636.7z"/>
	<path id="XMLID_185_" class="st1" d="M1298.3,639.3c0.1,5,3.3,7.1,7,7.1c2.6,0,4.2-0.5,5.6-1l0.6,2.6c-1.3,0.6-3.5,1.3-6.8,1.3
		c-6.3,0-10-4.1-10-10.3c0-6.1,3.6-11,9.5-11c6.6,0,8.4,5.8,8.4,9.6c0,0.8-0.1,1.3-0.1,1.7H1298.3z M1309.1,636.6c0-2.4-1-6-5.1-6
		c-3.7,0-5.4,3.4-5.7,6H1309.1z"/>
	<path id="XMLID_188_" class="st1" d="M1317.7,634c0-2.1,0-3.8-0.2-5.5h3.3l0.2,3.4h0.1c1-1.9,3.4-3.8,6.7-3.8
		c2.8,0,7.2,1.7,7.2,8.7v12.1h-3.7v-11.7c0-3.3-1.2-6-4.7-6c-2.4,0-4.3,1.7-5,3.8c-0.2,0.5-0.3,1.1-0.3,1.7v12.2h-3.7V634z"/>
	<path id="XMLID_190_" class="st1" d="M1345.7,622.6v5.8h5.3v2.8h-5.3v11c0,2.5,0.7,3.9,2.8,3.9c1,0,1.7-0.1,2.1-0.3l0.2,2.8
		c-0.7,0.3-1.8,0.5-3.3,0.5c-1.7,0-3.1-0.5-4-1.6c-1-1.1-1.4-2.9-1.4-5.3v-11.1h-3.2v-2.8h3.2v-4.9L1345.7,622.6z"/>
</g>
<g id="XMLID_4_">
	<path id="XMLID_59_" class="st1" d="M1574.3,603.7h-11.4v-28h10.8c4.4,0,6.6,1.9,6.6,5.7v3.2c0,2.3-1.1,3.9-3.2,4.7
		c1.3,0.2,2.3,0.8,3,1.6c0.7,0.9,1.1,2,1.1,3.4v3.4c0,1.9-0.6,3.4-1.9,4.5C1578.1,603.2,1576.4,603.7,1574.3,603.7z M1576.7,584.6
		v-3.1c0-1.8-1.1-2.6-3.2-2.6h-7v9.1h6.4C1575.4,587.9,1576.7,586.8,1576.7,584.6z M1577.6,597.4v-2.9c0-2.3-1.3-3.4-4-3.4h-7.1v9.6
		h7.3C1576.4,600.6,1577.6,599.5,1577.6,597.4z"/>
	<path id="XMLID_63_" class="st1" d="M1589.6,596.6c0,1.7,0.3,2.9,1,3.5c0.7,0.7,2,1,3.9,1c1.9,0,4-0.3,6.5-1l0.5,2.8
		c-2.1,0.8-4.5,1.2-7.2,1.2c-2.9,0-5-0.6-6.2-1.9c-1.3-1.3-1.9-3.1-1.9-5.6v-6.1c0-5.1,2.7-7.6,8-7.6c5.1,0,7.7,2.6,7.7,7.7v4.3
		h-12.2V596.6z M1589.6,590.2v1.7h8.8v-1.7c0-1.5-0.3-2.6-0.9-3.4c-0.6-0.7-1.7-1.1-3.3-1.1s-2.7,0.4-3.4,1.1
		C1590,587.6,1589.6,588.7,1589.6,590.2z"/>
	<path id="XMLID_66_" class="st1" d="M1623.6,603.7h-3.5v-15.6c0-1.3-0.7-1.9-2-1.9c-0.8,0-1.8,0.2-3.2,0.6
		c-1.4,0.4-2.6,0.9-3.7,1.4v15.5h-3.5v-20.5h2.9l0.3,1.8c3-1.5,5.8-2.2,8.2-2.2c3,0,4.5,1.7,4.5,5.2V603.7z"/>
	<path id="XMLID_68_" class="st1" d="M1630.6,583.2h3.5V605c0,1.4-0.2,2.5-0.7,3.2c-0.5,0.7-1.8,2-4.1,4l-2.1-2.5
		c1.6-1.5,2.6-2.4,2.9-2.9c0.3-0.5,0.5-1.1,0.5-2V583.2z M1634.1,580h-3.5v-5.1h3.5V580z"/>
	<path id="XMLID_71_" class="st1" d="M1655.5,589.5v14.2h-3l-0.2-1.5c-1.8,1.3-4.1,1.9-6.6,1.9c-3.6,0-5.4-2-5.4-5.9
		c0-2.1,0.5-3.5,1.5-4.4c1-0.9,2.6-1.3,4.7-1.3h5.5v-3.2c0-1.3-0.3-2.2-1-2.7c-0.7-0.5-1.8-0.8-3.5-0.8c-2,0-4,0.2-6.1,0.7l-0.4-2.8
		c2.3-0.6,4.5-0.9,6.7-0.9c2.8,0,4.8,0.5,6,1.6S1655.5,587.2,1655.5,589.5z M1652,599.4v-4h-5.2c-1.1,0-1.9,0.2-2.3,0.6
		s-0.7,1.1-0.7,2.1c0,1.1,0.2,1.9,0.5,2.3s1.1,0.6,2.4,0.6C1648.5,601.1,1650.2,600.5,1652,599.4z"/>
	<path id="XMLID_74_" class="st1" d="M1690.4,603.7h-3.5v-15.6c0-1.3-0.7-1.9-2-1.9c-0.8,0-1.9,0.2-3.2,0.6
		c-1.3,0.4-2.5,0.9-3.6,1.5v15.5h-3.5v-15.6c0-1.3-0.7-1.9-2-1.9c-0.8,0-1.8,0.2-3.2,0.6c-1.4,0.4-2.6,0.9-3.7,1.4v15.5h-3.5v-20.5
		h2.9l0.3,1.8c3-1.5,5.8-2.2,8.2-2.2c2,0,3.3,0.7,3.9,2.2c3-1.5,5.8-2.2,8.4-2.2c3,0,4.5,1.7,4.5,5.2V603.7z"/>
	<path id="XMLID_76_" class="st1" d="M1700.8,580h-3.5v-5.1h3.5V580z M1700.8,603.7h-3.5v-20.5h3.5V603.7z"/>
	<path id="XMLID_79_" class="st1" d="M1723.8,603.7h-3.5v-15.6c0-1.3-0.7-1.9-2-1.9c-0.8,0-1.8,0.2-3.2,0.6
		c-1.4,0.4-2.6,0.9-3.7,1.4v15.5h-3.5v-20.5h2.9l0.3,1.8c3-1.5,5.8-2.2,8.2-2.2c3,0,4.5,1.7,4.5,5.2V603.7z"/>
	<path id="XMLID_81_" class="st1" d="M1744,603.7h-3.6v-28h16.6v3.2h-13v9.3h12.1v3.2H1744V603.7z"/>
	<path id="XMLID_83_" class="st1" d="M1771.4,582.8l0.5,3.2c-1.7,0.8-3.6,2-5.8,3.5v14.1h-3.5v-20.5h3.1l0.2,2.9
		C1767.5,584.7,1769.4,583.7,1771.4,582.8z"/>
	<path id="XMLID_85_" class="st1" d="M1790.2,589.5v14.2h-3l-0.2-1.5c-1.8,1.3-4.1,1.9-6.6,1.9c-3.6,0-5.4-2-5.4-5.9
		c0-2.1,0.5-3.5,1.5-4.4c1-0.9,2.6-1.3,4.7-1.3h5.5v-3.2c0-1.3-0.3-2.2-1-2.7c-0.7-0.5-1.8-0.8-3.5-0.8c-2,0-4,0.2-6.1,0.7l-0.4-2.8
		c2.3-0.6,4.5-0.9,6.7-0.9c2.8,0,4.8,0.5,6,1.6S1790.2,587.2,1790.2,589.5z M1786.7,599.4v-4h-5.2c-1.1,0-1.9,0.2-2.3,0.6
		s-0.7,1.1-0.7,2.1c0,1.1,0.2,1.9,0.5,2.3s1.1,0.6,2.4,0.6C1783.2,601.1,1785,600.5,1786.7,599.4z"/>
	<path id="XMLID_88_" class="st1" d="M1812.7,603.7h-3.5v-15.6c0-1.3-0.7-1.9-2-1.9c-0.8,0-1.8,0.2-3.2,0.6
		c-1.4,0.4-2.6,0.9-3.7,1.4v15.5h-3.5v-20.5h2.9l0.3,1.8c3-1.5,5.8-2.2,8.2-2.2c3,0,4.5,1.7,4.5,5.2V603.7z"/>
	<path id="XMLID_90_" class="st1" d="M1823.2,603.7h-3.5v-28.8l3.5-0.5V603.7z M1831.3,583.2h4.1l-7.3,10.1l7.6,10.3h-4.2l-7.5-10.3
		L1831.3,583.2z"/>
	<path id="XMLID_93_" class="st1" d="M1844,603.7h-3.5v-28.8l3.5-0.5V603.7z"/>
	<path id="XMLID_95_" class="st1" d="M1854.6,580h-3.5v-5.1h3.5V580z M1854.6,603.7h-3.5v-20.5h3.5V603.7z"/>
	<path id="XMLID_98_" class="st1" d="M1877.6,603.7h-3.5v-15.6c0-1.3-0.7-1.9-2-1.9c-0.8,0-1.8,0.2-3.2,0.6
		c-1.4,0.4-2.6,0.9-3.7,1.4v15.5h-3.5v-20.5h2.9l0.3,1.8c3-1.5,5.8-2.2,8.2-2.2c3,0,4.5,1.7,4.5,5.2V603.7z"/>
	<path id="XMLID_100_" class="st1" d="M1576.1,620.5h15.2v3.1h-11.6v9.4h10.7v3h-10.7v12.8h-3.7V620.5z"/>
	<path id="XMLID_102_" class="st1" d="M1613.9,638.5c0,7.5-5.2,10.8-10.1,10.8c-5.5,0-9.7-4-9.7-10.5c0-6.8,4.5-10.8,10.1-10.8
		C1610,628,1613.9,632.2,1613.9,638.5z M1597.8,638.7c0,4.5,2.6,7.8,6.2,7.8c3.5,0,6.2-3.3,6.2-7.9c0-3.4-1.7-7.8-6.1-7.8
		C1599.7,630.8,1597.8,634.8,1597.8,638.7z"/>
	<path id="XMLID_105_" class="st1" d="M1636,643.2c0,2.1,0,3.9,0.2,5.5h-3.3l-0.2-3.3h-0.1c-1,1.6-3.1,3.8-6.7,3.8
		c-3.2,0-7-1.8-7-8.9v-11.9h3.7v11.3c0,3.9,1.2,6.5,4.5,6.5c2.5,0,4.2-1.7,4.9-3.4c0.2-0.5,0.3-1.2,0.3-1.9v-12.5h3.7V643.2z"/>
	<path id="XMLID_107_" class="st1" d="M1642.6,634c0-2.1,0-3.8-0.2-5.5h3.3l0.2,3.4h0.1c1-1.9,3.4-3.8,6.7-3.8
		c2.8,0,7.2,1.7,7.2,8.7v12.1h-3.7v-11.7c0-3.3-1.2-6-4.7-6c-2.4,0-4.3,1.7-5,3.8c-0.2,0.5-0.3,1.1-0.3,1.7v12.2h-3.7V634z"/>
	<path id="XMLID_109_" class="st1" d="M1683.9,619v24.6c0,1.8,0,3.9,0.2,5.3h-3.3l-0.2-3.5h-0.1c-1.1,2.3-3.6,4-6.9,4
		c-4.9,0-8.7-4.2-8.7-10.3c0-6.8,4.2-10.9,9.1-10.9c3.1,0,5.2,1.5,6.1,3.1h0.1V619H1683.9z M1680.2,636.7c0-0.5,0-1.1-0.2-1.6
		c-0.5-2.4-2.6-4.3-5.3-4.3c-3.8,0-6.1,3.4-6.1,7.9c0,4.1,2,7.5,6,7.5c2.5,0,4.7-1.6,5.4-4.4c0.1-0.5,0.2-1,0.2-1.6V636.7z"/>
	<path id="XMLID_112_" class="st1" d="M1694.5,622.7c0,1.3-0.9,2.3-2.4,2.3c-1.3,0-2.2-1-2.2-2.3c0-1.3,1-2.3,2.3-2.3
		C1693.6,620.4,1694.5,621.4,1694.5,622.7z M1690.4,648.8v-20.3h3.7v20.3H1690.4z"/>
	<path id="XMLID_115_" class="st1" d="M1700.7,634c0-2.1,0-3.8-0.2-5.5h3.3l0.2,3.4h0.1c1-1.9,3.4-3.8,6.7-3.8
		c2.8,0,7.2,1.7,7.2,8.7v12.1h-3.7v-11.7c0-3.3-1.2-6-4.7-6c-2.4,0-4.3,1.7-5,3.8c-0.2,0.5-0.3,1.1-0.3,1.7v12.2h-3.7V634z"/>
	<path id="XMLID_117_" class="st1" d="M1741.9,628.5c-0.1,1.5-0.2,3.1-0.2,5.6v11.8c0,4.7-0.9,7.5-2.9,9.3c-2,1.8-4.8,2.4-7.4,2.4
		c-2.4,0-5.1-0.6-6.8-1.7l0.9-2.8c1.3,0.8,3.4,1.6,6,1.6c3.8,0,6.6-2,6.6-7.1v-2.3h-0.1c-1.1,1.9-3.3,3.4-6.5,3.4
		c-5,0-8.7-4.3-8.7-9.9c0-6.9,4.5-10.8,9.2-10.8c3.5,0,5.5,1.8,6.3,3.5h0.1l0.2-3.1H1741.9z M1738.1,636.5c0-0.6,0-1.2-0.2-1.7
		c-0.7-2.1-2.5-3.9-5.2-3.9c-3.5,0-6,3-6,7.7c0,4,2,7.3,6,7.3c2.3,0,4.3-1.4,5.1-3.8c0.2-0.6,0.3-1.3,0.3-2V636.5z"/>
	<path id="XMLID_120_" class="st1" d="M1757.7,620.5h15.2v3.1h-11.6v9.4h10.7v3h-10.7v12.8h-3.7V620.5z"/>
	<path id="XMLID_122_" class="st1" d="M1787.8,648.8l-0.3-2.6h-0.1c-1.1,1.6-3.3,3-6.2,3c-4.1,0-6.2-2.9-6.2-5.8
		c0-4.9,4.4-7.6,12.2-7.6v-0.4c0-1.7-0.5-4.7-4.6-4.7c-1.9,0-3.9,0.6-5.3,1.5l-0.8-2.4c1.7-1.1,4.1-1.8,6.7-1.8
		c6.2,0,7.7,4.2,7.7,8.3v7.6c0,1.8,0.1,3.5,0.3,4.9H1787.8z M1787.3,638.4c-4-0.1-8.6,0.6-8.6,4.6c0,2.4,1.6,3.5,3.5,3.5
		c2.6,0,4.3-1.7,4.9-3.4c0.1-0.4,0.2-0.8,0.2-1.2V638.4z"/>
	<path id="XMLID_125_" class="st1" d="M1801.5,622.6v5.8h5.3v2.8h-5.3v11c0,2.5,0.7,3.9,2.8,3.9c1,0,1.7-0.1,2.1-0.3l0.2,2.8
		c-0.7,0.3-1.8,0.5-3.3,0.5c-1.7,0-3.1-0.5-4-1.6c-1-1.1-1.4-2.9-1.4-5.3v-11.1h-3.2v-2.8h3.2v-4.9L1801.5,622.6z"/>
	<path id="XMLID_127_" class="st1" d="M1811.4,619h3.7v12.7h0.1c0.6-1,1.5-2,2.6-2.6c1.1-0.6,2.4-1,3.8-1c2.7,0,7.1,1.7,7.1,8.7
		v12.1h-3.7v-11.7c0-3.3-1.2-6-4.7-6c-2.4,0-4.3,1.7-5,3.7c-0.2,0.5-0.3,1-0.3,1.8v12.3h-3.7V619z"/>
	<path id="XMLID_129_" class="st1" d="M1837.2,639.3c0.1,5,3.3,7.1,7,7.1c2.6,0,4.2-0.5,5.6-1l0.6,2.6c-1.3,0.6-3.5,1.3-6.8,1.3
		c-6.3,0-10-4.1-10-10.3c0-6.1,3.6-11,9.5-11c6.6,0,8.4,5.8,8.4,9.6c0,0.8-0.1,1.3-0.1,1.7H1837.2z M1848,636.6c0-2.4-1-6-5.1-6
		c-3.7,0-5.4,3.4-5.7,6H1848z"/>
	<path id="XMLID_132_" class="st1" d="M1856.6,634.8c0-2.4,0-4.5-0.2-6.3h3.2l0.1,4h0.2c0.9-2.7,3.2-4.5,5.6-4.5
		c0.4,0,0.7,0,1.1,0.1v3.5c-0.4-0.1-0.8-0.1-1.3-0.1c-2.6,0-4.5,2-5,4.7c-0.1,0.5-0.2,1.1-0.2,1.7v10.8h-3.7V634.8z"/>
</g>
<g id="XMLID_2_">
	<path id="XMLID_3_" class="st1" d="M2087.4,600.1l-7.1-19.1l-0.5,22.7h-3.5l1-28h4.6l8.1,21.6l8.1-21.6h4.6l1,28h-3.5l-0.5-22.7
		l-7.1,19.1H2087.4z"/>
	<path id="XMLID_7_" class="st1" d="M2125.9,596.4c0,2.3-0.7,4.2-2,5.6c-1.4,1.4-3.5,2.1-6.3,2.1s-4.9-0.7-6.3-2.1s-2-3.3-2-5.6
		v-5.9c0-2.3,0.7-4.2,2-5.6s3.5-2.1,6.3-2.1s4.9,0.7,6.3,2.1c1.4,1.4,2,3.3,2,5.6V596.4z M2122.4,590.4c0-3-1.6-4.5-4.8-4.5
		s-4.8,1.5-4.8,4.5v6.2c0,3,1.6,4.5,4.8,4.5s4.8-1.5,4.8-4.5V590.4z"/>
	<path id="XMLID_13_" class="st1" d="M2147.9,603.7h-3.5v-15.6c0-1.3-0.7-1.9-2-1.9c-0.8,0-1.8,0.2-3.2,0.6
		c-1.4,0.4-2.6,0.9-3.7,1.4v15.5h-3.5v-20.5h2.9l0.3,1.8c3-1.5,5.8-2.2,8.2-2.2c3,0,4.5,1.7,4.5,5.2V603.7z"/>
	<path id="XMLID_15_" class="st1" d="M2158.3,580h-3.5v-5.1h3.5V580z M2158.3,603.7h-3.5v-20.5h3.5V603.7z"/>
	<path id="XMLID_18_" class="st1" d="M2172.3,604.1c-3.1,0-5.2-0.6-6.4-1.8s-1.7-3.1-1.7-5.6v-6.4c0-2.5,0.6-4.4,1.8-5.6
		c1.2-1.2,3.3-1.8,6.4-1.8c1.9,0,3.6,0.2,4.9,0.6l-0.3,2.9c-1.5-0.3-3-0.5-4.5-0.5c-1.8,0-3,0.3-3.7,0.9c-0.7,0.6-1,1.7-1,3.3v6.7
		c0,1.6,0.3,2.7,1,3.3c0.7,0.6,1.9,0.9,3.7,0.9c1.5,0,3-0.2,4.5-0.5l0.3,2.9C2175.9,603.9,2174.3,604.1,2172.3,604.1z"/>
	<path id="XMLID_20_" class="st1" d="M2197.5,589.5v14.2h-3l-0.2-1.5c-1.8,1.3-4.1,1.9-6.6,1.9c-3.6,0-5.4-2-5.4-5.9
		c0-2.1,0.5-3.5,1.5-4.4c1-0.9,2.6-1.3,4.7-1.3h5.5v-3.2c0-1.3-0.3-2.2-1-2.7c-0.7-0.5-1.8-0.8-3.5-0.8c-2,0-4,0.2-6.1,0.7l-0.4-2.8
		c2.3-0.6,4.5-0.9,6.7-0.9c2.8,0,4.8,0.5,6,1.6S2197.5,587.2,2197.5,589.5z M2194,599.4v-4h-5.2c-1.1,0-1.9,0.2-2.3,0.6
		s-0.7,1.1-0.7,2.1c0,1.1,0.2,1.9,0.5,2.3s1.1,0.6,2.4,0.6C2190.5,601.1,2192.3,600.5,2194,599.4z"/>
	<path id="XMLID_23_" class="st1" d="M2216.8,583.7v11.9c0,1.9,0.4,3.2,1.2,4c0.8,0.8,2.3,1.2,4.6,1.2c1.8,0,3.5-0.2,5.3-0.5v-9.5
		h3.5v12.1c-2.8,0.8-5.7,1.2-8.9,1.2c-3.4,0-5.8-0.7-7.2-2.1c-1.4-1.4-2.1-3.4-2.1-6.2v-12.3c0-2.9,0.8-4.9,2.3-6.3
		c1.5-1.3,4-2,7.5-2c2.6,0,5.2,0.3,7.8,0.9l-0.4,3.1c-2.8-0.5-5.3-0.7-7.5-0.7c-2.3,0-3.8,0.4-4.7,1.2S2216.8,581.8,2216.8,583.7z"
		/>
	<path id="XMLID_25_" class="st1" d="M2240.8,596.6c0,1.7,0.3,2.9,1,3.5c0.7,0.7,2,1,3.9,1c1.9,0,4-0.3,6.5-1l0.5,2.8
		c-2.1,0.8-4.5,1.2-7.2,1.2c-2.9,0-5-0.6-6.2-1.9c-1.3-1.3-1.9-3.1-1.9-5.6v-6.1c0-5.1,2.7-7.6,8-7.6c5.1,0,7.7,2.6,7.7,7.7v4.3
		h-12.2V596.6z M2240.8,590.2v1.7h8.8v-1.7c0-1.5-0.3-2.6-0.9-3.4c-0.6-0.7-1.7-1.1-3.3-1.1s-2.7,0.4-3.4,1.1
		C2241.2,587.6,2240.8,588.7,2240.8,590.2z"/>
	<path id="XMLID_28_" class="st1" d="M2262.5,603.7h-3.5v-28.8l3.5-0.5V603.7z"/>
	<path id="XMLID_30_" class="st1" d="M2273.1,603.7h-3.5v-28.8l3.5-0.5V603.7z"/>
	<path id="XMLID_32_" class="st1" d="M2294.8,589.5v14.2h-3l-0.2-1.5c-1.8,1.3-4.1,1.9-6.6,1.9c-3.6,0-5.4-2-5.4-5.9
		c0-2.1,0.5-3.5,1.5-4.4c1-0.9,2.6-1.3,4.7-1.3h5.5v-3.2c0-1.3-0.3-2.2-1-2.7c-0.7-0.5-1.8-0.8-3.5-0.8c-2,0-4,0.2-6.1,0.7l-0.4-2.8
		c2.3-0.6,4.5-0.9,6.7-0.9c2.8,0,4.8,0.5,6,1.6S2294.8,587.2,2294.8,589.5z M2291.2,599.4v-4h-5.2c-1.1,0-1.9,0.2-2.3,0.6
		s-0.7,1.1-0.7,2.1c0,1.1,0.2,1.9,0.5,2.3s1.1,0.6,2.4,0.6C2287.7,601.1,2289.5,600.5,2291.2,599.4z"/>
	<path id="XMLID_40_" class="st1" d="M2310.3,582.8l0.5,3.2c-1.7,0.8-3.6,2-5.8,3.5v14.1h-3.5v-20.5h3.1l0.2,2.9
		C2306.4,584.7,2308.3,583.7,2310.3,582.8z"/>
	<path id="XMLID_42_" class="st1" d="M2130.1,620.5h15.2v3.1h-11.6v9.4h10.7v3h-10.7v12.8h-3.7V620.5z"/>
	<path id="XMLID_44_" class="st1" d="M2149.8,634.8c0-2.4,0-4.5-0.2-6.3h3.2l0.1,4h0.2c0.9-2.7,3.2-4.5,5.6-4.5c0.4,0,0.7,0,1.1,0.1
		v3.5c-0.4-0.1-0.8-0.1-1.3-0.1c-2.6,0-4.5,2-5,4.7c-0.1,0.5-0.2,1.1-0.2,1.7v10.8h-3.7V634.8z"/>
	<path id="XMLID_46_" class="st1" d="M2168.2,622.7c0,1.3-0.9,2.3-2.4,2.3c-1.3,0-2.2-1-2.2-2.3c0-1.3,1-2.3,2.3-2.3
		C2167.3,620.4,2168.2,621.4,2168.2,622.7z M2164.1,648.8v-20.3h3.7v20.3H2164.1z"/>
	<path id="XMLID_49_" class="st1" d="M2176.4,639.3c0.1,5,3.3,7.1,7,7.1c2.6,0,4.2-0.5,5.6-1l0.6,2.6c-1.3,0.6-3.5,1.3-6.8,1.3
		c-6.3,0-10-4.1-10-10.3c0-6.1,3.6-11,9.5-11c6.6,0,8.4,5.8,8.4,9.6c0,0.8-0.1,1.3-0.1,1.7H2176.4z M2187.2,636.6c0-2.4-1-6-5.1-6
		c-3.7,0-5.4,3.4-5.7,6H2187.2z"/>
	<path id="XMLID_52_" class="st1" d="M2195.8,634c0-2.1,0-3.8-0.2-5.5h3.3l0.2,3.4h0.1c1-1.9,3.4-3.8,6.7-3.8c2.8,0,7.2,1.7,7.2,8.7
		v12.1h-3.7v-11.7c0-3.3-1.2-6-4.7-6c-2.4,0-4.3,1.7-5,3.8c-0.2,0.5-0.3,1.1-0.3,1.7v12.2h-3.7V634z"/>
	<path id="XMLID_54_" class="st1" d="M2237.1,619v24.6c0,1.8,0,3.9,0.2,5.3h-3.3l-0.2-3.5h-0.1c-1.1,2.3-3.6,4-6.9,4
		c-4.9,0-8.7-4.2-8.7-10.3c0-6.8,4.2-10.9,9.1-10.9c3.1,0,5.2,1.5,6.1,3.1h0.1V619H2237.1z M2233.4,636.7c0-0.5,0-1.1-0.2-1.6
		c-0.5-2.4-2.6-4.3-5.3-4.3c-3.8,0-6.1,3.4-6.1,7.9c0,4.1,2,7.5,6,7.5c2.5,0,4.7-1.6,5.4-4.4c0.1-0.5,0.2-1,0.2-1.6V636.7z"/>
	<path id="XMLID_57_" class="st1" d="M2243.1,645c1.1,0.7,3,1.5,4.9,1.5c2.7,0,3.9-1.3,3.9-3c0-1.8-1-2.7-3.8-3.7
		c-3.7-1.3-5.4-3.3-5.4-5.8c0-3.3,2.6-6,7-6c2.1,0,3.9,0.6,5,1.3l-0.9,2.7c-0.8-0.5-2.3-1.2-4.2-1.2c-2.2,0-3.4,1.3-3.4,2.8
		c0,1.7,1.2,2.4,3.9,3.4c3.5,1.3,5.3,3.1,5.3,6.1c0,3.6-2.8,6.1-7.6,6.1c-2.2,0-4.3-0.5-5.7-1.4L2243.1,645z"/>
</g>
</svg>
