<?xml version="1.0" encoding="utf-8"?>
<!-- Generator: Adobe Illustrator 19.0.0, SVG Export Plug-In . SVG Version: 6.00 Build 0)  -->
<svg version="1.1" id="Layer_1" xmlns="http://www.w3.org/2000/svg" xmlns:xlink="http://www.w3.org/1999/xlink" x="0px" y="0px"
	 viewBox="0 0 2480 665" style="enable-background:new 0 0 2480 665;" xml:space="preserve">
<style type="text/css">
	.st0{opacity:0.5;fill:#E6E7E8;}
	.st1{fill:#2A2D30;}
	.st2{fill:#468ECC;}
	.st3{fill:#7B4997;}
	.st4{fill:#FF6C36;}
	.st5{fill:#008987;}
	.st6{fill:#DE4352;}
	.st7{fill:#EDAA00;}
</style>
<g id="XMLID_3223_">
	<rect id="XMLID_3224_" x="-6.3" y="0.9" class="st0" width="2492.3" height="664.6"/>
	<g id="XMLID_3225_">
		<path id="XMLID_3226_" class="st1" d="M362.8,297.5v-59.6h21.6c6.1,0,10.6,1.3,13.2,3.8c2.7,2.5,4,6.1,4,10.9v8.9
			c0,4.8-1.3,8.5-4,11c-2.7,2.5-7.1,3.8-13.2,3.8h-13.9v21.3H362.8z M393.9,252.7c0-2.9-0.7-5-2.1-6.1c-1.4-1.2-4-1.7-7.7-1.7h-13.6
			v24.5h13.6c3.6,0,6.2-0.6,7.7-1.7c1.5-1.2,2.2-3.2,2.2-6.1V252.7z"/>
		<path id="XMLID_3229_" class="st1" d="M420.6,282.3c0,3.6,0.7,6.1,2.1,7.5c1.4,1.4,4.2,2.1,8.3,2.1c4,0,8.6-0.7,13.8-2.1l1,6
			c-4.5,1.7-9.7,2.5-15.4,2.5c-6.1,0-10.6-1.4-13.2-4.1c-2.7-2.7-4-6.7-4-11.9v-13.1c0-10.9,5.7-16.3,17.1-16.3
			c10.9,0,16.4,5.5,16.4,16.5v9.1h-25.9V282.3z M420.6,268.8v3.6h18.7v-3.6c0-3.2-0.7-5.6-2-7.2c-1.3-1.6-3.7-2.3-7.1-2.3
			s-5.8,0.8-7.3,2.4C421.4,263.3,420.6,265.6,420.6,268.8z"/>
		<path id="XMLID_3232_" class="st1" d="M478.4,253l1,6.9c-3.6,1.7-7.7,4.2-12.4,7.5v30.1h-7.5v-43.6h6.5l0.4,6.1
			C470,257.2,474,254.8,478.4,253z"/>
		<path id="XMLID_3234_" class="st1" d="M517.6,285.8c0,4.5-1,7.8-3.1,9.7c-2.1,1.9-6,2.9-11.9,2.9c-5.2,0-9.8-0.8-13.9-2.3l1-5.9
			c4.2,1.2,8.3,1.8,12.4,1.8c3.3,0,5.5-0.4,6.5-1.2c1-0.8,1.5-2.4,1.5-4.7c0-2.4-0.4-3.9-1.3-4.7c-0.9-0.7-3.5-1.6-7.8-2.7
			c-5.2-1.3-8.5-2.8-9.8-4.4c-1.3-1.6-2-4.8-2-9.5c0-4.1,1.1-7.1,3.3-8.9c2.2-1.8,6.1-2.8,11.7-2.8c4.5,0,8.6,0.5,12.3,1.5l-0.5,6.2
			c-4.3-0.8-8.3-1.3-12.1-1.3c-3,0-5,0.4-5.9,1.2c-0.9,0.8-1.4,2.2-1.4,4.3c0,2.6,0.4,4.2,1.1,5.1c0.7,0.8,2.8,1.6,6.3,2.5
			c3.3,0.8,5.8,1.6,7.4,2.1c1.7,0.6,3,1.4,4,2.5c1,1.1,1.6,2.2,1.8,3.4S517.6,283.4,517.6,285.8z"/>
		<path id="XMLID_3236_" class="st1" d="M564.8,282c0,4.9-1.4,8.8-4.3,11.9c-2.9,3-7.3,4.5-13.4,4.5c-6,0-10.5-1.5-13.4-4.5
			c-2.9-3-4.3-7-4.3-11.9v-12.6c0-4.9,1.4-8.8,4.3-11.9c2.9-3,7.3-4.5,13.4-4.5c6,0,10.5,1.5,13.4,4.5c2.9,3,4.3,7,4.3,11.9V282z
			 M557.3,269.1c0-6.4-3.4-9.6-10.2-9.6c-6.8,0-10.2,3.2-10.2,9.6v13.1c0,6.4,3.4,9.6,10.2,9.6c6.8,0,10.2-3.2,10.2-9.6V269.1z"/>
		<path id="XMLID_3239_" class="st1" d="M611.7,297.5h-7.5v-33.3c0-2.7-1.4-4-4.2-4c-1.6,0-3.9,0.4-6.8,1.3
			c-2.9,0.9-5.5,1.9-7.8,3.1v32.9h-7.5v-43.6h6.1l0.7,3.8c6.4-3.1,12.3-4.7,17.5-4.7c6.3,0,9.5,3.7,9.5,11.1V297.5z"/>
		<path id="XMLID_3241_" class="st1" d="M657.1,267.2v30.3h-6.3l-0.4-3.2c-3.9,2.7-8.6,4.1-14.1,4.1c-7.7,0-11.5-4.2-11.5-12.5
			c0-4.4,1.1-7.6,3.3-9.4c2.2-1.9,5.5-2.8,10.1-2.8h11.6v-6.8c0-2.7-0.7-4.7-2.1-5.7c-1.4-1.1-3.9-1.6-7.4-1.6
			c-4.2,0-8.5,0.5-13.1,1.4l-0.8-6c4.8-1.3,9.6-1.9,14.3-1.9c6,0,10.3,1.1,12.8,3.4C655.9,258.8,657.1,262.3,657.1,267.2z
			 M649.6,288.4v-8.5h-11.1c-2.3,0-4,0.4-4.9,1.3c-1,0.9-1.4,2.4-1.4,4.5c0,2.4,0.4,4,1.2,4.9c0.8,0.9,2.4,1.3,5,1.3
			C642.2,292,645.9,290.8,649.6,288.4z"/>
		<path id="XMLID_3244_" class="st1" d="M678.8,297.5h-7.5v-61.4l7.5-1.1V297.5z"/>
		<path id="XMLID_3246_" class="st1" d="M700.9,247h-7.5v-10.8h7.5V247z M700.9,297.5h-7.5v-43.6h7.5V297.5z"/>
		<path id="XMLID_3249_" class="st1" d="M739.1,291l1,5.8c-2.9,1.1-6,1.6-9.1,1.6c-3.8,0-6.5-0.8-8.2-2.3c-1.7-1.5-2.6-4.1-2.6-7.6
			v-28.3h-7.7v-6.3h7.7v-10.7l7.5-1.1v11.8H740l-0.6,6.3h-11.7v27c0,1.8,0.3,3,0.8,3.8c0.5,0.7,1.8,1.1,3.7,1.1
			C733.9,292,736.3,291.7,739.1,291z"/>
		<path id="XMLID_3251_" class="st1" d="M759.9,315.1l6.1-17.6h-3.1l-14.1-43.6h7.4l11.9,37.6l12.1-37.6h7.4l-14.4,43.6l-6.2,17.6
			H759.9z"/>
		<path id="XMLID_3253_" class="st1" d="M879.1,297.5h-7.5v-33.3c0-2.7-1.4-4-4.2-4c-1.8,0-4.1,0.4-6.8,1.3
			c-2.8,0.8-5.4,1.9-7.7,3.1v32.9h-7.5v-33.3c0-2.7-1.4-4-4.2-4c-1.6,0-3.9,0.4-6.8,1.3c-2.9,0.9-5.5,1.9-7.8,3.1v32.9H819v-43.6
			h6.1l0.7,3.8c6.4-3.1,12.3-4.7,17.5-4.7c4.2,0,7,1.6,8.3,4.7c6.4-3.1,12.4-4.7,18-4.7c6.3,0,9.5,3.7,9.5,11.1V297.5z"/>
		<path id="XMLID_3255_" class="st1" d="M924.5,267.2v30.3h-6.3l-0.4-3.2c-3.9,2.7-8.6,4.1-14.1,4.1c-7.7,0-11.5-4.2-11.5-12.5
			c0-4.4,1.1-7.6,3.3-9.4c2.2-1.9,5.5-2.8,10.1-2.8H917v-6.8c0-2.7-0.7-4.7-2.1-5.7c-1.4-1.1-3.9-1.6-7.4-1.6
			c-4.2,0-8.5,0.5-13.1,1.4l-0.8-6c4.8-1.3,9.6-1.9,14.3-1.9c6,0,10.3,1.1,12.8,3.4C923.2,258.8,924.5,262.3,924.5,267.2z
			 M917,288.4v-8.5h-11.1c-2.3,0-4,0.4-4.9,1.3c-1,0.9-1.4,2.4-1.4,4.5c0,2.4,0.4,4,1.2,4.9c0.8,0.9,2.4,1.3,5,1.3
			C909.5,292,913.3,290.8,917,288.4z"/>
		<path id="XMLID_3258_" class="st1" d="M961.8,291l1,5.8c-2.9,1.1-6,1.6-9.1,1.6c-3.8,0-6.5-0.8-8.2-2.3c-1.7-1.5-2.6-4.1-2.6-7.6
			v-28.3h-7.7v-6.3h7.7v-10.7l7.5-1.1v11.8h12.3l-0.6,6.3h-11.7v27c0,1.8,0.3,3,0.8,3.8c0.5,0.7,1.8,1.1,3.7,1.1
			C956.6,292,959,291.7,961.8,291z"/>
		<path id="XMLID_3260_" class="st1" d="M998.9,291l1,5.8c-2.9,1.1-6,1.6-9.1,1.6c-3.8,0-6.5-0.8-8.2-2.3c-1.7-1.5-2.6-4.1-2.6-7.6
			v-28.3h-7.7v-6.3h7.7v-10.7l7.5-1.1v11.8h12.3l-0.6,6.3h-11.7v27c0,1.8,0.3,3,0.8,3.8c0.5,0.7,1.8,1.1,3.7,1.1
			C993.7,292,996.1,291.7,998.9,291z"/>
		<path id="XMLID_3262_" class="st1" d="M1017.3,282.3c0,3.6,0.7,6.1,2.1,7.5c1.4,1.4,4.2,2.1,8.3,2.1c4,0,8.6-0.7,13.8-2.1l1,6
			c-4.5,1.7-9.7,2.5-15.4,2.5c-6.1,0-10.6-1.4-13.2-4.1c-2.7-2.7-4-6.7-4-11.9v-13.1c0-10.9,5.7-16.3,17.1-16.3
			c10.9,0,16.4,5.5,16.4,16.5v9.1h-25.9V282.3z M1017.3,268.8v3.6h18.7v-3.6c0-3.2-0.7-5.6-2-7.2c-1.3-1.6-3.7-2.3-7.1-2.3
			c-3.4,0-5.8,0.8-7.3,2.4C1018,263.3,1017.3,265.6,1017.3,268.8z"/>
		<path id="XMLID_3265_" class="st1" d="M1075,253l1,6.9c-3.6,1.7-7.7,4.2-12.4,7.5v30.1h-7.5v-43.6h6.5l0.4,6.1
			C1066.6,257.2,1070.6,254.8,1075,253z"/>
		<path id="XMLID_3267_" class="st1" d="M1114.2,285.8c0,4.5-1,7.8-3.1,9.7c-2.1,1.9-6,2.9-11.9,2.9c-5.2,0-9.8-0.8-13.9-2.3l1-5.9
			c4.2,1.2,8.3,1.8,12.4,1.8c3.3,0,5.5-0.4,6.5-1.2c1-0.8,1.5-2.4,1.5-4.7c0-2.4-0.4-3.9-1.3-4.7c-0.9-0.7-3.5-1.6-7.8-2.7
			c-5.2-1.3-8.5-2.8-9.8-4.4c-1.3-1.6-2-4.8-2-9.5c0-4.1,1.1-7.1,3.3-8.9c2.2-1.8,6.1-2.8,11.7-2.8c4.5,0,8.6,0.5,12.3,1.5l-0.5,6.2
			c-4.3-0.8-8.3-1.3-12.1-1.3c-3,0-5,0.4-5.9,1.2c-0.9,0.8-1.4,2.2-1.4,4.3c0,2.6,0.4,4.2,1.1,5.1c0.7,0.8,2.8,1.6,6.3,2.5
			c3.3,0.8,5.8,1.6,7.4,2.1c1.7,0.6,3,1.4,4,2.5c1,1.1,1.6,2.2,1.8,3.4S1114.2,283.4,1114.2,285.8z"/>
	</g>
	<circle id="XMLID_3269_" class="st2" cx="171.2" cy="176.5" r="17.7"/>
	<circle id="XMLID_3270_" class="st3" cx="168.8" cy="218.9" r="10.3"/>
	<circle id="XMLID_3271_" class="st4" cx="200.2" cy="201.8" r="13.3"/>
	<circle id="XMLID_3272_" class="st5" cx="218.9" cy="172.6" r="9.6"/>
	<circle id="XMLID_3273_" class="st6" cx="198.2" cy="158.8" r="5.6"/>
	<circle id="XMLID_3274_" class="st7" cx="144.9" cy="202.6" r="7.5"/>
	<path id="XMLID_3275_" class="st1" d="M267.3,236.9l-21-53.1c-1.2-2.6-5.1-1.9-5.3,1c0,0-5.5,20.8-27.1,41.1
		c-24.9,23.4-65.4,12.6-65.4,12.6c-1.5,0.2-2.5,1.6-2.3,3.1l10.6,58.9c0.1,1.1,0.9,2,1.9,2.3l53.9,19.1c1.8,0.5,3.5-0.8,3.5-2.6
		l-8.1-32.4c0-1.4,1-2.6,2.4-2.7l39.7-3.4c1.4-0.2,2.5-1.4,2.4-2.8l-1-34.4c0-1.5,1.2-2.8,2.7-2.8c0,0,2.4,0,5.3,0h5.1
		C266.8,240.8,268.1,238.7,267.3,236.9z M243.1,232.9c-4.4,2.6-10,1.1-12.6-3.3c-2.6-4.4-1.1-10,3.3-12.6c4.4-2.6,10-1.1,12.6,3.3
		C248.9,224.8,247.4,230.4,243.1,232.9z"/>
</g>
</svg>
