<?xml version="1.0" encoding="utf-8"?>
<!-- Generator: Adobe Illustrator 19.0.0, SVG Export Plug-In . SVG Version: 6.00 Build 0)  -->
<svg version="1.1" id="Layer_1" xmlns="http://www.w3.org/2000/svg" xmlns:xlink="http://www.w3.org/1999/xlink" x="0px" y="0px"
	 viewBox="0 0 2480 750" style="enable-background:new 0 0 2480 750;" xml:space="preserve">
<style type="text/css">
	.st0{fill:#2A2D30;}
	.st1{fill:#EDAA00;}
</style>
<g id="XMLID_18_">
</g>
<g id="XMLID_17_">
</g>
<g id="XMLID_16_">
</g>
<g id="XMLID_15_">
</g>
<g id="XMLID_13_">
</g>
<g id="XMLID_9_">
	<path id="XMLID_340_" class="st0" d="M1020.4,100.8h-5.3V59.5h24.6v4.8h-19.2V78h17.9v4.8h-17.9V100.8z"/>
	<path id="XMLID_342_" class="st0" d="M1068.6,79.8v21h-4.4l-0.3-2.2c-2.7,1.9-6,2.9-9.8,2.9c-5.3,0-8-2.9-8-8.7
		c0-3.1,0.8-5.2,2.3-6.5c1.5-1.3,3.8-2,7-2h8.1v-4.7c0-1.9-0.5-3.2-1.5-4c-1-0.7-2.7-1.1-5.1-1.1c-2.9,0-5.9,0.3-9.1,1l-0.6-4.2
		c3.3-0.9,6.7-1.3,9.9-1.3c4.2,0,7.1,0.8,8.9,2.4C1067.8,73.9,1068.6,76.4,1068.6,79.8z M1063.4,94.5v-5.9h-7.7
		c-1.6,0-2.7,0.3-3.4,0.9c-0.7,0.6-1,1.6-1,3.1c0,1.7,0.3,2.8,0.8,3.4c0.5,0.6,1.7,0.9,3.5,0.9C1058.3,96.9,1060.9,96.1,1063.4,94.5
		z"/>
	<path id="XMLID_345_" class="st0" d="M1120.1,100.8h-5.2V77.7c0-1.9-1-2.8-2.9-2.8c-1.2,0-2.8,0.3-4.7,0.9
		c-1.9,0.6-3.7,1.3-5.4,2.2v22.8h-5.2V77.7c0-1.9-1-2.8-2.9-2.8c-1.1,0-2.7,0.3-4.7,0.9c-2,0.6-3.8,1.3-5.4,2.1v22.8h-5.2V70.6h4.2
		l0.5,2.6c4.5-2.1,8.5-3.2,12.2-3.2c2.9,0,4.9,1.1,5.8,3.2c4.5-2.1,8.6-3.2,12.5-3.2c4.4,0,6.6,2.6,6.6,7.7V100.8z"/>
	<path id="XMLID_347_" class="st0" d="M1153.3,90.1c0,3.4-1,6.1-3,8.2c-2,2.1-5.1,3.1-9.3,3.1c-4.2,0-7.3-1-9.3-3.1
		c-2-2.1-3-4.8-3-8.2v-8.7c0-3.4,1-6.1,3-8.2c2-2.1,5.1-3.1,9.3-3.1c4.2,0,7.3,1,9.3,3.1c2,2.1,3,4.8,3,8.2V90.1z M1148.1,81.1
		c0-4.4-2.4-6.6-7.1-6.6s-7.1,2.2-7.1,6.6v9.1c0,4.4,2.4,6.6,7.1,6.6s7.1-2.2,7.1-6.6V81.1z"/>
	<path id="XMLID_350_" class="st0" d="M1162,70.6h5.2v23.1c0,1.9,1,2.8,2.9,2.8c1.1,0,2.7-0.3,4.7-0.9c2-0.6,3.8-1.3,5.4-2.1V70.6
		h5.2v30.2h-4.2l-0.5-2.6c-4.5,2.1-8.5,3.2-12.2,3.2c-4.4,0-6.6-2.6-6.6-7.7V70.6z"/>
	<path id="XMLID_352_" class="st0" d="M1214.8,92.7c0,3.1-0.7,5.4-2.1,6.7c-1.4,1.3-4.2,2-8.3,2c-3.6,0-6.8-0.5-9.6-1.6l0.7-4.1
		c2.9,0.8,5.8,1.2,8.6,1.2c2.3,0,3.8-0.3,4.5-0.8c0.7-0.5,1.1-1.6,1.1-3.3c0-1.7-0.3-2.7-0.9-3.2c-0.6-0.5-2.4-1.1-5.4-1.9
		c-3.6-0.9-5.9-1.9-6.8-3.1c-0.9-1.1-1.4-3.3-1.4-6.6c0-2.9,0.8-4.9,2.3-6.2c1.5-1.3,4.2-1.9,8.1-1.9c3.1,0,6,0.4,8.6,1.1l-0.4,4.3
		c-3-0.6-5.8-0.9-8.4-0.9c-2.1,0-3.5,0.3-4.1,0.8c-0.6,0.5-1,1.5-1,3c0,1.8,0.2,2.9,0.7,3.5s2,1.1,4.4,1.7c2.3,0.6,4,1.1,5.1,1.5
		c1.2,0.4,2.1,1,2.8,1.7c0.7,0.7,1.1,1.5,1.2,2.3C1214.7,89.8,1214.8,91,1214.8,92.7z"/>
	<path id="XMLID_354_" class="st0" d="M1267,71.4v17.5c0,3.7-1.2,6.7-3.7,9.1c-2.5,2.3-6.2,3.5-11.3,3.5c-5,0-8.8-1.2-11.3-3.5
		c-2.5-2.3-3.7-5.3-3.7-9.1V71.4c0-3.7,1.2-6.7,3.7-9.1c2.5-2.3,6.2-3.5,11.3-3.5c5,0,8.8,1.2,11.3,3.5
		C1265.8,64.7,1267,67.7,1267,71.4z M1242.5,71.5v17.2c0,5.3,3.2,7.9,9.6,7.9c6.4,0,9.6-2.6,9.6-7.9V71.5c0-5.3-3.2-7.9-9.6-7.9
		C1245.7,63.6,1242.5,66.2,1242.5,71.5z"/>
	<path id="XMLID_357_" class="st0" d="M1290.1,70l0.7,4.8c-2.5,1.2-5.4,2.9-8.6,5.2v20.8h-5.2V70.6h4.5l0.3,4.2
		C1284.3,72.8,1287.1,71.2,1290.1,70z"/>
	<path id="XMLID_359_" class="st0" d="M1301.9,65.8h-5.2v-7.5h5.2V65.8z M1301.9,100.8h-5.2V70.6h5.2V100.8z"/>
	<path id="XMLID_362_" class="st0" d="M1335.8,70.6v3l-3.6,0.7c1,1.4,1.6,3.5,1.7,6v1.4c0,3.3-1,5.8-3,7.6c-2,1.8-5,2.7-8.8,2.7
		c-1.1,0-2.2-0.1-3.1-0.2c-1.4,1.2-2.2,2.3-2.2,3.2c0,1,0.7,1.6,2,1.7l8.6,0.9c2.7,0.3,4.7,1,5.8,2.1c1.2,1.1,1.7,2.8,1.7,5.1
		c0,3.4-0.9,5.7-2.6,6.9c-1.7,1.2-5.3,1.8-10.6,1.8c-3.8,0-7.5-0.5-11-1.4l0.7-4.1c3.5,0.8,6.9,1.2,10.1,1.2c3.7,0,6-0.3,7-0.8
		c1-0.6,1.5-1.7,1.5-3.4c0-1.2-0.3-2.1-0.9-2.4c-0.6-0.4-1.8-0.7-3.6-0.8c-0.5,0-1.7-0.1-3.4-0.3c-1.7-0.2-3.3-0.3-4.6-0.4
		c-3.9-0.3-5.9-2.2-5.9-5.5c0-2.1,1-3.9,2.9-5.3c-2.8-1.6-4.2-4.4-4.2-8.6v-1.4c0-3.4,0.9-6,2.8-7.8c1.8-1.7,4.8-2.6,9-2.6
		c2,0,3.7,0.2,5.1,0.6H1335.8z M1328.9,80.4c0-2.2-0.5-3.8-1.6-4.7c-1.1-1-2.8-1.4-5.3-1.4c-2.5,0-4.3,0.5-5.3,1.4
		c-1,0.9-1.5,2.5-1.5,4.7v1.3c0,2.3,0.5,3.8,1.5,4.7c1,0.9,2.8,1.3,5.3,1.3c2.4,0,4.2-0.5,5.3-1.5c1.1-1,1.6-2.5,1.6-4.5V80.4z"/>
	<path id="XMLID_365_" class="st0" d="M1348.6,65.8h-5.2v-7.5h5.2V65.8z M1348.6,100.8h-5.2V70.6h5.2V100.8z"/>
	<path id="XMLID_368_" class="st0" d="M1382.6,100.8h-5.2V77.7c0-1.9-1-2.8-2.9-2.8c-1.1,0-2.7,0.3-4.7,0.9c-2,0.6-3.8,1.3-5.4,2.1
		v22.8h-5.2V70.6h4.2l0.5,2.6c4.5-2.1,8.5-3.2,12.2-3.2c4.4,0,6.6,2.6,6.6,7.7V100.8z"/>
	<path id="XMLID_370_" class="st0" d="M1414.2,79.8v21h-4.4l-0.3-2.2c-2.7,1.9-6,2.9-9.8,2.9c-5.3,0-8-2.9-8-8.7
		c0-3.1,0.8-5.2,2.3-6.5c1.5-1.3,3.8-2,7-2h8.1v-4.7c0-1.9-0.5-3.2-1.5-4c-1-0.7-2.7-1.1-5.1-1.1c-2.9,0-5.9,0.3-9.1,1l-0.6-4.2
		c3.3-0.9,6.7-1.3,9.9-1.3c4.2,0,7.1,0.8,8.9,2.4C1413.3,73.9,1414.2,76.4,1414.2,79.8z M1409,94.5v-5.9h-7.7
		c-1.6,0-2.7,0.3-3.4,0.9c-0.7,0.6-1,1.6-1,3.1c0,1.7,0.3,2.8,0.8,3.4c0.5,0.6,1.7,0.9,3.5,0.9C1403.8,96.9,1406.4,96.1,1409,94.5z"
		/>
	<path id="XMLID_373_" class="st0" d="M1429.2,100.8h-5.2V58.3l5.2-0.7V100.8z"/>
	<path id="XMLID_375_" class="st0" d="M1458.5,92.7c0,3.1-0.7,5.4-2.1,6.7c-1.4,1.3-4.2,2-8.3,2c-3.6,0-6.8-0.5-9.6-1.6l0.7-4.1
		c2.9,0.8,5.8,1.2,8.6,1.2c2.3,0,3.8-0.3,4.5-0.8c0.7-0.5,1.1-1.6,1.1-3.3c0-1.7-0.3-2.7-0.9-3.2c-0.6-0.5-2.4-1.1-5.4-1.9
		c-3.6-0.9-5.9-1.9-6.8-3.1c-0.9-1.1-1.4-3.3-1.4-6.6c0-2.9,0.8-4.9,2.3-6.2c1.5-1.3,4.2-1.9,8.1-1.9c3.1,0,6,0.4,8.6,1.1l-0.4,4.3
		c-3-0.6-5.8-0.9-8.4-0.9c-2.1,0-3.5,0.3-4.1,0.8c-0.6,0.5-1,1.5-1,3c0,1.8,0.2,2.9,0.7,3.5c0.5,0.6,2,1.1,4.4,1.7
		c2.3,0.6,4,1.1,5.1,1.5c1.2,0.4,2.1,1,2.8,1.7c0.7,0.7,1.1,1.5,1.2,2.3C1458.5,89.8,1458.5,91,1458.5,92.7z"/>
</g>
<g id="XMLID_8_">
	<path id="XMLID_295_" class="st1" d="M185,600l-7-10.1h-6.8V600h-3.6v-28h10.7c2.9,0,5,0.6,6.2,1.8c1.3,1.2,1.9,2.9,1.9,5.1v4
		c0,3.5-1.5,5.7-4.5,6.5l7.3,10.5H185z M182.8,579c0-1.4-0.3-2.3-1-2.9c-0.7-0.5-1.9-0.8-3.6-0.8h-6.9v11.4h6.9
		c1.7,0,2.9-0.3,3.6-0.8c0.7-0.5,1-1.5,1-2.9V579z"/>
	<path id="XMLID_298_" class="st1" d="M209.6,592.7c0,2.3-0.7,4.2-2,5.6c-1.4,1.4-3.5,2.1-6.3,2.1c-2.8,0-4.9-0.7-6.3-2.1
		c-1.4-1.4-2-3.3-2-5.6v-5.9c0-2.3,0.7-4.2,2-5.6c1.4-1.4,3.5-2.1,6.3-2.1c2.8,0,4.9,0.7,6.3,2.1c1.4,1.4,2,3.3,2,5.6V592.7z
		 M206.1,586.7c0-3-1.6-4.5-4.8-4.5s-4.8,1.5-4.8,4.5v6.2c0,3,1.6,4.5,4.8,4.5s4.8-1.5,4.8-4.5V586.7z"/>
	<path id="XMLID_301_" class="st1" d="M231.7,585.5v7.3c0,2.5-0.6,4.5-1.9,5.7c-1.2,1.3-3.5,1.9-6.8,1.9c-2.6,0-5-0.3-7.3-0.8v-28.4
		l3.5-0.5v9.9c1.8-1,3.9-1.4,6.5-1.4C229.7,579.1,231.7,581.2,231.7,585.5z M219.2,583.8V597c1.3,0.2,2.6,0.3,4,0.3
		c1.9,0,3.2-0.4,3.9-1.1c0.7-0.7,1-1.8,1-3.3v-7.5c0-1.1-0.3-1.9-0.8-2.4c-0.5-0.5-1.4-0.8-2.5-0.8
		C223.2,582.2,221.4,582.7,219.2,583.8z"/>
	<path id="XMLID_304_" class="st1" d="M241.5,576.3h-3.5v-5.1h3.5V576.3z M241.5,600h-3.5v-20.5h3.5V600z"/>
	<path id="XMLID_307_" class="st1" d="M264.5,600h-3.5v-15.6c0-1.3-0.7-1.9-2-1.9c-0.8,0-1.8,0.2-3.2,0.6c-1.4,0.4-2.6,0.9-3.7,1.4
		V600h-3.5v-20.5h2.9l0.3,1.8c3-1.5,5.8-2.2,8.2-2.2c3,0,4.5,1.7,4.5,5.2V600z"/>
	<path id="XMLID_309_" class="st1" d="M299.1,572l5.8,24.5l6.4-24.5h3.5l-7.4,28h-5.1l-5.8-25l-5.8,25h-5.1l-7.4-28h3.5l6.4,24.5
		L294,572H299.1z"/>
	<path id="XMLID_311_" class="st1" d="M322.9,576.3h-3.5v-5.1h3.5V576.3z M322.9,600h-3.5v-20.5h3.5V600z"/>
	<path id="XMLID_314_" class="st1" d="M333.6,600h-3.5v-28.8l3.5-0.5V600z"/>
	<path id="XMLID_316_" class="st1" d="M344.3,600h-3.5v-28.8l3.5-0.5V600z"/>
	<path id="XMLID_318_" class="st1" d="M354.9,576.3h-3.5v-5.1h3.5V576.3z M354.9,600h-3.5v-20.5h3.5V600z"/>
	<path id="XMLID_321_" class="st1" d="M376.6,585.8V600h-3l-0.2-1.5c-1.8,1.3-4.1,1.9-6.6,1.9c-3.6,0-5.4-2-5.4-5.9
		c0-2.1,0.5-3.5,1.5-4.4c1-0.9,2.6-1.3,4.7-1.3h5.5v-3.2c0-1.3-0.3-2.2-1-2.7c-0.7-0.5-1.8-0.8-3.5-0.8c-2,0-4,0.2-6.1,0.7l-0.4-2.8
		c2.3-0.6,4.5-0.9,6.7-0.9c2.8,0,4.8,0.5,6,1.6C376,581.8,376.6,583.5,376.6,585.8z M373,595.7v-4h-5.2c-1.1,0-1.9,0.2-2.3,0.6
		c-0.4,0.4-0.7,1.1-0.7,2.1c0,1.1,0.2,1.9,0.5,2.3c0.4,0.4,1.1,0.6,2.4,0.6C369.5,597.4,371.3,596.8,373,595.7z"/>
	<path id="XMLID_324_" class="st1" d="M411.4,600h-3.5v-15.6c0-1.3-0.7-1.9-2-1.9c-0.8,0-1.9,0.2-3.2,0.6c-1.3,0.4-2.5,0.9-3.6,1.5
		V600h-3.5v-15.6c0-1.3-0.7-1.9-2-1.9c-0.8,0-1.8,0.2-3.2,0.6c-1.4,0.4-2.6,0.9-3.7,1.4V600h-3.5v-20.5h2.9l0.3,1.8
		c3-1.5,5.8-2.2,8.2-2.2c2,0,3.3,0.7,3.9,2.2c3-1.5,5.8-2.2,8.4-2.2c3,0,4.5,1.7,4.5,5.2V600z"/>
	<path id="XMLID_326_" class="st1" d="M431.1,594.5c0,2.1-0.5,3.6-1.4,4.6c-1,0.9-2.8,1.4-5.6,1.4c-2.4,0-4.6-0.4-6.5-1.1l0.5-2.8
		c2,0.6,3.9,0.8,5.8,0.8c1.6,0,2.6-0.2,3.1-0.5c0.5-0.4,0.7-1.1,0.7-2.2c0-1.1-0.2-1.8-0.6-2.2c-0.4-0.3-1.6-0.8-3.7-1.3
		c-2.5-0.6-4-1.3-4.6-2.1c-0.6-0.8-0.9-2.3-0.9-4.5c0-1.9,0.5-3.3,1.6-4.2c1-0.9,2.9-1.3,5.5-1.3c2.1,0,4.1,0.2,5.8,0.7l-0.3,2.9
		c-2-0.4-3.9-0.6-5.7-0.6c-1.4,0-2.4,0.2-2.8,0.5c-0.4,0.4-0.7,1-0.7,2c0,1.2,0.2,2,0.5,2.4c0.3,0.4,1.3,0.8,3,1.2
		c1.5,0.4,2.7,0.7,3.5,1c0.8,0.3,1.4,0.7,1.9,1.2s0.7,1,0.8,1.6C431,592.5,431.1,593.4,431.1,594.5z"/>
	<path id="XMLID_328_" class="st1" d="M258.2,636l-2.9,8.9h-3.8l9.6-28.3h4.4l9.7,28.3h-3.9l-3-8.9H258.2z M267.5,633.2l-2.8-8.1
		c-0.6-1.8-1.1-3.5-1.5-5.2h-0.1c-0.4,1.7-0.9,3.4-1.4,5.1l-2.8,8.2H267.5z"/>
	<path id="XMLID_331_" class="st1" d="M293.6,644.2c-1,0.5-3.1,1.2-5.8,1.2c-6.1,0-10.1-4.2-10.1-10.4c0-6.3,4.3-10.8,10.9-10.8
		c2.2,0,4.1,0.5,5.1,1.1l-0.8,2.9c-0.9-0.5-2.3-1-4.3-1c-4.7,0-7.2,3.4-7.2,7.7c0,4.7,3,7.6,7.1,7.6c2.1,0,3.5-0.5,4.5-1
		L293.6,644.2z"/>
	<path id="XMLID_333_" class="st1" d="M303.3,618.8v5.8h5.3v2.8h-5.3v11c0,2.5,0.7,3.9,2.8,3.9c1,0,1.7-0.1,2.1-0.3l0.2,2.8
		c-0.7,0.3-1.8,0.5-3.3,0.5c-1.7,0-3.1-0.5-4-1.6c-1.1-1.1-1.4-2.9-1.4-5.3v-11.1h-3.2v-2.8h3.2v-4.9L303.3,618.8z"/>
	<path id="XMLID_335_" class="st1" d="M331.3,634.6c0,7.5-5.2,10.8-10.1,10.8c-5.5,0-9.7-4-9.7-10.5c0-6.8,4.5-10.8,10.1-10.8
		C327.4,624.1,331.3,628.4,331.3,634.6z M315.2,634.8c0,4.5,2.6,7.8,6.2,7.8c3.5,0,6.2-3.3,6.2-7.9c0-3.4-1.7-7.8-6.1-7.8
		C317.1,626.9,315.2,631,315.2,634.8z"/>
	<path id="XMLID_338_" class="st1" d="M336.4,631c0-2.4,0-4.5-0.2-6.3h3.2l0.1,4h0.2c0.9-2.7,3.2-4.5,5.6-4.5c0.4,0,0.7,0,1.1,0.1
		v3.5c-0.4-0.1-0.8-0.1-1.3-0.1c-2.6,0-4.5,2-5,4.7c-0.1,0.5-0.2,1.1-0.2,1.7v10.8h-3.7V631z"/>
</g>
<g id="XMLID_7_">
	<path id="XMLID_211_" class="st1" d="M580.3,600v-28h16.5v3.2h-12.9v8.8h11.9v3.2h-11.9v9.5h12.9v3.2H580.3z"/>
	<path id="XMLID_213_" class="st1" d="M606.7,600h-3.5v-28.8l3.5-0.5V600z"/>
	<path id="XMLID_215_" class="st1" d="M617.4,600h-3.5v-28.8l3.5-0.5V600z"/>
	<path id="XMLID_217_" class="st1" d="M627,592.9c0,1.7,0.3,2.9,1,3.5c0.7,0.7,2,1,3.9,1c1.9,0,4-0.3,6.5-1l0.5,2.8
		c-2.1,0.8-4.5,1.2-7.2,1.2c-2.9,0-5-0.6-6.2-1.9c-1.3-1.3-1.9-3.2-1.9-5.6v-6.1c0-5.1,2.7-7.6,8-7.6c5.1,0,7.7,2.6,7.7,7.7v4.3H627
		V592.9z M627,586.5v1.7h8.8v-1.7c0-1.5-0.3-2.6-0.9-3.4c-0.6-0.7-1.7-1.1-3.3-1.1s-2.7,0.4-3.4,1.1C627.3,583.9,627,585,627,586.5z
		"/>
	<path id="XMLID_220_" class="st1" d="M661,600h-3.5v-15.6c0-1.3-0.7-1.9-2-1.9c-0.8,0-1.8,0.2-3.2,0.6c-1.4,0.4-2.6,0.9-3.7,1.4
		V600h-3.5v-20.5h2.9l0.3,1.8c3-1.5,5.8-2.2,8.2-2.2c3,0,4.5,1.7,4.5,5.2V600z"/>
	<path id="XMLID_222_" class="st1" d="M677.6,572h9.8c6,0,9,2.7,9,8V592c0,5.3-3,8-9,8h-9.8V572z M681.2,575.3v21.5h6
		c2,0,3.5-0.4,4.3-1.2c0.8-0.8,1.2-2.1,1.2-3.8v-11.4c0-1.7-0.4-3-1.2-3.8c-0.8-0.8-2.2-1.2-4.3-1.2H681.2z"/>
	<path id="XMLID_225_" class="st1" d="M705.3,592.9c0,1.7,0.3,2.9,1,3.5c0.7,0.7,2,1,3.9,1c1.9,0,4-0.3,6.5-1l0.5,2.8
		c-2.1,0.8-4.5,1.2-7.2,1.2c-2.9,0-5-0.6-6.2-1.9c-1.3-1.3-1.9-3.2-1.9-5.6v-6.1c0-5.1,2.7-7.6,8-7.6c5.1,0,7.7,2.6,7.7,7.7v4.3
		h-12.2V592.9z M705.3,586.5v1.7h8.8v-1.7c0-1.5-0.3-2.6-0.9-3.4c-0.6-0.7-1.7-1.1-3.3-1.1s-2.7,0.4-3.4,1.1
		C705.7,583.9,705.3,585,705.3,586.5z"/>
	<path id="XMLID_228_" class="st1" d="M726.7,580V592c0,1.9,0.4,3.2,1.2,4c0.8,0.8,2.3,1.2,4.6,1.2c1.8,0,3.5-0.2,5.3-0.5v-9.5h3.5
		v12.1c-2.8,0.8-5.7,1.2-8.9,1.2c-3.4,0-5.8-0.7-7.2-2.1c-1.4-1.4-2.1-3.4-2.1-6.2v-12.3c0-2.9,0.8-4.9,2.3-6.3c1.5-1.3,4-2,7.5-2
		c2.6,0,5.2,0.3,7.8,0.9l-0.4,3.1c-2.8-0.5-5.3-0.7-7.5-0.7c-2.3,0-3.8,0.4-4.7,1.2C727.1,576.8,726.7,578.1,726.7,580z"/>
	<path id="XMLID_230_" class="st1" d="M750.7,592.9c0,1.7,0.3,2.9,1,3.5c0.7,0.7,2,1,3.9,1c1.9,0,4-0.3,6.5-1l0.5,2.8
		c-2.1,0.8-4.5,1.2-7.2,1.2c-2.9,0-5-0.6-6.2-1.9c-1.3-1.3-1.9-3.2-1.9-5.6v-6.1c0-5.1,2.7-7.6,8-7.6c5.1,0,7.7,2.6,7.7,7.7v4.3
		h-12.2V592.9z M750.7,586.5v1.7h8.8v-1.7c0-1.5-0.3-2.6-0.9-3.4c-0.6-0.7-1.7-1.1-3.3-1.1s-2.7,0.4-3.4,1.1
		C751,583.9,750.7,585,750.7,586.5z"/>
	<path id="XMLID_233_" class="st1" d="M784.7,600h-3.5v-15.6c0-1.3-0.7-1.9-2-1.9c-0.8,0-1.8,0.2-3.2,0.6c-1.4,0.4-2.6,0.9-3.7,1.4
		V600h-3.5v-20.5h2.9l0.3,1.8c3-1.5,5.8-2.2,8.2-2.2c3,0,4.5,1.7,4.5,5.2V600z"/>
	<path id="XMLID_235_" class="st1" d="M794.1,592.9c0,1.7,0.3,2.9,1,3.5c0.7,0.7,2,1,3.9,1c1.9,0,4-0.3,6.5-1l0.5,2.8
		c-2.1,0.8-4.5,1.2-7.2,1.2c-2.9,0-5-0.6-6.2-1.9c-1.3-1.3-1.9-3.2-1.9-5.6v-6.1c0-5.1,2.7-7.6,8-7.6c5.1,0,7.7,2.6,7.7,7.7v4.3
		h-12.2V592.9z M794.1,586.5v1.7h8.8v-1.7c0-1.5-0.3-2.6-0.9-3.4c-0.6-0.7-1.7-1.1-3.3-1.1s-2.7,0.4-3.4,1.1
		C794.4,583.9,794.1,585,794.1,586.5z"/>
	<path id="XMLID_238_" class="st1" d="M821.1,579.1l0.5,3.2c-1.7,0.8-3.6,2-5.8,3.5V600h-3.5v-20.5h3.1l0.2,2.9
		C817.2,581.1,819.1,580,821.1,579.1z"/>
	<path id="XMLID_240_" class="st1" d="M828.2,592.9c0,1.7,0.3,2.9,1,3.5c0.7,0.7,2,1,3.9,1c1.9,0,4-0.3,6.5-1l0.5,2.8
		c-2.1,0.8-4.5,1.2-7.2,1.2c-2.9,0-5-0.6-6.2-1.9c-1.3-1.3-1.9-3.2-1.9-5.6v-6.1c0-5.1,2.7-7.6,8-7.6c5.1,0,7.7,2.6,7.7,7.7v4.3
		h-12.2V592.9z M828.2,586.5v1.7h8.8v-1.7c0-1.5-0.3-2.6-0.9-3.4c-0.6-0.7-1.7-1.1-3.3-1.1s-2.7,0.4-3.4,1.1
		C828.5,583.9,828.2,585,828.2,586.5z"/>
	<path id="XMLID_243_" class="st1" d="M859.1,594.5c0,2.1-0.5,3.6-1.4,4.6c-1,0.9-2.8,1.4-5.6,1.4c-2.4,0-4.6-0.4-6.5-1.1l0.5-2.8
		c2,0.6,3.9,0.8,5.8,0.8c1.6,0,2.6-0.2,3.1-0.5c0.5-0.4,0.7-1.1,0.7-2.2c0-1.1-0.2-1.8-0.6-2.2c-0.4-0.3-1.6-0.8-3.7-1.3
		c-2.5-0.6-4-1.3-4.6-2.1c-0.6-0.8-0.9-2.3-0.9-4.5c0-1.9,0.5-3.3,1.6-4.2c1-0.9,2.9-1.3,5.5-1.3c2.1,0,4.1,0.2,5.8,0.7l-0.3,2.9
		c-2-0.4-3.9-0.6-5.7-0.6c-1.4,0-2.4,0.2-2.8,0.5c-0.4,0.4-0.7,1-0.7,2c0,1.2,0.2,2,0.5,2.4c0.3,0.4,1.3,0.8,3,1.2
		c1.5,0.4,2.7,0.7,3.5,1c0.8,0.3,1.4,0.7,1.9,1.2s0.7,1,0.8,1.6C859,592.5,859.1,593.4,859.1,594.5z"/>
	<path id="XMLID_245_" class="st1" d="M584.6,619.7h-8.6v-3.1h21v3.1h-8.7v25.2h-3.7V619.7z"/>
	<path id="XMLID_247_" class="st1" d="M600.1,615.1h3.7v12.7h0.1c0.6-1.1,1.5-2,2.6-2.6c1.1-0.6,2.4-1.1,3.8-1.1
		c2.7,0,7.1,1.7,7.1,8.7v12.1h-3.7v-11.7c0-3.3-1.2-6-4.7-6c-2.4,0-4.3,1.7-5,3.7c-0.2,0.5-0.3,1-0.3,1.8v12.3h-3.7V615.1z"/>
	<path id="XMLID_249_" class="st1" d="M625.8,635.4c0.1,5,3.3,7.1,7,7.1c2.6,0,4.2-0.5,5.6-1l0.6,2.6c-1.3,0.6-3.5,1.3-6.8,1.3
		c-6.3,0-10-4.1-10-10.3c0-6.1,3.6-11,9.5-11c6.6,0,8.4,5.8,8.4,9.6c0,0.8-0.1,1.3-0.1,1.7H625.8z M636.7,632.8c0-2.4-1-6-5.1-6
		c-3.7,0-5.4,3.4-5.7,6H636.7z"/>
	<path id="XMLID_252_" class="st1" d="M669.4,631.7h-11v10.2h12.3v3.1h-15.9v-28.3H670v3.1h-11.6v8.9h11V631.7z"/>
	<path id="XMLID_254_" class="st1" d="M675.6,615.1h3.7v29.8h-3.7V615.1z"/>
	<path id="XMLID_256_" class="st1" d="M686,615.1h3.7v29.8H686V615.1z"/>
	<path id="XMLID_258_" class="st1" d="M698.4,635.4c0.1,5,3.3,7.1,7,7.1c2.6,0,4.2-0.5,5.6-1l0.6,2.6c-1.3,0.6-3.5,1.3-6.8,1.3
		c-6.3,0-10-4.1-10-10.3c0-6.1,3.6-11,9.5-11c6.6,0,8.4,5.8,8.4,9.6c0,0.8-0.1,1.3-0.1,1.7H698.4z M709.2,632.8c0-2.4-1-6-5.1-6
		c-3.7,0-5.4,3.4-5.7,6H709.2z"/>
	<path id="XMLID_261_" class="st1" d="M717.8,630.1c0-2.1,0-3.8-0.2-5.5h3.3l0.2,3.4h0.1c1-1.9,3.4-3.8,6.7-3.8
		c2.8,0,7.2,1.7,7.2,8.7v12.1h-3.7v-11.7c0-3.3-1.2-6-4.7-6c-2.4,0-4.3,1.7-5,3.8c-0.2,0.5-0.3,1.1-0.3,1.7v12.2h-3.7V630.1z"/>
	<path id="XMLID_263_" class="st1" d="M751,617c2.2-0.3,4.9-0.6,7.8-0.6c5.3,0,9,1.2,11.5,3.5c2.5,2.3,4,5.6,4,10.2
		c0,4.6-1.4,8.4-4.1,11c-2.6,2.6-7,4.1-12.5,4.1c-2.6,0-4.8-0.1-6.6-0.3V617z M754.6,642c0.9,0.2,2.3,0.2,3.7,0.2
		c7.8,0,12.1-4.4,12.1-12c0-6.7-3.7-10.9-11.5-10.9c-1.9,0-3.3,0.2-4.3,0.4V642z"/>
	<path id="XMLID_266_" class="st1" d="M781.4,635.4c0.1,5,3.3,7.1,7,7.1c2.6,0,4.2-0.5,5.6-1l0.6,2.6c-1.3,0.6-3.5,1.3-6.8,1.3
		c-6.3,0-10-4.1-10-10.3c0-6.1,3.6-11,9.5-11c6.6,0,8.4,5.8,8.4,9.6c0,0.8-0.1,1.3-0.1,1.7H781.4z M792.3,632.8c0-2.4-1-6-5.1-6
		c-3.7,0-5.4,3.4-5.7,6H792.3z"/>
	<path id="XMLID_269_" class="st1" d="M822.5,643.7c-1.6,0.6-4.9,1.6-8.7,1.6c-4.3,0-7.8-1.1-10.6-3.7c-2.4-2.4-3.9-6.1-3.9-10.5
		c0-8.4,5.8-14.6,15.3-14.6c3.3,0,5.8,0.7,7.1,1.3l-0.9,3c-1.5-0.7-3.4-1.2-6.3-1.2c-6.9,0-11.4,4.3-11.4,11.4
		c0,7.2,4.3,11.4,10.9,11.4c2.4,0,4-0.3,4.9-0.8V633h-5.8v-2.9h9.3V643.7z"/>
	<path id="XMLID_271_" class="st1" d="M830.7,635.4c0.1,5,3.3,7.1,7,7.1c2.6,0,4.2-0.5,5.6-1l0.6,2.6c-1.3,0.6-3.5,1.3-6.8,1.3
		c-6.3,0-10-4.1-10-10.3c0-6.1,3.6-11,9.5-11c6.6,0,8.4,5.8,8.4,9.6c0,0.8-0.1,1.3-0.1,1.7H830.7z M841.5,632.8c0-2.4-1-6-5.1-6
		c-3.7,0-5.4,3.4-5.7,6H841.5z"/>
	<path id="XMLID_274_" class="st1" d="M850.1,630.1c0-2.1,0-3.8-0.2-5.5h3.3l0.2,3.4h0.1c1-1.9,3.4-3.8,6.7-3.8
		c2.8,0,7.2,1.7,7.2,8.7v12.1h-3.7v-11.7c0-3.3-1.2-6-4.7-6c-2.4,0-4.3,1.7-5,3.8c-0.2,0.5-0.3,1.1-0.3,1.7v12.2h-3.7V630.1z"/>
	<path id="XMLID_276_" class="st1" d="M875.9,635.4c0.1,5,3.3,7.1,7,7.1c2.6,0,4.2-0.5,5.6-1l0.6,2.6c-1.3,0.6-3.5,1.3-6.8,1.3
		c-6.3,0-10-4.1-10-10.3c0-6.1,3.6-11,9.5-11c6.6,0,8.4,5.8,8.4,9.6c0,0.8-0.1,1.3-0.1,1.7H875.9z M886.7,632.8c0-2.4-1-6-5.1-6
		c-3.7,0-5.4,3.4-5.7,6H886.7z"/>
	<path id="XMLID_279_" class="st1" d="M895.3,631c0-2.4,0-4.5-0.2-6.3h3.2l0.1,4h0.2c0.9-2.7,3.2-4.5,5.6-4.5c0.4,0,0.7,0,1.1,0.1
		v3.5c-0.4-0.1-0.8-0.1-1.3-0.1c-2.6,0-4.5,2-5,4.7c-0.1,0.5-0.2,1.1-0.2,1.7v10.8h-3.7V631z"/>
	<path id="XMLID_281_" class="st1" d="M911.1,635.4c0.1,5,3.3,7.1,7,7.1c2.6,0,4.2-0.5,5.6-1l0.6,2.6c-1.3,0.6-3.5,1.3-6.8,1.3
		c-6.3,0-10-4.1-10-10.3c0-6.1,3.6-11,9.5-11c6.6,0,8.4,5.8,8.4,9.6c0,0.8-0.1,1.3-0.1,1.7H911.1z M921.9,632.8c0-2.4-1-6-5.1-6
		c-3.7,0-5.4,3.4-5.7,6H921.9z"/>
	<path id="XMLID_284_" class="st1" d="M930,641.2c1.1,0.7,3,1.5,4.9,1.5c2.7,0,3.9-1.3,3.9-3c0-1.8-1-2.7-3.8-3.7
		c-3.7-1.3-5.4-3.3-5.4-5.8c0-3.3,2.6-6,7-6c2.1,0,3.9,0.6,5,1.3l-0.9,2.7c-0.8-0.5-2.3-1.2-4.2-1.2c-2.2,0-3.4,1.3-3.4,2.8
		c0,1.7,1.2,2.4,3.9,3.4c3.5,1.3,5.3,3.1,5.3,6.1c0,3.6-2.8,6.1-7.6,6.1c-2.2,0-4.3-0.5-5.7-1.4L930,641.2z"/>
	<path id="XMLID_286_" class="st1" d="M717.9,685.4c1.6,1,4,1.8,6.6,1.8c3.7,0,5.9-2,5.9-4.8c0-2.6-1.5-4.2-5.3-5.6
		c-4.6-1.6-7.5-4-7.5-8c0-4.4,3.7-7.7,9.2-7.7c2.9,0,5,0.7,6.3,1.4l-1,3c-0.9-0.5-2.8-1.3-5.4-1.3c-3.9,0-5.3,2.3-5.3,4.2
		c0,2.6,1.7,3.9,5.6,5.5c4.8,1.8,7.2,4.2,7.2,8.3c0,4.4-3.2,8.1-9.9,8.1c-2.7,0-5.7-0.8-7.2-1.8L717.9,685.4z"/>
	<path id="XMLID_288_" class="st1" d="M739.4,660.1h3.7v12.7h0.1c0.6-1.1,1.5-2,2.6-2.6c1.1-0.6,2.4-1.1,3.8-1.1
		c2.7,0,7.1,1.7,7.1,8.7v12.1H753v-11.7c0-3.3-1.2-6-4.7-6c-2.4,0-4.3,1.7-5,3.7c-0.2,0.5-0.3,1-0.3,1.8v12.3h-3.7V660.1z"/>
	<path id="XMLID_290_" class="st1" d="M781.5,679.6c0,7.5-5.2,10.8-10.1,10.8c-5.5,0-9.7-4-9.7-10.5c0-6.8,4.5-10.8,10.1-10.8
		C777.6,669.1,781.5,673.3,781.5,679.6z M765.4,679.8c0,4.5,2.6,7.8,6.2,7.8c3.5,0,6.2-3.3,6.2-7.9c0-3.4-1.7-7.8-6.1-7.8
		C767.3,671.9,765.4,675.9,765.4,679.8z"/>
	<path id="XMLID_293_" class="st1" d="M787.8,669.6l2.7,10.3c0.6,2.3,1.1,4.4,1.5,6.5h0.1c0.5-2.1,1.1-4.2,1.8-6.4l3.3-10.4h3.1
		l3.2,10.2c0.8,2.4,1.3,4.6,1.8,6.6h0.1c0.3-2.1,0.9-4.2,1.6-6.6l2.9-10.2h3.7l-6.6,20.3h-3.4l-3.1-9.7c-0.7-2.3-1.3-4.3-1.8-6.7
		h-0.1c-0.5,2.4-1.1,4.5-1.8,6.7l-3.3,9.7h-3.4l-6.1-20.3H787.8z"/>
</g>
<g id="XMLID_6_">
	<path id="XMLID_120_" class="st1" d="M1097.2,596.4l-7.1-19.1l-0.5,22.7h-3.5l1-28h4.6l8.1,21.6l8.1-21.6h4.6l1,28h-3.5l-0.5-22.7
		l-7.1,19.1H1097.2z"/>
	<path id="XMLID_122_" class="st1" d="M1123.7,576.3h-3.5v-5.1h3.5V576.3z M1123.7,600h-3.5v-20.5h3.5V600z"/>
	<path id="XMLID_125_" class="st1" d="M1137.7,600.4c-3.1,0-5.2-0.6-6.4-1.8c-1.2-1.2-1.7-3.1-1.7-5.6v-6.4c0-2.5,0.6-4.4,1.8-5.6
		c1.2-1.2,3.3-1.8,6.4-1.8c1.9,0,3.6,0.2,4.9,0.6l-0.3,2.9c-1.5-0.3-3-0.5-4.5-0.5c-1.8,0-3,0.3-3.7,0.9c-0.7,0.6-1,1.7-1,3.3v6.7
		c0,1.6,0.3,2.7,1,3.3c0.7,0.6,1.9,0.9,3.7,0.9c1.5,0,3-0.2,4.5-0.5l0.3,2.9C1141.3,600.2,1139.7,600.4,1137.7,600.4z"/>
	<path id="XMLID_127_" class="st1" d="M1164.3,600h-3.5v-15.6c0-1.3-0.7-1.9-2-1.9c-0.8,0-1.8,0.2-3.2,0.6c-1.4,0.4-2.6,0.9-3.7,1.5
		V600h-3.5v-28.8l3.5-0.5v10.6c3-1.4,5.6-2.1,7.9-2.1c3,0,4.5,1.7,4.5,5.2V600z"/>
	<path id="XMLID_129_" class="st1" d="M1185.7,585.8V600h-3l-0.2-1.5c-1.8,1.3-4.1,1.9-6.6,1.9c-3.6,0-5.4-2-5.4-5.9
		c0-2.1,0.5-3.5,1.5-4.4c1-0.9,2.6-1.3,4.7-1.3h5.5v-3.2c0-1.3-0.3-2.2-1-2.7c-0.7-0.5-1.8-0.8-3.5-0.8c-2,0-4,0.2-6.1,0.7l-0.4-2.8
		c2.3-0.6,4.5-0.9,6.7-0.9c2.8,0,4.8,0.5,6,1.6C1185.1,581.8,1185.7,583.5,1185.7,585.8z M1182.2,595.7v-4h-5.2
		c-1.1,0-1.9,0.2-2.3,0.6c-0.4,0.4-0.7,1.1-0.7,2.1c0,1.1,0.2,1.9,0.5,2.3c0.4,0.4,1.1,0.6,2.4,0.6
		C1178.7,597.4,1180.5,596.8,1182.2,595.7z"/>
	<path id="XMLID_132_" class="st1" d="M1194.8,592.9c0,1.7,0.3,2.9,1,3.5c0.7,0.7,2,1,3.9,1c1.9,0,4-0.3,6.5-1l0.5,2.8
		c-2.1,0.8-4.5,1.2-7.2,1.2c-2.9,0-5-0.6-6.2-1.9c-1.3-1.3-1.9-3.2-1.9-5.6v-6.1c0-5.1,2.7-7.6,8-7.6c5.1,0,7.7,2.6,7.7,7.7v4.3
		h-12.2V592.9z M1194.8,586.5v1.7h8.8v-1.7c0-1.5-0.3-2.6-0.9-3.4c-0.6-0.7-1.7-1.1-3.3-1.1s-2.7,0.4-3.4,1.1
		C1195.2,583.9,1194.8,585,1194.8,586.5z"/>
	<path id="XMLID_135_" class="st1" d="M1216.5,600h-3.5v-28.8l3.5-0.5V600z"/>
	<path id="XMLID_137_" class="st1" d="M1249.7,592.8c0,1.3-0.1,2.4-0.4,3.3c-0.2,0.9-0.7,1.7-1.3,2.4c-0.6,0.7-1.6,1.2-2.8,1.5
		c-1.2,0.3-2.8,0.5-4.6,0.5c-3.1,0-5.9-0.5-8.3-1.5l0.6-2.9c2.6,0.8,5.2,1.2,7.8,1.2c2.2,0,3.6-0.3,4.3-0.9s1.1-1.8,1.1-3.4
		c0-1.1,0-1.9-0.1-2.3c0-0.4-0.3-0.9-0.7-1.3c-0.4-0.4-1-0.8-1.7-1c-0.7-0.2-1.8-0.5-3.4-0.8c-1.8-0.4-3.1-0.8-4.1-1.1
		c-0.9-0.4-1.7-0.9-2.2-1.6c-0.6-0.7-0.9-1.4-1.1-2.3c-0.1-0.8-0.2-2-0.2-3.6c0-2.5,0.7-4.4,2-5.5c1.3-1.1,3.6-1.7,7-1.7
		c2.7,0,5.2,0.3,7.6,0.9l-0.3,3.1c-2.4-0.5-4.7-0.8-7.2-0.8c-2.2,0-3.7,0.3-4.4,0.8c-0.7,0.6-1,1.7-1,3.3c0,0.8,0,1.3,0,1.7
		c0,0.3,0.1,0.7,0.2,1.1c0.1,0.4,0.3,0.7,0.5,0.9s0.5,0.3,1,0.6c0.5,0.3,1,0.4,1.5,0.6c0.5,0.1,1.3,0.3,2.4,0.6
		c1.9,0.5,3.4,0.9,4.4,1.3s1.8,0.9,2.3,1.6c0.6,0.7,0.9,1.4,1,2.1C1249.6,590.1,1249.7,591.2,1249.7,592.8z"/>
	<path id="XMLID_139_" class="st1" d="M1266.3,596.9l0.5,2.7c-1.4,0.5-2.8,0.8-4.3,0.8c-1.8,0-3.1-0.4-3.9-1.1
		c-0.8-0.7-1.2-1.9-1.2-3.6v-13.3h-3.6v-2.9h3.6v-5l3.5-0.5v5.5h5.8l-0.3,2.9h-5.5v12.7c0,0.8,0.1,1.4,0.4,1.8s0.8,0.5,1.7,0.5
		C1263.9,597.4,1265,597.3,1266.3,596.9z"/>
	<path id="XMLID_141_" class="st1" d="M1280.9,579.1l0.5,3.2c-1.7,0.8-3.6,2-5.8,3.5V600h-3.5v-20.5h3.1l0.2,2.9
		C1277,581.1,1278.9,580,1280.9,579.1z"/>
	<path id="XMLID_143_" class="st1" d="M1299.8,585.8V600h-3l-0.2-1.5c-1.8,1.3-4.1,1.9-6.6,1.9c-3.6,0-5.4-2-5.4-5.9
		c0-2.1,0.5-3.5,1.5-4.4c1-0.9,2.6-1.3,4.7-1.3h5.5v-3.2c0-1.3-0.3-2.2-1-2.7c-0.7-0.5-1.8-0.8-3.5-0.8c-2,0-4,0.2-6.1,0.7l-0.4-2.8
		c2.3-0.6,4.5-0.9,6.7-0.9c2.8,0,4.8,0.5,6,1.6S1299.8,583.5,1299.8,585.8z M1296.2,595.7v-4h-5.2c-1.1,0-1.9,0.2-2.3,0.6
		c-0.4,0.4-0.7,1.1-0.7,2.1c0,1.1,0.2,1.9,0.5,2.3s1.1,0.6,2.4,0.6C1292.7,597.4,1294.5,596.8,1296.2,595.7z"/>
	<path id="XMLID_146_" class="st1" d="M1322.3,600h-3.5v-15.6c0-1.3-0.7-1.9-2-1.9c-0.8,0-1.8,0.2-3.2,0.6c-1.4,0.4-2.6,0.9-3.7,1.5
		V600h-3.5v-28.8l3.5-0.5v10.6c3-1.4,5.6-2.1,7.9-2.1c3,0,4.5,1.7,4.5,5.2V600z"/>
	<path id="XMLID_148_" class="st1" d="M1343.7,585.8V600h-3l-0.2-1.5c-1.8,1.3-4.1,1.9-6.6,1.9c-3.6,0-5.4-2-5.4-5.9
		c0-2.1,0.5-3.5,1.5-4.4c1-0.9,2.6-1.3,4.7-1.3h5.5v-3.2c0-1.3-0.3-2.2-1-2.7c-0.7-0.5-1.8-0.8-3.5-0.8c-2,0-4,0.2-6.1,0.7l-0.4-2.8
		c2.3-0.6,4.5-0.9,6.7-0.9c2.8,0,4.8,0.5,6,1.6S1343.7,583.5,1343.7,585.8z M1340.2,595.7v-4h-5.2c-1.1,0-1.9,0.2-2.3,0.6
		c-0.4,0.4-0.7,1.1-0.7,2.1c0,1.1,0.2,1.9,0.5,2.3s1.1,0.6,2.4,0.6C1336.7,597.4,1338.4,596.8,1340.2,595.7z"/>
	<path id="XMLID_151_" class="st1" d="M1366.2,600h-3.5v-15.6c0-1.3-0.7-1.9-2-1.9c-0.8,0-1.8,0.2-3.2,0.6c-1.4,0.4-2.6,0.9-3.7,1.4
		V600h-3.5v-20.5h2.9l0.3,1.8c3-1.5,5.8-2.2,8.2-2.2c3,0,4.5,1.7,4.5,5.2V600z"/>
	<path id="XMLID_153_" class="st1" d="M1051.9,616.6h3.7v25.2h12.1v3.1h-15.8V616.6z"/>
	<path id="XMLID_155_" class="st1" d="M1076.1,618.9c0,1.3-0.9,2.3-2.4,2.3c-1.3,0-2.2-1-2.2-2.3c0-1.3,1-2.3,2.3-2.3
		C1075.2,616.6,1076.1,617.6,1076.1,618.9z M1072,644.9v-20.3h3.7v20.3H1072z"/>
	<path id="XMLID_158_" class="st1" d="M1083.7,624.6l4,11.4c0.7,1.8,1.2,3.5,1.6,5.2h0.1c0.5-1.7,1-3.4,1.7-5.2l3.9-11.4h3.9
		l-8,20.3h-3.5l-7.7-20.3H1083.7z"/>
	<path id="XMLID_160_" class="st1" d="M1104.5,635.4c0.1,5,3.3,7.1,7,7.1c2.6,0,4.2-0.5,5.6-1l0.6,2.6c-1.3,0.6-3.5,1.3-6.8,1.3
		c-6.3,0-10-4.1-10-10.3c0-6.1,3.6-11,9.5-11c6.6,0,8.4,5.8,8.4,9.6c0,0.8-0.1,1.3-0.1,1.7H1104.5z M1115.4,632.8c0-2.4-1-6-5.1-6
		c-3.7,0-5.4,3.4-5.7,6H1115.4z"/>
	<path id="XMLID_163_" class="st1" d="M1134.7,624.6l2.7,10.3c0.6,2.3,1.1,4.4,1.5,6.5h0.1c0.5-2.1,1.1-4.2,1.8-6.4l3.3-10.4h3.1
		l3.2,10.2c0.8,2.4,1.3,4.6,1.8,6.6h0.1c0.3-2.1,0.9-4.2,1.6-6.6l2.9-10.2h3.7l-6.6,20.3h-3.4l-3.1-9.7c-0.7-2.3-1.3-4.3-1.8-6.7
		h-0.1c-0.5,2.4-1.1,4.5-1.8,6.7l-3.3,9.7h-3.4l-6.1-20.3H1134.7z"/>
	<path id="XMLID_165_" class="st1" d="M1168.7,618.9c0,1.3-0.9,2.3-2.4,2.3c-1.3,0-2.2-1-2.2-2.3c0-1.3,1-2.3,2.3-2.3
		C1167.8,616.6,1168.7,617.6,1168.7,618.9z M1164.6,644.9v-20.3h3.7v20.3H1164.6z"/>
	<path id="XMLID_168_" class="st1" d="M1179.3,618.8v5.8h5.3v2.8h-5.3v11c0,2.5,0.7,3.9,2.8,3.9c1,0,1.7-0.1,2.1-0.3l0.2,2.8
		c-0.7,0.3-1.8,0.5-3.3,0.5c-1.7,0-3.1-0.5-4-1.6c-1.1-1.1-1.4-2.9-1.4-5.3v-11.1h-3.2v-2.8h3.2v-4.9L1179.3,618.8z"/>
	<path id="XMLID_170_" class="st1" d="M1189.1,615.1h3.7v12.7h0.1c0.6-1.1,1.5-2,2.6-2.6c1.1-0.6,2.4-1.1,3.8-1.1
		c2.7,0,7.1,1.7,7.1,8.7v12.1h-3.7v-11.7c0-3.3-1.2-6-4.7-6c-2.4,0-4.3,1.7-5,3.7c-0.2,0.5-0.3,1-0.3,1.8v12.3h-3.7V615.1z"/>
	<path id="XMLID_172_" class="st1" d="M1222.3,616.6h3.7v13.7h0.1c0.8-1.1,1.5-2.1,2.2-3l8.7-10.6h4.5l-10.3,12l11,16.3h-4.3
		l-9.3-13.9l-2.7,3.1v10.8h-3.7V616.6z"/>
	<path id="XMLID_174_" class="st1" d="M1247.4,635.4c0.1,5,3.3,7.1,7,7.1c2.6,0,4.2-0.5,5.6-1l0.6,2.6c-1.3,0.6-3.5,1.3-6.8,1.3
		c-6.3,0-10-4.1-10-10.3c0-6.1,3.6-11,9.5-11c6.6,0,8.4,5.8,8.4,9.6c0,0.8-0.1,1.3-0.1,1.7H1247.4z M1258.3,632.8c0-2.4-1-6-5.1-6
		c-3.7,0-5.4,3.4-5.7,6H1258.3z"/>
	<path id="XMLID_177_" class="st1" d="M1266.8,615.1h3.7v29.8h-3.7V615.1z"/>
	<path id="XMLID_179_" class="st1" d="M1277.2,615.1h3.7v29.8h-3.7V615.1z"/>
	<path id="XMLID_181_" class="st1" d="M1289.6,635.4c0.1,5,3.3,7.1,7,7.1c2.6,0,4.2-0.5,5.6-1l0.6,2.6c-1.3,0.6-3.5,1.3-6.8,1.3
		c-6.3,0-10-4.1-10-10.3c0-6.1,3.6-11,9.5-11c6.6,0,8.4,5.8,8.4,9.6c0,0.8-0.1,1.3-0.1,1.7H1289.6z M1300.4,632.8c0-2.4-1-6-5.1-6
		c-3.7,0-5.4,3.4-5.7,6H1300.4z"/>
	<path id="XMLID_184_" class="st1" d="M1310.3,624.6l4.5,12c0.5,1.3,1,2.9,1.3,4.2h0.1c0.4-1.2,0.8-2.8,1.3-4.2l4-11.9h3.9
		l-5.5,14.5c-2.6,7-4.5,10.5-7,12.7c-1.8,1.6-3.6,2.2-4.5,2.4l-0.9-3.1c0.9-0.3,2.1-0.9,3.2-1.8c1-0.8,2.3-2.2,3.1-4.1
		c0.2-0.4,0.3-0.7,0.3-0.9s-0.1-0.5-0.3-1l-7.5-18.7H1310.3z"/>
	<path id="XMLID_186_" class="st1" d="M1349.8,644.9l-0.3-2.6h-0.1c-1.1,1.6-3.3,3-6.2,3c-4.1,0-6.2-2.9-6.2-5.8
		c0-4.9,4.4-7.6,12.2-7.6v-0.4c0-1.7-0.5-4.7-4.6-4.7c-1.9,0-3.9,0.6-5.3,1.5l-0.8-2.4c1.7-1.1,4.1-1.8,6.7-1.8
		c6.2,0,7.7,4.2,7.7,8.3v7.6c0,1.8,0.1,3.5,0.3,4.9H1349.8z M1349.2,634.6c-4-0.1-8.6,0.6-8.6,4.6c0,2.4,1.6,3.5,3.5,3.5
		c2.6,0,4.3-1.7,4.9-3.4c0.1-0.4,0.2-0.8,0.2-1.2V634.6z"/>
	<path id="XMLID_189_" class="st1" d="M1359.2,630.1c0-2.1,0-3.8-0.2-5.5h3.3l0.2,3.4h0.1c1-1.9,3.4-3.8,6.7-3.8
		c2.8,0,7.2,1.7,7.2,8.7v12.1h-3.7v-11.7c0-3.3-1.2-6-4.7-6c-2.4,0-4.3,1.7-5,3.8c-0.2,0.5-0.3,1.1-0.3,1.7v12.2h-3.7V630.1z"/>
	<path id="XMLID_191_" class="st1" d="M1400.5,615.1v24.6c0,1.8,0,3.9,0.2,5.3h-3.3l-0.2-3.5h-0.1c-1.1,2.3-3.6,4-6.9,4
		c-4.9,0-8.7-4.2-8.7-10.3c0-6.8,4.2-10.9,9.1-10.9c3.1,0,5.2,1.5,6.1,3.1h0.1v-12.1H1400.5z M1396.8,632.9c0-0.5,0-1.1-0.2-1.6
		c-0.5-2.4-2.6-4.3-5.3-4.3c-3.8,0-6.1,3.4-6.1,7.9c0,4.1,2,7.5,6,7.5c2.5,0,4.7-1.6,5.4-4.4c0.1-0.5,0.2-1,0.2-1.6V632.9z"/>
	<path id="XMLID_194_" class="st1" d="M1183.2,677.5c-0.2-3.9-0.5-8.7-0.4-12.2h-0.1c-1,3.3-2.1,6.8-3.6,10.8l-5,13.7h-2.8
		l-4.6-13.5c-1.3-4-2.5-7.6-3.3-11h-0.1c-0.1,3.5-0.3,8.3-0.5,12.5l-0.8,12.1h-3.5l2-28.3h4.7l4.8,13.7c1.2,3.5,2.1,6.6,2.9,9.5h0.1
		c0.7-2.9,1.7-6,3-9.5l5-13.7h4.7l1.8,28.3h-3.6L1183.2,677.5z"/>
	<path id="XMLID_196_" class="st1" d="M1198,663.8c0,1.3-0.9,2.3-2.4,2.3c-1.3,0-2.2-1-2.2-2.3c0-1.3,1-2.3,2.3-2.3
		C1197.1,661.5,1198,662.5,1198,663.8z M1193.9,689.9v-20.3h3.7v20.3H1193.9z"/>
	<path id="XMLID_199_" class="st1" d="M1218.6,689.1c-1,0.5-3.1,1.2-5.8,1.2c-6.1,0-10.1-4.2-10.1-10.4c0-6.3,4.3-10.8,10.9-10.8
		c2.2,0,4.1,0.5,5.1,1.1l-0.8,2.9c-0.9-0.5-2.3-1-4.3-1c-4.7,0-7.2,3.4-7.2,7.7c0,4.7,3,7.6,7.1,7.6c2.1,0,3.5-0.5,4.5-1
		L1218.6,689.1z"/>
	<path id="XMLID_201_" class="st1" d="M1223.4,660.1h3.7v12.7h0.1c0.6-1.1,1.5-2,2.6-2.6c1.1-0.6,2.4-1.1,3.8-1.1
		c2.7,0,7.1,1.7,7.1,8.7v12.1h-3.7v-11.7c0-3.3-1.2-6-4.7-6c-2.4,0-4.3,1.7-5,3.7c-0.2,0.5-0.3,1-0.3,1.8v12.3h-3.7V660.1z"/>
	<path id="XMLID_203_" class="st1" d="M1258.4,689.9l-0.3-2.6h-0.1c-1.1,1.6-3.3,3-6.2,3c-4.1,0-6.2-2.9-6.2-5.8
		c0-4.9,4.4-7.6,12.2-7.6v-0.4c0-1.7-0.5-4.7-4.6-4.7c-1.9,0-3.9,0.6-5.3,1.5l-0.8-2.4c1.7-1.1,4.1-1.8,6.7-1.8
		c6.2,0,7.7,4.2,7.7,8.3v7.6c0,1.8,0.1,3.5,0.3,4.9H1258.4z M1257.8,679.5c-4-0.1-8.6,0.6-8.6,4.6c0,2.4,1.6,3.5,3.5,3.5
		c2.6,0,4.3-1.7,4.9-3.4c0.1-0.4,0.2-0.8,0.2-1.2V679.5z"/>
	<path id="XMLID_206_" class="st1" d="M1269.8,680.4c0.1,5,3.3,7.1,7,7.1c2.6,0,4.2-0.5,5.6-1l0.6,2.6c-1.3,0.6-3.5,1.3-6.8,1.3
		c-6.3,0-10-4.1-10-10.3c0-6.1,3.6-11,9.5-11c6.6,0,8.4,5.8,8.4,9.6c0,0.8-0.1,1.3-0.1,1.7H1269.8z M1280.7,677.7c0-2.4-1-6-5.1-6
		c-3.7,0-5.4,3.4-5.7,6H1280.7z"/>
	<path id="XMLID_209_" class="st1" d="M1289.2,660.1h3.7v29.8h-3.7V660.1z"/>
</g>
<g id="XMLID_5_">
	<path id="XMLID_74_" class="st1" d="M1563,580V592c0,2,0.4,3.3,1.3,4.1s2.5,1.1,4.8,1.1c2.2,0,4.3-0.2,6.6-0.6l0.4,3.1
		c-2.2,0.5-4.6,0.8-7.1,0.8c-3.3,0-5.8-0.7-7.3-2.1s-2.3-3.4-2.3-6.2v-12.3c0-2.7,0.8-4.8,2.3-6.2c1.5-1.4,4-2.1,7.3-2.1
		c2.5,0,4.8,0.3,7.1,0.8l-0.4,3.1c-2.2-0.4-4.4-0.6-6.6-0.6c-2.3,0-3.9,0.4-4.8,1.1C1563.4,576.7,1563,578.1,1563,580z"/>
	<path id="XMLID_76_" class="st1" d="M1597.8,600h-3.5v-15.6c0-1.3-0.7-1.9-2-1.9c-0.8,0-1.8,0.2-3.2,0.6c-1.4,0.4-2.6,0.9-3.7,1.5
		V600h-3.5v-28.8l3.5-0.5v10.6c3-1.4,5.6-2.1,7.9-2.1c3,0,4.5,1.7,4.5,5.2V600z"/>
	<path id="XMLID_78_" class="st1" d="M1619.2,585.8V600h-3l-0.2-1.5c-1.8,1.3-4.1,1.9-6.6,1.9c-3.6,0-5.4-2-5.4-5.9
		c0-2.1,0.5-3.5,1.5-4.4c1-0.9,2.6-1.3,4.7-1.3h5.5v-3.2c0-1.3-0.3-2.2-1-2.7c-0.7-0.5-1.8-0.8-3.5-0.8c-2,0-4,0.2-6.1,0.7l-0.4-2.8
		c2.3-0.6,4.5-0.9,6.7-0.9c2.8,0,4.8,0.5,6,1.6S1619.2,583.5,1619.2,585.8z M1615.6,595.7v-4h-5.2c-1.1,0-1.9,0.2-2.3,0.6
		c-0.4,0.4-0.7,1.1-0.7,2.1c0,1.1,0.2,1.9,0.5,2.3s1.1,0.6,2.4,0.6C1612.1,597.4,1613.9,596.8,1615.6,595.7z"/>
	<path id="XMLID_81_" class="st1" d="M1634.7,579.1l0.5,3.2c-1.7,0.8-3.6,2-5.8,3.5V600h-3.5v-20.5h3.1l0.2,2.9
		C1630.8,581.1,1632.7,580,1634.7,579.1z"/>
	<path id="XMLID_83_" class="st1" d="M1642.7,600h-3.5v-28.8l3.5-0.5V600z"/>
	<path id="XMLID_85_" class="st1" d="M1653.4,576.3h-3.5v-5.1h3.5V576.3z M1653.4,600h-3.5v-20.5h3.5V600z"/>
	<path id="XMLID_88_" class="st1" d="M1663,592.9c0,1.7,0.3,2.9,1,3.5c0.7,0.7,2,1,3.9,1c1.9,0,4-0.3,6.5-1l0.5,2.8
		c-2.1,0.8-4.5,1.2-7.2,1.2c-2.9,0-5-0.6-6.2-1.9s-1.9-3.2-1.9-5.6v-6.1c0-5.1,2.7-7.6,8-7.6c5.1,0,7.7,2.6,7.7,7.7v4.3H1663V592.9z
		 M1663,586.5v1.7h8.8v-1.7c0-1.5-0.3-2.6-0.9-3.4c-0.6-0.7-1.7-1.1-3.3-1.1s-2.7,0.4-3.4,1.1C1663.3,583.9,1663,585,1663,586.5z"/>
	<path id="XMLID_91_" class="st1" d="M1693.8,580V592c0,2,0.4,3.3,1.3,4.1s2.5,1.1,4.8,1.1c2.2,0,4.3-0.2,6.6-0.6l0.4,3.1
		c-2.2,0.5-4.6,0.8-7.1,0.8c-3.3,0-5.8-0.7-7.3-2.1s-2.3-3.4-2.3-6.2v-12.3c0-2.7,0.8-4.8,2.3-6.2c1.5-1.4,4-2.1,7.3-2.1
		c2.5,0,4.8,0.3,7.1,0.8l-0.4,3.1c-2.2-0.4-4.4-0.6-6.6-0.6c-2.3,0-3.9,0.4-4.8,1.1C1694.2,576.7,1693.8,578.1,1693.8,580z"/>
	<path id="XMLID_93_" class="st1" d="M1728.5,600h-3.5v-15.6c0-1.3-0.7-1.9-2-1.9c-0.8,0-1.8,0.2-3.2,0.6c-1.4,0.4-2.6,0.9-3.7,1.5
		V600h-3.5v-28.8l3.5-0.5v10.6c3-1.4,5.6-2.1,7.9-2.1c3,0,4.5,1.7,4.5,5.2V600z"/>
	<path id="XMLID_95_" class="st1" d="M1750,585.8V600h-3l-0.2-1.5c-1.8,1.3-4.1,1.9-6.6,1.9c-3.6,0-5.4-2-5.4-5.9
		c0-2.1,0.5-3.5,1.5-4.4c1-0.9,2.6-1.3,4.7-1.3h5.5v-3.2c0-1.3-0.3-2.2-1-2.7c-0.7-0.5-1.8-0.8-3.5-0.8c-2,0-4,0.2-6.1,0.7l-0.4-2.8
		c2.3-0.6,4.5-0.9,6.7-0.9c2.8,0,4.8,0.5,6,1.6S1750,583.5,1750,585.8z M1746.4,595.7v-4h-5.2c-1.1,0-1.9,0.2-2.3,0.6
		c-0.4,0.4-0.7,1.1-0.7,2.1c0,1.1,0.2,1.9,0.5,2.3s1.1,0.6,2.4,0.6C1742.9,597.4,1744.7,596.8,1746.4,595.7z"/>
	<path id="XMLID_98_" class="st1" d="M1772.6,585.4v8.4c0,4.5-2.2,6.7-6.6,6.7c-1.8,0-3.8-0.2-5.8-0.6v8.5l-3.5,0.5v-29.2h3l0.3,1.8
		c1.9-1.5,4.1-2.3,6.8-2.3C1770.6,579.1,1772.6,581.2,1772.6,585.4z M1760.1,584.7v12c2.1,0.4,4,0.6,5.6,0.6c1.2,0,2-0.3,2.5-0.9
		s0.8-1.5,0.8-2.7v-8.4c0-1.1-0.2-1.9-0.7-2.4c-0.4-0.5-1.3-0.8-2.5-0.8C1763.9,582.2,1761.9,583,1760.1,584.7z"/>
	<path id="XMLID_101_" class="st1" d="M1807.2,600h-3.5v-15.6c0-1.3-0.7-1.9-2-1.9c-0.8,0-1.9,0.2-3.2,0.6c-1.3,0.4-2.5,0.9-3.6,1.5
		V600h-3.5v-15.6c0-1.3-0.7-1.9-2-1.9c-0.8,0-1.8,0.2-3.2,0.6c-1.4,0.4-2.6,0.9-3.7,1.4V600h-3.5v-20.5h2.9l0.3,1.8
		c3-1.5,5.8-2.2,8.2-2.2c2,0,3.3,0.7,3.9,2.2c3-1.5,5.8-2.2,8.4-2.2c3,0,4.5,1.7,4.5,5.2V600z"/>
	<path id="XMLID_103_" class="st1" d="M1828.6,585.8V600h-3l-0.2-1.5c-1.8,1.3-4.1,1.9-6.6,1.9c-3.6,0-5.4-2-5.4-5.9
		c0-2.1,0.5-3.5,1.5-4.4c1-0.9,2.6-1.3,4.7-1.3h5.5v-3.2c0-1.3-0.3-2.2-1-2.7c-0.7-0.5-1.8-0.8-3.5-0.8c-2,0-4,0.2-6.1,0.7l-0.4-2.8
		c2.3-0.6,4.5-0.9,6.7-0.9c2.8,0,4.8,0.5,6,1.6S1828.6,583.5,1828.6,585.8z M1825.1,595.7v-4h-5.2c-1.1,0-1.9,0.2-2.3,0.6
		c-0.4,0.4-0.7,1.1-0.7,2.1c0,1.1,0.2,1.9,0.5,2.3s1.1,0.6,2.4,0.6C1821.6,597.4,1823.4,596.8,1825.1,595.7z"/>
	<path id="XMLID_106_" class="st1" d="M1851.1,600h-3.5v-15.6c0-1.3-0.7-1.9-2-1.9c-0.8,0-1.8,0.2-3.2,0.6c-1.4,0.4-2.6,0.9-3.7,1.4
		V600h-3.5v-20.5h2.9l0.3,1.8c3-1.5,5.8-2.2,8.2-2.2c3,0,4.5,1.7,4.5,5.2V600z"/>
	<path id="XMLID_108_" class="st1" d="M1664.8,636l-2.9,8.9h-3.8l9.6-28.3h4.4l9.7,28.3h-3.9l-3-8.9H1664.8z M1674.1,633.2l-2.8-8.1
		c-0.6-1.8-1-3.5-1.5-5.2h-0.1c-0.4,1.7-0.9,3.4-1.4,5.1l-2.8,8.2H1674.1z"/>
	<path id="XMLID_111_" class="st1" d="M1700.2,644.2c-1,0.5-3.1,1.2-5.8,1.2c-6.1,0-10.1-4.2-10.1-10.4c0-6.3,4.3-10.8,10.9-10.8
		c2.2,0,4.1,0.5,5.1,1.1l-0.8,2.9c-0.9-0.5-2.3-1-4.3-1c-4.7,0-7.2,3.4-7.2,7.7c0,4.7,3,7.6,7.1,7.6c2.1,0,3.5-0.5,4.5-1
		L1700.2,644.2z"/>
	<path id="XMLID_113_" class="st1" d="M1709.9,618.8v5.8h5.3v2.8h-5.3v11c0,2.5,0.7,3.9,2.8,3.9c1,0,1.7-0.1,2.1-0.3l0.2,2.8
		c-0.7,0.3-1.8,0.5-3.3,0.5c-1.7,0-3.1-0.5-4-1.6c-1-1.1-1.4-2.9-1.4-5.3v-11.1h-3.2v-2.8h3.2v-4.9L1709.9,618.8z"/>
	<path id="XMLID_115_" class="st1" d="M1737.9,634.6c0,7.5-5.2,10.8-10.1,10.8c-5.5,0-9.7-4-9.7-10.5c0-6.8,4.5-10.8,10.1-10.8
		C1734,624.1,1737.9,628.4,1737.9,634.6z M1721.8,634.8c0,4.5,2.6,7.8,6.2,7.8c3.5,0,6.2-3.3,6.2-7.9c0-3.4-1.7-7.8-6.1-7.8
		C1723.7,626.9,1721.8,631,1721.8,634.8z"/>
	<path id="XMLID_118_" class="st1" d="M1743,631c0-2.4,0-4.5-0.2-6.3h3.2l0.1,4h0.2c0.9-2.7,3.2-4.5,5.6-4.5c0.4,0,0.7,0,1.1,0.1
		v3.5c-0.4-0.1-0.8-0.1-1.3-0.1c-2.6,0-4.5,2-5,4.7c-0.1,0.5-0.2,1.1-0.2,1.7v10.8h-3.7V631z"/>
</g>
<g id="XMLID_4_">
	<path id="XMLID_10_" class="st1" d="M2079.9,592.8c0,1.3-0.1,2.4-0.4,3.3c-0.2,0.9-0.7,1.7-1.3,2.4c-0.6,0.7-1.6,1.2-2.8,1.5
		c-1.2,0.3-2.8,0.5-4.6,0.5c-3.1,0-5.9-0.5-8.3-1.5l0.6-2.9c2.6,0.8,5.2,1.2,7.8,1.2c2.2,0,3.6-0.3,4.3-0.9c0.7-0.6,1.1-1.8,1.1-3.4
		c0-1.1,0-1.9-0.1-2.3c0-0.4-0.3-0.9-0.7-1.3c-0.4-0.4-1-0.8-1.7-1c-0.7-0.2-1.8-0.5-3.4-0.8c-1.8-0.4-3.1-0.8-4.1-1.1
		c-0.9-0.4-1.7-0.9-2.2-1.6c-0.6-0.7-0.9-1.4-1-2.3c-0.1-0.8-0.2-2-0.2-3.6c0-2.5,0.7-4.4,2-5.5c1.3-1.1,3.6-1.7,7-1.7
		c2.7,0,5.2,0.3,7.6,0.9l-0.3,3.1c-2.4-0.5-4.7-0.8-7.2-0.8c-2.2,0-3.7,0.3-4.4,0.8c-0.7,0.6-1,1.7-1,3.3c0,0.8,0,1.3,0,1.7
		c0,0.3,0.1,0.7,0.2,1.1c0.1,0.4,0.3,0.7,0.5,0.9s0.5,0.3,1,0.6c0.5,0.3,1,0.4,1.5,0.6c0.5,0.1,1.3,0.3,2.4,0.6
		c1.9,0.5,3.4,0.9,4.4,1.3c1,0.4,1.8,0.9,2.3,1.6c0.6,0.7,0.9,1.4,1,2.1C2079.9,590.1,2079.9,591.2,2079.9,592.8z"/>
	<path id="XMLID_12_" class="st1" d="M2088.4,608.3l2.9-8.3h-1.5l-6.6-20.5h3.5l5.6,17.6l5.7-17.6h3.5l-6.8,20.5l-2.9,8.3H2088.4z"
		/>
	<path id="XMLID_19_" class="st1" d="M2121.5,585.5v7.3c0,2.5-0.6,4.5-1.9,5.7c-1.2,1.3-3.5,1.9-6.8,1.9c-2.6,0-5-0.3-7.3-0.8v-28.4
		l3.5-0.5v9.9c1.8-1,3.9-1.4,6.5-1.4C2119.5,579.1,2121.5,581.2,2121.5,585.5z M2109,583.8V597c1.3,0.2,2.6,0.3,4,0.3
		c1.9,0,3.2-0.4,3.9-1.1s1-1.8,1-3.3v-7.5c0-1.1-0.3-1.9-0.8-2.4c-0.5-0.5-1.4-0.8-2.5-0.8C2113,582.2,2111.1,582.7,2109,583.8z"/>
	<path id="XMLID_22_" class="st1" d="M2131.2,576.3h-3.5v-5.1h3.5V576.3z M2131.2,600h-3.5v-20.5h3.5V600z"/>
	<path id="XMLID_25_" class="st1" d="M2141.9,600h-3.5v-28.8l3.5-0.5V600z"/>
	<path id="XMLID_27_" class="st1" d="M2161.6,580V592c0,2,0.4,3.3,1.3,4.1s2.5,1.1,4.8,1.1c2.2,0,4.3-0.2,6.6-0.6l0.4,3.1
		c-2.2,0.5-4.6,0.8-7.1,0.8c-3.3,0-5.8-0.7-7.3-2.1s-2.3-3.4-2.3-6.2v-12.3c0-2.7,0.8-4.8,2.3-6.2c1.5-1.4,4-2.1,7.3-2.1
		c2.5,0,4.8,0.3,7.1,0.8l-0.4,3.1c-2.2-0.4-4.4-0.6-6.6-0.6c-2.3,0-3.9,0.4-4.8,1.1C2162.1,576.7,2161.6,578.1,2161.6,580z"/>
	<path id="XMLID_29_" class="st1" d="M2189.5,579.1l0.5,3.2c-1.7,0.8-3.6,2-5.8,3.5V600h-3.5v-20.5h3.1l0.2,2.9
		C2185.5,581.1,2187.4,580,2189.5,579.1z"/>
	<path id="XMLID_31_" class="st1" d="M2208.3,585.8V600h-3l-0.2-1.5c-1.8,1.3-4.1,1.9-6.6,1.9c-3.6,0-5.4-2-5.4-5.9
		c0-2.1,0.5-3.5,1.5-4.4c1-0.9,2.6-1.3,4.7-1.3h5.5v-3.2c0-1.3-0.3-2.2-1-2.7c-0.7-0.5-1.8-0.8-3.5-0.8c-2,0-4,0.2-6.1,0.7l-0.4-2.8
		c2.3-0.6,4.5-0.9,6.7-0.9c2.8,0,4.8,0.5,6,1.6S2208.3,583.5,2208.3,585.8z M2204.7,595.7v-4h-5.2c-1.1,0-1.9,0.2-2.3,0.6
		c-0.4,0.4-0.7,1.1-0.7,2.1c0,1.1,0.2,1.9,0.5,2.3s1.1,0.6,2.4,0.6C2201.2,597.4,2203,596.8,2204.7,595.7z"/>
	<path id="XMLID_34_" class="st1" d="M2236,600h-4.5l-5-17.3l-5,17.3h-4.5l-4.4-20.5h3.4l3.4,17l5-17h4.3l5,17l3.4-17h3.4L2236,600z
		"/>
	<path id="XMLID_36_" class="st1" d="M2248.4,600h-3.5v-28.8l3.5-0.5V600z"/>
	<path id="XMLID_38_" class="st1" d="M2258,592.9c0,1.7,0.3,2.9,1,3.5c0.7,0.7,2,1,3.9,1c1.9,0,4-0.3,6.5-1l0.5,2.8
		c-2.1,0.8-4.5,1.2-7.2,1.2c-2.9,0-5-0.6-6.2-1.9s-1.9-3.2-1.9-5.6v-6.1c0-5.1,2.7-7.6,8-7.6c5.1,0,7.7,2.6,7.7,7.7v4.3H2258V592.9z
		 M2258,586.5v1.7h8.8v-1.7c0-1.5-0.3-2.6-0.9-3.4c-0.6-0.7-1.7-1.1-3.3-1.1s-2.7,0.4-3.4,1.1C2258.4,583.9,2258,585,2258,586.5z"/>
	<path id="XMLID_41_" class="st1" d="M2278.3,608.3l2.9-8.3h-1.5l-6.6-20.5h3.5l5.6,17.6l5.7-17.6h3.5l-6.8,20.5l-2.9,8.3H2278.3z"
		/>
	<path id="XMLID_43_" class="st1" d="M2032.4,617c2.2-0.3,4.9-0.6,7.8-0.6c5.3,0,9,1.2,11.5,3.5c2.5,2.3,4,5.6,4,10.2
		c0,4.6-1.4,8.4-4.1,11c-2.6,2.6-7,4.1-12.5,4.1c-2.6,0-4.8-0.1-6.6-0.3V617z M2036.1,642c0.9,0.2,2.3,0.2,3.7,0.2
		c7.8,0,12.1-4.4,12.1-12c0-6.7-3.7-10.9-11.5-10.9c-1.9,0-3.3,0.2-4.3,0.4V642z"/>
	<path id="XMLID_46_" class="st1" d="M2079.2,634.6c0,7.5-5.2,10.8-10.1,10.8c-5.5,0-9.7-4-9.7-10.5c0-6.8,4.5-10.8,10.1-10.8
		C2075.3,624.1,2079.2,628.4,2079.2,634.6z M2063.1,634.8c0,4.5,2.6,7.8,6.2,7.8c3.5,0,6.2-3.3,6.2-7.9c0-3.4-1.7-7.8-6.1-7.8
		C2065,626.9,2063.1,631,2063.1,634.8z"/>
	<path id="XMLID_49_" class="st1" d="M2085.5,624.6l2.7,10.3c0.6,2.3,1.1,4.4,1.5,6.5h0.1c0.5-2.1,1.1-4.2,1.8-6.4l3.3-10.4h3.1
		l3.2,10.2c0.8,2.4,1.3,4.6,1.8,6.6h0.1c0.3-2.1,0.9-4.2,1.6-6.6l2.9-10.2h3.7l-6.6,20.3h-3.4l-3.1-9.7c-0.7-2.3-1.3-4.3-1.8-6.7
		h-0.1c-0.5,2.4-1.1,4.5-1.8,6.7l-3.3,9.7h-3.4l-6.1-20.3H2085.5z"/>
	<path id="XMLID_51_" class="st1" d="M2115.3,630.1c0-2.1,0-3.8-0.2-5.5h3.3l0.2,3.4h0.1c1-1.9,3.4-3.8,6.7-3.8
		c2.8,0,7.2,1.7,7.2,8.7v12.1h-3.7v-11.7c0-3.3-1.2-6-4.7-6c-2.4,0-4.3,1.7-5,3.8c-0.2,0.5-0.3,1.1-0.3,1.7v12.2h-3.7V630.1z"/>
	<path id="XMLID_53_" class="st1" d="M2143.4,618.8v5.8h5.3v2.8h-5.3v11c0,2.5,0.7,3.9,2.8,3.9c1,0,1.7-0.1,2.1-0.3l0.2,2.8
		c-0.7,0.3-1.8,0.5-3.3,0.5c-1.7,0-3.1-0.5-4-1.6c-1-1.1-1.4-2.9-1.4-5.3v-11.1h-3.2v-2.8h3.2v-4.9L2143.4,618.8z"/>
	<path id="XMLID_55_" class="st1" d="M2171.4,634.6c0,7.5-5.2,10.8-10.1,10.8c-5.5,0-9.7-4-9.7-10.5c0-6.8,4.5-10.8,10.1-10.8
		C2167.4,624.1,2171.4,628.4,2171.4,634.6z M2155.2,634.8c0,4.5,2.6,7.8,6.2,7.8c3.5,0,6.2-3.3,6.2-7.9c0-3.4-1.7-7.8-6.1-7.8
		C2157.1,626.9,2155.2,631,2155.2,634.8z"/>
	<path id="XMLID_58_" class="st1" d="M2176.5,630.1c0-2.1,0-3.8-0.2-5.5h3.3l0.2,3.4h0.1c1-1.9,3.4-3.8,6.7-3.8
		c2.8,0,7.2,1.7,7.2,8.7v12.1h-3.7v-11.7c0-3.3-1.2-6-4.7-6c-2.4,0-4.3,1.7-5,3.8c-0.2,0.5-0.3,1.1-0.3,1.7v12.2h-3.7V630.1z"/>
	<path id="XMLID_60_" class="st1" d="M2214.2,636l-2.9,8.9h-3.8l9.6-28.3h4.4l9.7,28.3h-3.9l-3-8.9H2214.2z M2223.5,633.2l-2.8-8.1
		c-0.6-1.8-1-3.5-1.5-5.2h-0.1c-0.4,1.7-0.9,3.4-1.4,5.1l-2.8,8.2H2223.5z"/>
	<path id="XMLID_63_" class="st1" d="M2235.3,644.9c0.1-1.4,0.2-3.4,0.2-5.3v-24.6h3.7v12.8h0.1c1.3-2.3,3.7-3.7,6.9-3.7
		c5,0,8.6,4.2,8.6,10.4c0,7.3-4.6,10.9-9.1,10.9c-2.9,0-5.3-1.1-6.8-3.8h-0.1l-0.2,3.4H2235.3z M2239.2,636.8c0,0.5,0.1,0.9,0.2,1.3
		c0.7,2.6,2.9,4.3,5.5,4.3c3.9,0,6.2-3.2,6.2-7.8c0-4.1-2.1-7.6-6-7.6c-2.5,0-4.9,1.7-5.6,4.5c-0.1,0.4-0.2,0.9-0.2,1.5V636.8z"/>
	<path id="XMLID_66_" class="st1" d="M2259.7,644.9c0.1-1.4,0.2-3.4,0.2-5.3v-24.6h3.7v12.8h0.1c1.3-2.3,3.7-3.7,6.9-3.7
		c5,0,8.6,4.2,8.6,10.4c0,7.3-4.6,10.9-9.1,10.9c-2.9,0-5.3-1.1-6.8-3.8h-0.1l-0.2,3.4H2259.7z M2263.5,636.8c0,0.5,0.1,0.9,0.2,1.3
		c0.7,2.6,2.9,4.3,5.5,4.3c3.9,0,6.2-3.2,6.2-7.8c0-4.1-2.1-7.6-6-7.6c-2.5,0-4.9,1.7-5.6,4.5c-0.1,0.4-0.2,0.9-0.2,1.5V636.8z"/>
	<path id="XMLID_69_" class="st1" d="M2286.2,635.4c0.1,5,3.3,7.1,7,7.1c2.6,0,4.2-0.5,5.6-1l0.6,2.6c-1.3,0.6-3.5,1.3-6.8,1.3
		c-6.3,0-10-4.1-10-10.3c0-6.1,3.6-11,9.5-11c6.6,0,8.4,5.8,8.4,9.6c0,0.8-0.1,1.3-0.1,1.7H2286.2z M2297,632.8c0-2.4-1-6-5.1-6
		c-3.7,0-5.4,3.4-5.7,6H2297z"/>
	<path id="XMLID_72_" class="st1" d="M2306.9,624.6l4.5,12c0.5,1.3,1,2.9,1.3,4.2h0.1c0.4-1.2,0.8-2.8,1.3-4.2l4-11.9h3.9l-5.5,14.5
		c-2.6,7-4.5,10.5-7,12.7c-1.8,1.6-3.6,2.2-4.5,2.4l-0.9-3.1c0.9-0.3,2.1-0.9,3.2-1.8c1-0.8,2.3-2.2,3.1-4.1
		c0.2-0.4,0.3-0.7,0.3-0.9s-0.1-0.5-0.3-1l-7.5-18.7H2306.9z"/>
</g>
<g id="XMLID_3_">
</g>
<g id="XMLID_2_">
</g>
</svg>
