<?xml version="1.0" encoding="utf-8"?>
<!-- Generator: Adobe Illustrator 19.0.0, SVG Export Plug-In . SVG Version: 6.00 Build 0)  -->
<svg version="1.1" id="Layer_1" xmlns="http://www.w3.org/2000/svg" xmlns:xlink="http://www.w3.org/1999/xlink" x="0px" y="0px"
	 viewBox="0 0 2480 750" style="enable-background:new 0 0 2480 750;" xml:space="preserve">
<style type="text/css">
	.st0{fill:#2A2D30;}
	.st1{fill:#0D8D8A;}
	.st2{fill:#009999;}
</style>
<g id="XMLID_16_">
</g>
<g id="XMLID_15_">
</g>
<g id="XMLID_13_">
</g>
<g id="XMLID_12_">
</g>
<g id="XMLID_10_">
</g>
<g id="XMLID_7_">
	<path id="XMLID_291_" class="st0" d="M1020.7,100.3h-5.2V59.7h24.1v4.7h-18.9v13.5h17.6v4.7h-17.6V100.3z"/>
	<path id="XMLID_293_" class="st0" d="M1068.1,79.6v20.6h-4.3l-0.3-2.2c-2.7,1.9-5.9,2.8-9.6,2.8c-5.2,0-7.9-2.8-7.9-8.5
		c0-3,0.7-5.1,2.2-6.4c1.5-1.3,3.8-1.9,6.9-1.9h7.9v-4.6c0-1.9-0.5-3.2-1.4-3.9c-1-0.7-2.6-1.1-5-1.1c-2.8,0-5.8,0.3-8.9,1l-0.5-4.1
		c3.3-0.9,6.5-1.3,9.7-1.3c4.1,0,7,0.8,8.7,2.3C1067.2,73.9,1068.1,76.3,1068.1,79.6z M1062.9,94.1v-5.8h-7.6
		c-1.6,0-2.7,0.3-3.3,0.9c-0.6,0.6-1,1.6-1,3.1c0,1.6,0.3,2.7,0.8,3.3c0.5,0.6,1.7,0.9,3.4,0.9C1057.9,96.5,1060.4,95.7,1062.9,94.1
		z"/>
	<path id="XMLID_296_" class="st0" d="M1118.6,100.3h-5.1V77.6c0-1.8-1-2.7-2.9-2.7c-1.2,0-2.8,0.3-4.7,0.9
		c-1.9,0.6-3.6,1.3-5.3,2.1v22.4h-5.1V77.6c0-1.8-1-2.7-2.9-2.7c-1.1,0-2.6,0.3-4.6,0.9c-2,0.6-3.7,1.3-5.3,2.1v22.4h-5.1V70.6h4.1
		l0.5,2.6c4.4-2.1,8.4-3.2,11.9-3.2c2.9,0,4.8,1.1,5.7,3.2c4.4-2.1,8.5-3.2,12.2-3.2c4.3,0,6.5,2.5,6.5,7.6V100.3z"/>
	<path id="XMLID_298_" class="st0" d="M1151.2,89.7c0,3.3-1,6-3,8.1c-2,2.1-5,3.1-9.1,3.1c-4.1,0-7.1-1-9.1-3.1c-2-2-3-4.7-3-8.1
		v-8.6c0-3.3,1-6,3-8.1c2-2,5-3.1,9.1-3.1c4.1,0,7.1,1,9.1,3.1c2,2.1,3,4.7,3,8.1V89.7z M1146.1,81c0-4.3-2.3-6.5-6.9-6.5
		s-6.9,2.2-6.9,6.5v9c0,4.3,2.3,6.5,6.9,6.5s6.9-2.2,6.9-6.5V81z"/>
	<path id="XMLID_301_" class="st0" d="M1159.8,70.6h5.1v22.7c0,1.8,1,2.7,2.9,2.7c1.1,0,2.6-0.3,4.6-0.9c2-0.6,3.7-1.3,5.3-2.1V70.6
		h5.1v29.7h-4.1l-0.5-2.6c-4.4,2.1-8.4,3.2-11.9,3.2c-4.3,0-6.5-2.5-6.5-7.6V70.6z"/>
	<path id="XMLID_303_" class="st0" d="M1211.6,92.3c0,3.1-0.7,5.3-2.1,6.6c-1.4,1.3-4.1,2-8.1,2c-3.5,0-6.7-0.5-9.4-1.6l0.7-4
		c2.8,0.8,5.7,1.2,8.5,1.2c2.3,0,3.8-0.3,4.4-0.8c0.7-0.5,1-1.6,1-3.2c0-1.6-0.3-2.7-0.9-3.2s-2.4-1.1-5.3-1.8
		c-3.6-0.9-5.8-1.9-6.7-3c-0.9-1.1-1.3-3.3-1.3-6.5c0-2.8,0.8-4.8,2.3-6.1c1.5-1.3,4.2-1.9,8-1.9c3.1,0,5.9,0.3,8.4,1l-0.4,4.2
		c-2.9-0.6-5.7-0.9-8.2-0.9c-2.1,0-3.4,0.3-4,0.8c-0.6,0.5-0.9,1.5-0.9,2.9c0,1.7,0.2,2.9,0.7,3.4c0.5,0.5,1.9,1.1,4.3,1.7
		c2.2,0.6,3.9,1.1,5.1,1.5c1.1,0.4,2,1,2.7,1.7s1.1,1.5,1.2,2.3C1211.5,89.5,1211.6,90.7,1211.6,92.3z"/>
	<path id="XMLID_305_" class="st0" d="M1234.5,59.7h14.2c8.7,0,13,3.9,13,11.6v17.3c0,7.8-4.3,11.6-13,11.6h-14.2V59.7z
		 M1239.7,64.4v31.2h8.8c3,0,5-0.6,6.2-1.8c1.2-1.2,1.8-3,1.8-5.5V71.7c0-2.5-0.6-4.3-1.8-5.5c-1.2-1.2-3.2-1.8-6.2-1.8H1239.7z"/>
	<path id="XMLID_308_" class="st0" d="M1284.1,70l0.7,4.7c-2.4,1.2-5.3,2.9-8.5,5.1v20.5h-5.1V70.6h4.4l0.3,4.1
		C1278.4,72.8,1281.1,71.2,1284.1,70z"/>
	<path id="XMLID_310_" class="st0" d="M1294.3,89.9c0,2.4,0.5,4.1,1.4,5.1s2.8,1.5,5.6,1.5c2.7,0,5.8-0.5,9.4-1.4l0.7,4.1
		c-3.1,1.1-6.6,1.7-10.5,1.7c-4.2,0-7.2-0.9-9-2.8c-1.8-1.9-2.7-4.6-2.7-8.1v-8.9c0-7.4,3.9-11.1,11.6-11.1
		c7.4,0,11.1,3.7,11.1,11.2v6.2h-17.7V89.9z M1294.3,80.7v2.4h12.7v-2.4c0-2.2-0.5-3.8-1.4-4.9c-0.9-1.1-2.5-1.6-4.8-1.6
		c-2.3,0-4,0.5-5,1.6C1294.8,77,1294.3,78.6,1294.3,80.7z"/>
	<path id="XMLID_313_" class="st0" d="M1341.5,79.6v20.6h-4.3l-0.3-2.2c-2.7,1.9-5.9,2.8-9.6,2.8c-5.2,0-7.9-2.8-7.9-8.5
		c0-3,0.7-5.1,2.2-6.4c1.5-1.3,3.8-1.9,6.9-1.9h7.9v-4.6c0-1.9-0.5-3.2-1.4-3.9c-1-0.7-2.6-1.1-5-1.1c-2.8,0-5.8,0.3-8.9,1l-0.5-4.1
		c3.3-0.9,6.5-1.3,9.7-1.3c4.1,0,7,0.8,8.7,2.3C1340.6,73.9,1341.5,76.3,1341.5,79.6z M1336.4,94.1v-5.8h-7.6
		c-1.6,0-2.7,0.3-3.3,0.9c-0.6,0.6-1,1.6-1,3.1c0,1.6,0.3,2.7,0.8,3.3c0.5,0.6,1.7,0.9,3.4,0.9C1331.3,96.5,1333.8,95.7,1336.4,94.1
		z"/>
	<path id="XMLID_316_" class="st0" d="M1392,100.3h-5.1V77.6c0-1.8-1-2.7-2.9-2.7c-1.2,0-2.8,0.3-4.7,0.9c-1.9,0.6-3.6,1.3-5.3,2.1
		v22.4h-5.1V77.6c0-1.8-1-2.7-2.9-2.7c-1.1,0-2.6,0.3-4.6,0.9c-2,0.6-3.7,1.3-5.3,2.1v22.4h-5.1V70.6h4.1l0.5,2.6
		c4.4-2.1,8.4-3.2,11.9-3.2c2.9,0,4.8,1.1,5.7,3.2c4.4-2.1,8.5-3.2,12.2-3.2c4.3,0,6.5,2.5,6.5,7.6V100.3z"/>
	<path id="XMLID_318_" class="st0" d="M1405.7,89.9c0,2.4,0.5,4.1,1.4,5.1s2.8,1.5,5.6,1.5c2.7,0,5.8-0.5,9.4-1.4l0.7,4.1
		c-3.1,1.1-6.6,1.7-10.5,1.7c-4.2,0-7.2-0.9-9-2.8c-1.8-1.9-2.7-4.6-2.7-8.1v-8.9c0-7.4,3.9-11.1,11.6-11.1
		c7.4,0,11.1,3.7,11.1,11.2v6.2h-17.7V89.9z M1405.7,80.7v2.4h12.7v-2.4c0-2.2-0.5-3.8-1.4-4.9c-0.9-1.1-2.5-1.6-4.8-1.6
		c-2.3,0-4,0.5-5,1.6C1406.2,77,1405.7,78.6,1405.7,80.7z"/>
	<path id="XMLID_321_" class="st0" d="M1444.9,70l0.7,4.7c-2.4,1.2-5.3,2.9-8.5,5.1v20.5h-5.1V70.6h4.4l0.3,4.1
		C1439.2,72.8,1441.9,71.2,1444.9,70z"/>
	<path id="XMLID_323_" class="st0" d="M1469.8,92.3c0,3.1-0.7,5.3-2.1,6.6c-1.4,1.3-4.1,2-8.1,2c-3.5,0-6.7-0.5-9.4-1.6l0.7-4
		c2.8,0.8,5.7,1.2,8.5,1.2c2.3,0,3.8-0.3,4.4-0.8c0.7-0.5,1-1.6,1-3.2c0-1.6-0.3-2.7-0.9-3.2c-0.6-0.5-2.4-1.1-5.3-1.8
		c-3.6-0.9-5.8-1.9-6.7-3c-0.9-1.1-1.3-3.3-1.3-6.5c0-2.8,0.8-4.8,2.3-6.1c1.5-1.3,4.2-1.9,8-1.9c3.1,0,5.9,0.3,8.4,1l-0.4,4.2
		c-2.9-0.6-5.7-0.9-8.2-0.9c-2.1,0-3.4,0.3-4,0.8c-0.6,0.5-0.9,1.5-0.9,2.9c0,1.7,0.2,2.9,0.7,3.4c0.5,0.5,1.9,1.1,4.3,1.7
		c2.2,0.6,3.9,1.1,5.1,1.5c1.1,0.4,2,1,2.7,1.7s1.1,1.5,1.2,2.3C1469.7,89.5,1469.8,90.7,1469.8,92.3z"/>
</g>
<g id="XMLID_6_">
	<path id="XMLID_209_" class="st1" d="M194,568.3l9.5,28h-3.7l-2.3-6.7h-11.9l-2.3,6.7h-3.7l9.5-28H194z M196.6,586.4l-5-15.5
		l-5,15.5H196.6z"/>
	<path id="XMLID_212_" class="st1" d="M212,596.3h-3.5v-28.8l3.5-0.5V596.3z"/>
	<path id="XMLID_214_" class="st1" d="M235.1,581.8v7.3c0,2.5-0.6,4.5-1.9,5.7c-1.2,1.3-3.5,1.9-6.8,1.9c-2.6,0-5-0.3-7.3-0.8v-28.4
		l3.5-0.5v9.9c1.8-1,3.9-1.4,6.5-1.4C233.1,575.4,235.1,577.5,235.1,581.8z M222.6,580.1v13.2c1.3,0.2,2.6,0.3,4,0.3
		c1.9,0,3.2-0.4,3.9-1.1c0.7-0.7,1-1.8,1-3.3v-7.5c0-1.1-0.3-1.9-0.8-2.4c-0.5-0.5-1.4-0.8-2.5-0.8
		C226.6,578.5,224.7,579,222.6,580.1z"/>
	<path id="XMLID_217_" class="st1" d="M243.8,589.1c0,1.7,0.3,2.9,1,3.5c0.7,0.7,2,1,3.9,1c1.9,0,4-0.3,6.5-1l0.5,2.8
		c-2.1,0.8-4.5,1.2-7.2,1.2c-2.9,0-5-0.6-6.2-1.9c-1.3-1.3-1.9-3.2-1.9-5.6v-6.1c0-5.1,2.7-7.6,8-7.6c5.1,0,7.7,2.6,7.7,7.7v4.3
		h-12.2V589.1z M243.8,582.8v1.7h8.8v-1.7c0-1.5-0.3-2.6-0.9-3.4c-0.6-0.7-1.7-1.1-3.3-1.1s-2.7,0.4-3.4,1.1
		C244.1,580.2,243.8,581.3,243.8,582.8z"/>
	<path id="XMLID_220_" class="st1" d="M270.8,575.4l0.5,3.2c-1.7,0.8-3.6,2-5.8,3.5v14.1h-3.5v-20.5h3.1l0.2,2.9
		C266.9,577.3,268.8,576.2,270.8,575.4z"/>
	<path id="XMLID_222_" class="st1" d="M285.8,593.2l0.5,2.7c-1.4,0.5-2.8,0.8-4.3,0.8c-1.8,0-3.1-0.4-3.9-1.1
		c-0.8-0.7-1.2-1.9-1.2-3.6v-13.3h-3.6v-2.9h3.6v-5l3.5-0.5v5.5h5.8l-0.3,2.9h-5.5v12.7c0,0.8,0.1,1.4,0.4,1.8s0.8,0.5,1.7,0.5
		C283.4,593.7,284.5,593.6,285.8,593.2z"/>
	<path id="XMLID_224_" class="st1" d="M301.2,596.3v-28h16.5v3.2h-12.9v8.8h11.9v3.2h-11.9v9.5h12.9v3.2H301.2z"/>
	<path id="XMLID_226_" class="st1" d="M327.6,572.6h-3.5v-5.1h3.5V572.6z M327.6,596.3h-3.5v-20.5h3.5V596.3z"/>
	<path id="XMLID_229_" class="st1" d="M350.6,596.3h-3.5v-15.6c0-1.3-0.7-1.9-2-1.9c-0.8,0-1.8,0.2-3.2,0.6
		c-1.4,0.4-2.6,0.9-3.7,1.4v15.5h-3.5v-20.5h2.9l0.3,1.8c3-1.5,5.8-2.2,8.2-2.2c3,0,4.5,1.7,4.5,5.2V596.3z"/>
	<path id="XMLID_231_" class="st1" d="M370.3,590.8c0,2.1-0.5,3.6-1.4,4.6c-1,0.9-2.8,1.4-5.6,1.4c-2.4,0-4.6-0.4-6.5-1.1l0.5-2.8
		c2,0.6,3.9,0.8,5.8,0.8c1.6,0,2.6-0.2,3.1-0.5c0.5-0.4,0.7-1.1,0.7-2.2c0-1.1-0.2-1.8-0.6-2.2c-0.4-0.3-1.6-0.8-3.7-1.3
		c-2.5-0.6-4-1.3-4.6-2.1c-0.6-0.8-0.9-2.3-0.9-4.5c0-1.9,0.5-3.3,1.6-4.2c1-0.9,2.9-1.3,5.5-1.3c2.1,0,4.1,0.2,5.8,0.7l-0.3,2.9
		c-2-0.4-3.9-0.6-5.7-0.6c-1.4,0-2.4,0.2-2.8,0.5c-0.4,0.4-0.7,1-0.7,2c0,1.2,0.2,2,0.5,2.4c0.3,0.4,1.3,0.8,3,1.2
		c1.5,0.4,2.7,0.7,3.5,1c0.8,0.3,1.4,0.7,1.9,1.2s0.7,1,0.8,1.6C370.2,588.8,370.3,589.7,370.3,590.8z"/>
	<path id="XMLID_233_" class="st1" d="M386.6,593.2l0.5,2.7c-1.4,0.5-2.8,0.8-4.3,0.8c-1.8,0-3.1-0.4-3.9-1.1
		c-0.8-0.7-1.2-1.9-1.2-3.6v-13.3h-3.6v-2.9h3.6v-5l3.5-0.5v5.5h5.8l-0.3,2.9h-5.5v12.7c0,0.8,0.1,1.4,0.4,1.8s0.8,0.5,1.7,0.5
		C384.2,593.7,385.3,593.6,386.6,593.2z"/>
	<path id="XMLID_235_" class="st1" d="M394.8,589.1c0,1.7,0.3,2.9,1,3.5c0.7,0.7,2,1,3.9,1c1.9,0,4-0.3,6.5-1l0.5,2.8
		c-2.1,0.8-4.5,1.2-7.2,1.2c-2.9,0-5-0.6-6.2-1.9c-1.3-1.3-1.9-3.2-1.9-5.6v-6.1c0-5.1,2.7-7.6,8-7.6c5.1,0,7.7,2.6,7.7,7.7v4.3
		h-12.2V589.1z M394.8,582.8v1.7h8.8v-1.7c0-1.5-0.3-2.6-0.9-3.4c-0.6-0.7-1.7-1.1-3.3-1.1s-2.7,0.4-3.4,1.1
		C395.2,580.2,394.8,581.3,394.8,582.8z"/>
	<path id="XMLID_238_" class="st1" d="M416.5,572.6H413v-5.1h3.5V572.6z M416.5,596.3H413v-20.5h3.5V596.3z"/>
	<path id="XMLID_241_" class="st1" d="M439.5,596.3H436v-15.6c0-1.3-0.7-1.9-2-1.9c-0.8,0-1.8,0.2-3.2,0.6c-1.4,0.4-2.6,0.9-3.7,1.4
		v15.5h-3.5v-20.5h2.9l0.3,1.8c3-1.5,5.8-2.2,8.2-2.2c3,0,4.5,1.7,4.5,5.2V596.3z"/>
	<path id="XMLID_243_" class="st1" d="M137.9,615.7h-8.6v-3.1h21v3.1h-8.7v25.2h-3.7V615.7z"/>
	<path id="XMLID_245_" class="st1" d="M153.4,611.1h3.7v12.7h0.1c0.6-1.1,1.5-2,2.6-2.6c1.1-0.6,2.4-1.1,3.8-1.1
		c2.7,0,7.1,1.7,7.1,8.7v12.1h-3.7v-11.7c0-3.3-1.2-6-4.7-6c-2.4,0-4.3,1.7-5,3.7c-0.2,0.5-0.3,1-0.3,1.8v12.3h-3.7V611.1z"/>
	<path id="XMLID_247_" class="st1" d="M179.2,631.4c0.1,5,3.3,7.1,7,7.1c2.6,0,4.2-0.5,5.6-1l0.6,2.6c-1.3,0.6-3.5,1.3-6.8,1.3
		c-6.3,0-10-4.1-10-10.3c0-6.1,3.6-11,9.5-11c6.6,0,8.4,5.8,8.4,9.6c0,0.8-0.1,1.3-0.1,1.7H179.2z M190.1,628.8c0-2.4-1-6-5.1-6
		c-3.7,0-5.4,3.4-5.7,6H190.1z"/>
	<path id="XMLID_250_" class="st1" d="M217,630.6c0,7.5-5.2,10.8-10.1,10.8c-5.5,0-9.7-4-9.7-10.5c0-6.8,4.5-10.8,10.1-10.8
		C213.1,620.1,217,624.4,217,630.6z M200.9,630.8c0,4.5,2.6,7.8,6.2,7.8c3.5,0,6.2-3.3,6.2-7.9c0-3.4-1.7-7.8-6.1-7.8
		C202.8,622.9,200.9,627,200.9,630.8z"/>
	<path id="XMLID_253_" class="st1" d="M222.1,627c0-2.4,0-4.5-0.2-6.3h3.2l0.1,4h0.2c0.9-2.7,3.2-4.5,5.6-4.5c0.4,0,0.7,0,1.1,0.1
		v3.5c-0.4-0.1-0.8-0.1-1.3-0.1c-2.6,0-4.5,2-5,4.7c-0.1,0.5-0.2,1.1-0.2,1.7v10.8h-3.7V627z"/>
	<path id="XMLID_255_" class="st1" d="M237.9,631.4c0.1,5,3.3,7.1,7,7.1c2.6,0,4.2-0.5,5.6-1l0.6,2.6c-1.3,0.6-3.5,1.3-6.8,1.3
		c-6.3,0-10-4.1-10-10.3c0-6.1,3.6-11,9.5-11c6.6,0,8.4,5.8,8.4,9.6c0,0.8-0.1,1.3-0.1,1.7H237.9z M248.7,628.8c0-2.4-1-6-5.1-6
		c-3.7,0-5.4,3.4-5.7,6H248.7z"/>
	<path id="XMLID_258_" class="st1" d="M261.8,614.8v5.8h5.3v2.8h-5.3v11c0,2.5,0.7,3.9,2.8,3.9c1,0,1.7-0.1,2.1-0.3l0.2,2.8
		c-0.7,0.3-1.8,0.5-3.3,0.5c-1.7,0-3.1-0.5-4-1.6c-1.1-1.1-1.4-2.9-1.4-5.3v-11.1H255v-2.8h3.2v-4.9L261.8,614.8z"/>
	<path id="XMLID_260_" class="st1" d="M275.7,614.9c0,1.3-0.9,2.3-2.4,2.3c-1.3,0-2.2-1-2.2-2.3c0-1.3,1-2.3,2.3-2.3
		C274.9,612.6,275.7,613.6,275.7,614.9z M271.6,640.9v-20.3h3.7v20.3H271.6z"/>
	<path id="XMLID_263_" class="st1" d="M296.4,640.2c-1,0.5-3.1,1.2-5.8,1.2c-6.1,0-10.1-4.2-10.1-10.4c0-6.3,4.3-10.8,10.9-10.8
		c2.2,0,4.1,0.5,5.1,1.1l-0.8,2.9c-0.9-0.5-2.3-1-4.3-1c-4.7,0-7.2,3.4-7.2,7.7c0,4.7,3,7.6,7.1,7.6c2.1,0,3.5-0.5,4.5-1
		L296.4,640.2z"/>
	<path id="XMLID_265_" class="st1" d="M312.4,640.9l-0.3-2.6H312c-1.1,1.6-3.3,3-6.2,3c-4.1,0-6.2-2.9-6.2-5.8
		c0-4.9,4.4-7.6,12.2-7.6v-0.4c0-1.7-0.5-4.7-4.6-4.7c-1.9,0-3.9,0.6-5.3,1.5L301,622c1.7-1.1,4.1-1.8,6.7-1.8
		c6.2,0,7.7,4.2,7.7,8.3v7.6c0,1.8,0.1,3.5,0.3,4.9H312.4z M311.8,630.6c-4-0.1-8.6,0.6-8.6,4.6c0,2.4,1.6,3.5,3.5,3.5
		c2.6,0,4.3-1.7,4.9-3.4c0.1-0.4,0.2-0.8,0.2-1.2V630.6z"/>
	<path id="XMLID_268_" class="st1" d="M321.8,611.1h3.7v29.8h-3.7V611.1z"/>
	<path id="XMLID_270_" class="st1" d="M341.6,613c1.8-0.3,4.1-0.5,7-0.5c3.6,0,6.3,0.8,7.9,2.4c1.6,1.3,2.5,3.4,2.5,5.9
		c0,2.6-0.8,4.6-2.2,6c-1.9,2.1-5.1,3.1-8.7,3.1c-1.1,0-2.1,0-2.9-0.3v11.3h-3.7V613z M345.2,626.6c0.8,0.2,1.8,0.3,3,0.3
		c4.4,0,7.1-2.1,7.1-6c0-3.7-2.6-5.5-6.7-5.5c-1.6,0-2.8,0.1-3.4,0.3V626.6z"/>
	<path id="XMLID_273_" class="st1" d="M364,611.1h3.7v12.7h0.1c0.6-1.1,1.5-2,2.6-2.6c1.1-0.6,2.4-1.1,3.8-1.1
		c2.7,0,7.1,1.7,7.1,8.7v12.1h-3.7v-11.7c0-3.3-1.2-6-4.7-6c-2.4,0-4.3,1.7-5,3.7c-0.2,0.5-0.3,1-0.3,1.8v12.3H364V611.1z"/>
	<path id="XMLID_275_" class="st1" d="M388.5,620.6l4.5,12c0.5,1.3,1,2.9,1.3,4.2h0.1c0.4-1.2,0.8-2.8,1.3-4.2l4-11.9h3.9l-5.5,14.5
		c-2.6,7-4.5,10.5-7,12.7c-1.8,1.6-3.6,2.2-4.5,2.4l-0.9-3.1c0.9-0.3,2.1-0.9,3.2-1.8c1-0.8,2.3-2.2,3.1-4.1
		c0.2-0.4,0.3-0.7,0.3-0.9s-0.1-0.5-0.3-1l-7.5-18.7H388.5z"/>
	<path id="XMLID_277_" class="st1" d="M406.6,637.2c1.1,0.7,3,1.5,4.9,1.5c2.7,0,3.9-1.3,3.9-3c0-1.8-1-2.7-3.8-3.7
		c-3.7-1.3-5.4-3.3-5.4-5.8c0-3.3,2.6-6,7-6c2.1,0,3.9,0.6,5,1.3l-0.9,2.7c-0.8-0.5-2.3-1.2-4.2-1.2c-2.2,0-3.4,1.3-3.4,2.8
		c0,1.7,1.2,2.4,3.9,3.4c3.5,1.3,5.3,3.1,5.3,6.1c0,3.6-2.8,6.1-7.6,6.1c-2.2,0-4.3-0.5-5.7-1.4L406.6,637.2z"/>
	<path id="XMLID_279_" class="st1" d="M428.3,614.9c0,1.3-0.9,2.3-2.4,2.3c-1.3,0-2.2-1-2.2-2.3c0-1.3,1-2.3,2.3-2.3
		C427.4,612.6,428.3,613.6,428.3,614.9z M424.2,640.9v-20.3h3.7v20.3H424.2z"/>
	<path id="XMLID_282_" class="st1" d="M448.9,640.2c-1,0.5-3.1,1.2-5.8,1.2c-6.1,0-10.1-4.2-10.1-10.4c0-6.3,4.3-10.8,10.9-10.8
		c2.2,0,4.1,0.5,5.1,1.1l-0.8,2.9c-0.9-0.5-2.3-1-4.3-1c-4.7,0-7.2,3.4-7.2,7.7c0,4.7,3,7.6,7.1,7.6c2.1,0,3.5-0.5,4.5-1
		L448.9,640.2z"/>
	<path id="XMLID_284_" class="st1" d="M457.8,614.9c0,1.3-0.9,2.3-2.4,2.3c-1.3,0-2.2-1-2.2-2.3c0-1.3,1-2.3,2.3-2.3
		C456.9,612.6,457.8,613.6,457.8,614.9z M453.7,640.9v-20.3h3.7v20.3H453.7z"/>
	<path id="XMLID_287_" class="st1" d="M463.4,637.2c1.1,0.7,3,1.5,4.9,1.5c2.7,0,3.9-1.3,3.9-3c0-1.8-1-2.7-3.8-3.7
		c-3.7-1.3-5.4-3.3-5.4-5.8c0-3.3,2.6-6,7-6c2.1,0,3.9,0.6,5,1.3l-0.9,2.7c-0.8-0.5-2.3-1.2-4.2-1.2c-2.2,0-3.4,1.3-3.4,2.8
		c0,1.7,1.2,2.4,3.9,3.4c3.5,1.3,5.3,3.1,5.3,6.1c0,3.6-2.8,6.1-7.6,6.1c-2.2,0-4.3-0.5-5.7-1.4L463.4,637.2z"/>
	<path id="XMLID_289_" class="st1" d="M485.4,614.8v5.8h5.3v2.8h-5.3v11c0,2.5,0.7,3.9,2.8,3.9c1,0,1.7-0.1,2.1-0.3l0.2,2.8
		c-0.7,0.3-1.8,0.5-3.3,0.5c-1.7,0-3.1-0.5-4-1.6c-1.1-1.1-1.4-2.9-1.4-5.3v-11.1h-3.2v-2.8h3.2v-4.9L485.4,614.8z"/>
</g>
<g id="XMLID_5_">
	<path id="XMLID_162_" class="st1" d="M648.3,596.3v-28h10.1c2.9,0,5,0.6,6.2,1.8c1.3,1.2,1.9,2.9,1.9,5.1v4.2c0,2.3-0.6,4-1.9,5.2
		c-1.3,1.2-3.3,1.8-6.2,1.8H652v10H648.3z M663,575.2c0-1.4-0.3-2.3-1-2.9c-0.7-0.5-1.9-0.8-3.6-0.8H652v11.5h6.4
		c1.7,0,2.9-0.3,3.6-0.8c0.7-0.5,1-1.5,1-2.9V575.2z"/>
	<path id="XMLID_165_" class="st1" d="M687.8,596.3h-3.5v-15.6c0-1.3-0.7-1.9-2-1.9c-0.8,0-1.8,0.2-3.2,0.6
		c-1.4,0.4-2.6,0.9-3.7,1.5v15.4h-3.5v-28.8l3.5-0.5v10.6c3-1.4,5.6-2.1,7.9-2.1c3,0,4.5,1.7,4.5,5.2V596.3z"/>
	<path id="XMLID_167_" class="st1" d="M710.3,589c0,2.3-0.7,4.2-2,5.6c-1.4,1.4-3.5,2.1-6.3,2.1c-2.8,0-4.9-0.7-6.3-2.1
		c-1.4-1.4-2-3.3-2-5.6v-5.9c0-2.3,0.7-4.2,2-5.6c1.4-1.4,3.5-2.1,6.3-2.1c2.8,0,4.9,0.7,6.3,2.1c1.4,1.4,2,3.3,2,5.6V589z
		 M706.8,583c0-3-1.6-4.5-4.8-4.5s-4.8,1.5-4.8,4.5v6.2c0,3,1.6,4.5,4.8,4.5s4.8-1.5,4.8-4.5V583z"/>
	<path id="XMLID_170_" class="st1" d="M718.9,589.1c0,1.7,0.3,2.9,1,3.5c0.7,0.7,2,1,3.9,1c1.9,0,4-0.3,6.5-1l0.5,2.8
		c-2.1,0.8-4.5,1.2-7.2,1.2c-2.9,0-5-0.6-6.2-1.9c-1.3-1.3-1.9-3.2-1.9-5.6v-6.1c0-5.1,2.7-7.6,8-7.6c5.1,0,7.7,2.6,7.7,7.7v4.3
		h-12.2V589.1z M718.9,582.8v1.7h8.8v-1.7c0-1.5-0.3-2.6-0.9-3.4c-0.6-0.7-1.7-1.1-3.3-1.1s-2.7,0.4-3.4,1.1
		C719.2,580.2,718.9,581.3,718.9,582.8z"/>
	<path id="XMLID_173_" class="st1" d="M753,581.8v7.3c0,2.5-0.6,4.5-1.9,5.7c-1.2,1.3-3.5,1.9-6.8,1.9c-2.6,0-5-0.3-7.3-0.8v-28.4
		l3.5-0.5v9.9c1.8-1,3.9-1.4,6.5-1.4C751,575.4,753,577.5,753,581.8z M740.6,580.1v13.2c1.3,0.2,2.6,0.3,4,0.3
		c1.9,0,3.2-0.4,3.9-1.1c0.7-0.7,1-1.8,1-3.3v-7.5c0-1.1-0.3-1.9-0.8-2.4c-0.5-0.5-1.4-0.8-2.5-0.8
		C744.6,578.5,742.7,579,740.6,580.1z"/>
	<path id="XMLID_176_" class="st1" d="M761.7,589.1c0,1.7,0.3,2.9,1,3.5c0.7,0.7,2,1,3.9,1c1.9,0,4-0.3,6.5-1l0.5,2.8
		c-2.1,0.8-4.5,1.2-7.2,1.2c-2.9,0-5-0.6-6.2-1.9c-1.3-1.3-1.9-3.2-1.9-5.6v-6.1c0-5.1,2.7-7.6,8-7.6c5.1,0,7.7,2.6,7.7,7.7v4.3
		h-12.2V589.1z M761.7,582.8v1.7h8.8v-1.7c0-1.5-0.3-2.6-0.9-3.4c-0.6-0.7-1.7-1.1-3.3-1.1s-2.7,0.4-3.4,1.1
		C762.1,580.2,761.7,581.3,761.7,582.8z"/>
	<path id="XMLID_179_" class="st2" d="M800.9,596.3h-11.4v-28h10.8c4.4,0,6.6,1.9,6.6,5.7v3.2c0,2.3-1.1,3.9-3.2,4.7
		c1.3,0.2,2.3,0.8,3,1.6c0.7,0.9,1.1,2,1.1,3.4v3.4c0,1.9-0.6,3.4-1.9,4.5C804.7,595.8,803.1,596.3,800.9,596.3z M803.3,577.2v-3.1
		c0-1.8-1.1-2.6-3.2-2.6h-7v9.1h6.4C802.1,580.5,803.3,579.4,803.3,577.2z M804.2,590V587c0-2.3-1.3-3.4-4-3.4h-7.1v9.6h7.3
		C803,593.2,804.2,592.1,804.2,590z"/>
	<path id="XMLID_183_" class="st2" d="M813.5,575.8h3.5v15.6c0,1.3,0.7,1.9,2,1.9c0.8,0,1.8-0.2,3.2-0.6c1.4-0.4,2.6-0.9,3.7-1.4
		v-15.5h3.5v20.5h-2.9l-0.3-1.8c-3,1.5-5.8,2.2-8.2,2.2c-3,0-4.5-1.7-4.5-5.2V575.8z"/>
	<path id="XMLID_185_" class="st2" d="M862.4,567.2l-0.3,2.7c-1.3-0.3-2.5-0.4-3.4-0.4c-1.1,0-1.8,0.2-2.2,0.6
		c-0.4,0.4-0.6,1.1-0.6,2.2v3.4h5.8l-0.3,2.9H856v17.6h-3.5v-17.6h-10.9v17.6h-3.5v-17.6h-3.6v-2.9h3.6V572c0-3.6,1.9-5.4,5.8-5.4
		c1.7,0,3.2,0.2,4.6,0.6l-0.3,2.7c-1.5-0.3-2.7-0.4-3.9-0.4c-1.1,0-1.8,0.2-2.2,0.6c-0.4,0.4-0.6,1.1-0.6,2.2v3.4h10.9V572
		c0-3.6,1.9-5.4,5.8-5.4C859.7,566.6,861.1,566.8,862.4,567.2z"/>
	<path id="XMLID_187_" class="st2" d="M880.2,582v14.2h-3l-0.2-1.5c-1.8,1.3-4.1,1.9-6.6,1.9c-3.6,0-5.4-2-5.4-5.9
		c0-2.1,0.5-3.5,1.5-4.4c1-0.9,2.6-1.3,4.7-1.3h5.5v-3.2c0-1.3-0.3-2.2-1-2.7c-0.7-0.5-1.8-0.8-3.5-0.8c-2,0-4,0.2-6.1,0.7l-0.4-2.8
		c2.3-0.6,4.5-0.9,6.7-0.9c2.8,0,4.8,0.5,6,1.6C879.6,578.1,880.2,579.8,880.2,582z M876.6,592v-4h-5.2c-1.1,0-1.9,0.2-2.3,0.6
		c-0.4,0.4-0.7,1.1-0.7,2.1c0,1.1,0.2,1.9,0.5,2.3c0.4,0.4,1.1,0.6,2.4,0.6C873.1,593.7,874.9,593.1,876.6,592z"/>
	<path id="XMLID_190_" class="st2" d="M889,604.6l2.9-8.3h-1.5l-6.6-20.5h3.5l5.6,17.6l5.7-17.6h3.5l-6.8,20.5l-2.9,8.3H889z"/>
	<path id="XMLID_192_" class="st1" d="M711.6,612.6h15.2v3.1h-11.6v9.4h10.7v3h-10.7v12.8h-3.7V612.6z"/>
	<path id="XMLID_194_" class="st1" d="M731.2,627c0-2.4,0-4.5-0.2-6.3h3.2l0.1,4h0.2c0.9-2.7,3.2-4.5,5.6-4.5c0.4,0,0.7,0,1.1,0.1
		v3.5c-0.4-0.1-0.8-0.1-1.3-0.1c-2.6,0-4.5,2-5,4.7c-0.1,0.5-0.2,1.1-0.2,1.7v10.8h-3.7V627z"/>
	<path id="XMLID_196_" class="st1" d="M749.7,614.9c0,1.3-0.9,2.3-2.4,2.3c-1.3,0-2.2-1-2.2-2.3c0-1.3,1-2.3,2.3-2.3
		C748.8,612.6,749.7,613.6,749.7,614.9z M745.5,640.9v-20.3h3.7v20.3H745.5z"/>
	<path id="XMLID_199_" class="st1" d="M757.9,631.4c0.1,5,3.3,7.1,7,7.1c2.6,0,4.2-0.5,5.6-1l0.6,2.6c-1.3,0.6-3.5,1.3-6.8,1.3
		c-6.3,0-10-4.1-10-10.3c0-6.1,3.6-11,9.5-11c6.6,0,8.4,5.8,8.4,9.6c0,0.8-0.1,1.3-0.1,1.7H757.9z M768.7,628.8c0-2.4-1-6-5.1-6
		c-3.7,0-5.4,3.4-5.7,6H768.7z"/>
	<path id="XMLID_202_" class="st1" d="M777.3,626.1c0-2.1,0-3.8-0.2-5.5h3.3l0.2,3.4h0.1c1-1.9,3.4-3.8,6.7-3.8
		c2.8,0,7.2,1.7,7.2,8.7v12.1h-3.7v-11.7c0-3.3-1.2-6-4.7-6c-2.4,0-4.3,1.7-5,3.8c-0.2,0.5-0.3,1.1-0.3,1.7v12.2h-3.7V626.1z"/>
	<path id="XMLID_204_" class="st1" d="M818.5,611.1v24.6c0,1.8,0,3.9,0.2,5.3h-3.3l-0.2-3.5h-0.1c-1.1,2.3-3.6,4-6.9,4
		c-4.9,0-8.7-4.2-8.7-10.3c0-6.8,4.2-10.9,9.1-10.9c3.1,0,5.2,1.5,6.1,3.1h0.1v-12.1H818.5z M814.9,628.9c0-0.5,0-1.1-0.2-1.6
		c-0.5-2.4-2.6-4.3-5.3-4.3c-3.8,0-6.1,3.4-6.1,7.9c0,4.1,2,7.5,6,7.5c2.5,0,4.7-1.6,5.4-4.4c0.1-0.5,0.2-1,0.2-1.6V628.9z"/>
	<path id="XMLID_207_" class="st1" d="M824.6,637.2c1.1,0.7,3,1.5,4.9,1.5c2.7,0,3.9-1.3,3.9-3c0-1.8-1-2.7-3.8-3.7
		c-3.7-1.3-5.4-3.3-5.4-5.8c0-3.3,2.6-6,7-6c2.1,0,3.9,0.6,5,1.3l-0.9,2.7c-0.8-0.5-2.3-1.2-4.2-1.2c-2.2,0-3.4,1.3-3.4,2.8
		c0,1.7,1.2,2.4,3.9,3.4c3.5,1.3,5.3,3.1,5.3,6.1c0,3.6-2.8,6.1-7.6,6.1c-2.2,0-4.3-0.5-5.7-1.4L824.6,637.2z"/>
</g>
<g id="XMLID_4_">
	<path id="XMLID_120_" class="st1" d="M1125.9,568.3h3.6v28.1c0,1.6-0.3,2.8-0.8,3.5c-0.5,0.8-2,2.3-4.5,4.6l-2.3-2.6
		c1.9-1.8,3.1-3,3.4-3.5c0.4-0.5,0.5-1.2,0.5-2.2V568.3z"/>
	<path id="XMLID_122_" class="st1" d="M1152.4,589c0,2.3-0.7,4.2-2,5.6c-1.4,1.4-3.5,2.1-6.3,2.1c-2.8,0-4.9-0.7-6.3-2.1
		c-1.4-1.4-2-3.3-2-5.6v-5.9c0-2.3,0.7-4.2,2-5.6c1.4-1.4,3.5-2.1,6.3-2.1c2.8,0,4.9,0.7,6.3,2.1c1.4,1.4,2,3.3,2,5.6V589z
		 M1148.9,583c0-3-1.6-4.5-4.8-4.5s-4.8,1.5-4.8,4.5v6.2c0,3,1.6,4.5,4.8,4.5s4.8-1.5,4.8-4.5V583z"/>
	<path id="XMLID_125_" class="st1" d="M1174.4,596.3h-3.5v-15.6c0-1.3-0.7-1.9-2-1.9c-0.8,0-1.8,0.2-3.2,0.6
		c-1.4,0.4-2.6,0.9-3.7,1.5v15.4h-3.5v-28.8l3.5-0.5v10.6c3-1.4,5.6-2.1,7.9-2.1c3,0,4.5,1.7,4.5,5.2V596.3z"/>
	<path id="XMLID_127_" class="st1" d="M1197.2,596.3h-3.5v-15.6c0-1.3-0.7-1.9-2-1.9c-0.8,0-1.8,0.2-3.2,0.6
		c-1.4,0.4-2.6,0.9-3.7,1.4v15.5h-3.5v-20.5h2.9l0.3,1.8c3-1.5,5.8-2.2,8.2-2.2c3,0,4.5,1.7,4.5,5.2V596.3z"/>
	<path id="XMLID_129_" class="st1" d="M1217.4,568.3V593h12.1v3.2h-15.8v-28H1217.4z"/>
	<path id="XMLID_131_" class="st1" d="M1237.3,589.1c0,1.7,0.3,2.9,1,3.5c0.7,0.7,2,1,3.9,1c1.9,0,4-0.3,6.5-1l0.5,2.8
		c-2.1,0.8-4.5,1.2-7.2,1.2c-2.9,0-5-0.6-6.2-1.9s-1.9-3.2-1.9-5.6v-6.1c0-5.1,2.7-7.6,8-7.6c5.1,0,7.7,2.6,7.7,7.7v4.3h-12.2V589.1
		z M1237.3,582.8v1.7h8.8v-1.7c0-1.5-0.3-2.6-0.9-3.4c-0.6-0.7-1.7-1.1-3.3-1.1s-2.7,0.4-3.4,1.1
		C1237.6,580.2,1237.3,581.3,1237.3,582.8z"/>
	<path id="XMLID_134_" class="st1" d="M1271.3,596.3h-3.5v-15.6c0-1.3-0.7-1.9-2-1.9c-0.8,0-1.8,0.2-3.2,0.6
		c-1.4,0.4-2.6,0.9-3.7,1.4v15.5h-3.5v-20.5h2.9l0.3,1.8c3-1.5,5.8-2.2,8.2-2.2c3,0,4.5,1.7,4.5,5.2V596.3z"/>
	<path id="XMLID_136_" class="st1" d="M1294.1,596.3h-3.5v-15.6c0-1.3-0.7-1.9-2-1.9c-0.8,0-1.8,0.2-3.2,0.6
		c-1.4,0.4-2.6,0.9-3.7,1.4v15.5h-3.5v-20.5h2.9l0.3,1.8c3-1.5,5.8-2.2,8.2-2.2c3,0,4.5,1.7,4.5,5.2V596.3z"/>
	<path id="XMLID_138_" class="st1" d="M1316.6,589c0,2.3-0.7,4.2-2,5.6c-1.4,1.4-3.5,2.1-6.3,2.1s-4.9-0.7-6.3-2.1
		c-1.4-1.4-2-3.3-2-5.6v-5.9c0-2.3,0.7-4.2,2-5.6s3.5-2.1,6.3-2.1s4.9,0.7,6.3,2.1c1.4,1.4,2,3.3,2,5.6V589z M1313.1,583
		c0-3-1.6-4.5-4.8-4.5s-4.8,1.5-4.8,4.5v6.2c0,3,1.6,4.5,4.8,4.5s4.8-1.5,4.8-4.5V583z"/>
	<path id="XMLID_141_" class="st1" d="M1338.6,596.3h-3.5v-15.6c0-1.3-0.7-1.9-2-1.9c-0.8,0-1.8,0.2-3.2,0.6
		c-1.4,0.4-2.6,0.9-3.7,1.4v15.5h-3.5v-20.5h2.9l0.3,1.8c3-1.5,5.8-2.2,8.2-2.2c3,0,4.5,1.7,4.5,5.2V596.3z"/>
	<path id="XMLID_143_" class="st1" d="M1179.7,628.5c-0.2-3.9-0.5-8.7-0.4-12.2h-0.1c-1,3.3-2.1,6.8-3.6,10.8l-5,13.7h-2.8
		l-4.6-13.5c-1.3-4-2.5-7.6-3.3-11h-0.1c-0.1,3.5-0.3,8.3-0.5,12.5l-0.8,12.1h-3.5l2-28.3h4.7l4.8,13.7c1.2,3.5,2.1,6.6,2.9,9.5h0.1
		c0.7-2.9,1.7-6,3-9.5l5-13.7h4.7l1.8,28.3h-3.6L1179.7,628.5z"/>
	<path id="XMLID_145_" class="st1" d="M1207.1,635.4c0,2.1,0,3.9,0.2,5.5h-3.3l-0.2-3.3h-0.1c-1,1.6-3.1,3.8-6.7,3.8
		c-3.2,0-7-1.8-7-8.9v-11.9h3.7v11.3c0,3.9,1.2,6.5,4.5,6.5c2.5,0,4.2-1.7,4.9-3.4c0.2-0.5,0.3-1.2,0.3-1.9v-12.5h3.7V635.4z"/>
	<path id="XMLID_147_" class="st1" d="M1213.1,637.2c1.1,0.7,3,1.5,4.9,1.5c2.7,0,3.9-1.3,3.9-3c0-1.8-1-2.7-3.8-3.7
		c-3.7-1.3-5.4-3.3-5.4-5.8c0-3.3,2.6-6,7-6c2.1,0,3.9,0.6,5,1.3l-0.9,2.7c-0.8-0.5-2.3-1.2-4.2-1.2c-2.2,0-3.4,1.3-3.4,2.8
		c0,1.7,1.2,2.4,3.9,3.4c3.5,1.3,5.3,3.1,5.3,6.1c0,3.6-2.8,6.1-7.6,6.1c-2.2,0-4.3-0.5-5.7-1.4L1213.1,637.2z"/>
	<path id="XMLID_149_" class="st1" d="M1234.8,614.9c0,1.3-0.9,2.3-2.4,2.3c-1.3,0-2.2-1-2.2-2.3c0-1.3,1-2.3,2.3-2.3
		C1233.9,612.6,1234.8,613.6,1234.8,614.9z M1230.7,640.9v-20.3h3.7v20.3H1230.7z"/>
	<path id="XMLID_152_" class="st1" d="M1255.4,640.2c-1,0.5-3.1,1.2-5.8,1.2c-6.1,0-10.1-4.2-10.1-10.4c0-6.3,4.3-10.8,10.9-10.8
		c2.2,0,4.1,0.5,5.1,1.1l-0.8,2.9c-0.9-0.5-2.3-1-4.3-1c-4.7,0-7.2,3.4-7.2,7.7c0,4.7,3,7.6,7.1,7.6c2.1,0,3.5-0.5,4.5-1
		L1255.4,640.2z"/>
	<path id="XMLID_154_" class="st1" d="M1264.3,614.9c0,1.3-0.9,2.3-2.4,2.3c-1.3,0-2.2-1-2.2-2.3c0-1.3,1-2.3,2.3-2.3
		C1263.4,612.6,1264.3,613.6,1264.3,614.9z M1260.2,640.9v-20.3h3.7v20.3H1260.2z"/>
	<path id="XMLID_157_" class="st1" d="M1281.7,640.9l-0.3-2.6h-0.1c-1.1,1.6-3.3,3-6.2,3c-4.1,0-6.2-2.9-6.2-5.8
		c0-4.9,4.4-7.6,12.2-7.6v-0.4c0-1.7-0.5-4.7-4.6-4.7c-1.9,0-3.9,0.6-5.3,1.5l-0.8-2.4c1.7-1.1,4.1-1.8,6.7-1.8
		c6.2,0,7.7,4.2,7.7,8.3v7.6c0,1.8,0.1,3.5,0.3,4.9H1281.7z M1281.1,630.6c-4-0.1-8.6,0.6-8.6,4.6c0,2.4,1.6,3.5,3.5,3.5
		c2.6,0,4.3-1.7,4.9-3.4c0.1-0.4,0.2-0.8,0.2-1.2V630.6z"/>
	<path id="XMLID_160_" class="st1" d="M1291.1,626.1c0-2.1,0-3.8-0.2-5.5h3.3l0.2,3.4h0.1c1-1.9,3.4-3.8,6.7-3.8
		c2.8,0,7.2,1.7,7.2,8.7v12.1h-3.7v-11.7c0-3.3-1.2-6-4.7-6c-2.4,0-4.3,1.7-5,3.8c-0.2,0.5-0.3,1.1-0.3,1.7v12.2h-3.7V626.1z"/>
</g>
<g id="XMLID_3_">
	<path id="XMLID_63_" class="st1" d="M1582.2,568.3V593h12.1v3.2h-15.8v-28H1582.2z"/>
	<path id="XMLID_65_" class="st1" d="M1599.4,575.8h3.5v15.6c0,1.3,0.7,1.9,2,1.9c0.8,0,1.8-0.2,3.2-0.6c1.4-0.4,2.6-0.9,3.7-1.4
		v-15.5h3.5v20.5h-2.9l-0.3-1.8c-3,1.5-5.8,2.2-8.2,2.2c-3,0-4.5-1.7-4.5-5.2V575.8z"/>
	<path id="XMLID_67_" class="st1" d="M1638.3,596.3h-3.5v-15.6c0-1.3-0.7-1.9-2-1.9c-0.8,0-1.8,0.2-3.2,0.6
		c-1.4,0.4-2.6,0.9-3.7,1.4v15.5h-3.5v-20.5h2.9l0.3,1.8c3-1.5,5.8-2.2,8.2-2.2c3,0,4.5,1.7,4.5,5.2V596.3z"/>
	<path id="XMLID_69_" class="st1" d="M1659.7,582v14.2h-3l-0.2-1.5c-1.8,1.3-4.1,1.9-6.6,1.9c-3.6,0-5.4-2-5.4-5.9
		c0-2.1,0.5-3.5,1.5-4.4c1-0.9,2.6-1.3,4.7-1.3h5.5v-3.2c0-1.3-0.3-2.2-1-2.7c-0.7-0.5-1.8-0.8-3.5-0.8c-2,0-4,0.2-6.1,0.7l-0.4-2.8
		c2.3-0.6,4.5-0.9,6.7-0.9c2.8,0,4.8,0.5,6,1.6S1659.7,579.8,1659.7,582z M1656.2,592v-4h-5.2c-1.1,0-1.9,0.2-2.3,0.6
		c-0.4,0.4-0.7,1.1-0.7,2.1c0,1.1,0.2,1.9,0.5,2.3s1.1,0.6,2.4,0.6C1652.7,593.7,1654.5,593.1,1656.2,592z"/>
	<path id="XMLID_72_" class="st1" d="M1679.6,568.3V593h12.1v3.2H1676v-28H1679.6z"/>
	<path id="XMLID_74_" class="st1" d="M1712.5,589c0,2.3-0.7,4.2-2,5.6c-1.4,1.4-3.5,2.1-6.3,2.1s-4.9-0.7-6.3-2.1
		c-1.4-1.4-2-3.3-2-5.6v-5.9c0-2.3,0.7-4.2,2-5.6s3.5-2.1,6.3-2.1s4.9,0.7,6.3,2.1c1.4,1.4,2,3.3,2,5.6V589z M1709,583
		c0-3-1.6-4.5-4.8-4.5s-4.8,1.5-4.8,4.5v6.2c0,3,1.6,4.5,4.8,4.5s4.8-1.5,4.8-4.5V583z"/>
	<path id="XMLID_77_" class="st1" d="M1724.5,593.4l5.6-17.6h3.5l-6.8,20.5h-4.7l-6.8-20.5h3.5L1724.5,593.4z"/>
	<path id="XMLID_79_" class="st1" d="M1740.2,589.1c0,1.7,0.3,2.9,1,3.5c0.7,0.7,2,1,3.9,1c1.9,0,4-0.3,6.5-1l0.5,2.8
		c-2.1,0.8-4.5,1.2-7.2,1.2c-2.9,0-5-0.6-6.2-1.9s-1.9-3.2-1.9-5.6v-6.1c0-5.1,2.7-7.6,8-7.6c5.1,0,7.7,2.6,7.7,7.7v4.3h-12.2V589.1
		z M1740.2,582.8v1.7h8.8v-1.7c0-1.5-0.3-2.6-0.9-3.4c-0.6-0.7-1.7-1.1-3.3-1.1s-2.7,0.4-3.4,1.1
		C1740.5,580.2,1740.2,581.3,1740.2,582.8z"/>
	<path id="XMLID_82_" class="st1" d="M1774.2,575.8v2.1l-2.4,0.5c0.7,1,1.1,2.3,1.1,4.1v0.9c0,2.2-0.7,4-2,5.2
		c-1.4,1.2-3.4,1.8-6,1.8c-0.8,0-1.5,0-2.1-0.1c-1,0.8-1.5,1.5-1.5,2.2c0,0.7,0.4,1.1,1.3,1.2l5.8,0.6c1.8,0.2,3.2,0.7,3.9,1.4
		s1.2,1.9,1.2,3.5c0,2.3-0.6,3.9-1.8,4.7c-1.2,0.8-3.6,1.2-7.2,1.2c-2.6,0-5.1-0.3-7.4-1l0.5-2.8c2.4,0.6,4.7,0.8,6.8,0.8
		c2.5,0,4.1-0.2,4.7-0.6c0.7-0.4,1-1.1,1-2.3c0-0.8-0.2-1.4-0.6-1.7c-0.4-0.3-1.2-0.5-2.4-0.6c-0.4,0-1.1-0.1-2.3-0.2
		c-1.2-0.1-2.2-0.2-3.1-0.3c-2.7-0.2-4-1.5-4-3.7c0-1.4,0.6-2.6,1.9-3.6c-1.9-1.1-2.9-3-2.9-5.8v-0.9c0-2.3,0.6-4.1,1.9-5.3
		c1.2-1.2,3.3-1.8,6.1-1.8c1.4,0,2.5,0.1,3.4,0.4H1774.2z M1769.5,582.5c0-1.5-0.4-2.5-1.1-3.2c-0.7-0.6-1.9-1-3.6-1
		c-1.7,0-2.9,0.3-3.6,0.9s-1,1.7-1,3.2v0.9c0,1.5,0.3,2.6,1,3.2s1.9,0.9,3.6,0.9c1.7,0,2.8-0.3,3.6-1c0.7-0.7,1.1-1.7,1.1-3.1V582.5
		z"/>
	<path id="XMLID_85_" class="st1" d="M1794.9,589c0,2.3-0.7,4.2-2,5.6c-1.4,1.4-3.5,2.1-6.3,2.1s-4.9-0.7-6.3-2.1
		c-1.4-1.4-2-3.3-2-5.6v-5.9c0-2.3,0.7-4.2,2-5.6s3.5-2.1,6.3-2.1s4.9,0.7,6.3,2.1c1.4,1.4,2,3.3,2,5.6V589z M1791.4,583
		c0-3-1.6-4.5-4.8-4.5s-4.8,1.5-4.8,4.5v6.2c0,3,1.6,4.5,4.8,4.5s4.8-1.5,4.8-4.5V583z"/>
	<path id="XMLID_88_" class="st1" d="M1816.6,589c0,2.3-0.7,4.2-2,5.6c-1.4,1.4-3.5,2.1-6.3,2.1s-4.9-0.7-6.3-2.1
		c-1.4-1.4-2-3.3-2-5.6v-5.9c0-2.3,0.7-4.2,2-5.6s3.5-2.1,6.3-2.1s4.9,0.7,6.3,2.1c1.4,1.4,2,3.3,2,5.6V589z M1813.1,583
		c0-3-1.6-4.5-4.8-4.5s-4.8,1.5-4.8,4.5v6.2c0,3,1.6,4.5,4.8,4.5s4.8-1.5,4.8-4.5V583z"/>
	<path id="XMLID_91_" class="st1" d="M1821.9,590.4v-8.4c0-4.5,2.2-6.7,6.6-6.7c1.8,0,3.8,0.2,5.8,0.6v-8.6l3.5-0.5v29.3h-3
		l-0.3-1.8c-1.9,1.5-4.1,2.3-6.8,2.3C1823.9,596.7,1821.9,594.6,1821.9,590.4z M1834.4,591.2v-12c-2.1-0.4-4-0.6-5.6-0.6
		c-1.2,0-2,0.3-2.5,0.9c-0.5,0.6-0.8,1.5-0.8,2.7v8.4c0,1.1,0.2,1.9,0.7,2.4s1.3,0.8,2.5,0.8
		C1830.6,593.6,1832.6,592.8,1834.4,591.2z"/>
	<path id="XMLID_94_" class="st1" d="M1606.9,612.6v11.8h13.7v-11.8h3.7v28.3h-3.7v-13.3h-13.7v13.3h-3.7v-28.3H1606.9z"/>
	<path id="XMLID_96_" class="st1" d="M1642.2,640.9l-0.3-2.6h-0.1c-1.1,1.6-3.3,3-6.2,3c-4.1,0-6.2-2.9-6.2-5.8
		c0-4.9,4.4-7.6,12.2-7.6v-0.4c0-1.7-0.5-4.7-4.6-4.7c-1.9,0-3.9,0.6-5.3,1.5l-0.8-2.4c1.7-1.1,4.1-1.8,6.7-1.8
		c6.2,0,7.7,4.2,7.7,8.3v7.6c0,1.8,0.1,3.5,0.3,4.9H1642.2z M1641.6,630.6c-4-0.1-8.6,0.6-8.6,4.6c0,2.4,1.6,3.5,3.5,3.5
		c2.6,0,4.3-1.7,4.9-3.4c0.1-0.4,0.2-0.8,0.2-1.2V630.6z"/>
	<path id="XMLID_99_" class="st1" d="M1651.6,627c0-2.4,0-4.5-0.2-6.3h3.2l0.1,4h0.2c0.9-2.7,3.2-4.5,5.6-4.5c0.4,0,0.7,0,1.1,0.1
		v3.5c-0.4-0.1-0.8-0.1-1.3-0.1c-2.6,0-4.5,2-5,4.7c-0.1,0.5-0.2,1.1-0.2,1.7v10.8h-3.7V627z"/>
	<path id="XMLID_101_" class="st1" d="M1665.9,627c0-2.4,0-4.5-0.2-6.3h3.2l0.1,4h0.2c0.9-2.7,3.2-4.5,5.6-4.5c0.4,0,0.7,0,1.1,0.1
		v3.5c-0.4-0.1-0.8-0.1-1.3-0.1c-2.6,0-4.5,2-5,4.7c-0.1,0.5-0.2,1.1-0.2,1.7v10.8h-3.7V627z"/>
	<path id="XMLID_103_" class="st1" d="M1682.4,620.6l4.5,12c0.5,1.3,1,2.9,1.3,4.2h0.1c0.4-1.2,0.8-2.8,1.3-4.2l4-11.9h3.9
		l-5.5,14.5c-2.6,7-4.5,10.5-7,12.7c-1.8,1.6-3.6,2.2-4.5,2.4l-0.9-3.1c0.9-0.3,2.1-0.9,3.2-1.8c1-0.8,2.3-2.2,3.1-4.1
		c0.2-0.4,0.3-0.7,0.3-0.9s-0.1-0.5-0.3-1l-7.5-18.7H1682.4z"/>
	<path id="XMLID_105_" class="st1" d="M1710.7,613c1.8-0.3,4.1-0.5,7-0.5c3.6,0,6.3,0.8,7.9,2.4c1.6,1.3,2.5,3.4,2.5,5.9
		c0,2.6-0.8,4.6-2.2,6c-1.9,2.1-5.1,3.1-8.7,3.1c-1.1,0-2.1,0-2.9-0.3v11.3h-3.7V613z M1714.4,626.6c0.8,0.2,1.8,0.3,3,0.3
		c4.4,0,7.1-2.1,7.1-6c0-3.7-2.6-5.5-6.7-5.5c-1.6,0-2.8,0.1-3.4,0.3V626.6z"/>
	<path id="XMLID_108_" class="st1" d="M1750.7,630.6c0,7.5-5.2,10.8-10.1,10.8c-5.5,0-9.7-4-9.7-10.5c0-6.8,4.5-10.8,10.1-10.8
		C1746.8,620.1,1750.7,624.4,1750.7,630.6z M1734.6,630.8c0,4.5,2.6,7.8,6.2,7.8c3.5,0,6.2-3.3,6.2-7.9c0-3.4-1.7-7.8-6.1-7.8
		C1736.5,622.9,1734.6,627,1734.6,630.8z"/>
	<path id="XMLID_111_" class="st1" d="M1760.3,614.8v5.8h5.3v2.8h-5.3v11c0,2.5,0.7,3.9,2.8,3.9c1,0,1.7-0.1,2.1-0.3l0.2,2.8
		c-0.7,0.3-1.8,0.5-3.3,0.5c-1.7,0-3.1-0.5-4-1.6c-1-1.1-1.4-2.9-1.4-5.3v-11.1h-3.2v-2.8h3.2v-4.9L1760.3,614.8z"/>
	<path id="XMLID_113_" class="st1" d="M1774.6,614.8v5.8h5.3v2.8h-5.3v11c0,2.5,0.7,3.9,2.8,3.9c1,0,1.7-0.1,2.1-0.3l0.2,2.8
		c-0.7,0.3-1.8,0.5-3.3,0.5c-1.7,0-3.1-0.5-4-1.6c-1-1.1-1.4-2.9-1.4-5.3v-11.1h-3.2v-2.8h3.2v-4.9L1774.6,614.8z"/>
	<path id="XMLID_115_" class="st1" d="M1786.3,631.4c0.1,5,3.3,7.1,7,7.1c2.6,0,4.2-0.5,5.6-1l0.6,2.6c-1.3,0.6-3.5,1.3-6.8,1.3
		c-6.3,0-10-4.1-10-10.3c0-6.1,3.6-11,9.5-11c6.6,0,8.4,5.8,8.4,9.6c0,0.8-0.1,1.3-0.1,1.7H1786.3z M1797.1,628.8c0-2.4-1-6-5.1-6
		c-3.7,0-5.4,3.4-5.7,6H1797.1z"/>
	<path id="XMLID_118_" class="st1" d="M1805.7,627c0-2.4,0-4.5-0.2-6.3h3.2l0.1,4h0.2c0.9-2.7,3.2-4.5,5.6-4.5c0.4,0,0.7,0,1.1,0.1
		v3.5c-0.4-0.1-0.8-0.1-1.3-0.1c-2.6,0-4.5,2-5,4.7c-0.1,0.5-0.2,1.1-0.2,1.7v10.8h-3.7V627z"/>
</g>
<g id="XMLID_2_">
	<path id="XMLID_8_" class="st1" d="M2062.7,596.3h-3.6v-28h16.6v3.2h-13v9.3h12.1v3.2h-12.1V596.3z"/>
	<path id="XMLID_11_" class="st1" d="M2096.6,589c0,2.3-0.7,4.2-2,5.6c-1.4,1.4-3.5,2.1-6.3,2.1s-4.9-0.7-6.3-2.1
		c-1.4-1.4-2-3.3-2-5.6v-5.9c0-2.3,0.7-4.2,2-5.6s3.5-2.1,6.3-2.1s4.9,0.7,6.3,2.1c1.4,1.4,2,3.3,2,5.6V589z M2093,583
		c0-3-1.6-4.5-4.8-4.5s-4.8,1.5-4.8,4.5v6.2c0,3,1.6,4.5,4.8,4.5s4.8-1.5,4.8-4.5V583z"/>
	<path id="XMLID_18_" class="st1" d="M2111.6,575.4l0.5,3.2c-1.7,0.8-3.6,2-5.8,3.5v14.1h-3.5v-20.5h3.1l0.2,2.9
		C2107.6,577.3,2109.5,576.2,2111.6,575.4z"/>
	<path id="XMLID_20_" class="st1" d="M2124.9,575.4l0.5,3.2c-1.7,0.8-3.6,2-5.8,3.5v14.1h-3.5v-20.5h3.1l0.2,2.9
		C2121,577.3,2122.9,576.2,2124.9,575.4z"/>
	<path id="XMLID_22_" class="st1" d="M2132,589.1c0,1.7,0.3,2.9,1,3.5c0.7,0.7,2,1,3.9,1c1.9,0,4-0.3,6.5-1l0.5,2.8
		c-2.1,0.8-4.5,1.2-7.2,1.2c-2.9,0-5-0.6-6.2-1.9s-1.9-3.2-1.9-5.6v-6.1c0-5.1,2.7-7.6,8-7.6c5.1,0,7.7,2.6,7.7,7.7v4.3H2132V589.1z
		 M2132,582.8v1.7h8.8v-1.7c0-1.5-0.3-2.6-0.9-3.4c-0.6-0.7-1.7-1.1-3.3-1.1s-2.7,0.4-3.4,1.1C2132.3,580.2,2132,581.3,2132,582.8z"
		/>
	<path id="XMLID_25_" class="st1" d="M2162.8,590.8c0,2.1-0.5,3.6-1.4,4.6c-1,0.9-2.8,1.4-5.6,1.4c-2.4,0-4.6-0.4-6.5-1.1l0.5-2.8
		c2,0.6,3.9,0.8,5.8,0.8c1.6,0,2.6-0.2,3.1-0.5c0.5-0.4,0.7-1.1,0.7-2.2c0-1.1-0.2-1.8-0.6-2.2c-0.4-0.3-1.6-0.8-3.7-1.3
		c-2.5-0.6-4-1.3-4.6-2.1c-0.6-0.8-0.9-2.3-0.9-4.5c0-1.9,0.5-3.3,1.6-4.2c1-0.9,2.9-1.3,5.5-1.3c2.1,0,4.1,0.2,5.8,0.7l-0.3,2.9
		c-2-0.4-3.9-0.6-5.7-0.6c-1.4,0-2.4,0.2-2.8,0.5c-0.4,0.4-0.7,1-0.7,2c0,1.2,0.2,2,0.5,2.4s1.3,0.8,3,1.2c1.5,0.4,2.7,0.7,3.5,1
		c0.8,0.3,1.4,0.7,1.9,1.2s0.7,1,0.8,1.6C2162.8,588.8,2162.8,589.7,2162.8,590.8z"/>
	<path id="XMLID_27_" class="st1" d="M2179.2,593.2l0.5,2.7c-1.4,0.5-2.8,0.8-4.3,0.8c-1.8,0-3.1-0.4-3.9-1.1
		c-0.8-0.7-1.2-1.9-1.2-3.6v-13.3h-3.6v-2.9h3.6v-5l3.5-0.5v5.5h5.8l-0.3,2.9h-5.5v12.7c0,0.8,0.1,1.4,0.4,1.8s0.8,0.5,1.7,0.5
		C2176.8,593.7,2177.9,593.6,2179.2,593.2z"/>
	<path id="XMLID_29_" class="st1" d="M2197.5,576.3v11.9c0,1.9,0.4,3.2,1.2,4c0.8,0.8,2.3,1.2,4.6,1.2c1.8,0,3.5-0.2,5.3-0.5v-9.5
		h3.5v12.1c-2.8,0.8-5.7,1.2-8.9,1.2c-3.4,0-5.8-0.7-7.2-2.1c-1.4-1.4-2.1-3.4-2.1-6.2v-12.3c0-2.9,0.8-4.9,2.3-6.3
		c1.5-1.3,4-2,7.5-2c2.6,0,5.2,0.3,7.8,0.9l-0.4,3.1c-2.8-0.5-5.3-0.7-7.5-0.7c-2.3,0-3.8,0.4-4.7,1.2
		C2198,573.1,2197.5,574.4,2197.5,576.3z"/>
	<path id="XMLID_31_" class="st1" d="M2218.8,575.8h3.5v15.6c0,1.3,0.7,1.9,2,1.9c0.8,0,1.8-0.2,3.2-0.6c1.4-0.4,2.6-0.9,3.7-1.4
		v-15.5h3.5v20.5h-2.9l-0.3-1.8c-3,1.5-5.8,2.2-8.2,2.2c-3,0-4.5-1.7-4.5-5.2V575.8z"/>
	<path id="XMLID_33_" class="st1" d="M2270.1,596.3h-3.5v-15.6c0-1.3-0.7-1.9-2-1.9c-0.8,0-1.9,0.2-3.2,0.6
		c-1.3,0.4-2.5,0.9-3.6,1.5v15.5h-3.5v-15.6c0-1.3-0.7-1.9-2-1.9c-0.8,0-1.8,0.2-3.2,0.6c-1.4,0.4-2.6,0.9-3.7,1.4v15.5h-3.5v-20.5
		h2.9l0.3,1.8c3-1.5,5.8-2.2,8.2-2.2c2,0,3.3,0.7,3.9,2.2c3-1.5,5.8-2.2,8.4-2.2c3,0,4.5,1.7,4.5,5.2V596.3z"/>
	<path id="XMLID_35_" class="st1" d="M2293,581.7v8.4c0,4.5-2.2,6.7-6.6,6.7c-1.8,0-3.8-0.2-5.8-0.6v8.5l-3.5,0.5v-29.2h3l0.3,1.8
		c1.9-1.5,4.1-2.3,6.8-2.3C2291,575.4,2293,577.5,2293,581.7z M2280.5,581v12c2.1,0.4,4,0.6,5.6,0.6c1.2,0,2-0.3,2.5-0.9
		s0.8-1.5,0.8-2.7v-8.4c0-1.1-0.2-1.9-0.7-2.4c-0.4-0.5-1.3-0.8-2.5-0.8C2284.3,578.5,2282.3,579.3,2280.5,581z"/>
	<path id="XMLID_38_" class="st1" d="M2056.9,612.6h15.2v3.1h-11.6v9.4h10.7v3h-10.7v12.8h-3.7V612.6z"/>
	<path id="XMLID_40_" class="st1" d="M2094.7,630.6c0,7.5-5.2,10.8-10.1,10.8c-5.5,0-9.7-4-9.7-10.5c0-6.8,4.5-10.8,10.1-10.8
		C2090.8,620.1,2094.7,624.4,2094.7,630.6z M2078.6,630.8c0,4.5,2.6,7.8,6.2,7.8c3.5,0,6.2-3.3,6.2-7.9c0-3.4-1.7-7.8-6.1-7.8
		C2080.5,622.9,2078.6,627,2078.6,630.8z"/>
	<path id="XMLID_43_" class="st1" d="M2099.8,627c0-2.4,0-4.5-0.2-6.3h3.2l0.1,4h0.2c0.9-2.7,3.2-4.5,5.6-4.5c0.4,0,0.7,0,1.1,0.1
		v3.5c-0.4-0.1-0.8-0.1-1.3-0.1c-2.6,0-4.5,2-5,4.7c-0.1,0.5-0.2,1.1-0.2,1.7v10.8h-3.7V627z"/>
	<path id="XMLID_45_" class="st1" d="M2114.1,627c0-2.4,0-4.5-0.2-6.3h3.2l0.1,4h0.2c0.9-2.7,3.2-4.5,5.6-4.5c0.4,0,0.7,0,1.1,0.1
		v3.5c-0.4-0.1-0.8-0.1-1.3-0.1c-2.6,0-4.5,2-5,4.7c-0.1,0.5-0.2,1.1-0.2,1.7v10.8h-3.7V627z"/>
	<path id="XMLID_47_" class="st1" d="M2129.9,631.4c0.1,5,3.3,7.1,7,7.1c2.6,0,4.2-0.5,5.6-1l0.6,2.6c-1.3,0.6-3.5,1.3-6.8,1.3
		c-6.3,0-10-4.1-10-10.3c0-6.1,3.6-11,9.5-11c6.6,0,8.4,5.8,8.4,9.6c0,0.8-0.1,1.3-0.1,1.7H2129.9z M2140.8,628.8c0-2.4-1-6-5.1-6
		c-3.7,0-5.4,3.4-5.7,6H2140.8z"/>
	<path id="XMLID_50_" class="st1" d="M2148.8,637.2c1.1,0.7,3,1.5,4.9,1.5c2.7,0,3.9-1.3,3.9-3c0-1.8-1-2.7-3.8-3.7
		c-3.7-1.3-5.4-3.3-5.4-5.8c0-3.3,2.6-6,7-6c2.1,0,3.9,0.6,5,1.3l-0.9,2.7c-0.8-0.5-2.3-1.2-4.2-1.2c-2.2,0-3.4,1.3-3.4,2.8
		c0,1.7,1.2,2.4,3.9,3.4c3.5,1.3,5.3,3.1,5.3,6.1c0,3.6-2.8,6.1-7.6,6.1c-2.2,0-4.3-0.5-5.7-1.4L2148.8,637.2z"/>
	<path id="XMLID_52_" class="st1" d="M2170.8,614.8v5.8h5.3v2.8h-5.3v11c0,2.5,0.7,3.9,2.8,3.9c1,0,1.7-0.1,2.1-0.3l0.2,2.8
		c-0.7,0.3-1.8,0.5-3.3,0.5c-1.7,0-3.1-0.5-4-1.6c-1-1.1-1.4-2.9-1.4-5.3v-11.1h-3.2v-2.8h3.2v-4.9L2170.8,614.8z"/>
	<path id="XMLID_54_" class="st1" d="M2211.7,639.7c-1.6,0.6-4.9,1.6-8.7,1.6c-4.3,0-7.8-1.1-10.6-3.7c-2.4-2.4-3.9-6.1-3.9-10.5
		c0-8.4,5.8-14.6,15.3-14.6c3.3,0,5.8,0.7,7.1,1.3l-0.9,3c-1.5-0.7-3.4-1.2-6.3-1.2c-6.9,0-11.4,4.3-11.4,11.4
		c0,7.2,4.3,11.4,10.9,11.4c2.4,0,4-0.3,4.9-0.8V629h-5.8v-2.9h9.3V639.7z"/>
	<path id="XMLID_56_" class="st1" d="M2234.6,635.4c0,2.1,0,3.9,0.2,5.5h-3.3l-0.2-3.3h-0.1c-1,1.6-3.1,3.8-6.7,3.8
		c-3.2,0-7-1.8-7-8.9v-11.9h3.7v11.3c0,3.9,1.2,6.5,4.5,6.5c2.5,0,4.2-1.7,4.9-3.4c0.2-0.5,0.3-1.2,0.3-1.9v-12.5h3.7V635.4z"/>
	<path id="XMLID_58_" class="st1" d="M2241.1,626.1c0-2.1,0-3.8-0.2-5.5h3.2l0.2,3.3h0.1c1.1-1.9,3-3.7,6.4-3.7
		c2.8,0,4.9,1.7,5.8,4.1h0.1c0.6-1.1,1.4-2,2.3-2.6c1.2-0.9,2.6-1.4,4.5-1.4c2.7,0,6.7,1.8,6.7,8.8v12h-3.6v-11.5
		c0-3.9-1.4-6.3-4.4-6.3c-2.1,0-3.7,1.6-4.4,3.4c-0.2,0.5-0.3,1.2-0.3,1.8v12.6h-3.6v-12.2c0-3.2-1.4-5.6-4.2-5.6
		c-2.3,0-4,1.8-4.6,3.7c-0.2,0.5-0.3,1.2-0.3,1.8v12.3h-3.6V626.1z"/>
	<path id="XMLID_60_" class="st1" d="M2276.6,627.2c0-2.6-0.1-4.7-0.2-6.6h3.3l0.2,3.5h0.1c1.5-2.5,3.9-3.9,7.2-3.9
		c4.9,0,8.6,4.2,8.6,10.3c0,7.3-4.5,10.9-9.2,10.9c-2.7,0-5-1.2-6.3-3.2h-0.1v11h-3.7V627.2z M2280.2,632.7c0,0.5,0.1,1,0.2,1.5
		c0.7,2.6,2.9,4.3,5.5,4.3c3.9,0,6.2-3.2,6.2-7.9c0-4.1-2.1-7.6-6-7.6c-2.5,0-4.9,1.8-5.6,4.6c-0.1,0.5-0.3,1-0.3,1.5V632.7z"/>
</g>
</svg>
