<?xml version="1.0" encoding="utf-8"?>
<!-- Generator: Adobe Illustrator 19.0.0, SVG Export Plug-In . SVG Version: 6.00 Build 0)  -->
<svg version="1.1" id="Layer_1" xmlns="http://www.w3.org/2000/svg" xmlns:xlink="http://www.w3.org/1999/xlink" x="0px" y="0px"
	 viewBox="0 0 2480 750" style="enable-background:new 0 0 2480 750;" xml:space="preserve">
<style type="text/css">
	.st0{fill:#2A2D30;}
	.st1{fill:#FF6C36;}
</style>
<g id="XMLID_16_">
</g>
<g id="XMLID_15_">
</g>
<g id="XMLID_13_">
</g>
<g id="XMLID_12_">
</g>
<g id="XMLID_10_">
</g>
<g id="XMLID_7_">
	<path id="XMLID_244_" class="st0" d="M982.1,122.8h-5.3V81.5h24.6v4.8h-19.2V100h17.9v4.8h-17.9V122.8z"/>
	<path id="XMLID_246_" class="st0" d="M1030.3,101.8v21h-4.4l-0.3-2.2c-2.7,1.9-6,2.9-9.8,2.9c-5.3,0-8-2.9-8-8.7
		c0-3.1,0.8-5.2,2.3-6.5c1.5-1.3,3.8-2,7-2h8.1v-4.7c0-1.9-0.5-3.2-1.5-4c-1-0.7-2.7-1.1-5.1-1.1c-2.9,0-5.9,0.3-9.1,1l-0.6-4.2
		c3.3-0.9,6.7-1.3,9.9-1.3c4.2,0,7.1,0.8,8.9,2.4C1029.5,95.9,1030.3,98.4,1030.3,101.8z M1025.1,116.5v-5.9h-7.7
		c-1.6,0-2.7,0.3-3.4,0.9c-0.7,0.6-1,1.6-1,3.1c0,1.7,0.3,2.8,0.8,3.4c0.5,0.6,1.7,0.9,3.5,0.9
		C1020,118.9,1022.6,118.1,1025.1,116.5z"/>
	<path id="XMLID_249_" class="st0" d="M1081.8,122.8h-5.2V99.7c0-1.9-1-2.8-2.9-2.8c-1.2,0-2.8,0.3-4.7,0.9
		c-1.9,0.6-3.7,1.3-5.4,2.2v22.8h-5.2V99.7c0-1.9-1-2.8-2.9-2.8c-1.1,0-2.7,0.3-4.7,0.9c-2,0.6-3.8,1.3-5.4,2.1v22.8h-5.2V92.6h4.2
		l0.5,2.6c4.5-2.1,8.5-3.2,12.2-3.2c2.9,0,4.9,1.1,5.8,3.2c4.5-2.1,8.6-3.2,12.5-3.2c4.4,0,6.6,2.6,6.6,7.7V122.8z"/>
	<path id="XMLID_251_" class="st0" d="M1115,112c0,3.4-1,6.1-3,8.2c-2,2.1-5.1,3.1-9.3,3.1c-4.2,0-7.3-1-9.3-3.1c-2-2.1-3-4.8-3-8.2
		v-8.7c0-3.4,1-6.1,3-8.2c2-2.1,5.1-3.1,9.3-3.1c4.2,0,7.3,1,9.3,3.1c2,2.1,3,4.8,3,8.2V112z M1109.8,103.1c0-4.4-2.4-6.6-7.1-6.6
		s-7.1,2.2-7.1,6.6v9.1c0,4.4,2.4,6.6,7.1,6.6s7.1-2.2,7.1-6.6V103.1z"/>
	<path id="XMLID_254_" class="st0" d="M1123.7,92.6h5.2v23.1c0,1.9,1,2.8,2.9,2.8c1.1,0,2.7-0.3,4.7-0.9c2-0.6,3.8-1.3,5.4-2.1V92.6
		h5.2v30.2h-4.2l-0.5-2.6c-4.5,2.1-8.5,3.2-12.2,3.2c-4.4,0-6.6-2.6-6.6-7.7V92.6z"/>
	<path id="XMLID_256_" class="st0" d="M1176.5,114.7c0,3.1-0.7,5.4-2.1,6.7c-1.4,1.3-4.2,2-8.3,2c-3.6,0-6.8-0.5-9.6-1.6l0.7-4.1
		c2.9,0.8,5.8,1.2,8.6,1.2c2.3,0,3.8-0.3,4.5-0.8c0.7-0.5,1.1-1.6,1.1-3.3s-0.3-2.7-0.9-3.2s-2.4-1.1-5.4-1.9
		c-3.6-0.9-5.9-1.9-6.8-3.1c-0.9-1.1-1.4-3.3-1.4-6.6c0-2.9,0.8-4.9,2.3-6.2c1.5-1.3,4.2-1.9,8.1-1.9c3.1,0,6,0.4,8.6,1.1l-0.4,4.3
		c-3-0.6-5.8-0.9-8.4-0.9c-2.1,0-3.5,0.3-4.1,0.8c-0.6,0.5-1,1.5-1,3c0,1.8,0.2,2.9,0.7,3.5c0.5,0.6,2,1.1,4.4,1.7
		c2.3,0.6,4,1.1,5.1,1.5c1.2,0.4,2.1,1,2.8,1.7s1.1,1.5,1.2,2.3C1176.4,111.8,1176.5,113,1176.5,114.7z"/>
	<path id="XMLID_258_" class="st0" d="M1204.2,93.3v17.6c0,2.9,0.7,4.9,2,6c1.3,1.1,3.6,1.6,7,1.6c3.2,0,6.4-0.3,9.7-0.9l0.6,4.6
		c-3.3,0.7-6.7,1.1-10.4,1.1c-4.9,0-8.5-1-10.8-3.1s-3.4-5.1-3.4-9.1V93c0-4,1.1-7,3.4-9.1s5.8-3.1,10.8-3.1c3.7,0,7.2,0.4,10.4,1.1
		l-0.6,4.6c-3.3-0.6-6.5-0.9-9.7-0.9c-3.4,0-5.7,0.5-7,1.6C1204.8,88.4,1204.2,90.4,1204.2,93.3z"/>
	<path id="XMLID_260_" class="st0" d="M1254,112c0,3.4-1,6.1-3,8.2c-2,2.1-5.1,3.1-9.3,3.1s-7.3-1-9.3-3.1c-2-2.1-3-4.8-3-8.2v-8.7
		c0-3.4,1-6.1,3-8.2c2-2.1,5.1-3.1,9.3-3.1s7.3,1,9.3,3.1c2,2.1,3,4.8,3,8.2V112z M1248.8,103.1c0-4.4-2.4-6.6-7.1-6.6
		c-4.7,0-7.1,2.2-7.1,6.6v9.1c0,4.4,2.4,6.6,7.1,6.6c4.7,0,7.1-2.2,7.1-6.6V103.1z"/>
	<path id="XMLID_263_" class="st0" d="M1286.4,122.8h-5.2V99.7c0-1.9-1-2.8-2.9-2.8c-1.1,0-2.7,0.3-4.7,0.9c-2,0.6-3.8,1.3-5.4,2.1
		v22.8h-5.2V92.6h4.2l0.5,2.6c4.5-2.1,8.5-3.2,12.2-3.2c4.4,0,6.6,2.6,6.6,7.7V122.8z"/>
	<path id="XMLID_265_" class="st0" d="M1320.1,122.8h-5.2V99.7c0-1.9-1-2.8-2.9-2.8c-1.1,0-2.7,0.3-4.7,0.9c-2,0.6-3.8,1.3-5.4,2.1
		v22.8h-5.2V92.6h4.2l0.5,2.6c4.5-2.1,8.5-3.2,12.2-3.2c4.4,0,6.6,2.6,6.6,7.7V122.8z"/>
	<path id="XMLID_267_" class="st0" d="M1333.9,112.2c0,2.5,0.5,4.2,1.5,5.2c1,1,2.9,1.5,5.7,1.5c2.8,0,6-0.5,9.5-1.4l0.7,4.2
		c-3.1,1.2-6.7,1.7-10.7,1.7c-4.3,0-7.3-1-9.2-2.9c-1.9-1.9-2.8-4.6-2.8-8.2v-9.1c0-7.5,3.9-11.3,11.8-11.3
		c7.6,0,11.3,3.8,11.3,11.4v6.3h-18V112.2z M1333.9,102.9v2.5h13v-2.5c0-2.2-0.5-3.9-1.4-5c-0.9-1.1-2.6-1.6-4.9-1.6
		c-2.4,0-4.1,0.5-5.1,1.6C1334.5,99,1333.9,100.7,1333.9,102.9z"/>
	<path id="XMLID_270_" class="st0" d="M1370.9,123.4c-4.6,0-7.7-0.9-9.5-2.7c-1.7-1.8-2.6-4.6-2.6-8.3v-9.5c0-3.7,0.9-6.4,2.6-8.2
		c1.8-1.8,4.9-2.7,9.4-2.7c2.9,0,5.2,0.3,7.2,0.9l-0.4,4.3c-2.1-0.5-4.4-0.7-6.6-0.7c-2.6,0-4.4,0.4-5.4,1.3c-1,0.9-1.5,2.5-1.5,4.9
		v9.9c0,2.4,0.5,4,1.5,4.9c1,0.9,2.8,1.3,5.4,1.3c2.3,0,4.5-0.2,6.6-0.7l0.5,4.3C1376.2,123.1,1373.8,123.4,1370.9,123.4z"/>
	<path id="XMLID_272_" class="st0" d="M1401.8,118.2l0.7,4c-2,0.7-4.1,1.1-6.3,1.1c-2.6,0-4.5-0.5-5.7-1.6c-1.2-1.1-1.8-2.8-1.8-5.3
		V96.9h-5.3v-4.3h5.3v-7.4l5.2-0.7v8.2h8.6l-0.4,4.3h-8.1v18.7c0,1.2,0.2,2.1,0.6,2.6c0.4,0.5,1.2,0.7,2.5,0.7
		C1398.2,119,1399.8,118.7,1401.8,118.2z"/>
	<path id="XMLID_274_" class="st0" d="M1433.1,112c0,3.4-1,6.1-3,8.2c-2,2.1-5.1,3.1-9.3,3.1s-7.3-1-9.3-3.1c-2-2.1-3-4.8-3-8.2
		v-8.7c0-3.4,1-6.1,3-8.2c2-2.1,5.1-3.1,9.3-3.1s7.3,1,9.3,3.1c2,2.1,3,4.8,3,8.2V112z M1427.9,103.1c0-4.4-2.4-6.6-7.1-6.6
		c-4.7,0-7.1,2.2-7.1,6.6v9.1c0,4.4,2.4,6.6,7.1,6.6c4.7,0,7.1-2.2,7.1-6.6V103.1z"/>
	<path id="XMLID_277_" class="st0" d="M1455.2,92l0.7,4.8c-2.5,1.2-5.4,2.9-8.6,5.2v20.8h-5.2V92.6h4.5l0.3,4.2
		C1449.4,94.8,1452.2,93.2,1455.2,92z"/>
	<path id="XMLID_279_" class="st0" d="M1480.6,114.7c0,3.1-0.7,5.4-2.1,6.7c-1.4,1.3-4.2,2-8.3,2c-3.6,0-6.8-0.5-9.6-1.6l0.7-4.1
		c2.9,0.8,5.8,1.2,8.6,1.2c2.3,0,3.8-0.3,4.5-0.8c0.7-0.5,1.1-1.6,1.1-3.3s-0.3-2.7-0.9-3.2s-2.4-1.1-5.4-1.9
		c-3.6-0.9-5.9-1.9-6.8-3.1c-0.9-1.1-1.4-3.3-1.4-6.6c0-2.9,0.8-4.9,2.3-6.2s4.2-1.9,8.1-1.9c3.1,0,6,0.4,8.6,1.1l-0.4,4.3
		c-3-0.6-5.8-0.9-8.4-0.9c-2.1,0-3.5,0.3-4.1,0.8c-0.6,0.5-1,1.5-1,3c0,1.8,0.2,2.9,0.7,3.5c0.5,0.6,2,1.1,4.4,1.7
		c2.3,0.6,4,1.1,5.1,1.5c1.2,0.4,2.1,1,2.8,1.7s1.1,1.5,1.2,2.3C1480.5,111.8,1480.6,113,1480.6,114.7z"/>
</g>
<g id="XMLID_6_">
	<path id="XMLID_202_" class="st1" d="M197,615v-28h10.1c2.9,0,5,0.6,6.2,1.8c1.3,1.2,1.9,2.9,1.9,5.1v4.2c0,2.3-0.6,4-1.9,5.2
		c-1.3,1.2-3.3,1.8-6.2,1.8h-6.5v10H197z M211.6,594c0-1.4-0.3-2.3-1-2.9c-0.7-0.5-1.9-0.8-3.6-0.8h-6.4v11.5h6.4
		c1.7,0,2.9-0.3,3.6-0.8c0.7-0.5,1-1.5,1-2.9V594z"/>
	<path id="XMLID_205_" class="st1" d="M234.8,600.8V615h-3l-0.2-1.5c-1.8,1.3-4.1,1.9-6.6,1.9c-3.6,0-5.4-2-5.4-5.9
		c0-2.1,0.5-3.5,1.5-4.4c1-0.9,2.6-1.3,4.7-1.3h5.5v-3.2c0-1.3-0.3-2.2-1-2.7c-0.7-0.5-1.8-0.8-3.5-0.8c-2,0-4,0.2-6.1,0.7l-0.4-2.8
		c2.3-0.6,4.5-0.9,6.7-0.9c2.8,0,4.8,0.5,6,1.6C234.2,596.9,234.8,598.5,234.8,600.8z M231.3,610.8v-4h-5.2c-1.1,0-1.9,0.2-2.3,0.6
		c-0.4,0.4-0.7,1.1-0.7,2.1c0,1.1,0.2,1.9,0.5,2.3c0.4,0.4,1.1,0.6,2.4,0.6C227.8,612.4,229.6,611.9,231.3,610.8z"/>
	<path id="XMLID_208_" class="st1" d="M269.7,615h-3.5v-15.6c0-1.3-0.7-1.9-2-1.9c-0.8,0-1.9,0.2-3.2,0.6c-1.3,0.4-2.5,0.9-3.6,1.5
		V615h-3.5v-15.6c0-1.3-0.7-1.9-2-1.9c-0.8,0-1.8,0.2-3.2,0.6c-1.4,0.4-2.6,0.9-3.7,1.4V615h-3.5v-20.5h2.9l0.3,1.8
		c3-1.5,5.8-2.2,8.2-2.2c2,0,3.3,0.7,3.9,2.2c3-1.5,5.8-2.2,8.4-2.2c3,0,4.5,1.7,4.5,5.2V615z"/>
	<path id="XMLID_210_" class="st1" d="M305.9,615h-3.6v-12.7h-12.4V615h-3.6v-28h3.6v12.1h12.4v-12.1h3.6V615z"/>
	<path id="XMLID_212_" class="st1" d="M327.7,600.8V615h-3l-0.2-1.5c-1.8,1.3-4.1,1.9-6.6,1.9c-3.6,0-5.4-2-5.4-5.9
		c0-2.1,0.5-3.5,1.5-4.4c1-0.9,2.6-1.3,4.7-1.3h5.5v-3.2c0-1.3-0.3-2.2-1-2.7c-0.7-0.5-1.8-0.8-3.5-0.8c-2,0-4,0.2-6.1,0.7l-0.4-2.8
		c2.3-0.6,4.5-0.9,6.7-0.9c2.8,0,4.8,0.5,6,1.6C327.2,596.9,327.7,598.5,327.7,600.8z M324.2,610.8v-4H319c-1.1,0-1.9,0.2-2.3,0.6
		c-0.4,0.4-0.7,1.1-0.7,2.1c0,1.1,0.2,1.9,0.5,2.3c0.4,0.4,1.1,0.6,2.4,0.6C320.7,612.4,322.5,611.9,324.2,610.8z"/>
	<path id="XMLID_215_" class="st1" d="M337.9,615h-3.5v-28.8l3.5-0.5V615z"/>
	<path id="XMLID_217_" class="st1" d="M361,600.4v8.4c0,4.5-2.2,6.7-6.6,6.7c-1.8,0-3.8-0.2-5.8-0.6v8.5l-3.5,0.5v-29.2h3l0.3,1.8
		c1.9-1.5,4.1-2.3,6.8-2.3C359.1,594.2,361,596.3,361,600.4z M348.6,599.7v12c2.1,0.4,4,0.6,5.6,0.6c1.2,0,2-0.3,2.5-0.9
		c0.5-0.6,0.8-1.5,0.8-2.7v-8.4c0-1.1-0.2-1.9-0.7-2.4c-0.4-0.5-1.3-0.8-2.5-0.8C352.3,597.3,350.4,598.1,348.6,599.7z"/>
	<path id="XMLID_220_" class="st1" d="M369.9,607.9c0,1.7,0.3,2.9,1,3.5c0.7,0.7,2,1,3.9,1c1.9,0,4-0.3,6.5-1l0.5,2.8
		c-2.1,0.8-4.5,1.2-7.2,1.2c-2.9,0-5-0.6-6.2-1.9c-1.3-1.3-1.9-3.2-1.9-5.6v-6.1c0-5.1,2.7-7.6,8-7.6c5.1,0,7.7,2.6,7.7,7.7v4.3
		h-12.2V607.9z M369.9,601.6v1.7h8.8v-1.7c0-1.5-0.3-2.6-0.9-3.4c-0.6-0.7-1.7-1.1-3.3-1.1s-2.7,0.4-3.4,1.1
		C370.3,599,369.9,600.1,369.9,601.6z"/>
	<path id="XMLID_223_" class="st1" d="M397,594.2l0.5,3.2c-1.7,0.8-3.6,2-5.8,3.5V615h-3.5v-20.5h3.1l0.2,2.9
		C393,596.1,394.9,595,397,594.2z"/>
	<path id="XMLID_225_" class="st1" d="M411.9,612l0.5,2.7c-1.4,0.5-2.8,0.8-4.3,0.8c-1.8,0-3.1-0.4-3.9-1.1
		c-0.8-0.7-1.2-1.9-1.2-3.6v-13.3h-3.6v-2.9h3.6v-5l3.5-0.5v5.5h5.8l-0.3,2.9h-5.5v12.7c0,0.8,0.1,1.4,0.4,1.8s0.8,0.5,1.7,0.5
		C409.5,612.5,410.6,612.3,411.9,612z"/>
	<path id="XMLID_227_" class="st1" d="M222.1,634.2h-8.6V631h21v3.1h-8.7v25.2h-3.7V634.2z"/>
	<path id="XMLID_229_" class="st1" d="M237.6,629.5h3.7v12.7h0.1c0.6-1.1,1.5-2,2.6-2.6c1.1-0.6,2.4-1.1,3.8-1.1
		c2.7,0,7.1,1.7,7.1,8.7v12.1h-3.7v-11.7c0-3.3-1.2-6-4.7-6c-2.4,0-4.3,1.7-5,3.7c-0.2,0.5-0.3,1-0.3,1.8v12.3h-3.7V629.5z"/>
	<path id="XMLID_231_" class="st1" d="M263.4,649.9c0.1,5,3.3,7.1,7,7.1c2.6,0,4.2-0.5,5.6-1l0.6,2.6c-1.3,0.6-3.5,1.3-6.8,1.3
		c-6.3,0-10-4.1-10-10.3c0-6.1,3.6-11,9.5-11c6.6,0,8.4,5.8,8.4,9.6c0,0.8-0.1,1.3-0.1,1.7H263.4z M274.2,647.2c0-2.4-1-6-5.1-6
		c-3.7,0-5.4,3.4-5.7,6H274.2z"/>
	<path id="XMLID_234_" class="st1" d="M316.4,644.9c0,9.7-5.9,14.9-13.1,14.9c-7.5,0-12.7-5.8-12.7-14.4c0-9,5.6-14.9,13.1-14.9
		C311.4,630.6,316.4,636.5,316.4,644.9z M294.5,645.4c0,6,3.3,11.5,9,11.5c5.8,0,9.1-5.3,9.1-11.8c0-5.6-2.9-11.5-9-11.5
		C297.5,633.6,294.5,639.2,294.5,645.4z"/>
	<path id="XMLID_237_" class="st1" d="M347.6,633.1c-0.9-0.6-2.4-1.1-4.1-1.1c-3.9,0-5.1,2.7-5.1,6v1h11.8v20.3h-3.7v-17.5h-8.1
		v17.5h-3.7v-17.5h-8.6v17.5h-3.7v-17.5h-2.9V639h2.9v-0.8c0-2.6,0.7-5,2.4-6.8c1.2-1.2,2.9-2,5.2-2c1.4,0,2.8,0.5,3.6,0.9l-1,2.7
		c-0.6-0.3-1.6-0.7-2.6-0.7c-1.2,0-2,0.4-2.6,1.1c-1,1.1-1.3,2.9-1.3,4.7v0.8h8.6v-1.1c0-5.4,3.2-8.9,8.9-8.9c1.8,0,3.9,0.5,5,1.3
		L347.6,633.1z"/>
	<path id="XMLID_239_" class="st1" d="M371.3,658.6c-1,0.5-3.1,1.2-5.8,1.2c-6.1,0-10.1-4.2-10.1-10.4c0-6.3,4.3-10.8,10.9-10.8
		c2.2,0,4.1,0.5,5.1,1.1l-0.8,2.9c-0.9-0.5-2.3-1-4.3-1c-4.7,0-7.2,3.4-7.2,7.7c0,4.7,3,7.6,7.1,7.6c2.1,0,3.5-0.5,4.5-1
		L371.3,658.6z"/>
	<path id="XMLID_241_" class="st1" d="M377.8,649.9c0.1,5,3.3,7.1,7,7.1c2.6,0,4.2-0.5,5.6-1l0.6,2.6c-1.3,0.6-3.5,1.3-6.8,1.3
		c-6.3,0-10-4.1-10-10.3c0-6.1,3.6-11,9.5-11c6.6,0,8.4,5.8,8.4,9.6c0,0.8-0.1,1.3-0.1,1.7H377.8z M388.7,647.2c0-2.4-1-6-5.1-6
		c-3.7,0-5.4,3.4-5.7,6H388.7z"/>
</g>
<g id="XMLID_5_">
	<path id="XMLID_150_" class="st1" d="M653.3,587.1h3.6v28.1c0,1.6-0.3,2.8-0.8,3.5c-0.5,0.8-2,2.3-4.5,4.6l-2.3-2.6
		c1.9-1.8,3.1-3,3.4-3.5c0.4-0.5,0.5-1.2,0.5-2.2V587.1z"/>
	<path id="XMLID_152_" class="st1" d="M667.7,591.3h-3.5v-5.1h3.5V591.3z M667.7,615h-3.5v-20.5h3.5V615z"/>
	<path id="XMLID_155_" class="st1" d="M703.1,615h-3.5v-15.6c0-1.3-0.7-1.9-2-1.9c-0.8,0-1.9,0.2-3.2,0.6c-1.3,0.4-2.5,0.9-3.6,1.5
		V615h-3.5v-15.6c0-1.3-0.7-1.9-2-1.9c-0.8,0-1.8,0.2-3.2,0.6c-1.4,0.4-2.6,0.9-3.7,1.4V615h-3.5v-20.5h2.9l0.3,1.8
		c3-1.5,5.8-2.2,8.2-2.2c2,0,3.3,0.7,3.9,2.2c3-1.5,5.8-2.2,8.4-2.2c3,0,4.5,1.7,4.5,5.2V615z"/>
	<path id="XMLID_157_" class="st1" d="M738.3,615h-3.5v-15.6c0-1.3-0.7-1.9-2-1.9c-0.8,0-1.9,0.2-3.2,0.6c-1.3,0.4-2.5,0.9-3.6,1.5
		V615h-3.5v-15.6c0-1.3-0.7-1.9-2-1.9c-0.8,0-1.8,0.2-3.2,0.6c-1.4,0.4-2.6,0.9-3.7,1.4V615H710v-20.5h2.9l0.3,1.8
		c3-1.5,5.8-2.2,8.2-2.2c2,0,3.3,0.7,3.9,2.2c3-1.5,5.8-2.2,8.4-2.2c3,0,4.5,1.7,4.5,5.2V615z"/>
	<path id="XMLID_159_" class="st1" d="M747.4,623.3l2.9-8.3h-1.5l-6.6-20.5h3.5l5.6,17.6l5.7-17.6h3.5l-6.8,20.5l-2.9,8.3H747.4z"/>
	<path id="XMLID_161_" class="st1" d="M777.1,595.1V607c0,2,0.4,3.3,1.3,4.1s2.5,1.1,4.8,1.1c2.2,0,4.3-0.2,6.6-0.6l0.4,3.1
		c-2.2,0.5-4.6,0.8-7.1,0.8c-3.3,0-5.8-0.7-7.3-2.1c-1.5-1.4-2.3-3.4-2.3-6.2v-12.3c0-2.7,0.8-4.8,2.3-6.2c1.5-1.4,4-2.1,7.3-2.1
		c2.5,0,4.8,0.3,7.1,0.8l-0.4,3.1c-2.2-0.4-4.4-0.6-6.6-0.6c-2.3,0-3.9,0.4-4.8,1.1C777.5,591.8,777.1,593.1,777.1,595.1z"/>
	<path id="XMLID_163_" class="st1" d="M810,600.8V615h-3l-0.2-1.5c-1.8,1.3-4.1,1.9-6.6,1.9c-3.6,0-5.4-2-5.4-5.9
		c0-2.1,0.5-3.5,1.5-4.4c1-0.9,2.6-1.3,4.7-1.3h5.5v-3.2c0-1.3-0.3-2.2-1-2.7c-0.7-0.5-1.8-0.8-3.5-0.8c-2,0-4,0.2-6.1,0.7l-0.4-2.8
		c2.3-0.6,4.5-0.9,6.7-0.9c2.8,0,4.8,0.5,6,1.6C809.5,596.9,810,598.5,810,600.8z M806.5,610.8v-4h-5.2c-1.1,0-1.9,0.2-2.3,0.6
		c-0.4,0.4-0.7,1.1-0.7,2.1c0,1.1,0.2,1.9,0.5,2.3c0.4,0.4,1.1,0.6,2.4,0.6C803,612.4,804.8,611.9,806.5,610.8z"/>
	<path id="XMLID_166_" class="st1" d="M825.6,594.2l0.5,3.2c-1.7,0.8-3.6,2-5.8,3.5V615h-3.5v-20.5h3.1l0.2,2.9
		C821.7,596.1,823.5,595,825.6,594.2z"/>
	<path id="XMLID_168_" class="st1" d="M840.6,612l0.5,2.7c-1.4,0.5-2.8,0.8-4.3,0.8c-1.8,0-3.1-0.4-3.9-1.1
		c-0.8-0.7-1.2-1.9-1.2-3.6v-13.3h-3.6v-2.9h3.6v-5l3.5-0.5v5.5h5.8l-0.3,2.9h-5.5v12.7c0,0.8,0.1,1.4,0.4,1.8s0.8,0.5,1.7,0.5
		C838.2,612.5,839.3,612.3,840.6,612z"/>
	<path id="XMLID_170_" class="st1" d="M848.8,607.9c0,1.7,0.3,2.9,1,3.5c0.7,0.7,2,1,3.9,1c1.9,0,4-0.3,6.5-1l0.5,2.8
		c-2.1,0.8-4.5,1.2-7.2,1.2c-2.9,0-5-0.6-6.2-1.9c-1.3-1.3-1.9-3.2-1.9-5.6v-6.1c0-5.1,2.7-7.6,8-7.6c5.1,0,7.7,2.6,7.7,7.7v4.3
		h-12.2V607.9z M848.8,601.6v1.7h8.8v-1.7c0-1.5-0.3-2.6-0.9-3.4c-0.6-0.7-1.7-1.1-3.3-1.1s-2.7,0.4-3.4,1.1
		C849.1,599,848.8,600.1,848.8,601.6z"/>
	<path id="XMLID_173_" class="st1" d="M875.8,594.2l0.5,3.2c-1.7,0.8-3.6,2-5.8,3.5V615h-3.5v-20.5h3.1l0.2,2.9
		C871.9,596.1,873.8,595,875.8,594.2z"/>
	<path id="XMLID_175_" class="st1" d="M657.1,631v16.8c0,6.3,2.8,9,6.6,9c4.2,0,6.9-2.8,6.9-9V631h3.7v16.5
		c0,8.7-4.6,12.3-10.7,12.3c-5.8,0-10.2-3.3-10.2-12.1V631H657.1z"/>
	<path id="XMLID_177_" class="st1" d="M680.5,654.9c1.6,1,4,1.8,6.6,1.8c3.7,0,5.9-2,5.9-4.8c0-2.6-1.5-4.2-5.3-5.6
		c-4.6-1.6-7.5-4-7.5-8c0-4.4,3.7-7.7,9.2-7.7c2.9,0,5,0.7,6.3,1.4l-1,3c-0.9-0.5-2.8-1.3-5.4-1.3c-3.9,0-5.3,2.3-5.3,4.2
		c0,2.6,1.7,3.9,5.6,5.5c4.8,1.8,7.2,4.2,7.2,8.3c0,4.4-3.2,8.1-9.9,8.1c-2.7,0-5.7-0.8-7.2-1.8L680.5,654.9z"/>
	<path id="XMLID_179_" class="st1" d="M711.5,631.4c1.8-0.3,4.1-0.5,7-0.5c3.6,0,6.3,0.8,7.9,2.4c1.6,1.3,2.5,3.4,2.5,5.9
		c0,2.6-0.8,4.6-2.2,6c-1.9,2.1-5.1,3.1-8.7,3.1c-1.1,0-2.1,0-2.9-0.3v11.3h-3.7V631.4z M715.1,645c0.8,0.2,1.8,0.3,3,0.3
		c4.4,0,7.1-2.1,7.1-6c0-3.7-2.6-5.5-6.7-5.5c-1.6,0-2.8,0.1-3.4,0.3V645z"/>
	<path id="XMLID_182_" class="st1" d="M733.5,645.4c0-2.4,0-4.5-0.2-6.3h3.2l0.1,4h0.2c0.9-2.7,3.2-4.5,5.6-4.5c0.4,0,0.7,0,1.1,0.1
		v3.5c-0.4-0.1-0.8-0.1-1.3-0.1c-2.6,0-4.5,2-5,4.7c-0.1,0.5-0.2,1.1-0.2,1.7v10.8h-3.7V645.4z"/>
	<path id="XMLID_184_" class="st1" d="M749.2,649.9c0.1,5,3.3,7.1,7,7.1c2.6,0,4.2-0.5,5.6-1l0.6,2.6c-1.3,0.6-3.5,1.3-6.8,1.3
		c-6.3,0-10-4.1-10-10.3c0-6.1,3.6-11,9.5-11c6.6,0,8.4,5.8,8.4,9.6c0,0.8-0.1,1.3-0.1,1.7H749.2z M760.1,647.2c0-2.4-1-6-5.1-6
		c-3.7,0-5.4,3.4-5.7,6H760.1z"/>
	<path id="XMLID_187_" class="st1" d="M768.1,655.6c1.1,0.7,3,1.5,4.9,1.5c2.7,0,3.9-1.3,3.9-3c0-1.8-1-2.7-3.8-3.7
		c-3.7-1.3-5.4-3.3-5.4-5.8c0-3.3,2.6-6,7-6c2.1,0,3.9,0.6,5,1.3l-0.9,2.7c-0.8-0.5-2.3-1.2-4.2-1.2c-2.2,0-3.4,1.3-3.4,2.8
		c0,1.7,1.2,2.4,3.9,3.4c3.5,1.3,5.3,3.1,5.3,6.1c0,3.6-2.8,6.1-7.6,6.1c-2.2,0-4.3-0.5-5.7-1.4L768.1,655.6z"/>
	<path id="XMLID_189_" class="st1" d="M789.8,633.3c0,1.3-0.9,2.3-2.4,2.3c-1.3,0-2.2-1-2.2-2.3c0-1.3,1-2.3,2.3-2.3
		C788.9,631,789.8,632,789.8,633.3z M785.7,659.4V639h3.7v20.3H785.7z"/>
	<path id="XMLID_192_" class="st1" d="M813.5,629.5v24.6c0,1.8,0,3.9,0.2,5.3h-3.3l-0.2-3.5h-0.1c-1.1,2.3-3.6,4-6.9,4
		c-4.9,0-8.7-4.2-8.7-10.3c0-6.8,4.2-10.9,9.1-10.9c3.1,0,5.2,1.5,6.1,3.1h0.1v-12.1H813.5z M809.8,647.3c0-0.5,0-1.1-0.2-1.6
		c-0.5-2.4-2.6-4.3-5.3-4.3c-3.8,0-6.1,3.4-6.1,7.9c0,4.1,2,7.5,6,7.5c2.5,0,4.7-1.6,5.4-4.4c0.1-0.5,0.2-1,0.2-1.6V647.3z"/>
	<path id="XMLID_195_" class="st1" d="M822.1,649.9c0.1,5,3.3,7.1,7,7.1c2.6,0,4.2-0.5,5.6-1l0.6,2.6c-1.3,0.6-3.5,1.3-6.8,1.3
		c-6.3,0-10-4.1-10-10.3c0-6.1,3.6-11,9.5-11c6.6,0,8.4,5.8,8.4,9.6c0,0.8-0.1,1.3-0.1,1.7H822.1z M833,647.2c0-2.4-1-6-5.1-6
		c-3.7,0-5.4,3.4-5.7,6H833z"/>
	<path id="XMLID_198_" class="st1" d="M841.5,644.5c0-2.1,0-3.8-0.2-5.5h3.3l0.2,3.4h0.1c1-1.9,3.4-3.8,6.7-3.8
		c2.8,0,7.2,1.7,7.2,8.7v12.1h-3.7v-11.7c0-3.3-1.2-6-4.7-6c-2.4,0-4.3,1.7-5,3.8c-0.2,0.5-0.3,1.1-0.3,1.7v12.2h-3.7V644.5z"/>
	<path id="XMLID_200_" class="st1" d="M869.5,633.2v5.8h5.3v2.8h-5.3v11c0,2.5,0.7,3.9,2.8,3.9c1,0,1.7-0.1,2.1-0.3l0.2,2.8
		c-0.7,0.3-1.8,0.5-3.3,0.5c-1.7,0-3.1-0.5-4-1.6c-1.1-1.1-1.4-2.9-1.4-5.3v-11.1h-3.2V639h3.2v-4.9L869.5,633.2z"/>
</g>
<g id="XMLID_4_">
	<path id="XMLID_106_" class="st1" d="M1123.7,615l-7-10.1h-6.8V615h-3.6v-28h10.7c2.9,0,5,0.6,6.2,1.8c1.3,1.2,1.9,2.9,1.9,5.1v4
		c0,3.5-1.5,5.7-4.5,6.5l7.3,10.5H1123.7z M1121.5,594c0-1.4-0.3-2.3-1-2.9c-0.7-0.5-1.9-0.8-3.6-0.8h-6.9v11.4h6.9
		c1.7,0,2.9-0.3,3.6-0.8c0.7-0.5,1-1.5,1-2.9V594z"/>
	<path id="XMLID_109_" class="st1" d="M1147.3,600.8V615h-3l-0.2-1.5c-1.8,1.3-4.1,1.9-6.6,1.9c-3.6,0-5.4-2-5.4-5.9
		c0-2.1,0.5-3.5,1.5-4.4c1-0.9,2.6-1.3,4.7-1.3h5.5v-3.2c0-1.3-0.3-2.2-1-2.7c-0.7-0.5-1.8-0.8-3.5-0.8c-2,0-4,0.2-6.1,0.7l-0.4-2.8
		c2.3-0.6,4.5-0.9,6.7-0.9c2.8,0,4.8,0.5,6,1.6C1146.7,596.9,1147.3,598.5,1147.3,600.8z M1143.7,610.8v-4h-5.2
		c-1.1,0-1.9,0.2-2.3,0.6c-0.4,0.4-0.7,1.1-0.7,2.1c0,1.1,0.2,1.9,0.5,2.3c0.4,0.4,1.1,0.6,2.4,0.6
		C1140.2,612.4,1142,611.9,1143.7,610.8z"/>
	<path id="XMLID_112_" class="st1" d="M1160.8,615.5c-3.1,0-5.2-0.6-6.4-1.8c-1.2-1.2-1.7-3.1-1.7-5.6v-6.4c0-2.5,0.6-4.4,1.8-5.6
		c1.2-1.2,3.3-1.8,6.4-1.8c1.9,0,3.6,0.2,4.9,0.6l-0.3,2.9c-1.5-0.3-3-0.5-4.5-0.5c-1.8,0-3,0.3-3.7,0.9c-0.7,0.6-1,1.7-1,3.3v6.7
		c0,1.6,0.3,2.7,1,3.3c0.7,0.6,1.9,0.9,3.7,0.9c1.5,0,3-0.2,4.5-0.5l0.3,2.9C1164.4,615.3,1162.7,615.5,1160.8,615.5z"/>
	<path id="XMLID_114_" class="st1" d="M1187.4,615h-3.5v-15.6c0-1.3-0.7-1.9-2-1.9c-0.8,0-1.8,0.2-3.2,0.6c-1.4,0.4-2.6,0.9-3.7,1.5
		V615h-3.5v-28.8l3.5-0.5v10.6c3-1.4,5.6-2.1,7.9-2.1c3,0,4.5,1.7,4.5,5.2V615z"/>
	<path id="XMLID_116_" class="st1" d="M1196.8,607.9c0,1.7,0.3,2.9,1,3.5c0.7,0.7,2,1,3.9,1c1.9,0,4-0.3,6.5-1l0.5,2.8
		c-2.1,0.8-4.5,1.2-7.2,1.2c-2.9,0-5-0.6-6.2-1.9s-1.9-3.2-1.9-5.6v-6.1c0-5.1,2.7-7.6,8-7.6c5.1,0,7.7,2.6,7.7,7.7v4.3h-12.2V607.9
		z M1196.8,601.6v1.7h8.8v-1.7c0-1.5-0.3-2.6-0.9-3.4c-0.6-0.7-1.7-1.1-3.3-1.1s-2.7,0.4-3.4,1.1
		C1197.1,599,1196.8,600.1,1196.8,601.6z"/>
	<path id="XMLID_119_" class="st1" d="M1218.5,615h-3.5v-28.8l3.5-0.5V615z"/>
	<path id="XMLID_121_" class="st1" d="M1238.2,595.1V607c0,1.9,0.4,3.2,1.2,4c0.8,0.8,2.3,1.2,4.6,1.2c1.8,0,3.5-0.2,5.3-0.5v-9.5
		h3.5v12.1c-2.8,0.8-5.7,1.2-8.9,1.2c-3.4,0-5.8-0.7-7.2-2.1c-1.4-1.4-2.1-3.4-2.1-6.2v-12.3c0-2.9,0.8-4.9,2.3-6.3
		c1.5-1.3,4-2,7.5-2c2.6,0,5.2,0.3,7.8,0.9l-0.4,3.1c-2.8-0.5-5.3-0.7-7.5-0.7c-2.3,0-3.8,0.4-4.7,1.2
		C1238.7,591.8,1238.2,593.2,1238.2,595.1z"/>
	<path id="XMLID_123_" class="st1" d="M1268.6,594.2l0.5,3.2c-1.7,0.8-3.6,2-5.8,3.5V615h-3.5v-20.5h3.1l0.2,2.9
		C1264.7,596.1,1266.6,595,1268.6,594.2z"/>
	<path id="XMLID_125_" class="st1" d="M1275.7,607.9c0,1.7,0.3,2.9,1,3.5c0.7,0.7,2,1,3.9,1c1.9,0,4-0.3,6.5-1l0.5,2.8
		c-2.1,0.8-4.5,1.2-7.2,1.2c-2.9,0-5-0.6-6.2-1.9s-1.9-3.2-1.9-5.6v-6.1c0-5.1,2.7-7.6,8-7.6c5.1,0,7.7,2.6,7.7,7.7v4.3h-12.2V607.9
		z M1275.7,601.6v1.7h8.8v-1.7c0-1.5-0.3-2.6-0.9-3.4c-0.6-0.7-1.7-1.1-3.3-1.1s-2.7,0.4-3.4,1.1
		C1276,599,1275.7,600.1,1275.7,601.6z"/>
	<path id="XMLID_128_" class="st1" d="M1296.3,607.9c0,1.7,0.3,2.9,1,3.5c0.7,0.7,2,1,3.9,1c1.9,0,4-0.3,6.5-1l0.5,2.8
		c-2.1,0.8-4.5,1.2-7.2,1.2c-2.9,0-5-0.6-6.2-1.9s-1.9-3.2-1.9-5.6v-6.1c0-5.1,2.7-7.6,8-7.6c5.1,0,7.7,2.6,7.7,7.7v4.3h-12.2V607.9
		z M1296.3,601.6v1.7h8.8v-1.7c0-1.5-0.3-2.6-0.9-3.4c-0.6-0.7-1.7-1.1-3.3-1.1s-2.7,0.4-3.4,1.1
		C1296.7,599,1296.3,600.1,1296.3,601.6z"/>
	<path id="XMLID_131_" class="st1" d="M1330.3,615h-3.5v-15.6c0-1.3-0.7-1.9-2-1.9c-0.8,0-1.8,0.2-3.2,0.6c-1.4,0.4-2.6,0.9-3.7,1.4
		V615h-3.5v-20.5h2.9l0.3,1.8c3-1.5,5.8-2.2,8.2-2.2c3,0,4.5,1.7,4.5,5.2V615z"/>
	<path id="XMLID_133_" class="st1" d="M1156.2,631h15.2v3.1h-11.6v9.4h10.7v3h-10.7v12.8h-3.7V631z"/>
	<path id="XMLID_135_" class="st1" d="M1175.8,645.4c0-2.4,0-4.5-0.2-6.3h3.2l0.1,4h0.2c0.9-2.7,3.2-4.5,5.6-4.5
		c0.4,0,0.7,0,1.1,0.1v3.5c-0.4-0.1-0.8-0.1-1.3-0.1c-2.6,0-4.5,2-5,4.7c-0.1,0.5-0.2,1.1-0.2,1.7v10.8h-3.7V645.4z"/>
	<path id="XMLID_137_" class="st1" d="M1194.3,633.3c0,1.3-0.9,2.3-2.4,2.3c-1.3,0-2.2-1-2.2-2.3c0-1.3,1-2.3,2.3-2.3
		C1193.4,631,1194.3,632,1194.3,633.3z M1190.1,659.4V639h3.7v20.3H1190.1z"/>
	<path id="XMLID_140_" class="st1" d="M1202.5,649.9c0.1,5,3.3,7.1,7,7.1c2.6,0,4.2-0.5,5.6-1l0.6,2.6c-1.3,0.6-3.5,1.3-6.8,1.3
		c-6.3,0-10-4.1-10-10.3c0-6.1,3.6-11,9.5-11c6.6,0,8.4,5.8,8.4,9.6c0,0.8-0.1,1.3-0.1,1.7H1202.5z M1213.3,647.2c0-2.4-1-6-5.1-6
		c-3.7,0-5.4,3.4-5.7,6H1213.3z"/>
	<path id="XMLID_143_" class="st1" d="M1221.9,644.5c0-2.1,0-3.8-0.2-5.5h3.3l0.2,3.4h0.1c1-1.9,3.4-3.8,6.7-3.8
		c2.8,0,7.2,1.7,7.2,8.7v12.1h-3.7v-11.7c0-3.3-1.2-6-4.7-6c-2.4,0-4.3,1.7-5,3.8c-0.2,0.5-0.3,1.1-0.3,1.7v12.2h-3.7V644.5z"/>
	<path id="XMLID_145_" class="st1" d="M1263.1,629.5v24.6c0,1.8,0,3.9,0.2,5.3h-3.3l-0.2-3.5h-0.1c-1.1,2.3-3.6,4-6.9,4
		c-4.9,0-8.7-4.2-8.7-10.3c0-6.8,4.2-10.9,9.1-10.9c3.1,0,5.2,1.5,6.1,3.1h0.1v-12.1H1263.1z M1259.4,647.3c0-0.5,0-1.1-0.2-1.6
		c-0.5-2.4-2.6-4.3-5.3-4.3c-3.8,0-6.1,3.4-6.1,7.9c0,4.1,2,7.5,6,7.5c2.5,0,4.7-1.6,5.4-4.4c0.1-0.5,0.2-1,0.2-1.6V647.3z"/>
	<path id="XMLID_148_" class="st1" d="M1269.2,655.6c1.1,0.7,3,1.5,4.9,1.5c2.7,0,3.9-1.3,3.9-3c0-1.8-1-2.7-3.8-3.7
		c-3.7-1.3-5.4-3.3-5.4-5.8c0-3.3,2.6-6,7-6c2.1,0,3.9,0.6,5,1.3l-0.9,2.7c-0.8-0.5-2.3-1.2-4.2-1.2c-2.2,0-3.4,1.3-3.4,2.8
		c0,1.7,1.2,2.4,3.9,3.4c3.5,1.3,5.3,3.1,5.3,6.1c0,3.6-2.8,6.1-7.6,6.1c-2.2,0-4.3-0.5-5.7-1.4L1269.2,655.6z"/>
</g>
<g id="XMLID_3_">
	<path id="XMLID_53_" class="st1" d="M1588,615v-28h10.1c2.9,0,5,0.6,6.2,1.8s1.9,2.9,1.9,5.1v4.2c0,2.3-0.6,4-1.9,5.2
		s-3.3,1.8-6.2,1.8h-6.5v10H1588z M1602.6,594c0-1.4-0.3-2.3-1-2.9s-1.9-0.8-3.6-0.8h-6.4v11.5h6.4c1.7,0,2.9-0.3,3.6-0.8
		c0.7-0.5,1-1.5,1-2.9V594z"/>
	<path id="XMLID_56_" class="st1" d="M1627.5,615h-3.5v-15.6c0-1.3-0.7-1.9-2-1.9c-0.8,0-1.8,0.2-3.2,0.6c-1.4,0.4-2.6,0.9-3.7,1.5
		V615h-3.5v-28.8l3.5-0.5v10.6c3-1.4,5.6-2.1,7.9-2.1c3,0,4.5,1.7,4.5,5.2V615z"/>
	<path id="XMLID_58_" class="st1" d="M1637.9,591.3h-3.5v-5.1h3.5V591.3z M1637.9,615h-3.5v-20.5h3.5V615z"/>
	<path id="XMLID_61_" class="st1" d="M1648.6,615h-3.5v-28.8l3.5-0.5V615z"/>
	<path id="XMLID_63_" class="st1" d="M1665.4,587.1h9.8c6,0,9,2.7,9,8V607c0,5.3-3,8-9,8h-9.8V587.1z M1669,590.3v21.5h6
		c2,0,3.5-0.4,4.3-1.2s1.2-2.1,1.2-3.8v-11.4c0-1.7-0.4-3-1.2-3.8c-0.8-0.8-2.2-1.2-4.3-1.2H1669z"/>
	<path id="XMLID_66_" class="st1" d="M1690.5,594.6h3.5v15.6c0,1.3,0.7,1.9,2,1.9c0.8,0,1.8-0.2,3.2-0.6c1.4-0.4,2.6-0.9,3.7-1.4
		v-15.5h3.5V615h-2.9l-0.3-1.8c-3,1.5-5.8,2.2-8.2,2.2c-3,0-4.5-1.7-4.5-5.2V594.6z"/>
	<path id="XMLID_68_" class="st1" d="M1729.4,615h-3.5v-15.6c0-1.3-0.7-1.9-2-1.9c-0.8,0-1.8,0.2-3.2,0.6c-1.4,0.4-2.6,0.9-3.7,1.4
		V615h-3.5v-20.5h2.9l0.3,1.8c3-1.5,5.8-2.2,8.2-2.2c3,0,4.5,1.7,4.5,5.2V615z"/>
	<path id="XMLID_70_" class="st1" d="M1752.3,600.4v8.4c0,4.5-2.2,6.7-6.6,6.7c-1.8,0-3.8-0.2-5.8-0.6v8.5l-3.5,0.5v-29.2h3l0.3,1.8
		c1.9-1.5,4.1-2.3,6.8-2.3C1750.3,594.2,1752.3,596.3,1752.3,600.4z M1739.8,599.7v12c2.1,0.4,4,0.6,5.6,0.6c1.2,0,2-0.3,2.5-0.9
		s0.8-1.5,0.8-2.7v-8.4c0-1.1-0.2-1.9-0.7-2.4c-0.4-0.5-1.3-0.8-2.5-0.8C1743.6,597.3,1741.7,598.1,1739.8,599.7z"/>
	<path id="XMLID_73_" class="st1" d="M1774.6,615h-3.5v-15.6c0-1.3-0.7-1.9-2-1.9c-0.8,0-1.8,0.2-3.2,0.6c-1.4,0.4-2.6,0.9-3.7,1.5
		V615h-3.5v-28.8l3.5-0.5v10.6c3-1.4,5.6-2.1,7.9-2.1c3,0,4.5,1.7,4.5,5.2V615z"/>
	<path id="XMLID_75_" class="st1" d="M1783.7,623.3l2.9-8.3h-1.5l-6.6-20.5h3.5l5.6,17.6l5.7-17.6h3.5l-6.8,20.5l-2.9,8.3H1783.7z"
		/>
	<path id="XMLID_77_" class="st1" d="M1584.6,646.9c-0.2-3.9-0.5-8.7-0.4-12.2h-0.1c-1,3.3-2.1,6.8-3.6,10.8l-5,13.7h-2.8l-4.6-13.5
		c-1.3-4-2.5-7.6-3.3-11h-0.1c-0.1,3.5-0.3,8.3-0.5,12.5l-0.8,12.1h-3.5l2-28.3h4.7l4.8,13.7c1.2,3.5,2.1,6.6,2.9,9.5h0.1
		c0.7-2.9,1.7-6,3-9.5l5-13.7h4.7l1.8,28.3h-3.6L1584.6,646.9z"/>
	<path id="XMLID_79_" class="st1" d="M1613.4,649c0,7.5-5.2,10.8-10.1,10.8c-5.5,0-9.7-4-9.7-10.5c0-6.8,4.5-10.8,10.1-10.8
		C1609.5,638.6,1613.4,642.8,1613.4,649z M1597.3,649.2c0,4.5,2.6,7.8,6.2,7.8c3.5,0,6.2-3.3,6.2-7.9c0-3.4-1.7-7.8-6.1-7.8
		C1599.2,641.3,1597.3,645.4,1597.3,649.2z"/>
	<path id="XMLID_82_" class="st1" d="M1636.1,629.5v24.6c0,1.8,0,3.9,0.2,5.3h-3.3l-0.2-3.5h-0.1c-1.1,2.3-3.6,4-6.9,4
		c-4.9,0-8.7-4.2-8.7-10.3c0-6.8,4.2-10.9,9.1-10.9c3.1,0,5.2,1.5,6.1,3.1h0.1v-12.1H1636.1z M1632.4,647.3c0-0.5,0-1.1-0.2-1.6
		c-0.5-2.4-2.6-4.3-5.3-4.3c-3.8,0-6.1,3.4-6.1,7.9c0,4.1,2,7.5,6,7.5c2.5,0,4.7-1.6,5.4-4.4c0.1-0.5,0.2-1,0.2-1.6V647.3z"/>
	<path id="XMLID_85_" class="st1" d="M1644.7,649.9c0.1,5,3.3,7.1,7,7.1c2.6,0,4.2-0.5,5.6-1l0.6,2.6c-1.3,0.6-3.5,1.3-6.8,1.3
		c-6.3,0-10-4.1-10-10.3c0-6.1,3.6-11,9.5-11c6.6,0,8.4,5.8,8.4,9.6c0,0.8-0.1,1.3-0.1,1.7H1644.7z M1655.5,647.2c0-2.4-1-6-5.1-6
		c-3.7,0-5.4,3.4-5.7,6H1655.5z"/>
	<path id="XMLID_88_" class="st1" d="M1664.1,645.4c0-2.4,0-4.5-0.2-6.3h3.2l0.1,4h0.2c0.9-2.7,3.2-4.5,5.6-4.5c0.4,0,0.7,0,1.1,0.1
		v3.5c-0.4-0.1-0.8-0.1-1.3-0.1c-2.6,0-4.5,2-5,4.7c-0.1,0.5-0.2,1.1-0.2,1.7v10.8h-3.7V645.4z"/>
	<path id="XMLID_90_" class="st1" d="M1678.4,644.5c0-2.1,0-3.8-0.2-5.5h3.3l0.2,3.4h0.1c1-1.9,3.4-3.8,6.7-3.8
		c2.8,0,7.2,1.7,7.2,8.7v12.1h-3.7v-11.7c0-3.3-1.2-6-4.7-6c-2.4,0-4.3,1.7-5,3.8c-0.2,0.5-0.3,1.1-0.3,1.7v12.2h-3.7V644.5z"/>
	<path id="XMLID_92_" class="st1" d="M1711.6,631h15.2v3.1h-11.6v9.4h10.7v3h-10.7v12.8h-3.7V631z"/>
	<path id="XMLID_94_" class="st1" d="M1741.7,659.4l-0.3-2.6h-0.1c-1.1,1.6-3.3,3-6.2,3c-4.1,0-6.2-2.9-6.2-5.8
		c0-4.9,4.4-7.6,12.2-7.6V646c0-1.7-0.5-4.7-4.6-4.7c-1.9,0-3.9,0.6-5.3,1.5l-0.8-2.4c1.7-1.1,4.1-1.8,6.7-1.8
		c6.2,0,7.7,4.2,7.7,8.3v7.6c0,1.8,0.1,3.5,0.3,4.9H1741.7z M1741.2,649c-4-0.1-8.6,0.6-8.6,4.6c0,2.4,1.6,3.5,3.5,3.5
		c2.6,0,4.3-1.7,4.9-3.4c0.1-0.4,0.2-0.8,0.2-1.2V649z"/>
	<path id="XMLID_97_" class="st1" d="M1751.1,644.5c0-2.1,0-3.8-0.2-5.5h3.2l0.2,3.3h0.1c1.1-1.9,3-3.7,6.4-3.7
		c2.8,0,4.9,1.7,5.8,4.1h0.1c0.6-1.1,1.4-2,2.3-2.6c1.2-0.9,2.6-1.4,4.5-1.4c2.7,0,6.7,1.8,6.7,8.8v12h-3.6v-11.5
		c0-3.9-1.4-6.3-4.4-6.3c-2.1,0-3.7,1.6-4.4,3.4c-0.2,0.5-0.3,1.2-0.3,1.8v12.6h-3.6v-12.2c0-3.2-1.4-5.6-4.2-5.6
		c-2.3,0-4,1.8-4.6,3.7c-0.2,0.5-0.3,1.2-0.3,1.8v12.3h-3.6V644.5z"/>
	<path id="XMLID_99_" class="st1" d="M1790.7,633.3c0,1.3-0.9,2.3-2.4,2.3c-1.3,0-2.2-1-2.2-2.3c0-1.3,1-2.3,2.3-2.3
		C1789.8,631,1790.7,632,1790.7,633.3z M1786.6,659.4V639h3.7v20.3H1786.6z"/>
	<path id="XMLID_102_" class="st1" d="M1796.8,629.5h3.7v29.8h-3.7V629.5z"/>
	<path id="XMLID_104_" class="st1" d="M1808.5,639l4.5,12c0.5,1.3,1,2.9,1.3,4.2h0.1c0.4-1.2,0.8-2.8,1.3-4.2l4-11.9h3.9l-5.5,14.5
		c-2.6,7-4.5,10.5-7,12.7c-1.8,1.6-3.6,2.2-4.5,2.4l-0.9-3.1c0.9-0.3,2.1-0.9,3.2-1.8c1-0.8,2.3-2.2,3.1-4.1
		c0.2-0.4,0.3-0.7,0.3-0.9s-0.1-0.5-0.3-1l-7.5-18.7H1808.5z"/>
</g>
<g id="XMLID_2_">
	<path id="XMLID_8_" class="st1" d="M2059.2,615v-24.7h-8.4v-3.2h20.3v3.2h-8.4V615H2059.2z"/>
	<path id="XMLID_11_" class="st1" d="M2087.3,600.8V615h-3l-0.2-1.5c-1.8,1.3-4.1,1.9-6.6,1.9c-3.6,0-5.4-2-5.4-5.9
		c0-2.1,0.5-3.5,1.5-4.4c1-0.9,2.6-1.3,4.7-1.3h5.5v-3.2c0-1.3-0.3-2.2-1-2.7c-0.7-0.5-1.8-0.8-3.5-0.8c-2,0-4,0.2-6.1,0.7l-0.4-2.8
		c2.3-0.6,4.5-0.9,6.7-0.9c2.8,0,4.8,0.5,6,1.6S2087.3,598.5,2087.3,600.8z M2083.8,610.8v-4h-5.2c-1.1,0-1.9,0.2-2.3,0.6
		c-0.4,0.4-0.7,1.1-0.7,2.1c0,1.1,0.2,1.9,0.5,2.3s1.1,0.6,2.4,0.6C2080.3,612.4,2082.1,611.9,2083.8,610.8z"/>
	<path id="XMLID_18_" class="st1" d="M2096.2,623.3l2.9-8.3h-1.5l-6.6-20.5h3.5l5.6,17.6l5.7-17.6h3.5l-6.8,20.5l-2.9,8.3H2096.2z"
		/>
	<path id="XMLID_20_" class="st1" d="M2116.7,615h-3.5v-28.8l3.5-0.5V615z"/>
	<path id="XMLID_22_" class="st1" d="M2139.5,607.8c0,2.3-0.7,4.2-2,5.6c-1.4,1.4-3.5,2.1-6.3,2.1s-4.9-0.7-6.3-2.1
		c-1.4-1.4-2-3.3-2-5.6v-5.9c0-2.3,0.7-4.2,2-5.6s3.5-2.1,6.3-2.1s4.9,0.7,6.3,2.1c1.4,1.4,2,3.3,2,5.6V607.8z M2135.9,601.7
		c0-3-1.6-4.5-4.8-4.5s-4.8,1.5-4.8,4.5v6.2c0,3,1.6,4.5,4.8,4.5s4.8-1.5,4.8-4.5V601.7z"/>
	<path id="XMLID_25_" class="st1" d="M2154.4,594.2l0.5,3.2c-1.7,0.8-3.6,2-5.8,3.5V615h-3.5v-20.5h3.1l0.2,2.9
		C2150.5,596.1,2152.4,595,2154.4,594.2z"/>
	<path id="XMLID_27_" class="st1" d="M2184.9,607.8c0,1.3-0.1,2.4-0.4,3.3c-0.2,0.9-0.7,1.7-1.3,2.4c-0.6,0.7-1.6,1.2-2.8,1.5
		c-1.2,0.3-2.8,0.5-4.6,0.5c-3.1,0-5.9-0.5-8.3-1.5l0.6-2.9c2.6,0.8,5.2,1.2,7.8,1.2c2.2,0,3.6-0.3,4.3-0.9c0.7-0.6,1.1-1.8,1.1-3.4
		c0-1.1,0-1.9-0.1-2.3c0-0.4-0.3-0.9-0.7-1.3c-0.4-0.4-1-0.8-1.7-1c-0.7-0.2-1.8-0.5-3.4-0.8c-1.8-0.4-3.1-0.8-4.1-1.1
		c-0.9-0.4-1.7-0.9-2.2-1.6c-0.6-0.7-0.9-1.4-1-2.3c-0.1-0.8-0.2-2-0.2-3.6c0-2.5,0.7-4.4,2-5.5c1.3-1.1,3.6-1.7,7-1.7
		c2.7,0,5.2,0.3,7.6,0.9l-0.3,3.1c-2.4-0.5-4.7-0.8-7.2-0.8c-2.2,0-3.7,0.3-4.4,0.8c-0.7,0.6-1,1.7-1,3.3c0,0.8,0,1.3,0,1.7
		c0,0.3,0.1,0.7,0.2,1.1c0.1,0.4,0.3,0.7,0.5,0.9s0.5,0.3,1,0.6c0.5,0.3,1,0.4,1.5,0.6c0.5,0.1,1.3,0.3,2.4,0.6
		c1.9,0.5,3.4,0.9,4.4,1.3c1,0.4,1.8,0.9,2.3,1.6c0.6,0.7,0.9,1.4,1,2.1C2184.9,605.1,2184.9,606.3,2184.9,607.8z"/>
	<path id="XMLID_29_" class="st1" d="M2212.2,615h-4.5l-5-17.3l-5,17.3h-4.5l-4.4-20.5h3.4l3.4,17l5-17h4.3l5,17l3.4-17h3.4
		L2212.2,615z"/>
	<path id="XMLID_31_" class="st1" d="M2224.6,591.3h-3.5v-5.1h3.5V591.3z M2224.6,615h-3.5v-20.5h3.5V615z"/>
	<path id="XMLID_34_" class="st1" d="M2243.2,586l-0.3,2.7c-1.3-0.3-2.5-0.4-3.4-0.4c-1.1,0-1.8,0.2-2.2,0.6
		c-0.4,0.4-0.6,1.1-0.6,2.2v3.4h5.8l-0.3,2.9h-5.5V615h-3.5v-17.5h-3.6v-2.9h3.6v-3.8c0-3.6,1.9-5.4,5.8-5.4
		C2240.6,585.4,2241.9,585.6,2243.2,586z"/>
	<path id="XMLID_36_" class="st1" d="M2257.2,612l0.5,2.7c-1.4,0.5-2.8,0.8-4.3,0.8c-1.8,0-3.1-0.4-3.9-1.1
		c-0.8-0.7-1.2-1.9-1.2-3.6v-13.3h-3.6v-2.9h3.6v-5l3.5-0.5v5.5h5.8l-0.3,2.9h-5.5v12.7c0,0.8,0.1,1.4,0.4,1.8s0.8,0.5,1.7,0.5
		C2254.8,612.5,2255.9,612.3,2257.2,612z"/>
	<path id="XMLID_38_" class="st1" d="M2100.2,654.9c1.6,1,4,1.8,6.6,1.8c3.7,0,5.9-2,5.9-4.8c0-2.6-1.5-4.2-5.3-5.6
		c-4.6-1.6-7.5-4-7.5-8c0-4.4,3.7-7.7,9.2-7.7c2.9,0,5,0.7,6.3,1.4l-1,3c-0.9-0.5-2.8-1.3-5.4-1.3c-3.9,0-5.3,2.3-5.3,4.2
		c0,2.6,1.7,3.9,5.6,5.5c4.8,1.8,7.2,4.2,7.2,8.3c0,4.4-3.2,8.1-9.9,8.1c-2.7,0-5.7-0.8-7.2-1.8L2100.2,654.9z"/>
	<path id="XMLID_40_" class="st1" d="M2125.8,633.3c0,1.3-0.9,2.3-2.4,2.3c-1.3,0-2.2-1-2.2-2.3c0-1.3,1-2.3,2.3-2.3
		C2124.9,631,2125.8,632,2125.8,633.3z M2121.7,659.4V639h3.7v20.3H2121.7z"/>
	<path id="XMLID_43_" class="st1" d="M2131.9,644.5c0-2.1,0-3.8-0.2-5.5h3.3l0.2,3.4h0.1c1-1.9,3.4-3.8,6.7-3.8
		c2.8,0,7.2,1.7,7.2,8.7v12.1h-3.7v-11.7c0-3.3-1.2-6-4.7-6c-2.4,0-4.3,1.7-5,3.8c-0.2,0.5-0.3,1.1-0.3,1.7v12.2h-3.7V644.5z"/>
	<path id="XMLID_45_" class="st1" d="M2173.2,639c-0.1,1.5-0.2,3.1-0.2,5.6v11.8c0,4.7-0.9,7.5-2.9,9.3c-2,1.8-4.8,2.4-7.4,2.4
		c-2.4,0-5.1-0.6-6.8-1.7l0.9-2.8c1.3,0.8,3.4,1.6,6,1.6c3.8,0,6.6-2,6.6-7.1v-2.3h-0.1c-1.1,1.9-3.3,3.4-6.5,3.4
		c-5,0-8.7-4.3-8.7-9.9c0-6.9,4.5-10.8,9.2-10.8c3.5,0,5.5,1.8,6.3,3.5h0.1l0.2-3.1H2173.2z M2169.3,647.1c0-0.6,0-1.2-0.2-1.7
		c-0.7-2.1-2.5-3.9-5.2-3.9c-3.5,0-6,3-6,7.7c0,4,2,7.3,6,7.3c2.3,0,4.3-1.4,5.1-3.8c0.2-0.6,0.3-1.3,0.3-2V647.1z"/>
	<path id="XMLID_48_" class="st1" d="M2181.6,649.9c0.1,5,3.3,7.1,7,7.1c2.6,0,4.2-0.5,5.6-1l0.6,2.6c-1.3,0.6-3.5,1.3-6.8,1.3
		c-6.3,0-10-4.1-10-10.3c0-6.1,3.6-11,9.5-11c6.6,0,8.4,5.8,8.4,9.6c0,0.8-0.1,1.3-0.1,1.7H2181.6z M2192.4,647.2c0-2.4-1-6-5.1-6
		c-3.7,0-5.4,3.4-5.7,6H2192.4z"/>
	<path id="XMLID_51_" class="st1" d="M2201,645.4c0-2.4,0-4.5-0.2-6.3h3.2l0.1,4h0.2c0.9-2.7,3.2-4.5,5.6-4.5c0.4,0,0.7,0,1.1,0.1
		v3.5c-0.4-0.1-0.8-0.1-1.3-0.1c-2.6,0-4.5,2-5,4.7c-0.1,0.5-0.2,1.1-0.2,1.7v10.8h-3.7V645.4z"/>
</g>
</svg>
