<?xml version="1.0" encoding="utf-8"?>
<!-- Generator: Adobe Illustrator 19.0.0, SVG Export Plug-In . SVG Version: 6.00 Build 0)  -->
<svg version="1.1" id="Layer_1" xmlns="http://www.w3.org/2000/svg" xmlns:xlink="http://www.w3.org/1999/xlink" x="0px" y="0px"
	 viewBox="0 0 2480 750" style="enable-background:new 0 0 2480 750;" xml:space="preserve">
<style type="text/css">
	.st0{fill:#2A2D30;}
	.st1{fill:#774395;}
</style>
<g id="XMLID_25_">
	<path id="XMLID_319_" class="st0" d="M1052.2,111h-5.3V69.7h24.6v4.8h-19.2v13.8h17.9V93h-17.9V111z"/>
	<path id="XMLID_321_" class="st0" d="M1100.4,89.9v21h-4.4l-0.3-2.2c-2.7,1.9-6,2.9-9.8,2.9c-5.3,0-8-2.9-8-8.7
		c0-3.1,0.8-5.2,2.3-6.5c1.5-1.3,3.8-2,7-2h8.1v-4.7c0-1.9-0.5-3.2-1.5-4c-1-0.7-2.7-1.1-5.1-1.1c-2.9,0-5.9,0.3-9.1,1l-0.6-4.2
		c3.3-0.9,6.7-1.3,9.9-1.3c4.2,0,7.1,0.8,8.9,2.4C1099.5,84.1,1100.4,86.6,1100.4,89.9z M1095.2,104.6v-5.9h-7.7
		c-1.6,0-2.7,0.3-3.4,0.9c-0.7,0.6-1,1.6-1,3.1c0,1.7,0.3,2.8,0.8,3.4c0.5,0.6,1.7,0.9,3.5,0.9
		C1090,107.1,1092.6,106.3,1095.2,104.6z"/>
	<path id="XMLID_324_" class="st0" d="M1151.9,111h-5.2V87.9c0-1.9-1-2.8-2.9-2.8c-1.2,0-2.8,0.3-4.7,0.9c-1.9,0.6-3.7,1.3-5.4,2.2
		V111h-5.2V87.9c0-1.9-1-2.8-2.9-2.8c-1.1,0-2.7,0.3-4.7,0.9c-2,0.6-3.8,1.3-5.4,2.1V111h-5.2V80.8h4.2l0.5,2.6
		c4.5-2.1,8.5-3.2,12.2-3.2c2.9,0,4.9,1.1,5.8,3.2c4.5-2.1,8.6-3.2,12.5-3.2c4.4,0,6.6,2.6,6.6,7.7V111z"/>
	<path id="XMLID_326_" class="st0" d="M1185.1,100.2c0,3.4-1,6.1-3,8.2c-2,2.1-5.1,3.1-9.3,3.1c-4.2,0-7.3-1-9.3-3.1
		c-2-2.1-3-4.8-3-8.2v-8.7c0-3.4,1-6.1,3-8.2c2-2.1,5.1-3.1,9.3-3.1c4.2,0,7.3,1,9.3,3.1c2,2.1,3,4.8,3,8.2V100.2z M1179.9,91.3
		c0-4.4-2.4-6.6-7.1-6.6s-7.1,2.2-7.1,6.6v9.1c0,4.4,2.4,6.6,7.1,6.6s7.1-2.2,7.1-6.6V91.3z"/>
	<path id="XMLID_329_" class="st0" d="M1193.8,80.8h5.2v23.1c0,1.9,1,2.8,2.9,2.8c1.1,0,2.7-0.3,4.7-0.9c2-0.6,3.8-1.3,5.4-2.1V80.8
		h5.2V111h-4.2l-0.5-2.6c-4.5,2.1-8.5,3.2-12.2,3.2c-4.4,0-6.6-2.6-6.6-7.7V80.8z"/>
	<path id="XMLID_331_" class="st0" d="M1246.5,102.8c0,3.1-0.7,5.4-2.1,6.7c-1.4,1.3-4.2,2-8.3,2c-3.6,0-6.8-0.5-9.6-1.6l0.7-4.1
		c2.9,0.8,5.8,1.2,8.6,1.2c2.3,0,3.8-0.3,4.5-0.8c0.7-0.5,1.1-1.6,1.1-3.3c0-1.7-0.3-2.7-0.9-3.2c-0.6-0.5-2.4-1.1-5.4-1.9
		c-3.6-0.9-5.9-1.9-6.8-3.1c-0.9-1.1-1.4-3.3-1.4-6.6c0-2.9,0.8-4.9,2.3-6.2c1.5-1.3,4.2-1.9,8.1-1.9c3.1,0,6,0.4,8.6,1.1l-0.4,4.3
		c-3-0.6-5.8-0.9-8.4-0.9c-2.1,0-3.5,0.3-4.1,0.8c-0.6,0.5-1,1.5-1,3c0,1.8,0.2,2.9,0.7,3.5s2,1.1,4.4,1.7c2.3,0.6,4,1.1,5.1,1.5
		c1.2,0.4,2.1,1,2.8,1.7c0.7,0.7,1.1,1.5,1.2,2.3C1246.5,99.9,1246.5,101.2,1246.5,102.8z"/>
	<path id="XMLID_333_" class="st0" d="M1287.5,69.7l14,41.3h-5.4l-3.4-9.9h-17.5l-3.3,9.9h-5.4l13.9-41.3H1287.5z M1291.2,96.4
		l-7.4-22.9l-7.4,22.9H1291.2z"/>
	<path id="XMLID_336_" class="st0" d="M1307.4,102.3V90c0-6.6,3.3-9.9,9.8-9.9c2.7,0,5.6,0.3,8.6,0.9V68.4l5.2-0.7V111h-4.4
		l-0.4-2.7c-2.8,2.2-6.1,3.3-10,3.3C1310.4,111.6,1307.4,108.5,1307.4,102.3z M1325.8,103.4V85.7c-3.1-0.6-5.9-0.9-8.3-0.9
		c-1.7,0-3,0.4-3.8,1.3c-0.8,0.8-1.1,2.2-1.1,4v12.3c0,1.6,0.3,2.8,1,3.5s1.9,1.1,3.7,1.1C1320.3,107,1323.1,105.8,1325.8,103.4z"/>
	<path id="XMLID_339_" class="st0" d="M1350.6,106.7l8.3-25.9h5.1l-10,30.2h-6.9l-10-30.2h5.1L1350.6,106.7z"/>
	<path id="XMLID_341_" class="st0" d="M1375.3,75.9h-5.2v-7.5h5.2V75.9z M1375.3,111h-5.2V80.8h5.2V111z"/>
	<path id="XMLID_344_" class="st0" d="M1404.6,102.8c0,3.1-0.7,5.4-2.1,6.7c-1.4,1.3-4.2,2-8.3,2c-3.6,0-6.8-0.5-9.6-1.6l0.7-4.1
		c2.9,0.8,5.8,1.2,8.6,1.2c2.3,0,3.8-0.3,4.5-0.8c0.7-0.5,1.1-1.6,1.1-3.3c0-1.7-0.3-2.7-0.9-3.2c-0.6-0.5-2.4-1.1-5.4-1.9
		c-3.6-0.9-5.9-1.9-6.8-3.1c-0.9-1.1-1.4-3.3-1.4-6.6c0-2.9,0.8-4.9,2.3-6.2c1.5-1.3,4.2-1.9,8.1-1.9c3.1,0,6,0.4,8.6,1.1l-0.4,4.3
		c-3-0.6-5.8-0.9-8.4-0.9c-2.1,0-3.5,0.3-4.1,0.8c-0.6,0.5-1,1.5-1,3c0,1.8,0.2,2.9,0.7,3.5c0.5,0.6,2,1.1,4.4,1.7
		c2.3,0.6,4,1.1,5.1,1.5c1.2,0.4,2.1,1,2.8,1.7c0.7,0.7,1.1,1.5,1.2,2.3C1404.6,99.9,1404.6,101.2,1404.6,102.8z"/>
	<path id="XMLID_346_" class="st0" d="M1436.7,100.2c0,3.4-1,6.1-3,8.2c-2,2.1-5.1,3.1-9.3,3.1s-7.3-1-9.3-3.1c-2-2.1-3-4.8-3-8.2
		v-8.7c0-3.4,1-6.1,3-8.2c2-2.1,5.1-3.1,9.3-3.1s7.3,1,9.3,3.1c2,2.1,3,4.8,3,8.2V100.2z M1431.5,91.3c0-4.4-2.4-6.6-7.1-6.6
		c-4.7,0-7.1,2.2-7.1,6.6v9.1c0,4.4,2.4,6.6,7.1,6.6c4.7,0,7.1-2.2,7.1-6.6V91.3z"/>
	<path id="XMLID_349_" class="st0" d="M1458.8,80.1l0.7,4.8c-2.5,1.2-5.4,2.9-8.6,5.2V111h-5.2V80.8h4.5l0.3,4.2
		C1453,83,1455.8,81.4,1458.8,80.1z"/>
	<path id="XMLID_351_" class="st0" d="M1484.2,102.8c0,3.1-0.7,5.4-2.1,6.7c-1.4,1.3-4.2,2-8.3,2c-3.6,0-6.8-0.5-9.6-1.6l0.7-4.1
		c2.9,0.8,5.8,1.2,8.6,1.2c2.3,0,3.8-0.3,4.5-0.8c0.7-0.5,1.1-1.6,1.1-3.3c0-1.7-0.3-2.7-0.9-3.2c-0.6-0.5-2.4-1.1-5.4-1.9
		c-3.6-0.9-5.9-1.9-6.8-3.1c-0.9-1.1-1.4-3.3-1.4-6.6c0-2.9,0.8-4.9,2.3-6.2c1.5-1.3,4.2-1.9,8.1-1.9c3.1,0,6,0.4,8.6,1.1l-0.4,4.3
		c-3-0.6-5.8-0.9-8.4-0.9c-2.1,0-3.5,0.3-4.1,0.8c-0.6,0.5-1,1.5-1,3c0,1.8,0.2,2.9,0.7,3.5c0.5,0.6,2,1.1,4.4,1.7
		c2.3,0.6,4,1.1,5.1,1.5c1.2,0.4,2.1,1,2.8,1.7c0.7,0.7,1.1,1.5,1.2,2.3C1484.1,99.9,1484.2,101.2,1484.2,102.8z"/>
</g>
<g id="XMLID_21_">
	<g id="XMLID_24_">
		<path id="XMLID_256_" class="st1" d="M170,598l-7.1-19.1l-0.5,22.7h-3.5l1-28h4.6l8.1,21.6l8.1-21.6h4.6l1,28h-3.5l-0.5-22.7
			l-7.1,19.1H170z"/>
		<path id="XMLID_258_" class="st1" d="M207.3,587.3v14.2h-3l-0.2-1.5c-1.8,1.3-4.1,1.9-6.6,1.9c-3.6,0-5.4-2-5.4-5.9
			c0-2.1,0.5-3.5,1.5-4.4c1-0.9,2.6-1.3,4.7-1.3h5.5v-3.2c0-1.3-0.3-2.2-1-2.7c-0.7-0.5-1.8-0.8-3.5-0.8c-2,0-4,0.2-6.1,0.7
			l-0.4-2.8c2.3-0.6,4.5-0.9,6.7-0.9c2.8,0,4.8,0.5,6,1.6C206.7,583.4,207.3,585.1,207.3,587.3z M203.7,597.3v-4h-5.2
			c-1.1,0-1.9,0.2-2.3,0.6c-0.4,0.4-0.7,1.1-0.7,2.1c0,1.1,0.2,1.9,0.5,2.3c0.4,0.4,1.1,0.6,2.4,0.6
			C200.2,599,202,598.4,203.7,597.3z"/>
		<path id="XMLID_261_" class="st1" d="M222.8,580.7l0.5,3.2c-1.7,0.8-3.6,2-5.8,3.5v14.1h-3.5v-20.5h3.1l0.2,2.9
			C218.9,582.6,220.7,581.5,222.8,580.7z"/>
		<path id="XMLID_263_" class="st1" d="M237.8,598.5l0.5,2.7c-1.4,0.5-2.8,0.8-4.3,0.8c-1.8,0-3.1-0.4-3.9-1.1
			c-0.8-0.7-1.2-1.9-1.2-3.6v-13.3h-3.6v-2.9h3.6v-5l3.5-0.5v5.5h5.8l-0.3,2.9h-5.5v12.7c0,0.8,0.1,1.4,0.4,1.8s0.8,0.5,1.7,0.5
			C235.4,599,236.5,598.8,237.8,598.5z"/>
		<path id="XMLID_265_" class="st1" d="M247,577.8h-3.5v-5.1h3.5V577.8z M247,601.6h-3.5v-20.5h3.5V601.6z"/>
		<path id="XMLID_268_" class="st1" d="M270,601.6h-3.5v-15.6c0-1.3-0.7-1.9-2-1.9c-0.8,0-1.8,0.2-3.2,0.6c-1.4,0.4-2.6,0.9-3.7,1.4
			v15.5h-3.5v-20.5h2.9l0.3,1.8c3-1.5,5.8-2.2,8.2-2.2c3,0,4.5,1.7,4.5,5.2V601.6z"/>
		<path id="XMLID_270_" class="st1" d="M290.2,573.6v24.7h12.1v3.2h-15.8v-28H290.2z"/>
		<path id="XMLID_272_" class="st1" d="M307.4,581.1h3.5v15.6c0,1.3,0.7,1.9,2,1.9c0.8,0,1.8-0.2,3.2-0.6c1.4-0.4,2.6-0.9,3.7-1.4
			v-15.5h3.5v20.5h-2.9l-0.3-1.8c-3,1.5-5.8,2.2-8.2,2.2c-3,0-4.5-1.7-4.5-5.2V581.1z"/>
		<path id="XMLID_274_" class="st1" d="M340.6,598.5l0.5,2.7c-1.4,0.5-2.8,0.8-4.3,0.8c-1.8,0-3.1-0.4-3.9-1.1
			c-0.8-0.7-1.2-1.9-1.2-3.6v-13.3h-3.6v-2.9h3.6v-5l3.5-0.5v5.5h5.8l-0.3,2.9h-5.5v12.7c0,0.8,0.1,1.4,0.4,1.8s0.8,0.5,1.7,0.5
			C338.2,599,339.3,598.8,340.6,598.5z"/>
		<path id="XMLID_276_" class="st1" d="M362.2,601.6h-3.5v-15.6c0-1.3-0.7-1.9-2-1.9c-0.8,0-1.8,0.2-3.2,0.6
			c-1.4,0.4-2.6,0.9-3.7,1.5v15.4h-3.5v-28.8l3.5-0.5v10.6c3-1.4,5.6-2.1,7.9-2.1c3,0,4.5,1.7,4.5,5.2V601.6z"/>
		<path id="XMLID_278_" class="st1" d="M371.6,594.4c0,1.7,0.3,2.9,1,3.5c0.7,0.7,2,1,3.9,1c1.9,0,4-0.3,6.5-1l0.5,2.8
			c-2.1,0.8-4.5,1.2-7.2,1.2c-2.9,0-5-0.6-6.2-1.9c-1.3-1.3-1.9-3.2-1.9-5.6v-6.1c0-5.1,2.7-7.6,8-7.6c5.1,0,7.7,2.6,7.7,7.7v4.3
			h-12.2V594.4z M371.6,588.1v1.7h8.8v-1.7c0-1.5-0.3-2.6-0.9-3.4c-0.6-0.7-1.7-1.1-3.3-1.1s-2.7,0.4-3.4,1.1
			C372,585.5,371.6,586.6,371.6,588.1z"/>
		<path id="XMLID_281_" class="st1" d="M398.7,580.7l0.5,3.2c-1.7,0.8-3.6,2-5.8,3.5v14.1h-3.5v-20.5h3.1l0.2,2.9
			C394.8,582.6,396.6,581.5,398.7,580.7z"/>
		<path id="XMLID_283_" class="st1" d="M416.4,573.6v28h-3.6v-28H416.4z M431.6,573.6l-10.2,13.7l11.1,14.2h-4.3l-10.8-14.2
			l10.1-13.7H431.6z"/>
		<path id="XMLID_286_" class="st1" d="M441.2,577.8h-3.5v-5.1h3.5V577.8z M441.2,601.6h-3.5v-20.5h3.5V601.6z"/>
		<path id="XMLID_289_" class="st1" d="M464.2,601.6h-3.5v-15.6c0-1.3-0.7-1.9-2-1.9c-0.8,0-1.8,0.2-3.2,0.6
			c-1.4,0.4-2.6,0.9-3.7,1.4v15.5h-3.5v-20.5h2.9l0.3,1.8c3-1.5,5.8-2.2,8.2-2.2c3,0,4.5,1.7,4.5,5.2V601.6z"/>
		<path id="XMLID_291_" class="st1" d="M487,581.1v2.1l-2.4,0.5c0.7,1,1.1,2.3,1.1,4.1v0.9c0,2.2-0.7,4-2,5.2
			c-1.4,1.2-3.4,1.8-6,1.8c-0.8,0-1.5,0-2.1-0.1c-1,0.8-1.5,1.5-1.5,2.2c0,0.7,0.4,1.1,1.3,1.2l5.8,0.6c1.8,0.2,3.2,0.7,3.9,1.4
			c0.8,0.8,1.2,1.9,1.2,3.5c0,2.3-0.6,3.9-1.8,4.7c-1.2,0.8-3.6,1.2-7.2,1.2c-2.6,0-5.1-0.3-7.4-1l0.5-2.8c2.4,0.6,4.7,0.8,6.8,0.8
			c2.5,0,4.1-0.2,4.7-0.6c0.7-0.4,1-1.1,1-2.3c0-0.8-0.2-1.4-0.6-1.7c-0.4-0.3-1.2-0.5-2.4-0.6c-0.4,0-1.1-0.1-2.3-0.2
			c-1.2-0.1-2.2-0.2-3.1-0.3c-2.7-0.2-4-1.5-4-3.7c0-1.4,0.6-2.6,1.9-3.6c-1.9-1.1-2.9-3-2.9-5.8v-0.9c0-2.3,0.6-4.1,1.9-5.3
			c1.2-1.2,3.3-1.8,6.1-1.8c1.4,0,2.5,0.1,3.4,0.4H487z M482.3,587.8c0-1.5-0.4-2.5-1.1-3.2c-0.7-0.6-1.9-1-3.6-1
			c-1.7,0-2.9,0.3-3.6,0.9c-0.7,0.6-1,1.7-1,3.2v0.9c0,1.5,0.3,2.6,1,3.2c0.7,0.6,1.9,0.9,3.6,0.9c1.7,0,2.8-0.3,3.6-1
			c0.7-0.7,1.1-1.7,1.1-3.1V587.8z"/>
		<path id="XMLID_294_" class="st1" d="M501.8,573.6h3.6v28.1c0,1.6-0.3,2.8-0.8,3.5c-0.5,0.8-2,2.3-4.5,4.6l-2.3-2.6
			c1.9-1.8,3.1-3,3.4-3.5c0.4-0.5,0.5-1.2,0.5-2.2V573.6z"/>
		<path id="XMLID_296_" class="st1" d="M521.7,580.7l0.5,3.2c-1.7,0.8-3.6,2-5.8,3.5v14.1h-3.5v-20.5h3.1l0.2,2.9
			C517.8,582.6,519.7,581.5,521.7,580.7z"/>
		<path id="XMLID_298_" class="st1" d="M524.3,601.6v-4.8h3.6v4.8H524.3z"/>
		<path id="XMLID_300_" class="st1" d="M285.4,636.8l-2.9,8.9h-3.8l9.6-28.3h4.4l9.7,28.3h-3.9l-3-8.9H285.4z M294.7,634l-2.8-8.1
			c-0.6-1.8-1.1-3.5-1.5-5.2h-0.1c-0.4,1.7-0.9,3.4-1.4,5.1l-2.8,8.2H294.7z"/>
		<path id="XMLID_303_" class="st1" d="M320.8,645c-1,0.5-3.1,1.2-5.8,1.2c-6.1,0-10.1-4.2-10.1-10.4c0-6.3,4.3-10.8,10.9-10.8
			c2.2,0,4.1,0.5,5.1,1.1l-0.8,2.9c-0.9-0.5-2.3-1-4.3-1c-4.7,0-7.2,3.4-7.2,7.7c0,4.7,3,7.6,7.1,7.6c2.1,0,3.5-0.5,4.5-1L320.8,645
			z"/>
		<path id="XMLID_305_" class="st1" d="M330.6,619.6v5.8h5.3v2.8h-5.3v11c0,2.5,0.7,3.9,2.8,3.9c1,0,1.7-0.1,2.1-0.3l0.2,2.8
			c-0.7,0.3-1.8,0.5-3.3,0.5c-1.7,0-3.1-0.5-4-1.6c-1.1-1.1-1.4-2.9-1.4-5.3v-11.1h-3.2v-2.8h3.2v-4.9L330.6,619.6z"/>
		<path id="XMLID_307_" class="st1" d="M344.6,619.7c0,1.3-0.9,2.3-2.4,2.3c-1.3,0-2.2-1-2.2-2.3c0-1.3,1-2.3,2.3-2.3
			C343.7,617.4,344.6,618.4,344.6,619.7z M340.5,645.7v-20.3h3.7v20.3H340.5z"/>
		<path id="XMLID_310_" class="st1" d="M352.1,625.4l4,11.4c0.7,1.8,1.2,3.5,1.6,5.2h0.1c0.5-1.7,1-3.4,1.7-5.2l3.9-11.4h3.9
			l-8,20.3h-3.5l-7.7-20.3H352.1z"/>
		<path id="XMLID_312_" class="st1" d="M375.4,619.7c0,1.3-0.9,2.3-2.4,2.3c-1.3,0-2.2-1-2.2-2.3c0-1.3,1-2.3,2.3-2.3
			C374.6,617.4,375.4,618.4,375.4,619.7z M371.3,645.7v-20.3h3.7v20.3H371.3z"/>
		<path id="XMLID_315_" class="st1" d="M381.1,642c1.1,0.7,3,1.5,4.9,1.5c2.7,0,3.9-1.3,3.9-3c0-1.8-1-2.7-3.8-3.7
			c-3.7-1.3-5.4-3.3-5.4-5.8c0-3.3,2.6-6,7-6c2.1,0,3.9,0.6,5,1.3l-0.9,2.7c-0.8-0.5-2.3-1.2-4.2-1.2c-2.2,0-3.4,1.3-3.4,2.8
			c0,1.7,1.2,2.4,3.9,3.4c3.5,1.3,5.3,3.1,5.3,6.1c0,3.6-2.8,6.1-7.6,6.1c-2.2,0-4.3-0.5-5.7-1.4L381.1,642z"/>
		<path id="XMLID_317_" class="st1" d="M403.1,619.6v5.8h5.3v2.8h-5.3v11c0,2.5,0.7,3.9,2.8,3.9c1,0,1.7-0.1,2.1-0.3l0.2,2.8
			c-0.7,0.3-1.8,0.5-3.3,0.5c-1.7,0-3.1-0.5-4-1.6c-1.1-1.1-1.4-2.9-1.4-5.3v-11.1h-3.2v-2.8h3.2v-4.9L403.1,619.6z"/>
	</g>
</g>
<g id="XMLID_17_">
	<g id="XMLID_20_">
		<path id="XMLID_198_" class="st1" d="M696.5,601.6h-3.6v-12.7h-12.4v12.7h-3.6v-28h3.6v12.1h12.4v-12.1h3.6V601.6z"/>
		<path id="XMLID_200_" class="st1" d="M707.4,577.8h-3.5v-5.1h3.5V577.8z M707.4,601.6h-3.5v-20.5h3.5V601.6z"/>
		<path id="XMLID_203_" class="st1" d="M718,601.6h-3.5v-28.8l3.5-0.5V601.6z"/>
		<path id="XMLID_205_" class="st1" d="M728.7,601.6h-3.5v-28.8l3.5-0.5V601.6z"/>
		<path id="XMLID_207_" class="st1" d="M750.3,587.3v14.2h-3l-0.2-1.5c-1.8,1.3-4.1,1.9-6.6,1.9c-3.6,0-5.4-2-5.4-5.9
			c0-2.1,0.5-3.5,1.5-4.4c1-0.9,2.6-1.3,4.7-1.3h5.5v-3.2c0-1.3-0.3-2.2-1-2.7c-0.7-0.5-1.8-0.8-3.5-0.8c-2,0-4,0.2-6.1,0.7
			l-0.4-2.8c2.3-0.6,4.5-0.9,6.7-0.9c2.8,0,4.8,0.5,6,1.6C749.8,583.4,750.3,585.1,750.3,587.3z M746.8,597.3v-4h-5.2
			c-1.1,0-1.9,0.2-2.3,0.6c-0.4,0.4-0.7,1.1-0.7,2.1c0,1.1,0.2,1.9,0.5,2.3c0.4,0.4,1.1,0.6,2.4,0.6
			C743.3,599,745.1,598.4,746.8,597.3z"/>
		<path id="XMLID_210_" class="st1" d="M765.9,580.7l0.5,3.2c-1.7,0.8-3.6,2-5.8,3.5v14.1H757v-20.5h3.1l0.2,2.9
			C762,582.6,763.8,581.5,765.9,580.7z"/>
		<path id="XMLID_212_" class="st1" d="M773.5,609.8l2.9-8.3h-1.5l-6.6-20.5h3.5l5.6,17.6l5.7-17.6h3.5l-6.8,20.5l-2.9,8.3H773.5z"
			/>
		<path id="XMLID_214_" class="st1" d="M803.1,581.6v11.9c0,2,0.4,3.3,1.3,4.1s2.5,1.1,4.8,1.1c2.2,0,4.3-0.2,6.6-0.6l0.4,3.1
			c-2.2,0.5-4.6,0.8-7.1,0.8c-3.3,0-5.8-0.7-7.3-2.1c-1.5-1.4-2.3-3.4-2.3-6.2v-12.3c0-2.7,0.8-4.8,2.3-6.2c1.5-1.4,4-2.1,7.3-2.1
			c2.5,0,4.8,0.3,7.1,0.8l-0.4,3.1c-2.2-0.4-4.4-0.6-6.6-0.6c-2.3,0-3.9,0.4-4.8,1.1C803.6,578.3,803.1,579.7,803.1,581.6z"/>
		<path id="XMLID_216_" class="st1" d="M825.6,601.6H822v-28.8l3.5-0.5V601.6z"/>
		<path id="XMLID_218_" class="st1" d="M836.2,577.8h-3.5v-5.1h3.5V577.8z M836.2,601.6h-3.5v-20.5h3.5V601.6z"/>
		<path id="XMLID_221_" class="st1" d="M859.2,601.6h-3.5v-15.6c0-1.3-0.7-1.9-2-1.9c-0.8,0-1.8,0.2-3.2,0.6
			c-1.4,0.4-2.6,0.9-3.7,1.4v15.5h-3.5v-20.5h2.9l0.3,1.8c3-1.5,5.8-2.2,8.2-2.2c3,0,4.5,1.7,4.5,5.2V601.6z"/>
		<path id="XMLID_223_" class="st1" d="M876.4,598.5l0.5,2.7c-1.4,0.5-2.8,0.8-4.3,0.8c-1.8,0-3.1-0.4-3.9-1.1
			c-0.8-0.7-1.2-1.9-1.2-3.6v-13.3h-3.6v-2.9h3.6v-5l3.5-0.5v5.5h5.8l-0.3,2.9H871v12.7c0,0.8,0.1,1.4,0.4,1.8s0.8,0.5,1.7,0.5
			C874,599,875.1,598.8,876.4,598.5z"/>
		<path id="XMLID_225_" class="st1" d="M897.6,594.3c0,2.3-0.7,4.2-2,5.6c-1.4,1.4-3.5,2.1-6.3,2.1c-2.8,0-4.9-0.7-6.3-2.1
			c-1.4-1.4-2-3.3-2-5.6v-5.9c0-2.3,0.7-4.2,2-5.6c1.4-1.4,3.5-2.1,6.3-2.1c2.8,0,4.9,0.7,6.3,2.1c1.4,1.4,2,3.3,2,5.6V594.3z
			 M894.1,588.3c0-3-1.6-4.5-4.8-4.5s-4.8,1.5-4.8,4.5v6.2c0,3,1.6,4.5,4.8,4.5s4.8-1.5,4.8-4.5V588.3z"/>
		<path id="XMLID_228_" class="st1" d="M919.6,601.6H916v-15.6c0-1.3-0.7-1.9-2-1.9c-0.8,0-1.8,0.2-3.2,0.6
			c-1.4,0.4-2.6,0.9-3.7,1.4v15.5h-3.5v-20.5h2.9l0.3,1.8c3-1.5,5.8-2.2,8.2-2.2c3,0,4.5,1.7,4.5,5.2V601.6z"/>
		<path id="XMLID_230_" class="st1" d="M719.3,617.8c1.8-0.3,4.1-0.5,7-0.5c3.6,0,6.3,0.8,7.9,2.4c1.6,1.3,2.5,3.4,2.5,5.9
			c0,2.6-0.8,4.6-2.2,6c-1.9,2.1-5.1,3.1-8.7,3.1c-1.1,0-2.1,0-2.9-0.3v11.3h-3.7V617.8z M723,631.4c0.8,0.2,1.8,0.3,3,0.3
			c4.4,0,7.1-2.1,7.1-6c0-3.7-2.6-5.5-6.7-5.5c-1.6,0-2.8,0.1-3.4,0.3V631.4z"/>
		<path id="XMLID_233_" class="st1" d="M759.3,635.4c0,7.5-5.2,10.8-10.1,10.8c-5.5,0-9.7-4-9.7-10.5c0-6.8,4.5-10.8,10.1-10.8
			C755.3,625,759.3,629.2,759.3,635.4z M743.2,635.6c0,4.5,2.6,7.8,6.2,7.8c3.5,0,6.2-3.3,6.2-7.9c0-3.4-1.7-7.8-6.1-7.8
			C745.1,627.7,743.2,631.8,743.2,635.6z"/>
		<path id="XMLID_236_" class="st1" d="M764.4,615.9h3.7v29.8h-3.7V615.9z"/>
		<path id="XMLID_238_" class="st1" d="M778.8,619.7c0,1.3-0.9,2.3-2.4,2.3c-1.3,0-2.2-1-2.2-2.3c0-1.3,1-2.3,2.3-2.3
			C777.9,617.4,778.8,618.4,778.8,619.7z M774.7,645.7v-20.3h3.7v20.3H774.7z"/>
		<path id="XMLID_241_" class="st1" d="M789.4,619.6v5.8h5.3v2.8h-5.3v11c0,2.5,0.7,3.9,2.8,3.9c1,0,1.7-0.1,2.1-0.3l0.2,2.8
			c-0.7,0.3-1.8,0.5-3.3,0.5c-1.7,0-3.1-0.5-4-1.6c-1.1-1.1-1.4-2.9-1.4-5.3v-11.1h-3.2v-2.8h3.2v-4.9L789.4,619.6z"/>
		<path id="XMLID_243_" class="st1" d="M803.4,619.7c0,1.3-0.9,2.3-2.4,2.3c-1.3,0-2.2-1-2.2-2.3c0-1.3,1-2.3,2.3-2.3
			C802.5,617.4,803.4,618.4,803.4,619.7z M799.3,645.7v-20.3h3.7v20.3H799.3z"/>
		<path id="XMLID_246_" class="st1" d="M824,645c-1,0.5-3.1,1.2-5.8,1.2c-6.1,0-10.1-4.2-10.1-10.4c0-6.3,4.3-10.8,10.9-10.8
			c2.2,0,4.1,0.5,5.1,1.1l-0.8,2.9c-0.9-0.5-2.3-1-4.3-1c-4.7,0-7.2,3.4-7.2,7.7c0,4.7,3,7.6,7.1,7.6c2.1,0,3.5-0.5,4.5-1L824,645z"
			/>
		<path id="XMLID_248_" class="st1" d="M832.9,619.7c0,1.3-0.9,2.3-2.4,2.3c-1.3,0-2.2-1-2.2-2.3c0-1.3,1-2.3,2.3-2.3
			C832,617.4,832.9,618.4,832.9,619.7z M828.8,645.7v-20.3h3.7v20.3H828.8z"/>
		<path id="XMLID_251_" class="st1" d="M850.3,645.7l-0.3-2.6h-0.1c-1.1,1.6-3.3,3-6.2,3c-4.1,0-6.2-2.9-6.2-5.8
			c0-4.9,4.4-7.6,12.2-7.6v-0.4c0-1.7-0.5-4.7-4.6-4.7c-1.9,0-3.9,0.6-5.3,1.5l-0.8-2.4c1.7-1.1,4.1-1.8,6.7-1.8
			c6.2,0,7.7,4.2,7.7,8.3v7.6c0,1.8,0.1,3.5,0.3,4.9H850.3z M849.7,635.4c-4-0.1-8.6,0.6-8.6,4.6c0,2.4,1.6,3.5,3.5,3.5
			c2.6,0,4.3-1.7,4.9-3.4c0.1-0.4,0.2-0.8,0.2-1.2V635.4z"/>
		<path id="XMLID_254_" class="st1" d="M859.7,630.9c0-2.1,0-3.8-0.2-5.5h3.3l0.2,3.4h0.1c1-1.9,3.4-3.8,6.7-3.8
			c2.8,0,7.2,1.7,7.2,8.7v12.1h-3.7V634c0-3.3-1.2-6-4.7-6c-2.4,0-4.3,1.7-5,3.8c-0.2,0.5-0.3,1.1-0.3,1.7v12.2h-3.7V630.9z"/>
	</g>
</g>
<g id="XMLID_12_">
	<g id="XMLID_16_">
		<path id="XMLID_157_" class="st1" d="M1148.1,601.6v-28h10.1c2.9,0,5,0.6,6.2,1.8c1.3,1.2,1.9,2.9,1.9,5.1v4.2
			c0,2.3-0.6,4-1.9,5.2c-1.3,1.2-3.3,1.8-6.2,1.8h-6.5v10H1148.1z M1162.7,580.5c0-1.4-0.3-2.3-1-2.9c-0.7-0.5-1.9-0.8-3.6-0.8h-6.4
			v11.5h6.4c1.7,0,2.9-0.3,3.6-0.8c0.7-0.5,1-1.5,1-2.9V580.5z"/>
		<path id="XMLID_160_" class="st1" d="M1174.2,594.4c0,1.7,0.3,2.9,1,3.5c0.7,0.7,2,1,3.9,1c1.9,0,4-0.3,6.5-1l0.5,2.8
			c-2.1,0.8-4.5,1.2-7.2,1.2c-2.9,0-5-0.6-6.2-1.9c-1.3-1.3-1.9-3.2-1.9-5.6v-6.1c0-5.1,2.7-7.6,8-7.6c5.1,0,7.7,2.6,7.7,7.7v4.3
			h-12.2V594.4z M1174.2,588.1v1.7h8.8v-1.7c0-1.5-0.3-2.6-0.9-3.4c-0.6-0.7-1.7-1.1-3.3-1.1s-2.7,0.4-3.4,1.1
			C1174.5,585.5,1174.2,586.6,1174.2,588.1z"/>
		<path id="XMLID_163_" class="st1" d="M1208.1,581.1v2.1l-2.4,0.5c0.7,1,1.1,2.3,1.1,4.1v0.9c0,2.2-0.7,4-2,5.2
			c-1.4,1.2-3.4,1.8-6,1.8c-0.8,0-1.5,0-2.1-0.1c-1,0.8-1.5,1.5-1.5,2.2c0,0.7,0.4,1.1,1.3,1.2l5.8,0.6c1.8,0.2,3.2,0.7,3.9,1.4
			c0.8,0.8,1.2,1.9,1.2,3.5c0,2.3-0.6,3.9-1.8,4.7c-1.2,0.8-3.6,1.2-7.2,1.2c-2.6,0-5.1-0.3-7.4-1l0.5-2.8c2.4,0.6,4.7,0.8,6.8,0.8
			c2.5,0,4.1-0.2,4.7-0.6c0.7-0.4,1-1.1,1-2.3c0-0.8-0.2-1.4-0.6-1.7c-0.4-0.3-1.2-0.5-2.4-0.6c-0.4,0-1.1-0.1-2.3-0.2
			c-1.2-0.1-2.2-0.2-3.1-0.3c-2.7-0.2-4-1.5-4-3.7c0-1.4,0.6-2.6,1.9-3.6c-1.9-1.1-2.9-3-2.9-5.8v-0.9c0-2.3,0.6-4.1,1.9-5.3
			c1.2-1.2,3.3-1.8,6.1-1.8c1.4,0,2.5,0.1,3.4,0.4H1208.1z M1203.5,587.8c0-1.5-0.4-2.5-1.1-3.2c-0.7-0.6-1.9-1-3.6-1
			c-1.7,0-2.9,0.3-3.6,0.9c-0.7,0.6-1,1.7-1,3.2v0.9c0,1.5,0.3,2.6,1,3.2c0.7,0.6,1.9,0.9,3.6,0.9c1.7,0,2.8-0.3,3.6-1
			c0.7-0.7,1.1-1.7,1.1-3.1V587.8z"/>
		<path id="XMLID_166_" class="st1" d="M1229.1,581.1v2.1l-2.4,0.5c0.7,1,1.1,2.3,1.1,4.1v0.9c0,2.2-0.7,4-2,5.2
			c-1.4,1.2-3.4,1.8-6,1.8c-0.8,0-1.5,0-2.1-0.1c-1,0.8-1.5,1.5-1.5,2.2c0,0.7,0.4,1.1,1.3,1.2l5.8,0.6c1.8,0.2,3.2,0.7,3.9,1.4
			c0.8,0.8,1.2,1.9,1.2,3.5c0,2.3-0.6,3.9-1.8,4.7c-1.2,0.8-3.6,1.2-7.2,1.2c-2.6,0-5.1-0.3-7.4-1l0.5-2.8c2.4,0.6,4.7,0.8,6.8,0.8
			c2.5,0,4.1-0.2,4.7-0.6c0.7-0.4,1-1.1,1-2.3c0-0.8-0.2-1.4-0.6-1.7c-0.4-0.3-1.2-0.5-2.4-0.6c-0.4,0-1.1-0.1-2.3-0.2
			c-1.2-0.1-2.2-0.2-3.1-0.3c-2.7-0.2-4-1.5-4-3.7c0-1.4,0.6-2.6,1.9-3.6c-1.9-1.1-2.9-3-2.9-5.8v-0.9c0-2.3,0.6-4.1,1.9-5.3
			c1.2-1.2,3.3-1.8,6.1-1.8c1.4,0,2.5,0.1,3.4,0.4H1229.1z M1224.5,587.8c0-1.5-0.4-2.5-1.1-3.2c-0.7-0.6-1.9-1-3.6-1
			c-1.7,0-2.9,0.3-3.6,0.9c-0.7,0.6-1,1.7-1,3.2v0.9c0,1.5,0.3,2.6,1,3.2c0.7,0.6,1.9,0.9,3.6,0.9c1.7,0,2.8-0.3,3.6-1
			c0.7-0.7,1.1-1.7,1.1-3.1V587.8z"/>
		<path id="XMLID_169_" class="st1" d="M1237.2,609.8l2.9-8.3h-1.5l-6.6-20.5h3.5l5.6,17.6l5.7-17.6h3.5l-6.8,20.5l-2.9,8.3H1237.2z
			"/>
		<path id="XMLID_171_" class="st1" d="M1283.5,581.7v11.8c0,2.5-0.8,4.6-2.5,6.1s-4.2,2.4-7.6,2.4s-6-0.8-7.6-2.4
			c-1.7-1.6-2.5-3.6-2.5-6.1v-11.8c0-2.5,0.8-4.6,2.5-6.1c1.7-1.6,4.2-2.4,7.6-2.4s6,0.8,7.6,2.4
			C1282.6,577.1,1283.5,579.1,1283.5,581.7z M1266.8,581.7v11.7c0,3.6,2.2,5.4,6.5,5.4s6.5-1.8,6.5-5.4v-11.7c0-3.6-2.2-5.4-6.5-5.4
			S1266.8,578.2,1266.8,581.7z"/>
		<path id="XMLID_174_" class="st1" d="M1293.7,601.6h-3.5v-28.8l3.5-0.5V601.6z"/>
		<path id="XMLID_176_" class="st1" d="M1313.6,596.1c0,2.1-0.5,3.6-1.4,4.6c-1,0.9-2.8,1.4-5.6,1.4c-2.4,0-4.6-0.4-6.5-1.1l0.5-2.8
			c2,0.6,3.9,0.8,5.8,0.8c1.6,0,2.6-0.2,3.1-0.5c0.5-0.4,0.7-1.1,0.7-2.2c0-1.1-0.2-1.8-0.6-2.2c-0.4-0.3-1.6-0.8-3.7-1.3
			c-2.5-0.6-4-1.3-4.6-2.1c-0.6-0.8-0.9-2.3-0.9-4.5c0-1.9,0.5-3.3,1.6-4.2c1-0.9,2.9-1.3,5.5-1.3c2.1,0,4.1,0.2,5.8,0.7l-0.3,2.9
			c-2-0.4-3.9-0.6-5.7-0.6c-1.4,0-2.4,0.2-2.8,0.5c-0.4,0.4-0.7,1-0.7,2c0,1.2,0.2,2,0.5,2.4s1.3,0.8,3,1.2c1.5,0.4,2.7,0.7,3.5,1
			c0.8,0.3,1.4,0.7,1.9,1.2s0.7,1,0.8,1.6C1313.5,594.1,1313.6,595,1313.6,596.1z"/>
		<path id="XMLID_178_" class="st1" d="M1335.3,594.3c0,2.3-0.7,4.2-2,5.6c-1.4,1.4-3.5,2.1-6.3,2.1s-4.9-0.7-6.3-2.1
			c-1.4-1.4-2-3.3-2-5.6v-5.9c0-2.3,0.7-4.2,2-5.6s3.5-2.1,6.3-2.1s4.9,0.7,6.3,2.1c1.4,1.4,2,3.3,2,5.6V594.3z M1331.8,588.3
			c0-3-1.6-4.5-4.8-4.5s-4.8,1.5-4.8,4.5v6.2c0,3,1.6,4.5,4.8,4.5s4.8-1.5,4.8-4.5V588.3z"/>
		<path id="XMLID_181_" class="st1" d="M1357.2,601.6h-3.5v-15.6c0-1.3-0.7-1.9-2-1.9c-0.8,0-1.8,0.2-3.2,0.6
			c-1.4,0.4-2.6,0.9-3.7,1.4v15.5h-3.5v-20.5h2.9l0.3,1.8c3-1.5,5.8-2.2,8.2-2.2c3,0,4.5,1.7,4.5,5.2V601.6z"/>
		<path id="XMLID_183_" class="st1" d="M1199.8,633.3c-0.2-3.9-0.5-8.7-0.4-12.2h-0.1c-1,3.3-2.1,6.8-3.6,10.8l-5,13.7h-2.8
			l-4.6-13.5c-1.3-4-2.5-7.6-3.3-11h-0.1c-0.1,3.5-0.3,8.3-0.5,12.5l-0.8,12.1h-3.5l2-28.3h4.7l4.8,13.7c1.2,3.5,2.1,6.6,2.9,9.5
			h0.1c0.7-2.9,1.7-6,3-9.5l5-13.7h4.7l1.8,28.3h-3.6L1199.8,633.3z"/>
		<path id="XMLID_185_" class="st1" d="M1221.5,645.7l-0.3-2.6h-0.1c-1.1,1.6-3.3,3-6.2,3c-4.1,0-6.2-2.9-6.2-5.8
			c0-4.9,4.4-7.6,12.2-7.6v-0.4c0-1.7-0.5-4.7-4.6-4.7c-1.9,0-3.9,0.6-5.3,1.5l-0.8-2.4c1.7-1.1,4.1-1.8,6.7-1.8
			c6.2,0,7.7,4.2,7.7,8.3v7.6c0,1.8,0.1,3.5,0.3,4.9H1221.5z M1221,635.4c-4-0.1-8.6,0.6-8.6,4.6c0,2.4,1.6,3.5,3.5,3.5
			c2.6,0,4.3-1.7,4.9-3.4c0.1-0.4,0.2-0.8,0.2-1.2V635.4z"/>
		<path id="XMLID_188_" class="st1" d="M1248.5,615.9v24.6c0,1.8,0,3.9,0.2,5.3h-3.3l-0.2-3.5h-0.1c-1.1,2.3-3.6,4-6.9,4
			c-4.9,0-8.7-4.2-8.7-10.3c0-6.8,4.2-10.9,9.1-10.9c3.1,0,5.2,1.5,6.1,3.1h0.1v-12.1H1248.5z M1244.8,633.7c0-0.5,0-1.1-0.2-1.6
			c-0.5-2.4-2.6-4.3-5.3-4.3c-3.8,0-6.1,3.4-6.1,7.9c0,4.1,2,7.5,6,7.5c2.5,0,4.7-1.6,5.4-4.4c0.1-0.5,0.2-1,0.2-1.6V633.7z"/>
		<path id="XMLID_191_" class="st1" d="M1255,630.9c0-2.1,0-3.8-0.2-5.5h3.2l0.2,3.3h0.1c1.1-1.9,3-3.7,6.4-3.7
			c2.8,0,4.9,1.7,5.8,4.1h0.1c0.6-1.1,1.4-2,2.3-2.6c1.2-0.9,2.6-1.4,4.5-1.4c2.7,0,6.7,1.8,6.7,8.8v12h-3.6v-11.5
			c0-3.9-1.4-6.3-4.4-6.3c-2.1,0-3.7,1.6-4.4,3.4c-0.2,0.5-0.3,1.2-0.3,1.8v12.6h-3.6v-12.2c0-3.2-1.4-5.6-4.2-5.6
			c-2.3,0-4,1.8-4.6,3.7c-0.2,0.5-0.3,1.2-0.3,1.8v12.3h-3.6V630.9z"/>
		<path id="XMLID_193_" class="st1" d="M1292.5,636.3c0.1,5,3.3,7.1,7,7.1c2.6,0,4.2-0.5,5.6-1l0.6,2.6c-1.3,0.6-3.5,1.3-6.8,1.3
			c-6.3,0-10-4.1-10-10.3c0-6.1,3.6-11,9.5-11c6.6,0,8.4,5.8,8.4,9.6c0,0.8-0.1,1.3-0.1,1.7H1292.5z M1303.4,633.6c0-2.4-1-6-5.1-6
			c-3.7,0-5.4,3.4-5.7,6H1303.4z"/>
		<path id="XMLID_196_" class="st1" d="M1311.9,630.9c0-2.1,0-3.8-0.2-5.5h3.3l0.2,3.4h0.1c1-1.9,3.4-3.8,6.7-3.8
			c2.8,0,7.2,1.7,7.2,8.7v12.1h-3.7V634c0-3.3-1.2-6-4.7-6c-2.4,0-4.3,1.7-5,3.8c-0.2,0.5-0.3,1.1-0.3,1.7v12.2h-3.7V630.9z"/>
	</g>
</g>
<g id="XMLID_10_">
</g>
<g id="XMLID_9_">
</g>
<g id="XMLID_8_">
</g>
<g id="XMLID_7_">
</g>
<g id="XMLID_6_">
</g>
<g id="XMLID_4_">
	<g id="XMLID_5_">
		<path id="XMLID_74_" class="st1" d="M2038.4,601.6l-12.2-23.8v23.8h-3.4v-28h5l12.2,23.9v-23.9h3.4v28H2038.4z"/>
		<path id="XMLID_76_" class="st1" d="M2053.2,594.4c0,1.7,0.3,2.9,1,3.5c0.7,0.7,2,1,3.9,1c1.9,0,4-0.3,6.5-1l0.5,2.8
			c-2.1,0.8-4.5,1.2-7.2,1.2c-2.9,0-5-0.6-6.2-1.9s-1.9-3.2-1.9-5.6v-6.1c0-5.1,2.7-7.6,8-7.6c5.1,0,7.7,2.6,7.7,7.7v4.3h-12.2
			V594.4z M2053.2,588.1v1.7h8.8v-1.7c0-1.5-0.3-2.6-0.9-3.4c-0.6-0.7-1.7-1.1-3.3-1.1s-2.7,0.4-3.4,1.1
			C2053.5,585.5,2053.2,586.6,2053.2,588.1z"/>
		<path id="XMLID_79_" class="st1" d="M2074.9,601.6h-3.5v-28.8l3.5-0.5V601.6z"/>
		<path id="XMLID_81_" class="st1" d="M2094.7,596.1c0,2.1-0.5,3.6-1.4,4.6c-1,0.9-2.8,1.4-5.6,1.4c-2.4,0-4.6-0.4-6.5-1.1l0.5-2.8
			c2,0.6,3.9,0.8,5.8,0.8c1.6,0,2.6-0.2,3.1-0.5c0.5-0.4,0.7-1.1,0.7-2.2c0-1.1-0.2-1.8-0.6-2.2c-0.4-0.3-1.6-0.8-3.7-1.3
			c-2.5-0.6-4-1.3-4.6-2.1c-0.6-0.8-0.9-2.3-0.9-4.5c0-1.9,0.5-3.3,1.6-4.2c1-0.9,2.9-1.3,5.5-1.3c2.1,0,4.1,0.2,5.8,0.7l-0.3,2.9
			c-2-0.4-3.9-0.6-5.7-0.6c-1.4,0-2.4,0.2-2.8,0.5c-0.4,0.4-0.7,1-0.7,2c0,1.2,0.2,2,0.5,2.4s1.3,0.8,3,1.2c1.5,0.4,2.7,0.7,3.5,1
			c0.8,0.3,1.4,0.7,1.9,1.2s0.7,1,0.8,1.6C2094.7,594.1,2094.7,595,2094.7,596.1z"/>
		<path id="XMLID_83_" class="st1" d="M2116.4,594.3c0,2.3-0.7,4.2-2,5.6c-1.4,1.4-3.5,2.1-6.3,2.1s-4.9-0.7-6.3-2.1
			c-1.4-1.4-2-3.3-2-5.6v-5.9c0-2.3,0.7-4.2,2-5.6s3.5-2.1,6.3-2.1s4.9,0.7,6.3,2.1c1.4,1.4,2,3.3,2,5.6V594.3z M2112.9,588.3
			c0-3-1.6-4.5-4.8-4.5s-4.8,1.5-4.8,4.5v6.2c0,3,1.6,4.5,4.8,4.5s4.8-1.5,4.8-4.5V588.3z"/>
		<path id="XMLID_86_" class="st1" d="M2138.4,601.6h-3.5v-15.6c0-1.3-0.7-1.9-2-1.9c-0.8,0-1.8,0.2-3.2,0.6
			c-1.4,0.4-2.6,0.9-3.7,1.4v15.5h-3.5v-20.5h2.9l0.3,1.8c3-1.5,5.8-2.2,8.2-2.2c3,0,4.5,1.7,4.5,5.2V601.6z"/>
		<path id="XMLID_88_" class="st1" d="M2165.8,598l-7.1-19.1l-0.5,22.7h-3.5l1-28h4.6l8.1,21.6l8.1-21.6h4.6l1,28h-3.5l-0.5-22.7
			l-7.1,19.1H2165.8z"/>
		<path id="XMLID_90_" class="st1" d="M2203,587.3v14.2h-3l-0.2-1.5c-1.8,1.3-4.1,1.9-6.6,1.9c-3.6,0-5.4-2-5.4-5.9
			c0-2.1,0.5-3.5,1.5-4.4c1-0.9,2.6-1.3,4.7-1.3h5.5v-3.2c0-1.3-0.3-2.2-1-2.7c-0.7-0.5-1.8-0.8-3.5-0.8c-2,0-4,0.2-6.1,0.7
			l-0.4-2.8c2.3-0.6,4.5-0.9,6.7-0.9c2.8,0,4.8,0.5,6,1.6S2203,585.1,2203,587.3z M2199.5,597.3v-4h-5.2c-1.1,0-1.9,0.2-2.3,0.6
			c-0.4,0.4-0.7,1.1-0.7,2.1c0,1.1,0.2,1.9,0.5,2.3s1.1,0.6,2.4,0.6C2196,599,2197.7,598.4,2199.5,597.3z"/>
		<path id="XMLID_93_" class="st1" d="M2225.5,601.6h-3.5v-15.6c0-1.3-0.7-1.9-2-1.9c-0.8,0-1.8,0.2-3.2,0.6
			c-1.4,0.4-2.6,0.9-3.7,1.4v15.5h-3.5v-20.5h2.9l0.3,1.8c3-1.5,5.8-2.2,8.2-2.2c3,0,4.5,1.7,4.5,5.2V601.6z"/>
		<path id="XMLID_95_" class="st1" d="M2231.7,595.7v-8.4c0-4.5,2.2-6.7,6.6-6.7c1.8,0,3.8,0.2,5.8,0.6v-8.6l3.5-0.5v29.3h-3
			l-0.3-1.8c-1.9,1.5-4.1,2.3-6.8,2.3C2233.7,602,2231.7,599.9,2231.7,595.7z M2244.2,596.4v-12c-2.1-0.4-4-0.6-5.6-0.6
			c-1.2,0-2,0.3-2.5,0.9c-0.5,0.6-0.8,1.5-0.8,2.7v8.4c0,1.1,0.2,1.9,0.7,2.4s1.3,0.8,2.5,0.8
			C2240.4,598.9,2242.3,598.1,2244.2,596.4z"/>
		<path id="XMLID_98_" class="st1" d="M2257.3,594.4c0,1.7,0.3,2.9,1,3.5c0.7,0.7,2,1,3.9,1c1.9,0,4-0.3,6.5-1l0.5,2.8
			c-2.1,0.8-4.5,1.2-7.2,1.2c-2.9,0-5-0.6-6.2-1.9s-1.9-3.2-1.9-5.6v-6.1c0-5.1,2.7-7.6,8-7.6c5.1,0,7.7,2.6,7.7,7.7v4.3h-12.2
			V594.4z M2257.3,588.1v1.7h8.8v-1.7c0-1.5-0.3-2.6-0.9-3.4c-0.6-0.7-1.7-1.1-3.3-1.1s-2.7,0.4-3.4,1.1
			C2257.7,585.5,2257.3,586.6,2257.3,588.1z"/>
		<path id="XMLID_101_" class="st1" d="M2279,601.6h-3.5v-28.8l3.5-0.5V601.6z"/>
		<path id="XMLID_103_" class="st1" d="M2300.6,587.3v14.2h-3l-0.2-1.5c-1.8,1.3-4.1,1.9-6.6,1.9c-3.6,0-5.4-2-5.4-5.9
			c0-2.1,0.5-3.5,1.5-4.4c1-0.9,2.6-1.3,4.7-1.3h5.5v-3.2c0-1.3-0.3-2.2-1-2.7c-0.7-0.5-1.8-0.8-3.5-0.8c-2,0-4,0.2-6.1,0.7
			l-0.4-2.8c2.3-0.6,4.5-0.9,6.7-0.9c2.8,0,4.8,0.5,6,1.6S2300.6,585.1,2300.6,587.3z M2297.1,597.3v-4h-5.2c-1.1,0-1.9,0.2-2.3,0.6
			c-0.4,0.4-0.7,1.1-0.7,2.1c0,1.1,0.2,1.9,0.5,2.3s1.1,0.6,2.4,0.6C2293.6,599,2295.3,598.4,2297.1,597.3z"/>
		<path id="XMLID_106_" class="st1" d="M1954.3,641.3c1.6,1,4,1.8,6.6,1.8c3.7,0,5.9-2,5.9-4.8c0-2.6-1.5-4.2-5.3-5.6
			c-4.6-1.6-7.5-4-7.5-8c0-4.4,3.7-7.7,9.2-7.7c2.9,0,5,0.7,6.3,1.4l-1,3c-0.9-0.5-2.8-1.3-5.4-1.3c-3.9,0-5.3,2.3-5.3,4.2
			c0,2.6,1.7,3.9,5.6,5.5c4.8,1.8,7.2,4.2,7.2,8.3c0,4.4-3.2,8.1-9.9,8.1c-2.7,0-5.7-0.8-7.2-1.8L1954.3,641.3z"/>
		<path id="XMLID_108_" class="st1" d="M1994.5,635.4c0,7.5-5.2,10.8-10.1,10.8c-5.5,0-9.7-4-9.7-10.5c0-6.8,4.5-10.8,10.1-10.8
			C1990.5,625,1994.5,629.2,1994.5,635.4z M1978.3,635.6c0,4.5,2.6,7.8,6.2,7.8c3.5,0,6.2-3.3,6.2-7.9c0-3.4-1.7-7.8-6.1-7.8
			C1980.2,627.7,1978.3,631.8,1978.3,635.6z"/>
		<path id="XMLID_111_" class="st1" d="M2016.6,640.2c0,2.1,0,3.9,0.2,5.5h-3.3l-0.2-3.3h-0.1c-1,1.6-3.1,3.8-6.7,3.8
			c-3.2,0-7-1.8-7-8.9v-11.9h3.7v11.3c0,3.9,1.2,6.5,4.5,6.5c2.5,0,4.2-1.7,4.9-3.4c0.2-0.5,0.3-1.2,0.3-1.9v-12.5h3.7V640.2z"/>
		<path id="XMLID_113_" class="st1" d="M2027.6,619.6v5.8h5.3v2.8h-5.3v11c0,2.5,0.7,3.9,2.8,3.9c1,0,1.7-0.1,2.1-0.3l0.2,2.8
			c-0.7,0.3-1.8,0.5-3.3,0.5c-1.7,0-3.1-0.5-4-1.6c-1-1.1-1.4-2.9-1.4-5.3v-11.1h-3.2v-2.8h3.2v-4.9L2027.6,619.6z"/>
		<path id="XMLID_115_" class="st1" d="M2037.4,615.9h3.7v12.7h0.1c0.6-1.1,1.5-2,2.6-2.6c1.1-0.6,2.4-1.1,3.8-1.1
			c2.7,0,7.1,1.7,7.1,8.7v12.1h-3.7v-11.7c0-3.3-1.2-6-4.7-6c-2.4,0-4.3,1.7-5,3.7c-0.2,0.5-0.3,1-0.3,1.8v12.3h-3.7V615.9z"/>
		<path id="XMLID_117_" class="st1" d="M2075.2,636.8l-2.9,8.9h-3.8l9.6-28.3h4.4l9.7,28.3h-3.9l-3-8.9H2075.2z M2084.5,634
			l-2.8-8.1c-0.6-1.8-1-3.5-1.5-5.2h-0.1c-0.4,1.7-0.9,3.4-1.4,5.1l-2.8,8.2H2084.5z"/>
		<path id="XMLID_120_" class="st1" d="M2096.7,645.7v-17.5h-2.9v-2.8h2.9v-1c0-2.9,0.6-5.5,2.4-7.1c1.4-1.3,3.2-1.9,5-1.9
			c1.3,0,2.4,0.3,3.2,0.6l-0.5,2.9c-0.5-0.3-1.3-0.5-2.4-0.5c-3.2,0-3.9,2.8-3.9,5.9v1.1h4.9v2.8h-4.9v17.5H2096.7z"/>
		<path id="XMLID_122_" class="st1" d="M2109,631.8c0-2.4,0-4.5-0.2-6.3h3.2l0.1,4h0.2c0.9-2.7,3.2-4.5,5.6-4.5c0.4,0,0.7,0,1.1,0.1
			v3.5c-0.4-0.1-0.8-0.1-1.3-0.1c-2.6,0-4.5,2-5,4.7c-0.1,0.5-0.2,1.1-0.2,1.7v10.8h-3.7V631.8z"/>
		<path id="XMLID_124_" class="st1" d="M2127.4,619.7c0,1.3-0.9,2.3-2.4,2.3c-1.3,0-2.2-1-2.2-2.3c0-1.3,1-2.3,2.3-2.3
			C2126.5,617.4,2127.4,618.4,2127.4,619.7z M2123.3,645.7v-20.3h3.7v20.3H2123.3z"/>
		<path id="XMLID_127_" class="st1" d="M2148.1,645c-1,0.5-3.1,1.2-5.8,1.2c-6.1,0-10.1-4.2-10.1-10.4c0-6.3,4.3-10.8,10.9-10.8
			c2.2,0,4.1,0.5,5.1,1.1l-0.8,2.9c-0.9-0.5-2.3-1-4.3-1c-4.7,0-7.2,3.4-7.2,7.7c0,4.7,3,7.6,7.1,7.6c2.1,0,3.5-0.5,4.5-1
			L2148.1,645z"/>
		<path id="XMLID_129_" class="st1" d="M2164.1,645.7l-0.3-2.6h-0.1c-1.1,1.6-3.3,3-6.2,3c-4.1,0-6.2-2.9-6.2-5.8
			c0-4.9,4.4-7.6,12.2-7.6v-0.4c0-1.7-0.5-4.7-4.6-4.7c-1.9,0-3.9,0.6-5.3,1.5l-0.8-2.4c1.7-1.1,4.1-1.8,6.7-1.8
			c6.2,0,7.7,4.2,7.7,8.3v7.6c0,1.8,0.1,3.5,0.3,4.9H2164.1z M2163.5,635.4c-4-0.1-8.6,0.6-8.6,4.6c0,2.4,1.6,3.5,3.5,3.5
			c2.6,0,4.3-1.7,4.9-3.4c0.1-0.4,0.2-0.8,0.2-1.2V635.4z"/>
		<path id="XMLID_132_" class="st1" d="M2173.5,630.9c0-2.1,0-3.8-0.2-5.5h3.3l0.2,3.4h0.1c1-1.9,3.4-3.8,6.7-3.8
			c2.8,0,7.2,1.7,7.2,8.7v12.1h-3.7V634c0-3.3-1.2-6-4.7-6c-2.4,0-4.3,1.7-5,3.8c-0.2,0.5-0.3,1.1-0.3,1.7v12.2h-3.7V630.9z"/>
		<path id="XMLID_134_" class="st1" d="M2206.6,617.8c1.8-0.3,4.1-0.5,7-0.5c3.6,0,6.3,0.8,7.9,2.4c1.6,1.3,2.5,3.4,2.5,5.9
			c0,2.6-0.8,4.6-2.2,6c-1.9,2.1-5.1,3.1-8.7,3.1c-1.1,0-2.1,0-2.9-0.3v11.3h-3.7V617.8z M2210.3,631.4c0.8,0.2,1.8,0.3,3,0.3
			c4.4,0,7.1-2.1,7.1-6c0-3.7-2.6-5.5-6.7-5.5c-1.6,0-2.8,0.1-3.4,0.3V631.4z"/>
		<path id="XMLID_137_" class="st1" d="M2228.6,631.8c0-2.4,0-4.5-0.2-6.3h3.2l0.1,4h0.2c0.9-2.7,3.2-4.5,5.6-4.5
			c0.4,0,0.7,0,1.1,0.1v3.5c-0.4-0.1-0.8-0.1-1.3-0.1c-2.6,0-4.5,2-5,4.7c-0.1,0.5-0.2,1.1-0.2,1.7v10.8h-3.7V631.8z"/>
		<path id="XMLID_139_" class="st1" d="M2244.4,636.3c0.1,5,3.3,7.1,7,7.1c2.6,0,4.2-0.5,5.6-1l0.6,2.6c-1.3,0.6-3.5,1.3-6.8,1.3
			c-6.3,0-10-4.1-10-10.3c0-6.1,3.6-11,9.5-11c6.6,0,8.4,5.8,8.4,9.6c0,0.8-0.1,1.3-0.1,1.7H2244.4z M2255.2,633.6c0-2.4-1-6-5.1-6
			c-3.7,0-5.4,3.4-5.7,6H2255.2z"/>
		<path id="XMLID_142_" class="st1" d="M2263.3,642c1.1,0.7,3,1.5,4.9,1.5c2.7,0,3.9-1.3,3.9-3c0-1.8-1-2.7-3.8-3.7
			c-3.7-1.3-5.4-3.3-5.4-5.8c0-3.3,2.6-6,7-6c2.1,0,3.9,0.6,5,1.3l-0.9,2.7c-0.8-0.5-2.3-1.2-4.2-1.2c-2.2,0-3.4,1.3-3.4,2.8
			c0,1.7,1.2,2.4,3.9,3.4c3.5,1.3,5.3,3.1,5.3,6.1c0,3.6-2.8,6.1-7.6,6.1c-2.2,0-4.3-0.5-5.7-1.4L2263.3,642z"/>
		<path id="XMLID_144_" class="st1" d="M2285,619.7c0,1.3-0.9,2.3-2.4,2.3c-1.3,0-2.2-1-2.2-2.3c0-1.3,1-2.3,2.3-2.3
			C2284.1,617.4,2285,618.4,2285,619.7z M2280.9,645.7v-20.3h3.7v20.3H2280.9z"/>
		<path id="XMLID_147_" class="st1" d="M2308.7,615.9v24.6c0,1.8,0,3.9,0.2,5.3h-3.3l-0.2-3.5h-0.1c-1.1,2.3-3.6,4-6.9,4
			c-4.9,0-8.7-4.2-8.7-10.3c0-6.8,4.2-10.9,9.1-10.9c3.1,0,5.2,1.5,6.1,3.1h0.1v-12.1H2308.7z M2305,633.7c0-0.5,0-1.1-0.2-1.6
			c-0.5-2.4-2.6-4.3-5.3-4.3c-3.8,0-6.1,3.4-6.1,7.9c0,4.1,2,7.5,6,7.5c2.5,0,4.7-1.6,5.4-4.4c0.1-0.5,0.2-1,0.2-1.6V633.7z"/>
		<path id="XMLID_150_" class="st1" d="M2317.3,636.3c0.1,5,3.3,7.1,7,7.1c2.6,0,4.2-0.5,5.6-1l0.6,2.6c-1.3,0.6-3.5,1.3-6.8,1.3
			c-6.3,0-10-4.1-10-10.3c0-6.1,3.6-11,9.5-11c6.6,0,8.4,5.8,8.4,9.6c0,0.8-0.1,1.3-0.1,1.7H2317.3z M2328.1,633.6c0-2.4-1-6-5.1-6
			c-3.7,0-5.4,3.4-5.7,6H2328.1z"/>
		<path id="XMLID_153_" class="st1" d="M2336.7,630.9c0-2.1,0-3.8-0.2-5.5h3.3l0.2,3.4h0.1c1-1.9,3.4-3.8,6.7-3.8
			c2.8,0,7.2,1.7,7.2,8.7v12.1h-3.7V634c0-3.3-1.2-6-4.7-6c-2.4,0-4.3,1.7-5,3.8c-0.2,0.5-0.3,1.1-0.3,1.7v12.2h-3.7V630.9z"/>
		<path id="XMLID_155_" class="st1" d="M2364.7,619.6v5.8h5.3v2.8h-5.3v11c0,2.5,0.7,3.9,2.8,3.9c1,0,1.7-0.1,2.1-0.3l0.2,2.8
			c-0.7,0.3-1.8,0.5-3.3,0.5c-1.7,0-3.1-0.5-4-1.6c-1-1.1-1.4-2.9-1.4-5.3v-11.1h-3.2v-2.8h3.2v-4.9L2364.7,619.6z"/>
	</g>
</g>
<g id="XMLID_2_">
	<g id="XMLID_3_">
		<path id="XMLID_14_" class="st1" d="M1622.3,601.6h-3.6v-12.7h-12.4v12.7h-3.6v-28h3.6v12.1h12.4v-12.1h3.6V601.6z"/>
		<path id="XMLID_22_" class="st1" d="M1644.2,587.3v14.2h-3l-0.2-1.5c-1.8,1.3-4.1,1.9-6.6,1.9c-3.6,0-5.4-2-5.4-5.9
			c0-2.1,0.5-3.5,1.5-4.4c1-0.9,2.6-1.3,4.7-1.3h5.5v-3.2c0-1.3-0.3-2.2-1-2.7c-0.7-0.5-1.8-0.8-3.5-0.8c-2,0-4,0.2-6.1,0.7
			l-0.4-2.8c2.3-0.6,4.5-0.9,6.7-0.9c2.8,0,4.8,0.5,6,1.6S1644.2,585.1,1644.2,587.3z M1640.6,597.3v-4h-5.2c-1.1,0-1.9,0.2-2.3,0.6
			c-0.4,0.4-0.7,1.1-0.7,2.1c0,1.1,0.2,1.9,0.5,2.3s1.1,0.6,2.4,0.6C1637.1,599,1638.9,598.4,1640.6,597.3z"/>
		<path id="XMLID_27_" class="st1" d="M1659.7,580.7l0.5,3.2c-1.7,0.8-3.6,2-5.8,3.5v14.1h-3.5v-20.5h3.1l0.2,2.9
			C1655.8,582.6,1657.7,581.5,1659.7,580.7z"/>
		<path id="XMLID_29_" class="st1" d="M1673.1,580.7l0.5,3.2c-1.7,0.8-3.6,2-5.8,3.5v14.1h-3.5v-20.5h3.1l0.2,2.9
			C1669.1,582.6,1671,581.5,1673.1,580.7z"/>
		<path id="XMLID_31_" class="st1" d="M1680.7,609.8l2.9-8.3h-1.5l-6.6-20.5h3.5l5.6,17.6l5.7-17.6h3.5l-6.8,20.5l-2.9,8.3H1680.7z"
			/>
		<path id="XMLID_33_" class="st1" d="M1707.3,601.6v-28h10.1c2.9,0,5,0.6,6.2,1.8s1.9,2.9,1.9,5.1v4.2c0,2.3-0.6,4-1.9,5.2
			s-3.3,1.8-6.2,1.8h-6.5v10H1707.3z M1722,580.5c0-1.4-0.3-2.3-1-2.9s-1.9-0.8-3.6-0.8h-6.4v11.5h6.4c1.7,0,2.9-0.3,3.6-0.8
			c0.7-0.5,1-1.5,1-2.9V580.5z"/>
		<path id="XMLID_36_" class="st1" d="M1746.5,594.3c0,2.3-0.7,4.2-2,5.6c-1.4,1.4-3.5,2.1-6.3,2.1s-4.9-0.7-6.3-2.1
			c-1.4-1.4-2-3.3-2-5.6v-5.9c0-2.3,0.7-4.2,2-5.6s3.5-2.1,6.3-2.1s4.9,0.7,6.3,2.1c1.4,1.4,2,3.3,2,5.6V594.3z M1743,588.3
			c0-3-1.6-4.5-4.8-4.5s-4.8,1.5-4.8,4.5v6.2c0,3,1.6,4.5,4.8,4.5s4.8-1.5,4.8-4.5V588.3z"/>
		<path id="XMLID_39_" class="st1" d="M1762.8,598.5l0.5,2.7c-1.4,0.5-2.8,0.8-4.3,0.8c-1.8,0-3.1-0.4-3.9-1.1
			c-0.8-0.7-1.2-1.9-1.2-3.6v-13.3h-3.6v-2.9h3.6v-5l3.5-0.5v5.5h5.8l-0.3,2.9h-5.5v12.7c0,0.8,0.1,1.4,0.4,1.8s0.8,0.5,1.7,0.5
			C1760.4,599,1761.5,598.8,1762.8,598.5z"/>
		<path id="XMLID_41_" class="st1" d="M1778.7,598.5l0.5,2.7c-1.4,0.5-2.8,0.8-4.3,0.8c-1.8,0-3.1-0.4-3.9-1.1
			c-0.8-0.7-1.2-1.9-1.2-3.6v-13.3h-3.6v-2.9h3.6v-5l3.5-0.5v5.5h5.8l-0.3,2.9h-5.5v12.7c0,0.8,0.1,1.4,0.4,1.8s0.8,0.5,1.7,0.5
			C1776.3,599,1777.4,598.8,1778.7,598.5z"/>
		<path id="XMLID_43_" class="st1" d="M1786.9,594.4c0,1.7,0.3,2.9,1,3.5c0.7,0.7,2,1,3.9,1c1.9,0,4-0.3,6.5-1l0.5,2.8
			c-2.1,0.8-4.5,1.2-7.2,1.2c-2.9,0-5-0.6-6.2-1.9s-1.9-3.2-1.9-5.6v-6.1c0-5.1,2.7-7.6,8-7.6c5.1,0,7.7,2.6,7.7,7.7v4.3h-12.2
			V594.4z M1786.9,588.1v1.7h8.8v-1.7c0-1.5-0.3-2.6-0.9-3.4c-0.6-0.7-1.7-1.1-3.3-1.1s-2.7,0.4-3.4,1.1
			C1787.3,585.5,1786.9,586.6,1786.9,588.1z"/>
		<path id="XMLID_46_" class="st1" d="M1814,580.7l0.5,3.2c-1.7,0.8-3.6,2-5.8,3.5v14.1h-3.5v-20.5h3.1l0.2,2.9
			C1810.1,582.6,1811.9,581.5,1814,580.7z"/>
		<path id="XMLID_48_" class="st1" d="M1605.6,617.4v11.8h13.7v-11.8h3.7v28.3h-3.7v-13.3h-13.7v13.3h-3.7v-28.3H1605.6z"/>
		<path id="XMLID_50_" class="st1" d="M1640.9,645.7l-0.3-2.6h-0.1c-1.1,1.6-3.3,3-6.2,3c-4.1,0-6.2-2.9-6.2-5.8
			c0-4.9,4.4-7.6,12.2-7.6v-0.4c0-1.7-0.5-4.7-4.6-4.7c-1.9,0-3.9,0.6-5.3,1.5l-0.8-2.4c1.7-1.1,4.1-1.8,6.7-1.8
			c6.2,0,7.7,4.2,7.7,8.3v7.6c0,1.8,0.1,3.5,0.3,4.9H1640.9z M1640.3,635.4c-4-0.1-8.6,0.6-8.6,4.6c0,2.4,1.6,3.5,3.5,3.5
			c2.6,0,4.3-1.7,4.9-3.4c0.1-0.4,0.2-0.8,0.2-1.2V635.4z"/>
		<path id="XMLID_53_" class="st1" d="M1650.3,631.8c0-2.4,0-4.5-0.2-6.3h3.2l0.1,4h0.2c0.9-2.7,3.2-4.5,5.6-4.5
			c0.4,0,0.7,0,1.1,0.1v3.5c-0.4-0.1-0.8-0.1-1.3-0.1c-2.6,0-4.5,2-5,4.7c-0.1,0.5-0.2,1.1-0.2,1.7v10.8h-3.7V631.8z"/>
		<path id="XMLID_55_" class="st1" d="M1664.6,631.8c0-2.4,0-4.5-0.2-6.3h3.2l0.1,4h0.2c0.9-2.7,3.2-4.5,5.6-4.5
			c0.4,0,0.7,0,1.1,0.1v3.5c-0.4-0.1-0.8-0.1-1.3-0.1c-2.6,0-4.5,2-5,4.7c-0.1,0.5-0.2,1.1-0.2,1.7v10.8h-3.7V631.8z"/>
		<path id="XMLID_57_" class="st1" d="M1681.2,625.4l4.5,12c0.5,1.3,1,2.9,1.3,4.2h0.1c0.4-1.2,0.8-2.8,1.3-4.2l4-11.9h3.9
			l-5.5,14.5c-2.6,7-4.5,10.5-7,12.7c-1.8,1.6-3.6,2.2-4.5,2.4l-0.9-3.1c0.9-0.3,2.1-0.9,3.2-1.8c1-0.8,2.3-2.2,3.1-4.1
			c0.2-0.4,0.3-0.7,0.3-0.9s-0.1-0.5-0.3-1l-7.5-18.7H1681.2z"/>
		<path id="XMLID_59_" class="st1" d="M1709.5,617.8c1.8-0.3,4.1-0.5,7-0.5c3.6,0,6.3,0.8,7.9,2.4c1.6,1.3,2.5,3.4,2.5,5.9
			c0,2.6-0.8,4.6-2.2,6c-1.9,2.1-5.1,3.1-8.7,3.1c-1.1,0-2.1,0-2.9-0.3v11.3h-3.7V617.8z M1713.1,631.4c0.8,0.2,1.8,0.3,3,0.3
			c4.4,0,7.1-2.1,7.1-6c0-3.7-2.6-5.5-6.7-5.5c-1.6,0-2.8,0.1-3.4,0.3V631.4z"/>
		<path id="XMLID_62_" class="st1" d="M1749.4,635.4c0,7.5-5.2,10.8-10.1,10.8c-5.5,0-9.7-4-9.7-10.5c0-6.8,4.5-10.8,10.1-10.8
			C1745.5,625,1749.4,629.2,1749.4,635.4z M1733.3,635.6c0,4.5,2.6,7.8,6.2,7.8c3.5,0,6.2-3.3,6.2-7.9c0-3.4-1.7-7.8-6.1-7.8
			C1735.2,627.7,1733.3,631.8,1733.3,635.6z"/>
		<path id="XMLID_65_" class="st1" d="M1759,619.6v5.8h5.3v2.8h-5.3v11c0,2.5,0.7,3.9,2.8,3.9c1,0,1.7-0.1,2.1-0.3l0.2,2.8
			c-0.7,0.3-1.8,0.5-3.3,0.5c-1.7,0-3.1-0.5-4-1.6c-1-1.1-1.4-2.9-1.4-5.3v-11.1h-3.2v-2.8h3.2v-4.9L1759,619.6z"/>
		<path id="XMLID_67_" class="st1" d="M1773.3,619.6v5.8h5.3v2.8h-5.3v11c0,2.5,0.7,3.9,2.8,3.9c1,0,1.7-0.1,2.1-0.3l0.2,2.8
			c-0.7,0.3-1.8,0.5-3.3,0.5c-1.7,0-3.1-0.5-4-1.6c-1-1.1-1.4-2.9-1.4-5.3v-11.1h-3.2v-2.8h3.2v-4.9L1773.3,619.6z"/>
		<path id="XMLID_69_" class="st1" d="M1785,636.3c0.1,5,3.3,7.1,7,7.1c2.6,0,4.2-0.5,5.6-1l0.6,2.6c-1.3,0.6-3.5,1.3-6.8,1.3
			c-6.3,0-10-4.1-10-10.3c0-6.1,3.6-11,9.5-11c6.6,0,8.4,5.8,8.4,9.6c0,0.8-0.1,1.3-0.1,1.7H1785z M1795.8,633.6c0-2.4-1-6-5.1-6
			c-3.7,0-5.4,3.4-5.7,6H1795.8z"/>
		<path id="XMLID_72_" class="st1" d="M1804.4,631.8c0-2.4,0-4.5-0.2-6.3h3.2l0.1,4h0.2c0.9-2.7,3.2-4.5,5.6-4.5
			c0.4,0,0.7,0,1.1,0.1v3.5c-0.4-0.1-0.8-0.1-1.3-0.1c-2.6,0-4.5,2-5,4.7c-0.1,0.5-0.2,1.1-0.2,1.7v10.8h-3.7V631.8z"/>
	</g>
</g>
</svg>
