<?xml version="1.0" encoding="utf-8"?>
<!-- Generator: Adobe Illustrator 19.0.0, SVG Export Plug-In . SVG Version: 6.00 Build 0)  -->
<svg version="1.1" id="Layer_1" xmlns="http://www.w3.org/2000/svg" xmlns:xlink="http://www.w3.org/1999/xlink" x="0px" y="0px"
	 viewBox="0 0 2480 293" style="enable-background:new 0 0 2480 293;" xml:space="preserve">
<style type="text/css">
	.st0{fill:#939598;}
	.st1{opacity:0.5;}
	.st2{opacity:0.75;fill:#939598;enable-background:new    ;}
	.st3{fill:#A8AAAD;}
	.st4{fill:#118A85;}
</style>
<g id="XMLID_189_">
	<g id="XMLID_172_">
		<g id="XMLID_173_">
			<path id="XMLID_218_" class="st0" d="M185,170.6l-11.2-39.1l-11.2,39.1h-10.2l-9.9-46.1h7.6l7.7,38.3l11.2-38.3h9.7l11.2,38.3
				l7.7-38.3h7.6l-9.9,46.1H185z"/>
			<path id="XMLID_215_" class="st0" d="M228.4,171.6c-13.5,0-18.8-7.7-18.8-17.3V141c0-9.7,5.3-17.3,18.8-17.3s18.8,7.7,18.8,17.3
				v13.3C247.2,163.9,241.9,171.6,228.4,171.6z M228.4,130.5c-7.2,0-10.8,3.4-10.8,10.1v13.9c0,6.7,3.6,10.1,10.8,10.1
				s10.8-3.4,10.8-10.1v-13.9C239.2,133.9,235.6,130.5,228.4,130.5z"/>
			<path id="XMLID_213_" class="st0" d="M278.7,130.9c-4.4,2.1-9.4,5.3-13.2,8v31.8h-8v-46.1h6.9l0.5,6.4c3.4-2.7,8.1-5.5,12.7-7.4
				L278.7,130.9z"/>
			<path id="XMLID_186_" class="st0" d="M284.4,170.6v-64.9l8-1.1v66.1h-8V170.6z M319.8,124.5l-16.5,22.8l17.2,23.3h-9.4
				l-16.9-23.3l16.3-22.8H319.8z"/>
			<g id="XMLID_174_" class="st1">
				<path id="XMLID_184_" class="st2" d="M340.5,171.6c-4.6,0-10.1-0.9-13.5-2.4l0.9-4.4c4,1.2,8.8,1.9,12.2,1.9
					c8.5,0,10.2-1.6,10.2-7.5c0-6.6-0.2-7.3-10.7-9.8c-11.6-2.7-12.5-5.6-12.5-14c0-7.7,3.7-11.8,15.1-11.8c4.3,0,9.5,0.6,13.1,1.6
					l-0.6,4.6c-3.7-0.8-9.1-1.3-12.9-1.3c-8.1,0-9.2,2.1-9.2,7.1c0,6.3,0.4,7,8.9,9.2c13.5,3.4,14.3,5.6,14.3,14.2
					C355.8,167.3,352.8,171.6,340.5,171.6z"/>
				<path id="XMLID_182_" class="st2" d="M391,169.8c-2.7,1-6.3,1.8-9.7,1.8c-7.3,0-10.4-2.7-10.4-9.9v-32.4H362v-4.7h8.9v-10.9
					l5.5-0.8v11.6h14.1l-0.6,4.7h-13.5V161c0,4.1,0.6,5.8,5.3,5.8c2.6,0,5.5-0.5,8.2-1.3L391,169.8z"/>
				<path id="XMLID_180_" class="st2" d="M417.9,170.6l-6.8,18.7h-5.4l6.9-18.7h-3.1l-15.6-46.1h5.6l14.2,42.2l14.3-42.2h5.6
					L417.9,170.6z"/>
				<path id="XMLID_178_" class="st2" d="M440.2,170.6v-64.9l5.5-0.8v65.7L440.2,170.6L440.2,170.6z"/>
				<path id="XMLID_175_" class="st2" d="M474.5,166.8c4.7,0,10-0.9,14.6-2.2l0.9,4.4c-4.3,1.5-10.3,2.6-15.9,2.6
					c-13,0-17.1-6.7-17.1-16.8v-14.5c0-9.5,4.3-16.8,17.2-16.8c13,0,16.8,7.3,16.8,16.8v8.9h-28.5v5.8
					C462.5,163.3,465.4,166.8,474.5,166.8z M462.5,144.3h23.1v-4.2c0-7.8-2.7-11.8-11.4-11.8c-8.6,0-11.7,4.1-11.7,11.8V144.3z"/>
			</g>
		</g>
	</g>
</g>
<g id="XMLID_394_">
	<path id="XMLID_395_" class="st3" d="M1505.3,135.7v28.7h14.1v3.8h-18.3v-32.5H1505.3z"/>
	<path id="XMLID_3007_" class="st3" d="M1527.9,159.9c0,1.9,0.4,3.3,1.1,4.1c0.8,0.8,2.3,1.2,4.5,1.2s4.7-0.4,7.5-1.1l0.5,3.3
		c-2.5,0.9-5.3,1.4-8.4,1.4c-3.3,0-5.8-0.8-7.2-2.2c-1.5-1.5-2.2-3.7-2.2-6.5V153c0-5.9,3.1-8.9,9.3-8.9c6,0,8.9,3,8.9,9v5h-14.2
		v1.8H1527.9z M1527.9,152.5v1.9h10.2v-1.9c0-1.8-0.4-3.1-1.1-3.9s-2-1.3-3.9-1.3s-3.2,0.4-4,1.3
		C1528.3,149.5,1527.9,150.8,1527.9,152.5z"/>
	<path id="XMLID_3010_" class="st3" d="M1565.2,151.6v16.5h-3.5l-0.2-1.8c-2.1,1.5-4.7,2.2-7.7,2.2c-4.2,0-6.3-2.3-6.3-6.8
		c0-2.4,0.6-4.1,1.8-5.1c1.2-1,3-1.5,5.5-1.5h6.3v-3.7c0-1.5-0.4-2.5-1.1-3.1c-0.8-0.6-2.1-0.9-4-0.9c-2.3,0-4.7,0.3-7.1,0.8
		l-0.4-3.3c2.6-0.7,5.2-1,7.8-1c3.3,0,5.6,0.6,7,1.9C1564.5,147.1,1565.2,149,1565.2,151.6z M1561.1,163.2v-4.6h-6.1
		c-1.3,0-2.2,0.2-2.7,0.7s-0.8,1.3-0.8,2.5c0,1.3,0.2,2.2,0.6,2.7s1.3,0.7,2.7,0.7C1557.1,165.1,1559.1,164.5,1561.1,163.2z"/>
	<path id="XMLID_3013_" class="st3" d="M1582.8,143.9l0.5,3.8c-1.9,0.9-4.2,2.3-6.8,4.1v16.4h-4.1v-23.8h3.6l0.2,3.3
		C1578.2,146.2,1580.4,144.9,1582.8,143.9z"/>
	<path id="XMLID_3015_" class="st3" d="M1605.9,168.2h-4.1V150c0-1.5-0.8-2.2-2.3-2.2c-0.9,0-2.1,0.2-3.7,0.7s-3,1-4.3,1.7v18h-4.1
		v-23.8h3.3l0.4,2c3.5-1.7,6.7-2.5,9.6-2.5c3.5,0,5.2,2,5.2,6V168.2z"/>
	<path id="XMLID_3017_" class="st3" d="M1640.8,151.6v16.5h-3.5l-0.2-1.8c-2.1,1.5-4.7,2.2-7.7,2.2c-4.2,0-6.3-2.3-6.3-6.8
		c0-2.4,0.6-4.1,1.8-5.1c1.2-1,3-1.5,5.5-1.5h6.3v-3.7c0-1.5-0.4-2.5-1.1-3.1c-0.8-0.6-2.1-0.9-4-0.9c-2.3,0-4.7,0.3-7.1,0.8
		l-0.4-3.3c2.6-0.7,5.2-1,7.8-1c3.3,0,5.6,0.6,7,1.9C1640.1,147.1,1640.8,149,1640.8,151.6z M1636.7,163.2v-4.6h-6.1
		c-1.3,0-2.2,0.2-2.7,0.7s-0.8,1.3-0.8,2.5c0,1.3,0.2,2.2,0.6,2.7s1.3,0.7,2.7,0.7C1632.6,165.1,1634.7,164.5,1636.7,163.2z"/>
	<path id="XMLID_3020_" class="st3" d="M1666.5,168.2h-4.1V150c0-1.5-0.8-2.2-2.3-2.2c-0.9,0-2.1,0.2-3.7,0.7s-3,1-4.3,1.7v18h-4.1
		v-23.8h3.3l0.4,2c3.5-1.7,6.7-2.5,9.6-2.5c3.5,0,5.2,2,5.2,6V168.2z"/>
	<path id="XMLID_3022_" class="st3" d="M1673.2,161.4v-9.7c0-5.2,2.6-7.8,7.7-7.8c2.1,0,4.4,0.2,6.8,0.7v-10l4.1-0.6v34.1h-3.5
		l-0.3-2.1c-2.2,1.8-4.8,2.6-7.9,2.6C1675.5,168.7,1673.2,166.2,1673.2,161.4z M1687.6,162.2v-14c-2.4-0.5-4.6-0.7-6.5-0.7
		c-1.4,0-2.4,0.3-3,1s-0.9,1.7-0.9,3.1v9.7c0,1.3,0.3,2.2,0.8,2.8c0.5,0.6,1.5,0.9,2.9,0.9C1683.3,165.1,1685.5,164.1,1687.6,162.2z
		"/>
	<path id="XMLID_3025_" class="st3" d="M1721.9,164.6l0.5,3.2c-1.6,0.6-3.3,0.9-5,0.9c-2,0-3.5-0.4-4.5-1.2
		c-0.9-0.8-1.4-2.2-1.4-4.2v-15.4h-4.2v-3.4h4.2v-5.9l4.1-0.6v6.4h6.7l-0.3,3.4h-6.4v14.7c0,1,0.1,1.7,0.4,2c0.3,0.4,1,0.6,2,0.6
		C1719.1,165.2,1720.4,165,1721.9,164.6z"/>
	<path id="XMLID_3027_" class="st3" d="M1738.4,143.9l0.5,3.8c-1.9,0.9-4.2,2.3-6.8,4.1v16.4h-4.1v-23.8h3.6l0.2,3.3
		C1733.8,146.2,1736,144.9,1738.4,143.9z"/>
	<path id="XMLID_3029_" class="st3" d="M1759.7,151.6v16.5h-3.5l-0.2-1.8c-2.1,1.5-4.7,2.2-7.7,2.2c-4.2,0-6.3-2.3-6.3-6.8
		c0-2.4,0.6-4.1,1.8-5.1c1.2-1,3-1.5,5.5-1.5h6.3v-3.7c0-1.5-0.4-2.5-1.1-3.1c-0.8-0.6-2.1-0.9-4-0.9c-2.3,0-4.7,0.3-7.1,0.8
		l-0.4-3.3c2.6-0.7,5.2-1,7.8-1c3.3,0,5.6,0.6,7,1.9C1759.1,147.1,1759.7,149,1759.7,151.6z M1755.7,163.2v-4.6h-6.1
		c-1.3,0-2.2,0.2-2.7,0.7s-0.8,1.3-0.8,2.5c0,1.3,0.2,2.2,0.6,2.7s1.3,0.7,2.7,0.7C1751.6,165.1,1753.6,164.5,1755.7,163.2z"/>
	<path id="XMLID_3032_" class="st3" d="M1771.1,140.6h-4.1v-5.9h4.1V140.6z M1771.1,168.2h-4.1v-23.8h4.1V168.2z"/>
	<path id="XMLID_3035_" class="st3" d="M1797.3,168.2h-4.1V150c0-1.5-0.8-2.2-2.3-2.2c-0.9,0-2.1,0.2-3.7,0.7s-3,1-4.3,1.7v18h-4.1
		v-23.8h3.3l0.4,2c3.5-1.7,6.7-2.5,9.6-2.5c3.5,0,5.2,2,5.2,6V168.2z"/>
	<path id="XMLID_3037_" class="st3" d="M1848.2,168.2h-4.1V150c0-1.5-0.8-2.2-2.3-2.2c-1,0-2.2,0.2-3.7,0.7s-2.9,1-4.2,1.7v18h-4.1
		V150c0-1.5-0.8-2.2-2.3-2.2c-0.9,0-2.1,0.2-3.7,0.7s-3,1-4.3,1.7v18h-4.1v-23.8h3.3l0.4,2c3.5-1.7,6.7-2.5,9.6-2.5
		c2.3,0,3.8,0.8,4.5,2.5c3.5-1.7,6.8-2.5,9.8-2.5c3.4,0,5.2,2,5.2,6L1848.2,168.2L1848.2,168.2z"/>
	<path id="XMLID_3039_" class="st3" d="M1873.8,159.7c0,2.7-0.8,4.8-2.4,6.5c-1.6,1.6-4,2.5-7.3,2.5s-5.7-0.8-7.3-2.5
		c-1.6-1.6-2.4-3.8-2.4-6.5v-6.9c0-2.7,0.8-4.8,2.4-6.5c1.6-1.6,4-2.5,7.3-2.5s5.7,0.8,7.3,2.5c1.6,1.6,2.4,3.8,2.4,6.5V159.7z
		 M1869.7,152.7c0-3.5-1.9-5.2-5.6-5.2s-5.6,1.7-5.6,5.2v7.2c0,3.5,1.9,5.2,5.6,5.2s5.6-1.7,5.6-5.2V152.7z"/>
	<path id="XMLID_3042_" class="st3" d="M1890.7,143.9l0.5,3.8c-1.9,0.9-4.2,2.3-6.8,4.1v16.4h-4.1v-23.8h3.6l0.2,3.3
		C1886.2,146.2,1888.4,144.9,1890.7,143.9z"/>
	<path id="XMLID_3044_" class="st3" d="M1898.5,159.9c0,1.9,0.4,3.3,1.1,4.1c0.8,0.8,2.3,1.2,4.5,1.2s4.7-0.4,7.5-1.1l0.5,3.3
		c-2.5,0.9-5.3,1.4-8.4,1.4c-3.3,0-5.8-0.8-7.2-2.2c-1.5-1.5-2.2-3.7-2.2-6.5V153c0-5.9,3.1-8.9,9.3-8.9c6,0,8.9,3,8.9,9v5h-14.2
		v1.8H1898.5z M1898.5,152.5v1.9h10.2v-1.9c0-1.8-0.4-3.1-1.1-3.9s-2-1.3-3.9-1.3s-3.2,0.4-4,1.3
		C1898.9,149.5,1898.5,150.8,1898.5,152.5z"/>
	<path id="XMLID_3047_" class="st3" d="M1946.4,151.6v16.5h-3.5l-0.2-1.8c-2.1,1.5-4.7,2.2-7.7,2.2c-4.2,0-6.3-2.3-6.3-6.8
		c0-2.4,0.6-4.1,1.8-5.1c1.2-1,3-1.5,5.5-1.5h6.3v-3.7c0-1.5-0.4-2.5-1.1-3.1c-0.8-0.6-2.1-0.9-4-0.9c-2.3,0-4.7,0.3-7.1,0.8
		l-0.4-3.3c2.6-0.7,5.2-1,7.8-1c3.3,0,5.6,0.6,7,1.9C1945.7,147.1,1946.4,149,1946.4,151.6z M1942.3,163.2v-4.6h-6.1
		c-1.3,0-2.2,0.2-2.7,0.7s-0.8,1.3-0.8,2.5c0,1.3,0.2,2.2,0.6,2.7s1.3,0.7,2.7,0.7C1938.2,165.1,1940.2,164.5,1942.3,163.2z"/>
	<path id="XMLID_3050_" class="st3" d="M1965.4,164.6l0.5,3.2c-1.6,0.6-3.3,0.9-5,0.9c-2,0-3.5-0.4-4.5-1.2
		c-0.9-0.8-1.4-2.2-1.4-4.2v-15.4h-4.2v-3.4h4.2v-5.9l4.1-0.6v6.4h6.7l-0.3,3.4h-6.4v14.7c0,1,0.1,1.7,0.4,2c0.3,0.4,1,0.6,2,0.6
		C1962.6,165.2,1963.9,165,1965.4,164.6z"/>
	<path id="XMLID_3052_" class="st4" d="M2014.9,168.2h-4.1V150c0-1.5-0.8-2.2-2.3-2.2c-1,0-2.2,0.2-3.7,0.7s-2.9,1-4.2,1.7v18h-4.1
		V150c0-1.5-0.8-2.2-2.3-2.2c-0.9,0-2.1,0.2-3.7,0.7s-3,1-4.3,1.7v18h-4.1v-23.8h3.3l0.4,2c3.5-1.7,6.7-2.5,9.6-2.5
		c2.3,0,3.8,0.8,4.5,2.5c3.5-1.7,6.8-2.5,9.8-2.5c3.4,0,5.2,2,5.2,6L2014.9,168.2L2014.9,168.2z"/>
	<path id="XMLID_3054_" class="st4" d="M2025,177.8l3.3-9.6h-1.7l-7.7-23.8h4l6.5,20.5l6.6-20.5h4l-7.9,23.8l-3.4,9.6H2025z"/>
	<path id="XMLID_3056_" class="st4" d="M2041.8,168.2v-5.6h4.2v5.6H2041.8z"/>
	<path id="XMLID_3058_" class="st4" d="M2076.7,168.2h-5.3l-5.8-20.1l-5.8,20.1h-5.3l-5.1-23.8h3.9l4,19.7l5.8-19.7h5l5.8,19.7
		l4-19.7h3.9L2076.7,168.2z"/>
	<path id="XMLID_3060_" class="st4" d="M2104.7,159.7c0,2.7-0.8,4.8-2.4,6.5c-1.6,1.6-4,2.5-7.3,2.5s-5.7-0.8-7.3-2.5
		c-1.6-1.6-2.4-3.8-2.4-6.5v-6.9c0-2.7,0.8-4.8,2.4-6.5c1.6-1.6,4-2.5,7.3-2.5s5.7,0.8,7.3,2.5c1.6,1.6,2.4,3.8,2.4,6.5V159.7z
		 M2100.6,152.7c0-3.5-1.9-5.2-5.6-5.2c-3.7,0-5.6,1.7-5.6,5.2v7.2c0,3.5,1.9,5.2,5.6,5.2c3.7,0,5.6-1.7,5.6-5.2V152.7z"/>
	<path id="XMLID_3063_" class="st4" d="M2121.6,143.9l0.5,3.8c-1.9,0.9-4.2,2.3-6.8,4.1v16.4h-4.1v-23.8h3.6l0.2,3.3
		C2117.1,146.2,2119.2,144.9,2121.6,143.9z"/>
	<path id="XMLID_3065_" class="st4" d="M2130.4,168.2h-4.1v-33.5l4.1-0.6V168.2z M2139.8,144.4h4.7l-8.5,11.8l8.9,12h-4.8l-8.7-12
		L2139.8,144.4z"/>
	<path id="XMLID_3068_" class="st4" d="M2164.7,161.8c0,2.5-0.6,4.2-1.7,5.3c-1.1,1.1-3.3,1.6-6.5,1.6c-2.8,0-5.4-0.4-7.6-1.3
		l0.5-3.2c2.3,0.7,4.5,1,6.8,1c1.8,0,3-0.2,3.6-0.6s0.8-1.3,0.8-2.6c0-1.3-0.2-2.1-0.7-2.5s-1.9-0.9-4.2-1.5
		c-2.9-0.7-4.7-1.5-5.4-2.4s-1.1-2.6-1.1-5.2c0-2.2,0.6-3.9,1.8-4.9s3.3-1.5,6.4-1.5c2.5,0,4.7,0.3,6.7,0.8l-0.3,3.4
		c-2.3-0.5-4.5-0.7-6.6-0.7c-1.7,0-2.7,0.2-3.2,0.6s-0.8,1.2-0.8,2.3c0,1.4,0.2,2.3,0.6,2.8c0.4,0.4,1.5,0.9,3.5,1.3
		c1.8,0.5,3.1,0.8,4,1.2c0.9,0.3,1.6,0.8,2.2,1.4c0.5,0.6,0.9,1.2,1,1.8C2164.6,159.5,2164.7,160.5,2164.7,161.8z"/>
	<path id="XMLID_3070_" class="st4" d="M2183.2,164.6l0.5,3.2c-1.6,0.6-3.3,0.9-5,0.9c-2,0-3.5-0.4-4.5-1.2
		c-0.9-0.8-1.4-2.2-1.4-4.2v-15.4h-4.2v-3.4h4.2v-5.9l4.1-0.6v6.4h6.7l-0.3,3.4h-6.4v14.7c0,1,0.1,1.7,0.4,2c0.3,0.4,1,0.6,2,0.6
		C2180.4,165.2,2181.7,165,2183.2,164.6z"/>
	<path id="XMLID_3072_" class="st4" d="M2192.2,177.8l3.3-9.6h-1.7l-7.7-23.8h4l6.5,20.5l6.6-20.5h4l-7.9,23.8l-3.4,9.6H2192.2z"/>
	<path id="XMLID_3074_" class="st4" d="M2215.5,168.2h-4.1v-33.5l4.1-0.6V168.2z"/>
	<path id="XMLID_3076_" class="st4" d="M2226.2,159.9c0,1.9,0.4,3.3,1.1,4.1c0.8,0.8,2.3,1.2,4.5,1.2s4.7-0.4,7.5-1.1l0.5,3.3
		c-2.5,0.9-5.3,1.4-8.4,1.4c-3.3,0-5.8-0.8-7.2-2.2c-1.5-1.5-2.2-3.7-2.2-6.5V153c0-5.9,3.1-8.9,9.3-8.9c6,0,8.9,3,8.9,9v5H2226v1.8
		H2226.2z M2226.2,152.5v1.9h10.2v-1.9c0-1.8-0.4-3.1-1.1-3.9c-0.7-0.8-2-1.3-3.9-1.3s-3.2,0.4-4,1.3
		C2226.6,149.5,2226.2,150.8,2226.2,152.5z"/>
	<path id="XMLID_3079_" class="st4" d="M2247,168.2v-5.6h4.2v5.6H2247z"/>
	<path id="XMLID_3081_" class="st4" d="M2267.3,168.7c-3.6,0-6.1-0.7-7.4-2.1c-1.3-1.4-2-3.6-2-6.5v-7.5c0-2.9,0.7-5.1,2.1-6.5
		c1.4-1.4,3.8-2.1,7.4-2.1c2.2,0,4.1,0.2,5.7,0.7l-0.3,3.4c-1.7-0.4-3.4-0.5-5.2-0.5c-2,0-3.5,0.3-4.3,1s-1.2,2-1.2,3.8v7.8
		c0,1.9,0.4,3.1,1.2,3.8c0.8,0.7,2.2,1,4.3,1c1.8,0,3.5-0.2,5.2-0.5l0.4,3.4C2271.5,168.4,2269.6,168.7,2267.3,168.7z"/>
	<path id="XMLID_3083_" class="st4" d="M2297.2,159.7c0,2.7-0.8,4.8-2.4,6.5c-1.6,1.6-4,2.5-7.3,2.5s-5.7-0.8-7.3-2.5
		c-1.6-1.6-2.4-3.8-2.4-6.5v-6.9c0-2.7,0.8-4.8,2.4-6.5c1.6-1.6,4-2.5,7.3-2.5s5.7,0.8,7.3,2.5c1.6,1.6,2.4,3.8,2.4,6.5V159.7z
		 M2293.1,152.7c0-3.5-1.9-5.2-5.6-5.2c-3.7,0-5.6,1.7-5.6,5.2v7.2c0,3.5,1.9,5.2,5.6,5.2c3.7,0,5.6-1.7,5.6-5.2V152.7z"/>
	<path id="XMLID_3086_" class="st4" d="M2336.6,168.2h-4.1V150c0-1.5-0.8-2.2-2.3-2.2c-1,0-2.2,0.2-3.7,0.7s-2.9,1-4.2,1.7v18h-4.1
		V150c0-1.5-0.8-2.2-2.3-2.2c-0.9,0-2.1,0.2-3.7,0.7c-1.6,0.5-3,1-4.3,1.7v18h-4.1v-23.8h3.3l0.4,2c3.5-1.7,6.7-2.5,9.6-2.5
		c2.3,0,3.8,0.8,4.5,2.5c3.5-1.7,6.8-2.5,9.8-2.5c3.4,0,5.2,2,5.2,6L2336.6,168.2L2336.6,168.2z"/>
</g>
</svg>
