<?xml version="1.0" encoding="utf-8"?>
<!-- Generator: Adobe Illustrator 19.0.0, SVG Export Plug-In . SVG Version: 6.00 Build 0)  -->
<svg version="1.1" id="Layer_1" xmlns="http://www.w3.org/2000/svg" xmlns:xlink="http://www.w3.org/1999/xlink" x="0px" y="0px"
	 viewBox="0 0 2480 750" style="enable-background:new 0 0 2480 750;" xml:space="preserve">
<style type="text/css">
	.st0{fill:#2A2D30;}
	.st1{fill:#D44255;}
</style>
<g id="XMLID_16_">
</g>
<g id="XMLID_15_">
</g>
<g id="XMLID_13_">
</g>
<g id="XMLID_12_">
</g>
<g id="XMLID_10_">
</g>
<g id="XMLID_7_">
	<path id="XMLID_253_" class="st0" d="M1056.7,101.6h-5.3V60.3h24.6v4.8h-19.2v13.8h17.9v4.8h-17.9V101.6z"/>
	<path id="XMLID_255_" class="st0" d="M1104.9,80.6v21h-4.4l-0.3-2.2c-2.7,1.9-6,2.9-9.8,2.9c-5.3,0-8-2.9-8-8.7
		c0-3.1,0.8-5.2,2.3-6.5c1.5-1.3,3.8-2,7-2h8.1v-4.7c0-1.9-0.5-3.2-1.5-4c-1-0.7-2.7-1.1-5.1-1.1c-2.9,0-5.9,0.3-9.1,1l-0.6-4.2
		c3.3-0.9,6.7-1.3,9.9-1.3c4.2,0,7.1,0.8,8.9,2.4C1104.1,74.8,1104.9,77.3,1104.9,80.6z M1099.7,95.3v-5.9h-7.7
		c-1.6,0-2.7,0.3-3.4,0.9c-0.7,0.6-1,1.6-1,3.1c0,1.7,0.3,2.8,0.8,3.4c0.5,0.6,1.7,0.9,3.5,0.9C1094.6,97.8,1097.2,97,1099.7,95.3z"
		/>
	<path id="XMLID_258_" class="st0" d="M1156.4,101.6h-5.2V78.6c0-1.9-1-2.8-2.9-2.8c-1.2,0-2.8,0.3-4.7,0.9
		c-1.9,0.6-3.7,1.3-5.4,2.2v22.8h-5.2V78.6c0-1.9-1-2.8-2.9-2.8c-1.1,0-2.7,0.3-4.7,0.9c-2,0.6-3.8,1.3-5.4,2.1v22.8h-5.2V71.4h4.2
		l0.5,2.6c4.5-2.1,8.5-3.2,12.2-3.2c2.9,0,4.9,1.1,5.8,3.2c4.5-2.1,8.6-3.2,12.5-3.2c4.4,0,6.6,2.6,6.6,7.7V101.6z"/>
	<path id="XMLID_260_" class="st0" d="M1189.6,90.9c0,3.4-1,6.1-3,8.2c-2,2.1-5.1,3.1-9.3,3.1c-4.2,0-7.3-1-9.3-3.1
		c-2-2.1-3-4.8-3-8.2v-8.7c0-3.4,1-6.1,3-8.2c2-2.1,5.1-3.1,9.3-3.1c4.2,0,7.3,1,9.3,3.1c2,2.1,3,4.8,3,8.2V90.9z M1184.4,82
		c0-4.4-2.4-6.6-7.1-6.6s-7.1,2.2-7.1,6.6v9.1c0,4.4,2.4,6.6,7.1,6.6s7.1-2.2,7.1-6.6V82z"/>
	<path id="XMLID_263_" class="st0" d="M1198.3,71.4h5.2v23.1c0,1.9,1,2.8,2.9,2.8c1.1,0,2.7-0.3,4.7-0.9c2-0.6,3.8-1.3,5.4-2.1V71.4
		h5.2v30.2h-4.2L1217,99c-4.5,2.1-8.5,3.2-12.2,3.2c-4.4,0-6.6-2.6-6.6-7.7V71.4z"/>
	<path id="XMLID_265_" class="st0" d="M1251.1,93.5c0,3.1-0.7,5.4-2.1,6.7c-1.4,1.3-4.2,2-8.3,2c-3.6,0-6.8-0.5-9.6-1.6l0.7-4.1
		c2.9,0.8,5.8,1.2,8.6,1.2c2.3,0,3.8-0.3,4.5-0.8c0.7-0.5,1.1-1.6,1.1-3.3c0-1.7-0.3-2.7-0.9-3.2c-0.6-0.5-2.4-1.1-5.4-1.9
		c-3.6-0.9-5.9-1.9-6.8-3.1c-0.9-1.1-1.4-3.3-1.4-6.6c0-2.9,0.8-4.9,2.3-6.2c1.5-1.3,4.2-1.9,8.1-1.9c3.1,0,6,0.4,8.6,1.1l-0.4,4.3
		c-3-0.6-5.8-0.9-8.4-0.9c-2.1,0-3.5,0.3-4.1,0.8c-0.6,0.5-1,1.5-1,3c0,1.8,0.2,2.9,0.7,3.5c0.5,0.6,2,1.1,4.4,1.7
		c2.3,0.6,4,1.1,5.1,1.5c1.2,0.4,2.1,1,2.8,1.7c0.7,0.7,1.1,1.5,1.2,2.3C1251,90.6,1251.1,91.9,1251.1,93.5z"/>
	<path id="XMLID_267_" class="st0" d="M1274.4,60.3h14.4c8.8,0,13.3,3.9,13.3,11.8v17.6c0,7.9-4.4,11.8-13.3,11.8h-14.4V60.3z
		 M1279.7,65.1v31.7h8.9c3,0,5.1-0.6,6.3-1.8c1.2-1.2,1.8-3.1,1.8-5.6V72.5c0-2.5-0.6-4.4-1.8-5.6c-1.2-1.2-3.3-1.8-6.3-1.8H1279.7z
		"/>
	<path id="XMLID_270_" class="st0" d="M1334.7,90.9c0,3.4-1,6.1-3,8.2c-2,2.1-5.1,3.1-9.3,3.1s-7.3-1-9.3-3.1c-2-2.1-3-4.8-3-8.2
		v-8.7c0-3.4,1-6.1,3-8.2c2-2.1,5.1-3.1,9.3-3.1s7.3,1,9.3,3.1c2,2.1,3,4.8,3,8.2V90.9z M1329.5,82c0-4.4-2.4-6.6-7.1-6.6
		c-4.7,0-7.1,2.2-7.1,6.6v9.1c0,4.4,2.4,6.6,7.1,6.6c4.7,0,7.1-2.2,7.1-6.6V82z"/>
	<path id="XMLID_273_" class="st0" d="M1347.3,91.1c0,2.5,0.5,4.2,1.5,5.2c1,1,2.9,1.5,5.7,1.5c2.8,0,6-0.5,9.5-1.4l0.7,4.2
		c-3.1,1.2-6.7,1.7-10.7,1.7c-4.3,0-7.3-1-9.2-2.9c-1.9-1.9-2.8-4.6-2.8-8.2v-9.1c0-7.5,3.9-11.3,11.8-11.3
		c7.6,0,11.3,3.8,11.3,11.4v6.3h-18V91.1z M1347.3,81.7v2.5h13v-2.5c0-2.2-0.5-3.9-1.4-5c-0.9-1.1-2.6-1.6-4.9-1.6
		c-2.4,0-4.1,0.5-5.1,1.6C1347.9,77.9,1347.3,79.5,1347.3,81.7z"/>
	<path id="XMLID_276_" class="st0" d="M1387.3,70.8l0.7,4.8c-2.5,1.2-5.4,2.9-8.6,5.2v20.8h-5.2V71.4h4.5l0.3,4.2
		C1381.5,73.7,1384.3,72.1,1387.3,70.8z"/>
	<path id="XMLID_278_" class="st0" d="M1412.6,93.5c0,3.1-0.7,5.4-2.1,6.7c-1.4,1.3-4.2,2-8.3,2c-3.6,0-6.8-0.5-9.6-1.6l0.7-4.1
		c2.9,0.8,5.8,1.2,8.6,1.2c2.3,0,3.8-0.3,4.5-0.8c0.7-0.5,1.1-1.6,1.1-3.3c0-1.7-0.3-2.7-0.9-3.2c-0.6-0.5-2.4-1.1-5.4-1.9
		c-3.6-0.9-5.9-1.9-6.8-3.1c-0.9-1.1-1.4-3.3-1.4-6.6c0-2.9,0.8-4.9,2.3-6.2c1.5-1.3,4.2-1.9,8.1-1.9c3.1,0,6,0.4,8.6,1.1l-0.4,4.3
		c-3-0.6-5.8-0.9-8.4-0.9c-2.1,0-3.5,0.3-4.1,0.8c-0.6,0.5-1,1.5-1,3c0,1.8,0.2,2.9,0.7,3.5c0.5,0.6,2,1.1,4.4,1.7
		c2.3,0.6,4,1.1,5.1,1.5c1.2,0.4,2.1,1,2.8,1.7c0.7,0.7,1.1,1.5,1.2,2.3C1412.6,90.6,1412.6,91.9,1412.6,93.5z"/>
</g>
<g id="XMLID_6_">
	<path id="XMLID_199_" class="st1" d="M184.3,567.7h9.8c6,0,9,2.7,9,8v11.9c0,5.3-3,8-9,8h-9.8V567.7z M187.9,571v21.5h6
		c2,0,3.5-0.4,4.3-1.2c0.8-0.8,1.2-2.1,1.2-3.8V576c0-1.7-0.4-3-1.2-3.8c-0.8-0.8-2.2-1.2-4.3-1.2H187.9z"/>
	<path id="XMLID_202_" class="st1" d="M225.1,588.4c0,2.3-0.7,4.2-2,5.6c-1.4,1.4-3.5,2.1-6.3,2.1c-2.8,0-4.9-0.7-6.3-2.1
		c-1.4-1.4-2-3.3-2-5.6v-5.9c0-2.3,0.7-4.2,2-5.6c1.4-1.4,3.5-2.1,6.3-2.1c2.8,0,4.9,0.7,6.3,2.1c1.4,1.4,2,3.3,2,5.6V588.4z
		 M221.6,582.4c0-3-1.6-4.5-4.8-4.5s-4.8,1.5-4.8,4.5v6.2c0,3,1.6,4.5,4.8,4.5s4.8-1.5,4.8-4.5V582.4z"/>
	<path id="XMLID_205_" class="st1" d="M247.1,595.7h-3.5v-15.6c0-1.3-0.7-1.9-2-1.9c-0.8,0-1.8,0.2-3.2,0.6
		c-1.4,0.4-2.6,0.9-3.7,1.4v15.5h-3.5v-20.5h2.9l0.3,1.8c3-1.5,5.8-2.2,8.2-2.2c3,0,4.5,1.7,4.5,5.2V595.7z"/>
	<path id="XMLID_207_" class="st1" d="M268.5,581.5v14.2h-3l-0.2-1.5c-1.8,1.3-4.1,1.9-6.6,1.9c-3.6,0-5.4-2-5.4-5.9
		c0-2.1,0.5-3.5,1.5-4.4c1-0.9,2.6-1.3,4.7-1.3h5.5v-3.2c0-1.3-0.3-2.2-1-2.7c-0.7-0.5-1.8-0.8-3.5-0.8c-2,0-4,0.2-6.1,0.7l-0.4-2.8
		c2.3-0.6,4.5-0.9,6.7-0.9c2.8,0,4.8,0.5,6,1.6C267.9,577.5,268.5,579.2,268.5,581.5z M265,591.4v-4h-5.2c-1.1,0-1.9,0.2-2.3,0.6
		c-0.4,0.4-0.7,1.1-0.7,2.1c0,1.1,0.2,1.9,0.5,2.3c0.4,0.4,1.1,0.6,2.4,0.6C261.5,593.1,263.2,592.5,265,591.4z"/>
	<path id="XMLID_210_" class="st1" d="M278.7,595.7h-3.5v-28.8l3.5-0.5V595.7z"/>
	<path id="XMLID_212_" class="st1" d="M285.1,589.9v-8.4c0-4.5,2.2-6.7,6.6-6.7c1.8,0,3.8,0.2,5.8,0.6v-8.6l3.5-0.5v29.3h-3
		l-0.3-1.8c-1.9,1.5-4.1,2.3-6.8,2.3C287,596.1,285.1,594,285.1,589.9z M297.5,590.6v-12c-2.1-0.4-4-0.6-5.6-0.6
		c-1.2,0-2,0.3-2.5,0.9c-0.5,0.6-0.8,1.5-0.8,2.7v8.4c0,1.1,0.2,1.9,0.7,2.4c0.4,0.5,1.3,0.8,2.5,0.8
		C293.8,593,295.7,592.2,297.5,590.6z"/>
	<path id="XMLID_215_" class="st1" d="M323.5,595.7V571h-8.4v-3.2h20.3v3.2h-8.4v24.7H323.5z"/>
	<path id="XMLID_217_" class="st1" d="M345.4,574.8l0.5,3.2c-1.7,0.8-3.6,2-5.8,3.5v14.1h-3.5v-20.5h3.1l0.2,2.9
		C341.5,576.8,343.4,575.7,345.4,574.8z"/>
	<path id="XMLID_219_" class="st1" d="M349.6,575.3h3.5v15.6c0,1.3,0.7,1.9,2,1.9c0.8,0,1.8-0.2,3.2-0.6c1.4-0.4,2.6-0.9,3.7-1.4
		v-15.5h3.5v20.5h-2.9l-0.3-1.8c-3,1.5-5.8,2.2-8.2,2.2c-3,0-4.5-1.7-4.5-5.2V575.3z"/>
	<path id="XMLID_221_" class="st1" d="M400.9,595.7h-3.5v-15.6c0-1.3-0.7-1.9-2-1.9c-0.8,0-1.9,0.2-3.2,0.6
		c-1.3,0.4-2.5,0.9-3.6,1.5v15.5H385v-15.6c0-1.3-0.7-1.9-2-1.9c-0.8,0-1.8,0.2-3.2,0.6c-1.4,0.4-2.6,0.9-3.7,1.4v15.5h-3.5v-20.5
		h2.9l0.3,1.8c3-1.5,5.8-2.2,8.2-2.2c2,0,3.3,0.7,3.9,2.2c3-1.5,5.8-2.2,8.4-2.2c3,0,4.5,1.7,4.5,5.2V595.7z"/>
	<path id="XMLID_223_" class="st1" d="M423.8,581.1v8.4c0,4.5-2.2,6.7-6.6,6.7c-1.8,0-3.8-0.2-5.8-0.6v8.5l-3.5,0.5v-29.2h3l0.3,1.8
		c1.9-1.5,4.1-2.3,6.8-2.3C421.8,574.8,423.8,576.9,423.8,581.1z M411.3,580.4v12c2.1,0.4,4,0.6,5.6,0.6c1.2,0,2-0.3,2.5-0.9
		c0.5-0.6,0.8-1.5,0.8-2.7v-8.4c0-1.1-0.2-1.9-0.7-2.4c-0.4-0.5-1.3-0.8-2.5-0.8C415.1,577.9,413.2,578.8,411.3,580.4z"/>
	<path id="XMLID_226_" class="st1" d="M190.4,612.3c1.6-0.3,4.1-0.6,6.7-0.6c3.7,0,6,0.6,7.8,2.1c1.5,1.1,2.4,2.8,2.4,5
		c0,2.7-1.8,5.1-4.8,6.2v0.1c2.7,0.7,5.8,2.9,5.8,7.1c0,2.4-1,4.3-2.4,5.7c-2,1.8-5.2,2.6-9.8,2.6c-2.5,0-4.5-0.2-5.7-0.3V612.3z
		 M194,623.9h3.3c3.9,0,6.1-2,6.1-4.7c0-3.3-2.5-4.6-6.2-4.6c-1.7,0-2.6,0.1-3.2,0.3V623.9z M194,637.4c0.7,0.1,1.8,0.2,3.1,0.2
		c3.8,0,7.3-1.4,7.3-5.5c0-3.9-3.3-5.5-7.3-5.5h-3V637.4z"/>
	<path id="XMLID_230_" class="st1" d="M230.4,634.7c0,2.1,0,3.9,0.2,5.5h-3.3l-0.2-3.3H227c-1,1.6-3.1,3.8-6.7,3.8
		c-3.2,0-7-1.8-7-8.9v-11.9h3.7v11.3c0,3.9,1.2,6.5,4.5,6.5c2.5,0,4.2-1.7,4.9-3.4c0.2-0.5,0.3-1.2,0.3-1.9v-12.5h3.7V634.7z"/>
	<path id="XMLID_232_" class="st1" d="M236.5,636.4c1.1,0.7,3,1.5,4.9,1.5c2.7,0,3.9-1.3,3.9-3c0-1.8-1-2.7-3.8-3.7
		c-3.7-1.3-5.4-3.3-5.4-5.8c0-3.3,2.6-6,7-6c2.1,0,3.9,0.6,5,1.3l-0.9,2.7c-0.8-0.5-2.3-1.2-4.2-1.2c-2.2,0-3.4,1.3-3.4,2.8
		c0,1.7,1.2,2.4,3.9,3.4c3.5,1.3,5.3,3.1,5.3,6.1c0,3.6-2.8,6.1-7.6,6.1c-2.2,0-4.3-0.5-5.7-1.4L236.5,636.4z"/>
	<path id="XMLID_234_" class="st1" d="M258.2,614.2c0,1.3-0.9,2.3-2.4,2.3c-1.3,0-2.2-1-2.2-2.3c0-1.3,1-2.3,2.3-2.3
		C257.3,611.8,258.2,612.8,258.2,614.2z M254,640.2v-20.3h3.7v20.3H254z"/>
	<path id="XMLID_237_" class="st1" d="M264.3,625.4c0-2.1,0-3.8-0.2-5.5h3.3l0.2,3.4h0.1c1-1.9,3.4-3.8,6.7-3.8
		c2.8,0,7.2,1.7,7.2,8.7v12.1h-3.7v-11.7c0-3.3-1.2-6-4.7-6c-2.4,0-4.3,1.7-5,3.8c-0.2,0.5-0.3,1.1-0.3,1.7v12.2h-3.7V625.4z"/>
	<path id="XMLID_239_" class="st1" d="M290.1,630.7c0.1,5,3.3,7.1,7,7.1c2.6,0,4.2-0.5,5.6-1l0.6,2.6c-1.3,0.6-3.5,1.3-6.8,1.3
		c-6.3,0-10-4.1-10-10.3c0-6.1,3.6-11,9.5-11c6.6,0,8.4,5.8,8.4,9.6c0,0.8-0.1,1.3-0.1,1.7H290.1z M300.9,628.1c0-2.4-1-6-5.1-6
		c-3.7,0-5.4,3.4-5.7,6H300.9z"/>
	<path id="XMLID_242_" class="st1" d="M309,636.4c1.1,0.7,3,1.5,4.9,1.5c2.7,0,3.9-1.3,3.9-3c0-1.8-1-2.7-3.8-3.7
		c-3.7-1.3-5.4-3.3-5.4-5.8c0-3.3,2.6-6,7-6c2.1,0,3.9,0.6,5,1.3l-0.9,2.7c-0.8-0.5-2.3-1.2-4.2-1.2c-2.2,0-3.4,1.3-3.4,2.8
		c0,1.7,1.2,2.4,3.9,3.4c3.5,1.3,5.3,3.1,5.3,6.1c0,3.6-2.8,6.1-7.6,6.1c-2.2,0-4.3-0.5-5.7-1.4L309,636.4z"/>
	<path id="XMLID_244_" class="st1" d="M326,636.4c1.1,0.7,3,1.5,4.9,1.5c2.7,0,3.9-1.3,3.9-3c0-1.8-1-2.7-3.8-3.7
		c-3.7-1.3-5.4-3.3-5.4-5.8c0-3.3,2.6-6,7-6c2.1,0,3.9,0.6,5,1.3l-0.9,2.7c-0.8-0.5-2.3-1.2-4.2-1.2c-2.2,0-3.4,1.3-3.4,2.8
		c0,1.7,1.2,2.4,3.9,3.4c3.5,1.3,5.3,3.1,5.3,6.1c0,3.6-2.8,6.1-7.6,6.1c-2.2,0-4.3-0.5-5.7-1.4L326,636.4z"/>
	<path id="XMLID_246_" class="st1" d="M343.6,625.4c0-2.1,0-3.8-0.2-5.5h3.2l0.2,3.3h0.1c1.1-1.9,3-3.7,6.4-3.7
		c2.8,0,4.9,1.7,5.8,4.1h0.1c0.6-1.1,1.4-2,2.3-2.6c1.2-0.9,2.6-1.4,4.5-1.4c2.7,0,6.7,1.8,6.7,8.8v12H369v-11.5
		c0-3.9-1.4-6.3-4.4-6.3c-2.1,0-3.7,1.6-4.4,3.4c-0.2,0.5-0.3,1.2-0.3,1.8v12.6h-3.6V628c0-3.2-1.4-5.6-4.2-5.6
		c-2.3,0-4,1.8-4.6,3.7c-0.2,0.5-0.3,1.2-0.3,1.8v12.3h-3.6V625.4z"/>
	<path id="XMLID_248_" class="st1" d="M390.3,640.2l-0.3-2.6h-0.1c-1.1,1.6-3.3,3-6.2,3c-4.1,0-6.2-2.9-6.2-5.8
		c0-4.9,4.4-7.6,12.2-7.6v-0.4c0-1.7-0.5-4.7-4.6-4.7c-1.9,0-3.9,0.6-5.3,1.5l-0.8-2.4c1.7-1.1,4.1-1.8,6.7-1.8
		c6.2,0,7.7,4.2,7.7,8.3v7.6c0,1.8,0.1,3.5,0.3,4.9H390.3z M389.7,629.8c-4-0.1-8.6,0.6-8.6,4.6c0,2.4,1.6,3.5,3.5,3.5
		c2.6,0,4.3-1.7,4.9-3.4c0.1-0.4,0.2-0.8,0.2-1.2V629.8z"/>
	<path id="XMLID_251_" class="st1" d="M399.7,625.4c0-2.1,0-3.8-0.2-5.5h3.3l0.2,3.4h0.1c1-1.9,3.4-3.8,6.7-3.8
		c2.8,0,7.2,1.7,7.2,8.7v12.1h-3.7v-11.7c0-3.3-1.2-6-4.7-6c-2.4,0-4.3,1.7-5,3.8c-0.2,0.5-0.3,1.1-0.3,1.7v12.2h-3.7V625.4z"/>
</g>
<g id="XMLID_5_">
	<path id="XMLID_158_" class="st1" d="M670.5,567.7h3.6v28.1c0,1.6-0.3,2.8-0.8,3.5c-0.5,0.8-2,2.3-4.5,4.6l-2.3-2.6
		c1.9-1.8,3.1-3,3.4-3.5c0.4-0.5,0.5-1.2,0.5-2.2V567.7z"/>
	<path id="XMLID_160_" class="st1" d="M697,588.4c0,2.3-0.7,4.2-2,5.6c-1.4,1.4-3.5,2.1-6.3,2.1c-2.8,0-4.9-0.7-6.3-2.1
		c-1.4-1.4-2-3.3-2-5.6v-5.9c0-2.3,0.7-4.2,2-5.6c1.4-1.4,3.5-2.1,6.3-2.1c2.8,0,4.9,0.7,6.3,2.1c1.4,1.4,2,3.3,2,5.6V588.4z
		 M693.5,582.4c0-3-1.6-4.5-4.8-4.5s-4.8,1.5-4.8,4.5v6.2c0,3,1.6,4.5,4.8,4.5s4.8-1.5,4.8-4.5V582.4z"/>
	<path id="XMLID_163_" class="st1" d="M717.6,581.5v14.2h-3l-0.2-1.5c-1.8,1.3-4.1,1.9-6.6,1.9c-3.6,0-5.4-2-5.4-5.9
		c0-2.1,0.5-3.5,1.5-4.4c1-0.9,2.6-1.3,4.7-1.3h5.5v-3.2c0-1.3-0.3-2.2-1-2.7c-0.7-0.5-1.8-0.8-3.5-0.8c-2,0-4,0.2-6.1,0.7l-0.4-2.8
		c2.3-0.6,4.5-0.9,6.7-0.9c2.8,0,4.8,0.5,6,1.6C717,577.5,717.6,579.2,717.6,581.5z M714.1,591.4v-4h-5.2c-1.1,0-1.9,0.2-2.3,0.6
		c-0.4,0.4-0.7,1.1-0.7,2.1c0,1.1,0.2,1.9,0.5,2.3c0.4,0.4,1.1,0.6,2.4,0.6C710.6,593.1,712.3,592.5,714.1,591.4z"/>
	<path id="XMLID_166_" class="st1" d="M740.1,595.7h-3.5v-15.6c0-1.3-0.7-1.9-2-1.9c-0.8,0-1.8,0.2-3.2,0.6
		c-1.4,0.4-2.6,0.9-3.7,1.4v15.5h-3.5v-20.5h2.9l0.3,1.8c3-1.5,5.8-2.2,8.2-2.2c3,0,4.5,1.7,4.5,5.2V595.7z"/>
	<path id="XMLID_168_" class="st1" d="M774.1,595.7l-7-10.1h-6.8v10.1h-3.6v-28h10.7c2.9,0,5,0.6,6.2,1.8c1.3,1.2,1.9,2.9,1.9,5.1v4
		c0,3.5-1.5,5.7-4.5,6.5l7.3,10.5H774.1z M771.9,574.7c0-1.4-0.3-2.3-1-2.9c-0.7-0.5-1.9-0.8-3.6-0.8h-6.9v11.4h6.9
		c1.7,0,2.9-0.3,3.6-0.8c0.7-0.5,1-1.5,1-2.9V574.7z"/>
	<path id="XMLID_171_" class="st1" d="M787,572h-3.5v-5.1h3.5V572z M787,595.7h-3.5v-20.5h3.5V595.7z"/>
	<path id="XMLID_174_" class="st1" d="M800.2,592.8l5.6-17.6h3.5l-6.8,20.5h-4.7l-6.8-20.5h3.5L800.2,592.8z"/>
	<path id="XMLID_176_" class="st1" d="M815.9,588.6c0,1.7,0.3,2.9,1,3.5c0.7,0.7,2,1,3.9,1c1.9,0,4-0.3,6.5-1l0.5,2.8
		c-2.1,0.8-4.5,1.2-7.2,1.2c-2.9,0-5-0.6-6.2-1.9c-1.3-1.3-1.9-3.2-1.9-5.6v-6.1c0-5.1,2.7-7.6,8-7.6c5.1,0,7.7,2.6,7.7,7.7v4.3
		h-12.2V588.6z M815.9,582.2v1.7h8.8v-1.7c0-1.5-0.3-2.6-0.9-3.4c-0.6-0.7-1.7-1.1-3.3-1.1s-2.7,0.4-3.4,1.1
		C816.3,579.6,815.9,580.7,815.9,582.2z"/>
	<path id="XMLID_179_" class="st1" d="M843,574.8l0.5,3.2c-1.7,0.8-3.6,2-5.8,3.5v14.1h-3.5v-20.5h3.1l0.2,2.9
		C839,576.8,840.9,575.7,843,574.8z"/>
	<path id="XMLID_181_" class="st1" d="M860.1,590.2c0,2.1-0.5,3.6-1.4,4.6c-1,0.9-2.8,1.4-5.6,1.4c-2.4,0-4.6-0.4-6.5-1.1l0.5-2.8
		c2,0.6,3.9,0.8,5.8,0.8c1.6,0,2.6-0.2,3.1-0.5c0.5-0.4,0.7-1.1,0.7-2.2c0-1.1-0.2-1.8-0.6-2.2c-0.4-0.3-1.6-0.8-3.7-1.3
		c-2.5-0.6-4-1.3-4.6-2.1c-0.6-0.8-0.9-2.3-0.9-4.5c0-1.9,0.5-3.3,1.6-4.2c1-0.9,2.9-1.3,5.5-1.3c2.1,0,4.1,0.2,5.8,0.7l-0.3,2.9
		c-2-0.4-3.9-0.6-5.7-0.6c-1.4,0-2.4,0.2-2.8,0.5c-0.4,0.4-0.7,1-0.7,2c0,1.2,0.2,2,0.5,2.4c0.3,0.4,1.3,0.8,3,1.2
		c1.5,0.4,2.7,0.7,3.5,1c0.8,0.3,1.4,0.7,1.9,1.2s0.7,1,0.8,1.6C860.1,588.3,860.1,589.1,860.1,590.2z"/>
	<path id="XMLID_183_" class="st1" d="M708.2,631.3l-2.9,8.9h-3.8l9.6-28.3h4.4l9.7,28.3h-3.9l-3-8.9H708.2z M717.5,628.4l-2.8-8.1
		c-0.6-1.8-1.1-3.5-1.5-5.2h-0.1c-0.4,1.7-0.9,3.4-1.4,5.1l-2.8,8.2H717.5z"/>
	<path id="XMLID_186_" class="st1" d="M743.6,639.4c-1,0.5-3.1,1.2-5.8,1.2c-6.1,0-10.1-4.2-10.1-10.4c0-6.3,4.3-10.8,10.9-10.8
		c2.2,0,4.1,0.5,5.1,1.1l-0.8,2.9c-0.9-0.5-2.3-1-4.3-1c-4.7,0-7.2,3.4-7.2,7.7c0,4.7,3,7.6,7.1,7.6c2.1,0,3.5-0.5,4.5-1
		L743.6,639.4z"/>
	<path id="XMLID_188_" class="st1" d="M753.3,614v5.8h5.3v2.8h-5.3v11c0,2.5,0.7,3.9,2.8,3.9c1,0,1.7-0.1,2.1-0.3l0.2,2.8
		c-0.7,0.3-1.8,0.5-3.3,0.5c-1.7,0-3.1-0.5-4-1.6c-1.1-1.1-1.4-2.9-1.4-5.3v-11.1h-3.2v-2.8h3.2V615L753.3,614z"/>
	<path id="XMLID_190_" class="st1" d="M763.2,626.2c0-2.4,0-4.5-0.2-6.3h3.2l0.1,4h0.2c0.9-2.7,3.2-4.5,5.6-4.5c0.4,0,0.7,0,1.1,0.1
		v3.5c-0.4-0.1-0.8-0.1-1.3-0.1c-2.6,0-4.5,2-5,4.7c-0.1,0.5-0.2,1.1-0.2,1.7v10.8h-3.7V626.2z"/>
	<path id="XMLID_192_" class="st1" d="M779,630.7c0.1,5,3.3,7.1,7,7.1c2.6,0,4.2-0.5,5.6-1l0.6,2.6c-1.3,0.6-3.5,1.3-6.8,1.3
		c-6.3,0-10-4.1-10-10.3c0-6.1,3.6-11,9.5-11c6.6,0,8.4,5.8,8.4,9.6c0,0.8-0.1,1.3-0.1,1.7H779z M789.8,628.1c0-2.4-1-6-5.1-6
		c-3.7,0-5.4,3.4-5.7,6H789.8z"/>
	<path id="XMLID_195_" class="st1" d="M797.9,636.4c1.1,0.7,3,1.5,4.9,1.5c2.7,0,3.9-1.3,3.9-3c0-1.8-1-2.7-3.8-3.7
		c-3.7-1.3-5.4-3.3-5.4-5.8c0-3.3,2.6-6,7-6c2.1,0,3.9,0.6,5,1.3l-0.9,2.7c-0.8-0.5-2.3-1.2-4.2-1.2c-2.2,0-3.4,1.3-3.4,2.8
		c0,1.7,1.2,2.4,3.9,3.4c3.5,1.3,5.3,3.1,5.3,6.1c0,3.6-2.8,6.1-7.6,6.1c-2.2,0-4.3-0.5-5.7-1.4L797.9,636.4z"/>
	<path id="XMLID_197_" class="st1" d="M814.9,636.4c1.1,0.7,3,1.5,4.9,1.5c2.7,0,3.9-1.3,3.9-3c0-1.8-1-2.7-3.8-3.7
		c-3.7-1.3-5.4-3.3-5.4-5.8c0-3.3,2.6-6,7-6c2.1,0,3.9,0.6,5,1.3l-0.9,2.7c-0.8-0.5-2.3-1.2-4.2-1.2c-2.2,0-3.4,1.3-3.4,2.8
		c0,1.7,1.2,2.4,3.9,3.4c3.5,1.3,5.3,3.1,5.3,6.1c0,3.6-2.8,6.1-7.6,6.1c-2.2,0-4.3-0.5-5.7-1.4L814.9,636.4z"/>
</g>
<g id="XMLID_4_">
	<path id="XMLID_94_" class="st1" d="M1072.8,595.7h-3.6v-28h16.6v3.2h-13v9.3h12.1v3.2h-12.1V595.7z"/>
	<path id="XMLID_96_" class="st1" d="M1100.2,574.8l0.5,3.2c-1.7,0.8-3.6,2-5.8,3.5v14.1h-3.5v-20.5h3.1l0.2,2.9
		C1096.3,576.8,1098.1,575.7,1100.2,574.8z"/>
	<path id="XMLID_98_" class="st1" d="M1119,581.5v14.2h-3l-0.2-1.5c-1.8,1.3-4.1,1.9-6.6,1.9c-3.6,0-5.4-2-5.4-5.9
		c0-2.1,0.5-3.5,1.5-4.4c1-0.9,2.6-1.3,4.7-1.3h5.5v-3.2c0-1.3-0.3-2.2-1-2.7c-0.7-0.5-1.8-0.8-3.5-0.8c-2,0-4,0.2-6.1,0.7l-0.4-2.8
		c2.3-0.6,4.5-0.9,6.7-0.9c2.8,0,4.8,0.5,6,1.6C1118.4,577.5,1119,579.2,1119,581.5z M1115.5,591.4v-4h-5.2c-1.1,0-1.9,0.2-2.3,0.6
		c-0.4,0.4-0.7,1.1-0.7,2.1c0,1.1,0.2,1.9,0.5,2.3c0.4,0.4,1.1,0.6,2.4,0.6C1112,593.1,1113.7,592.5,1115.5,591.4z"/>
	<path id="XMLID_101_" class="st1" d="M1141.5,595.7h-3.5v-15.6c0-1.3-0.7-1.9-2-1.9c-0.8,0-1.8,0.2-3.2,0.6
		c-1.4,0.4-2.6,0.9-3.7,1.4v15.5h-3.5v-20.5h2.9l0.3,1.8c3-1.5,5.8-2.2,8.2-2.2c3,0,4.5,1.7,4.5,5.2V595.7z"/>
	<path id="XMLID_103_" class="st1" d="M1152,595.7h-3.5v-28.8l3.5-0.5V595.7z M1160.1,575.3h4.1l-7.3,10.1l7.6,10.3h-4.2l-7.5-10.3
		L1160.1,575.3z"/>
	<path id="XMLID_106_" class="st1" d="M1194.8,567.7h3.6v20.1c0,2.5-0.8,4.5-2.4,6c-1.6,1.5-4.1,2.3-7.5,2.3c-3.4,0-5.9-0.8-7.5-2.3
		c-1.6-1.5-2.4-3.5-2.4-6v-20.1h3.6v19.9c0,3.5,2.1,5.3,6.3,5.3s6.3-1.7,6.3-5.3V567.7z"/>
	<path id="XMLID_108_" class="st1" d="M1221.5,595.7h-3.5v-15.6c0-1.3-0.7-1.9-2-1.9c-0.8,0-1.8,0.2-3.2,0.6
		c-1.4,0.4-2.6,0.9-3.7,1.4v15.5h-3.5v-20.5h2.9l0.3,1.8c3-1.5,5.8-2.2,8.2-2.2c3,0,4.5,1.7,4.5,5.2V595.7z"/>
	<path id="XMLID_110_" class="st1" d="M1227.7,589.9v-8.4c0-4.5,2.2-6.7,6.6-6.7c1.8,0,3.8,0.2,5.8,0.6v-8.6l3.5-0.5v29.3h-3
		l-0.3-1.8c-1.9,1.5-4.1,2.3-6.8,2.3C1229.6,596.1,1227.7,594,1227.7,589.9z M1240.1,590.6v-12c-2.1-0.4-4-0.6-5.6-0.6
		c-1.2,0-2,0.3-2.5,0.9c-0.5,0.6-0.8,1.5-0.8,2.7v8.4c0,1.1,0.2,1.9,0.7,2.4c0.4,0.5,1.3,0.8,2.5,0.8
		C1236.4,593,1238.3,592.2,1240.1,590.6z"/>
	<path id="XMLID_113_" class="st1" d="M1253.3,588.6c0,1.7,0.3,2.9,1,3.5c0.7,0.7,2,1,3.9,1c1.9,0,4-0.3,6.5-1l0.5,2.8
		c-2.1,0.8-4.5,1.2-7.2,1.2c-2.9,0-5-0.6-6.2-1.9s-1.9-3.2-1.9-5.6v-6.1c0-5.1,2.7-7.6,8-7.6c5.1,0,7.7,2.6,7.7,7.7v4.3h-12.2V588.6
		z M1253.3,582.2v1.7h8.8v-1.7c0-1.5-0.3-2.6-0.9-3.4c-0.6-0.7-1.7-1.1-3.3-1.1s-2.7,0.4-3.4,1.1
		C1253.6,579.6,1253.3,580.7,1253.3,582.2z"/>
	<path id="XMLID_116_" class="st1" d="M1280.3,574.8l0.5,3.2c-1.7,0.8-3.6,2-5.8,3.5v14.1h-3.5v-20.5h3.1l0.2,2.9
		C1276.4,576.8,1278.3,575.7,1280.3,574.8z"/>
	<path id="XMLID_118_" class="st1" d="M1306.4,595.7h-4.5l-5-17.3l-5,17.3h-4.5l-4.4-20.5h3.4l3.4,17l5-17h4.3l5,17l3.4-17h3.4
		L1306.4,595.7z"/>
	<path id="XMLID_120_" class="st1" d="M1330.8,588.4c0,2.3-0.7,4.2-2,5.6c-1.4,1.4-3.5,2.1-6.3,2.1s-4.9-0.7-6.3-2.1
		c-1.4-1.4-2-3.3-2-5.6v-5.9c0-2.3,0.7-4.2,2-5.6s3.5-2.1,6.3-2.1s4.9,0.7,6.3,2.1c1.4,1.4,2,3.3,2,5.6V588.4z M1327.3,582.4
		c0-3-1.6-4.5-4.8-4.5s-4.8,1.5-4.8,4.5v6.2c0,3,1.6,4.5,4.8,4.5s4.8-1.5,4.8-4.5V582.4z"/>
	<path id="XMLID_123_" class="st1" d="M1352.5,588.4c0,2.3-0.7,4.2-2,5.6c-1.4,1.4-3.5,2.1-6.3,2.1s-4.9-0.7-6.3-2.1
		c-1.4-1.4-2-3.3-2-5.6v-5.9c0-2.3,0.7-4.2,2-5.6s3.5-2.1,6.3-2.1s4.9,0.7,6.3,2.1c1.4,1.4,2,3.3,2,5.6V588.4z M1349,582.4
		c0-3-1.6-4.5-4.8-4.5s-4.8,1.5-4.8,4.5v6.2c0,3,1.6,4.5,4.8,4.5s4.8-1.5,4.8-4.5V582.4z"/>
	<path id="XMLID_126_" class="st1" d="M1357.8,589.9v-8.4c0-4.5,2.2-6.7,6.6-6.7c1.8,0,3.8,0.2,5.8,0.6v-8.6l3.5-0.5v29.3h-3
		l-0.3-1.8c-1.9,1.5-4.1,2.3-6.8,2.3C1359.8,596.1,1357.8,594,1357.8,589.9z M1370.3,590.6v-12c-2.1-0.4-4-0.6-5.6-0.6
		c-1.2,0-2,0.3-2.5,0.9c-0.5,0.6-0.8,1.5-0.8,2.7v8.4c0,1.1,0.2,1.9,0.7,2.4s1.3,0.8,2.5,0.8C1366.6,593,1368.5,592.2,1370.3,590.6z
		"/>
	<path id="XMLID_129_" class="st1" d="M1094.4,611.9v11.8h13.7v-11.8h3.7v28.3h-3.7v-13.3h-13.7v13.3h-3.7v-28.3H1094.4z"/>
	<path id="XMLID_131_" class="st1" d="M1136.8,629.9c0,7.5-5.2,10.8-10.1,10.8c-5.5,0-9.7-4-9.7-10.5c0-6.8,4.5-10.8,10.1-10.8
		C1132.8,619.4,1136.8,623.6,1136.8,629.9z M1120.7,630.1c0,4.5,2.6,7.8,6.2,7.8c3.5,0,6.2-3.3,6.2-7.9c0-3.4-1.7-7.8-6.1-7.8
		C1122.5,622.2,1120.7,626.2,1120.7,630.1z"/>
	<path id="XMLID_134_" class="st1" d="M1158.9,634.7c0,2.1,0,3.9,0.2,5.5h-3.3l-0.2-3.3h-0.1c-1,1.6-3.1,3.8-6.7,3.8
		c-3.2,0-7-1.8-7-8.9v-11.9h3.7v11.3c0,3.9,1.2,6.5,4.5,6.5c2.5,0,4.2-1.7,4.9-3.4c0.2-0.5,0.3-1.2,0.3-1.9v-12.5h3.7V634.7z"/>
	<path id="XMLID_136_" class="st1" d="M1164.9,636.4c1.1,0.7,3,1.5,4.9,1.5c2.7,0,3.9-1.3,3.9-3c0-1.8-1-2.7-3.8-3.7
		c-3.7-1.3-5.4-3.3-5.4-5.8c0-3.3,2.6-6,7-6c2.1,0,3.9,0.6,5,1.3l-0.9,2.7c-0.8-0.5-2.3-1.2-4.2-1.2c-2.2,0-3.4,1.3-3.4,2.8
		c0,1.7,1.2,2.4,3.9,3.4c3.5,1.3,5.3,3.1,5.3,6.1c0,3.6-2.8,6.1-7.6,6.1c-2.2,0-4.3-0.5-5.7-1.4L1164.9,636.4z"/>
	<path id="XMLID_138_" class="st1" d="M1184.5,630.7c0.1,5,3.3,7.1,7,7.1c2.6,0,4.2-0.5,5.6-1l0.6,2.6c-1.3,0.6-3.5,1.3-6.8,1.3
		c-6.3,0-10-4.1-10-10.3c0-6.1,3.6-11,9.5-11c6.6,0,8.4,5.8,8.4,9.6c0,0.8-0.1,1.3-0.1,1.7H1184.5z M1195.4,628.1c0-2.4-1-6-5.1-6
		c-3.7,0-5.4,3.4-5.7,6H1195.4z"/>
	<path id="XMLID_141_" class="st1" d="M1231.7,629.9c0,7.5-5.2,10.8-10.1,10.8c-5.5,0-9.7-4-9.7-10.5c0-6.8,4.5-10.8,10.1-10.8
		C1227.7,619.4,1231.7,623.6,1231.7,629.9z M1215.5,630.1c0,4.5,2.6,7.8,6.2,7.8c3.5,0,6.2-3.3,6.2-7.9c0-3.4-1.7-7.8-6.1-7.8
		C1217.4,622.2,1215.5,626.2,1215.5,630.1z"/>
	<path id="XMLID_144_" class="st1" d="M1237.1,640.2v-17.5h-2.9v-2.8h2.9v-1c0-2.9,0.6-5.5,2.4-7.1c1.4-1.3,3.2-1.9,5-1.9
		c1.3,0,2.4,0.3,3.2,0.6l-0.5,2.9c-0.5-0.3-1.3-0.5-2.4-0.5c-3.2,0-3.9,2.8-3.9,5.9v1.1h4.9v2.8h-4.9v17.5H1237.1z"/>
	<path id="XMLID_146_" class="st1" d="M1278.7,639.3c-1.3,0.7-4,1.3-7.5,1.3c-8,0-14-5-14-14.3c0-8.9,6-14.9,14.8-14.9
		c3.5,0,5.8,0.8,6.7,1.3l-0.9,3c-1.4-0.7-3.4-1.2-5.7-1.2c-6.6,0-11,4.2-11,11.7c0,6.9,4,11.4,10.9,11.4c2.2,0,4.5-0.5,6-1.2
		L1278.7,639.3z"/>
	<path id="XMLID_148_" class="st1" d="M1294.5,640.2l-0.3-2.6h-0.1c-1.1,1.6-3.3,3-6.2,3c-4.1,0-6.2-2.9-6.2-5.8
		c0-4.9,4.4-7.6,12.2-7.6v-0.4c0-1.7-0.5-4.7-4.6-4.7c-1.9,0-3.9,0.6-5.3,1.5l-0.8-2.4c1.7-1.1,4.1-1.8,6.7-1.8
		c6.2,0,7.7,4.2,7.7,8.3v7.6c0,1.8,0.1,3.5,0.3,4.9H1294.5z M1293.9,629.8c-4-0.1-8.6,0.6-8.6,4.6c0,2.4,1.6,3.5,3.5,3.5
		c2.6,0,4.3-1.7,4.9-3.4c0.1-0.4,0.2-0.8,0.2-1.2V629.8z"/>
	<path id="XMLID_151_" class="st1" d="M1303.9,626.2c0-2.4,0-4.5-0.2-6.3h3.2l0.1,4h0.2c0.9-2.7,3.2-4.5,5.6-4.5
		c0.4,0,0.7,0,1.1,0.1v3.5c-0.4-0.1-0.8-0.1-1.3-0.1c-2.6,0-4.5,2-5,4.7c-0.1,0.5-0.2,1.1-0.2,1.7v10.8h-3.7V626.2z"/>
	<path id="XMLID_153_" class="st1" d="M1335.2,610.4v24.6c0,1.8,0,3.9,0.2,5.3h-3.3l-0.2-3.5h-0.1c-1.1,2.3-3.6,4-6.9,4
		c-4.9,0-8.7-4.2-8.7-10.3c0-6.8,4.2-10.9,9.1-10.9c3.1,0,5.2,1.5,6.1,3.1h0.1v-12.1H1335.2z M1331.5,628.1c0-0.5,0-1.1-0.2-1.6
		c-0.5-2.4-2.6-4.3-5.3-4.3c-3.8,0-6.1,3.4-6.1,7.9c0,4.1,2,7.5,6,7.5c2.5,0,4.7-1.6,5.4-4.4c0.1-0.5,0.2-1,0.2-1.6V628.1z"/>
	<path id="XMLID_156_" class="st1" d="M1341.2,636.4c1.1,0.7,3,1.5,4.9,1.5c2.7,0,3.9-1.3,3.9-3c0-1.8-1-2.7-3.8-3.7
		c-3.7-1.3-5.4-3.3-5.4-5.8c0-3.3,2.6-6,7-6c2.1,0,3.9,0.6,5,1.3l-0.9,2.7c-0.8-0.5-2.3-1.2-4.2-1.2c-2.2,0-3.4,1.3-3.4,2.8
		c0,1.7,1.2,2.4,3.9,3.4c3.5,1.3,5.3,3.1,5.3,6.1c0,3.6-2.8,6.1-7.6,6.1c-2.2,0-4.3-0.5-5.7-1.4L1341.2,636.4z"/>
</g>
<g id="XMLID_3_">
	<path id="XMLID_45_" class="st1" d="M1605.8,592.1l-7.1-19.1l-0.5,22.7h-3.5l1-28h4.6l8.1,21.6l8.1-21.6h4.6l1,28h-3.5l-0.5-22.7
		l-7.1,19.1H1605.8z"/>
	<path id="XMLID_47_" class="st1" d="M1643,581.5v14.2h-3l-0.2-1.5c-1.8,1.3-4.1,1.9-6.6,1.9c-3.6,0-5.4-2-5.4-5.9
		c0-2.1,0.5-3.5,1.5-4.4c1-0.9,2.6-1.3,4.7-1.3h5.5v-3.2c0-1.3-0.3-2.2-1-2.7c-0.7-0.5-1.8-0.8-3.5-0.8c-2,0-4,0.2-6.1,0.7l-0.4-2.8
		c2.3-0.6,4.5-0.9,6.7-0.9c2.8,0,4.8,0.5,6,1.6S1643,579.2,1643,581.5z M1639.5,591.4v-4h-5.2c-1.1,0-1.9,0.2-2.3,0.6
		c-0.4,0.4-0.7,1.1-0.7,2.1c0,1.1,0.2,1.9,0.5,2.3s1.1,0.6,2.4,0.6C1636,593.1,1637.7,592.5,1639.5,591.4z"/>
	<path id="XMLID_50_" class="st1" d="M1658.5,574.8l0.5,3.2c-1.7,0.8-3.6,2-5.8,3.5v14.1h-3.5v-20.5h3.1l0.2,2.9
		C1654.6,576.8,1656.5,575.7,1658.5,574.8z"/>
	<path id="XMLID_52_" class="st1" d="M1666.5,595.7h-3.5v-28.8l3.5-0.5V595.7z M1674.6,575.3h4.1l-7.3,10.1l7.6,10.3h-4.2l-7.5-10.3
		L1674.6,575.3z"/>
	<path id="XMLID_55_" class="st1" d="M1696.4,575.8v11.9c0,2,0.4,3.3,1.3,4.1s2.5,1.1,4.8,1.1c2.2,0,4.3-0.2,6.6-0.6l0.4,3.1
		c-2.2,0.5-4.6,0.8-7.1,0.8c-3.3,0-5.8-0.7-7.3-2.1s-2.3-3.4-2.3-6.2v-12.3c0-2.7,0.8-4.8,2.3-6.2c1.5-1.4,4-2.1,7.3-2.1
		c2.5,0,4.8,0.3,7.1,0.8l-0.4,3.1c-2.2-0.4-4.4-0.6-6.6-0.6c-2.3,0-3.9,0.4-4.8,1.1C1696.8,572.4,1696.4,573.8,1696.4,575.8z"/>
	<path id="XMLID_57_" class="st1" d="M1714.7,575.3h3.5v15.6c0,1.3,0.7,1.9,2,1.9c0.8,0,1.8-0.2,3.2-0.6c1.4-0.4,2.6-0.9,3.7-1.4
		v-15.5h3.5v20.5h-2.9l-0.3-1.8c-3,1.5-5.8,2.2-8.2,2.2c-3,0-4.5-1.7-4.5-5.2V575.3z"/>
	<path id="XMLID_59_" class="st1" d="M1753.7,581.2v7.3c0,2.5-0.6,4.5-1.9,5.7c-1.2,1.3-3.5,1.9-6.8,1.9c-2.6,0-5-0.3-7.3-0.8v-28.4
		l3.5-0.5v9.9c1.8-1,3.9-1.4,6.5-1.4C1751.7,574.8,1753.7,577,1753.7,581.2z M1741.2,579.5v13.2c1.3,0.2,2.6,0.3,4,0.3
		c1.9,0,3.2-0.4,3.9-1.1s1-1.8,1-3.3v-7.5c0-1.1-0.3-1.9-0.8-2.4c-0.5-0.5-1.4-0.8-2.5-0.8C1745.2,577.9,1743.3,578.5,1741.2,579.5z
		"/>
	<path id="XMLID_62_" class="st1" d="M1774.4,581.5v14.2h-3l-0.2-1.5c-1.8,1.3-4.1,1.9-6.6,1.9c-3.6,0-5.4-2-5.4-5.9
		c0-2.1,0.5-3.5,1.5-4.4c1-0.9,2.6-1.3,4.7-1.3h5.5v-3.2c0-1.3-0.3-2.2-1-2.7c-0.7-0.5-1.8-0.8-3.5-0.8c-2,0-4,0.2-6.1,0.7l-0.4-2.8
		c2.3-0.6,4.5-0.9,6.7-0.9c2.8,0,4.8,0.5,6,1.6S1774.4,579.2,1774.4,581.5z M1770.9,591.4v-4h-5.2c-1.1,0-1.9,0.2-2.3,0.6
		c-0.4,0.4-0.7,1.1-0.7,2.1c0,1.1,0.2,1.9,0.5,2.3s1.1,0.6,2.4,0.6C1767.4,593.1,1769.1,592.5,1770.9,591.4z"/>
	<path id="XMLID_65_" class="st1" d="M1796.9,595.7h-3.5v-15.6c0-1.3-0.7-1.9-2-1.9c-0.8,0-1.8,0.2-3.2,0.6
		c-1.4,0.4-2.6,0.9-3.7,1.4v15.5h-3.5v-20.5h2.9l0.3,1.8c3-1.5,5.8-2.2,8.2-2.2c3,0,4.5,1.7,4.5,5.2V595.7z"/>
	<path id="XMLID_67_" class="st1" d="M1582.5,612.3c1.6-0.3,4.1-0.6,6.7-0.6c3.7,0,6,0.6,7.8,2.1c1.5,1.1,2.4,2.8,2.4,5
		c0,2.7-1.8,5.1-4.8,6.2v0.1c2.7,0.7,5.8,2.9,5.8,7.1c0,2.4-1,4.3-2.4,5.7c-2,1.8-5.2,2.6-9.8,2.6c-2.5,0-4.5-0.2-5.7-0.3V612.3z
		 M1586.2,623.9h3.3c3.9,0,6.1-2,6.1-4.7c0-3.3-2.5-4.6-6.2-4.6c-1.7,0-2.6,0.1-3.2,0.3V623.9z M1586.2,637.4
		c0.7,0.1,1.8,0.2,3.1,0.2c3.8,0,7.3-1.4,7.3-5.5c0-3.9-3.3-5.5-7.3-5.5h-3V637.4z"/>
	<path id="XMLID_71_" class="st1" d="M1622.6,634.7c0,2.1,0,3.9,0.2,5.5h-3.3l-0.2-3.3h-0.1c-1,1.6-3.1,3.8-6.7,3.8
		c-3.2,0-7-1.8-7-8.9v-11.9h3.7v11.3c0,3.9,1.2,6.5,4.5,6.5c2.5,0,4.2-1.7,4.9-3.4c0.2-0.5,0.3-1.2,0.3-1.9v-12.5h3.7V634.7z"/>
	<path id="XMLID_73_" class="st1" d="M1628.7,636.4c1.1,0.7,3,1.5,4.9,1.5c2.7,0,3.9-1.3,3.9-3c0-1.8-1-2.7-3.8-3.7
		c-3.7-1.3-5.4-3.3-5.4-5.8c0-3.3,2.6-6,7-6c2.1,0,3.9,0.6,5,1.3l-0.9,2.7c-0.8-0.5-2.3-1.2-4.2-1.2c-2.2,0-3.4,1.3-3.4,2.8
		c0,1.7,1.2,2.4,3.9,3.4c3.5,1.3,5.3,3.1,5.3,6.1c0,3.6-2.8,6.1-7.6,6.1c-2.2,0-4.3-0.5-5.7-1.4L1628.7,636.4z"/>
	<path id="XMLID_75_" class="st1" d="M1650.3,614.2c0,1.3-0.9,2.3-2.4,2.3c-1.3,0-2.2-1-2.2-2.3c0-1.3,1-2.3,2.3-2.3
		C1649.5,611.8,1650.3,612.8,1650.3,614.2z M1646.2,640.2v-20.3h3.7v20.3H1646.2z"/>
	<path id="XMLID_78_" class="st1" d="M1656.5,625.4c0-2.1,0-3.8-0.2-5.5h3.3l0.2,3.4h0.1c1-1.9,3.4-3.8,6.7-3.8
		c2.8,0,7.2,1.7,7.2,8.7v12.1h-3.7v-11.7c0-3.3-1.2-6-4.7-6c-2.4,0-4.3,1.7-5,3.8c-0.2,0.5-0.3,1.1-0.3,1.7v12.2h-3.7V625.4z"/>
	<path id="XMLID_80_" class="st1" d="M1682.3,630.7c0.1,5,3.3,7.1,7,7.1c2.6,0,4.2-0.5,5.6-1l0.6,2.6c-1.3,0.6-3.5,1.3-6.8,1.3
		c-6.3,0-10-4.1-10-10.3c0-6.1,3.6-11,9.5-11c6.6,0,8.4,5.8,8.4,9.6c0,0.8-0.1,1.3-0.1,1.7H1682.3z M1693.1,628.1c0-2.4-1-6-5.1-6
		c-3.7,0-5.4,3.4-5.7,6H1693.1z"/>
	<path id="XMLID_83_" class="st1" d="M1701.2,636.4c1.1,0.7,3,1.5,4.9,1.5c2.7,0,3.9-1.3,3.9-3c0-1.8-1-2.7-3.8-3.7
		c-3.7-1.3-5.4-3.3-5.4-5.8c0-3.3,2.6-6,7-6c2.1,0,3.9,0.6,5,1.3l-0.9,2.7c-0.8-0.5-2.3-1.2-4.2-1.2c-2.2,0-3.4,1.3-3.4,2.8
		c0,1.7,1.2,2.4,3.9,3.4c3.5,1.3,5.3,3.1,5.3,6.1c0,3.6-2.8,6.1-7.6,6.1c-2.2,0-4.3-0.5-5.7-1.4L1701.2,636.4z"/>
	<path id="XMLID_85_" class="st1" d="M1718.2,636.4c1.1,0.7,3,1.5,4.9,1.5c2.7,0,3.9-1.3,3.9-3c0-1.8-1-2.7-3.8-3.7
		c-3.7-1.3-5.4-3.3-5.4-5.8c0-3.3,2.6-6,7-6c2.1,0,3.9,0.6,5,1.3l-0.9,2.7c-0.8-0.5-2.3-1.2-4.2-1.2c-2.2,0-3.4,1.3-3.4,2.8
		c0,1.7,1.2,2.4,3.9,3.4c3.5,1.3,5.3,3.1,5.3,6.1c0,3.6-2.8,6.1-7.6,6.1c-2.2,0-4.3-0.5-5.7-1.4L1718.2,636.4z"/>
	<path id="XMLID_87_" class="st1" d="M1735.8,625.4c0-2.1,0-3.8-0.2-5.5h3.2l0.2,3.3h0.1c1.1-1.9,3-3.7,6.4-3.7
		c2.8,0,4.9,1.7,5.8,4.1h0.1c0.6-1.1,1.4-2,2.3-2.6c1.2-0.9,2.6-1.4,4.5-1.4c2.7,0,6.7,1.8,6.7,8.8v12h-3.6v-11.5
		c0-3.9-1.4-6.3-4.4-6.3c-2.1,0-3.7,1.6-4.4,3.4c-0.2,0.5-0.3,1.2-0.3,1.8v12.6h-3.6V628c0-3.2-1.4-5.6-4.2-5.6
		c-2.3,0-4,1.8-4.6,3.7c-0.2,0.5-0.3,1.2-0.3,1.8v12.3h-3.6V625.4z"/>
	<path id="XMLID_89_" class="st1" d="M1782.5,640.2l-0.3-2.6h-0.1c-1.1,1.6-3.3,3-6.2,3c-4.1,0-6.2-2.9-6.2-5.8
		c0-4.9,4.4-7.6,12.2-7.6v-0.4c0-1.7-0.5-4.7-4.6-4.7c-1.9,0-3.9,0.6-5.3,1.5l-0.8-2.4c1.7-1.1,4.1-1.8,6.7-1.8
		c6.2,0,7.7,4.2,7.7,8.3v7.6c0,1.8,0.1,3.5,0.3,4.9H1782.5z M1781.9,629.8c-4-0.1-8.6,0.6-8.6,4.6c0,2.4,1.6,3.5,3.5,3.5
		c2.6,0,4.3-1.7,4.9-3.4c0.1-0.4,0.2-0.8,0.2-1.2V629.8z"/>
	<path id="XMLID_92_" class="st1" d="M1791.9,625.4c0-2.1,0-3.8-0.2-5.5h3.3l0.2,3.4h0.1c1-1.9,3.4-3.8,6.7-3.8
		c2.8,0,7.2,1.7,7.2,8.7v12.1h-3.7v-11.7c0-3.3-1.2-6-4.7-6c-2.4,0-4.3,1.7-5,3.8c-0.2,0.5-0.3,1.1-0.3,1.7v12.2h-3.7V625.4z"/>
</g>
<g id="XMLID_2_">
	<path id="XMLID_8_" class="st1" d="M2061.3,567.7h3.6v28.1c0,1.6-0.3,2.8-0.8,3.5c-0.5,0.8-2,2.3-4.5,4.6l-2.3-2.6
		c1.9-1.8,3.1-3,3.4-3.5c0.3-0.5,0.5-1.2,0.5-2.2V567.7z"/>
	<path id="XMLID_11_" class="st1" d="M2086.7,581.5v14.2h-3l-0.2-1.5c-1.8,1.3-4.1,1.9-6.6,1.9c-3.6,0-5.4-2-5.4-5.9
		c0-2.1,0.5-3.5,1.5-4.4c1-0.9,2.6-1.3,4.7-1.3h5.5v-3.2c0-1.3-0.3-2.2-1-2.7c-0.7-0.5-1.8-0.8-3.5-0.8c-2,0-4,0.2-6.1,0.7l-0.4-2.8
		c2.3-0.6,4.5-0.9,6.7-0.9c2.8,0,4.8,0.5,6,1.6S2086.7,579.2,2086.7,581.5z M2083.2,591.4v-4h-5.2c-1.1,0-1.9,0.2-2.3,0.6
		c-0.4,0.4-0.7,1.1-0.7,2.1c0,1.1,0.2,1.9,0.5,2.3s1.1,0.6,2.4,0.6C2079.7,593.1,2081.5,592.5,2083.2,591.4z"/>
	<path id="XMLID_18_" class="st1" d="M2121.6,595.7h-3.5v-15.6c0-1.3-0.7-1.9-2-1.9c-0.8,0-1.9,0.2-3.2,0.6
		c-1.3,0.4-2.5,0.9-3.6,1.5v15.5h-3.5v-15.6c0-1.3-0.7-1.9-2-1.9c-0.8,0-1.8,0.2-3.2,0.6c-1.4,0.4-2.6,0.9-3.7,1.4v15.5h-3.5v-20.5
		h2.9l0.3,1.8c3-1.5,5.8-2.2,8.2-2.2c2,0,3.3,0.7,3.9,2.2c3-1.5,5.8-2.2,8.4-2.2c3,0,4.5,1.7,4.5,5.2V595.7z"/>
	<path id="XMLID_20_" class="st1" d="M2131,588.6c0,1.7,0.3,2.9,1,3.5c0.7,0.7,2,1,3.9,1c1.9,0,4-0.3,6.5-1l0.5,2.8
		c-2.1,0.8-4.5,1.2-7.2,1.2c-2.9,0-5-0.6-6.2-1.9s-1.9-3.2-1.9-5.6v-6.1c0-5.1,2.7-7.6,8-7.6c5.1,0,7.7,2.6,7.7,7.7v4.3H2131V588.6z
		 M2131,582.2v1.7h8.8v-1.7c0-1.5-0.3-2.6-0.9-3.4c-0.6-0.7-1.7-1.1-3.3-1.1s-2.7,0.4-3.4,1.1C2131.3,579.6,2131,580.7,2131,582.2z"
		/>
	<path id="XMLID_23_" class="st1" d="M2161.9,590.2c0,2.1-0.5,3.6-1.4,4.6c-1,0.9-2.8,1.4-5.6,1.4c-2.4,0-4.6-0.4-6.5-1.1l0.5-2.8
		c2,0.6,3.9,0.8,5.8,0.8c1.6,0,2.6-0.2,3.1-0.5c0.5-0.4,0.7-1.1,0.7-2.2c0-1.1-0.2-1.8-0.6-2.2c-0.4-0.3-1.6-0.8-3.7-1.3
		c-2.5-0.6-4-1.3-4.6-2.1c-0.6-0.8-0.9-2.3-0.9-4.5c0-1.9,0.5-3.3,1.6-4.2c1-0.9,2.9-1.3,5.5-1.3c2.1,0,4.1,0.2,5.8,0.7l-0.3,2.9
		c-2-0.4-3.9-0.6-5.7-0.6c-1.4,0-2.4,0.2-2.8,0.5c-0.4,0.4-0.7,1-0.7,2c0,1.2,0.2,2,0.5,2.4s1.3,0.8,3,1.2c1.5,0.4,2.7,0.7,3.5,1
		c0.8,0.3,1.4,0.7,1.9,1.2s0.7,1,0.8,1.6C2161.8,588.3,2161.9,589.1,2161.9,590.2z"/>
	<path id="XMLID_25_" class="st1" d="M2189,595.7h-11.4v-28h10.8c4.4,0,6.6,1.9,6.6,5.7v3.2c0,2.3-1.1,3.9-3.2,4.7
		c1.3,0.2,2.3,0.8,3,1.6c0.7,0.9,1.1,2,1.1,3.4v3.4c0,1.9-0.6,3.4-1.9,4.5S2191.2,595.7,2189,595.7z M2191.4,576.6v-3.1
		c0-1.8-1.1-2.6-3.2-2.6h-7v9.1h6.4C2190.2,579.9,2191.4,578.8,2191.4,576.6z M2192.4,589.4v-2.9c0-2.3-1.3-3.4-4-3.4h-7.1v9.6h7.3
		C2191.1,592.6,2192.4,591.5,2192.4,589.4z"/>
	<path id="XMLID_29_" class="st1" d="M2217.4,588.4c0,2.3-0.7,4.2-2,5.6c-1.4,1.4-3.5,2.1-6.3,2.1s-4.9-0.7-6.3-2.1
		c-1.4-1.4-2-3.3-2-5.6v-5.9c0-2.3,0.7-4.2,2-5.6s3.5-2.1,6.3-2.1s4.9,0.7,6.3,2.1c1.4,1.4,2,3.3,2,5.6V588.4z M2213.9,582.4
		c0-3-1.6-4.5-4.8-4.5s-4.8,1.5-4.8,4.5v6.2c0,3,1.6,4.5,4.8,4.5s4.8-1.5,4.8-4.5V582.4z"/>
	<path id="XMLID_32_" class="st1" d="M2239.4,595.7h-3.5v-15.6c0-1.3-0.7-1.9-2-1.9c-0.8,0-1.8,0.2-3.2,0.6
		c-1.4,0.4-2.6,0.9-3.7,1.4v15.5h-3.5v-20.5h2.9l0.3,1.8c3-1.5,5.8-2.2,8.2-2.2c3,0,4.5,1.7,4.5,5.2V595.7z"/>
	<path id="XMLID_34_" class="st1" d="M2245.6,589.9v-8.4c0-4.5,2.2-6.7,6.6-6.7c1.8,0,3.8,0.2,5.8,0.6v-8.6l3.5-0.5v29.3h-3
		l-0.3-1.8c-1.9,1.5-4.1,2.3-6.8,2.3C2247.6,596.1,2245.6,594,2245.6,589.9z M2258,590.6v-12c-2.1-0.4-4-0.6-5.6-0.6
		c-1.2,0-2,0.3-2.5,0.9c-0.5,0.6-0.8,1.5-0.8,2.7v8.4c0,1.1,0.2,1.9,0.7,2.4s1.3,0.8,2.5,0.8C2254.3,593,2256.2,592.2,2258,590.6z"
		/>
	<path id="XMLID_37_" class="st1" d="M2148.6,626.2c0,9.3-3.4,14.4-9.5,14.4c-5.3,0-8.9-5-9-14c0-9.2,3.9-14.2,9.5-14.2
		C2145.3,612.4,2148.6,617.6,2148.6,626.2z M2133.8,626.7c0,7.1,2.2,11.1,5.5,11.1c3.8,0,5.6-4.4,5.6-11.4c0-6.7-1.7-11.1-5.5-11.1
		C2136.1,615.3,2133.8,619.2,2133.8,626.7z"/>
	<path id="XMLID_40_" class="st1" d="M2170.6,626.2c0,9.3-3.4,14.4-9.5,14.4c-5.3,0-8.9-5-9-14c0-9.2,3.9-14.2,9.5-14.2
		C2167.3,612.4,2170.6,617.6,2170.6,626.2z M2155.8,626.7c0,7.1,2.2,11.1,5.5,11.1c3.8,0,5.6-4.4,5.6-11.4c0-6.7-1.7-11.1-5.5-11.1
		C2158.1,615.3,2155.8,619.2,2155.8,626.7z"/>
	<path id="XMLID_43_" class="st1" d="M2192.1,612.9v2.4l-11.9,24.9h-3.8l11.8-24.2V616h-13.4v-3.1H2192.1z"/>
</g>
</svg>
